<svg width="35" height="35" viewBox="0 0 35 35" fill="none" xmlns="http://www.w3.org/2000/svg">
<path d="M25.1821 17.9886C25.2119 15.6841 26.4216 13.5554 28.3876 12.3484C27.1417 10.5715 25.1297 9.48526 22.9587 9.41743C20.6745 9.17799 18.4601 10.7824 17.2961 10.7824C16.1096 10.7824 14.3175 9.4412 12.3877 9.48085C9.84857 9.56277 7.53877 10.9695 6.30343 13.1864C3.67273 17.7349 5.635 24.4197 8.155 28.0963C9.4158 29.8966 10.8893 31.9077 12.8174 31.8364C14.7041 31.7583 15.4088 30.6349 17.6862 30.6349C19.9425 30.6349 20.6037 31.8364 22.5709 31.7911C24.5955 31.7583 25.871 29.9827 27.0876 28.1653C27.9935 26.8825 28.6905 25.4647 29.153 23.9645C26.7484 22.9488 25.185 20.5959 25.1821 17.9886Z" fill="#4B4B4B"/>
<path d="M21.4664 6.99948C22.5703 5.67611 23.1142 3.97515 22.9825 2.25781C21.296 2.4347 19.7381 3.23964 18.6194 4.51223C17.5146 5.76782 16.9549 7.41045 17.0636 9.07835C18.7727 9.09592 20.3954 8.32971 21.4664 6.99948Z" fill="#4B4B4B"/>
</svg>
