<svg width="531" height="531" viewBox="0 0 531 531" fill="none" xmlns="http://www.w3.org/2000/svg">
<g clip-path="url(#clip0_2001_5940)">
<g clip-path="url(#clip1_2001_5940)">
<g clip-path="url(#clip2_2001_5940)">
<mask id="mask0_2001_5940" style="mask-type:luminance" maskUnits="userSpaceOnUse" x="0" y="0" width="531" height="531">
<path d="M530.37 0.859863H0.369629V530.86H530.37V0.859863Z" fill="white"/>
</mask>
<g mask="url(#mask0_2001_5940)">
<path d="M274.694 425.473C274.526 421.277 239.728 425.841 239.728 425.841C239.728 425.841 100.015 456.941 100.481 465.775C100.665 469.272 102.037 469.826 105.695 472.891C109.866 476.388 116.062 482.583 122.319 480.866C128.576 479.148 250.893 448.047 263.039 444.735C270.679 442.651 272.915 440.686 273.634 435.194C274.005 432.361 274.755 427.007 274.694 425.473Z" fill="#FF9700"/>
<path d="M206.305 304.154L273.779 422.188C275.83 425.971 274.878 432.037 268.124 433.836L111.955 473.241C105.756 474.915 100.823 470.083 100.405 465.379L97.2578 326.992C96.8848 322.298 98.9854 317.572 103.394 316.817L196.13 298.018C200.936 297.685 203.89 299.917 206.305 304.154Z" fill="#FFB34A"/>
<path d="M202.787 307.974L266.642 418.503C268.559 422.038 264.995 426.969 260.785 428.012L115.365 464.721C110.418 465.96 105.02 463.26 104.629 458.864L101.688 328.399C101.339 324.013 103.302 319.596 107.422 318.89L193.279 302.24C197.77 301.929 200.53 304.015 202.787 307.974Z" fill="white"/>
<path d="M248.699 402.071L254.22 411.423C256.23 415.168 253.027 418.116 249.504 419.009L118.113 452.413C114.59 453.306 110.664 451.912 110.499 447.753L110.193 436.561C110.173 433.202 112.06 431.033 115.583 430.14L240.78 398.761C244.303 397.868 246.722 399.158 248.699 402.071Z" fill="#88E92D"/>
<path d="M158.563 325.016C158.563 328.093 156.064 330.591 152.987 330.591H147.033C143.956 330.591 141.458 328.093 141.458 325.016C141.458 321.939 143.956 319.441 147.033 319.441H152.987C156.064 319.441 158.563 321.939 158.563 325.016Z" fill="#A05A39"/>
<path d="M133.972 303.588C136.782 299.858 142.092 299.112 145.822 301.922L159.612 312.313C163.341 315.124 164.088 320.434 161.277 324.164C158.467 327.894 153.156 328.64 149.426 325.83L135.637 315.438C131.907 312.628 131.161 307.318 133.972 303.588Z" fill="#A05A39"/>
<path d="M168.46 300.439C169.748 304.931 167.151 309.618 162.658 310.906L142.617 316.617C138.125 317.905 133.439 315.307 132.151 310.815C130.863 306.323 133.46 301.636 137.952 300.348L157.994 294.638C162.486 293.349 167.172 295.947 168.46 300.439Z" fill="#B06C4C"/>
<path d="M168.46 300.439C169.748 304.931 167.396 309.802 162.904 311.09L142.863 316.801C138.37 318.089 133.439 315.307 132.151 310.815C134.587 311.867 136.65 312.433 141.142 311.145L161.183 305.434C165.676 304.146 167.466 303.586 168.46 300.439Z" fill="#A05A39"/>
<path d="M197.154 384.169L197.636 391.062C197.8 393.41 196.027 395.45 193.679 395.614C191.33 395.779 189.29 394.005 189.126 391.657L188.644 384.764C188.48 382.416 190.253 380.376 192.602 380.212C194.95 380.048 196.99 381.821 197.154 384.169Z" fill="#FF4B4B"/>
<path d="M199.758 369.973L200.428 375.328C201.129 380.934 197.147 386.056 191.54 386.757C185.934 387.458 180.813 383.476 180.111 377.869L179.442 372.514C178.74 366.908 182.723 361.786 188.329 361.085C193.935 360.384 199.057 364.366 199.758 369.973Z" fill="#4CC5FF"/>
<path d="M183.066 307.405C192.074 307.405 199.388 314.719 199.388 323.727C199.388 332.734 192.074 340.048 183.066 340.048C174.059 340.048 166.745 332.734 166.745 323.727C166.745 314.719 174.059 307.405 183.066 307.405Z" fill="#1CB0F6"/>
<path d="M198.874 320.7C198.383 313.83 165.688 320.455 167.405 327.571C169.123 334.686 179.554 370.194 181.453 376.522C182.741 380.816 187.998 381.521 191.697 380.816C195.561 380.08 199.671 377.258 199.61 371.185C199.548 365.046 199.365 327.571 198.874 320.7Z" fill="#1CB0F6"/>
<path d="M140.001 376.541L133.689 379.351C131.539 380.309 129.015 379.34 128.058 377.19C127.1 375.039 128.069 372.516 130.219 371.558L136.532 368.748C138.682 367.79 141.206 368.759 142.163 370.909C143.121 373.06 142.152 375.583 140.001 376.541Z" fill="#FF4B4B"/>
<path d="M151.521 368.527L148.436 372.955C145.205 377.59 138.819 378.731 134.184 375.501C129.548 372.271 128.407 365.885 131.637 361.249L134.723 356.821C137.953 352.185 144.339 351.044 148.975 354.275C153.61 357.505 154.752 363.891 151.521 368.527Z" fill="#4CC5FF"/>
<path d="M180.983 310.861C187.677 316.889 188.218 327.217 182.191 333.911C176.163 340.605 165.834 341.147 159.14 335.119C152.446 329.092 151.905 318.763 157.932 312.069C163.96 305.375 174.289 304.834 180.983 310.861Z" fill="#1CB0F6"/>
<path d="M183.834 331.319C188.066 325.885 159.336 308.93 155.851 315.368C152.366 321.805 136.359 355.172 133.535 361.145C131.619 365.198 135.054 369.24 138.275 371.191C141.64 373.23 146.582 373.883 150.6 369.329C154.662 364.726 179.601 336.753 183.834 331.319Z" fill="#1CB0F6"/>
<path d="M176.622 306.165C189.072 306.165 199.164 310.859 199.164 323.308C199.164 335.758 189.072 344.623 176.622 344.623C164.173 344.623 154.081 335.758 154.081 323.308C154.081 310.859 164.173 306.165 176.622 306.165Z" fill="#1CB0F6"/>
<path d="M176.889 302.279C188.122 302.279 195.221 300.949 195.022 306.67C194.58 319.351 185.915 327.012 174.68 327.012C163.446 327.012 154.155 321.743 153.972 307.1C153.9 301.377 165.654 302.279 176.889 302.279Z" fill="#FF4B4B"/>
<path d="M165.483 317.817L165.309 327.77H160.471L160.645 317.817H165.483Z" fill="#1CB0F6"/>
<path d="M183.317 319.78L182.271 329.733H177.433L178.479 319.78H183.317Z" fill="#1CB0F6"/>
<path d="M196.019 304.349C197.141 311.799 189.243 320.517 184.004 320.921L173.495 321.757C164.768 321.866 152.683 317.511 152.847 309.263C152.98 302.604 157.958 295.918 166.242 294.899L179.941 292.836C187.868 291.642 194.897 296.898 196.019 304.349Z" fill="#FDB02A"/>
<path d="M188.078 283.649L160.596 292.483L161.21 298.985L188.691 296.408L188.078 283.649Z" fill="#FDB02A"/>
<path d="M178.707 206.424L195.757 210.249C201.263 211.484 204.731 216.958 203.496 222.464L200.009 238.003C198.774 243.509 193.3 246.977 187.794 245.742L170.744 241.917C165.237 240.681 161.77 235.207 163.005 229.701L166.491 214.162C167.726 208.656 173.2 205.188 178.707 206.424Z" fill="#3D3D3D"/>
<path d="M125.314 227.029L142.365 230.855C147.871 232.09 151.339 237.564 150.103 243.07L146.617 258.609C145.382 264.115 139.908 267.583 134.402 266.348L117.352 262.522C111.845 261.287 108.378 255.813 109.613 250.307L113.099 234.768C114.334 229.262 119.808 225.794 125.314 227.029Z" fill="#3D3D3D"/>
<path d="M167.521 205.093L179.988 233.522C182.255 238.69 179.899 244.726 174.731 246.992L148.229 258.616C143.061 260.882 137.025 258.526 134.758 253.358L122.29 224.93C120.024 219.762 122.38 213.726 127.548 211.459L154.05 199.836C159.218 197.57 165.254 199.925 167.521 205.093Z" fill="#3D3D3D"/>
<path d="M167.486 234.193C164.557 235.103 167.01 235.06 163.72 236.344C160.429 237.629 137.32 287.999 138.81 292.548C140.949 299.075 147.885 299.261 152.774 298.194C155.623 297.573 186.6 288.83 190.988 287.159C195.376 285.487 206.077 279.901 204.485 273.058C202.893 266.214 195.393 237.264 194.096 233.237C192.799 229.211 170.415 233.283 167.486 234.193Z" fill="#A05A39"/>
<path d="M174.523 238.789L186.973 276.565C188.05 279.835 186.273 283.359 183.003 284.437L146.72 296.394C143.45 297.472 139.926 295.695 138.848 292.425L128.227 260.998C127.15 257.728 137.825 243.741 141.094 242.663L166.652 234.82C169.921 233.742 173.446 235.519 174.523 238.789Z" fill="#B06C4C"/>
<path d="M192.644 230.87C192.644 230.87 159.492 229.608 144.448 239.442C129.404 249.275 126.832 256.56 126.832 256.56L131.627 271.139C131.627 271.139 134.117 262.69 137.322 256.499C140.527 250.308 144.424 245.086 144.424 245.086C144.424 245.086 157.039 243.762 167.842 244.064C178.646 244.366 198.113 248.935 198.113 248.935L192.644 230.87Z" fill="#FDB02A"/>
<path d="M126.446 237.421C126.446 237.421 128.476 242.031 133.023 243.93C138.792 246.34 143.024 242.811 143.024 242.811C143.024 242.811 139.263 236.51 133.553 236.189C127.843 235.868 126.446 237.421 126.446 237.421Z" fill="#FDB02A"/>
<path d="M136.39 227.68C136.39 227.68 134.133 232.184 135.569 236.897C137.391 242.878 142.808 243.888 142.808 243.888C142.808 243.888 145.264 236.973 141.87 232.37C138.477 227.766 136.39 227.68 136.39 227.68Z" fill="#FDB02A"/>
<path d="M167.248 253.338C165.566 249.732 159.696 248.813 156.091 250.495C152.485 252.176 150.925 256.462 152.606 260.068L154.563 264.265C156.245 267.871 160.531 269.431 164.136 267.749C167.742 266.068 170.886 261.141 169.205 257.535L167.248 253.338Z" fill="white"/>
<path d="M150.036 261.45C148.354 257.844 144.068 256.284 140.462 257.966C136.857 259.647 135.297 263.933 136.978 267.539L138.935 271.736C140.617 275.342 144.903 276.902 148.508 275.22C152.114 273.539 153.674 269.253 151.993 265.647L150.036 261.45Z" fill="white"/>
<path d="M163.582 256.039C162.273 256.643 160.721 256.076 160.112 254.768C159.895 254.303 159.826 253.807 159.887 253.333C159.554 253.372 159.222 253.464 158.902 253.613C157.293 254.364 156.596 256.277 157.347 257.887L158.978 261.384C159.728 262.994 161.642 263.691 163.251 262.94C164.861 262.189 165.558 260.276 164.807 258.666L163.582 256.039Z" fill="#3D3D3D"/>
<path d="M149.313 263.556C148.014 264.127 146.49 263.557 145.887 262.264C145.657 261.77 145.594 261.241 145.675 260.74C145.309 260.771 144.942 260.866 144.589 261.03C142.981 261.781 142.285 263.693 143.035 265.302L144.745 268.97C145.495 270.578 147.408 271.275 149.017 270.524C150.625 269.774 151.321 267.862 150.571 266.253L149.313 263.556Z" fill="#3D3D3D"/>
<path d="M140.242 278.469C143.359 276.656 149.371 275.552 153.859 277.683C153.859 277.683 152.56 280.582 148.537 281.317C144.099 282.128 140.66 280.766 140.242 278.469Z" fill="#B06C4C"/>
<path d="M159.952 272.639C160.459 267.801 165.338 263.822 171.239 262.774L171.866 267.083C167.334 270.446 159.548 276.491 159.952 272.639Z" fill="#B06C4C"/>
<path d="M159.288 271.117C158.718 269.893 157.264 269.364 156.04 269.935L154.175 270.804C152.952 271.375 152.422 272.829 152.993 274.053C153.563 275.276 155.017 275.805 156.241 275.235L158.106 274.365C159.329 273.794 159.859 272.34 159.288 271.117Z" fill="#86401F"/>
<path d="M158.074 270.951C158.628 272.14 158.114 273.552 156.926 274.106C155.737 274.66 154.325 274.146 153.771 272.958C153.216 271.77 153.993 268.052 154.083 268.01C154.172 267.968 157.52 269.763 158.074 270.951Z" fill="#86401F"/>
<path d="M166.619 268.515C165.97 268.474 165.412 268.968 165.372 269.617C165.265 271.365 163.835 274.84 160.098 276.582C159.509 276.857 159.255 277.557 159.529 278.146C159.804 278.735 160.504 278.989 161.092 278.715C165.742 276.547 167.57 272.216 167.721 269.761C167.761 269.112 167.267 268.554 166.619 268.515Z" fill="#884727"/>
<path d="M170.325 254.899C167.857 249.606 161.565 247.316 156.271 249.784L140.618 257.192C135.325 259.66 133.035 265.952 135.503 271.246L136.252 272.853L152.691 265.188L171.075 256.507L170.325 254.899Z" fill="#B06C4C"/>
<path d="M146.909 261.906C146.609 261.262 145.843 260.983 145.199 261.283L138.754 264.366C138.11 264.666 137.832 265.432 138.132 266.075C138.432 266.719 139.198 266.998 139.841 266.698L146.287 263.615C146.931 263.315 147.209 262.549 146.909 261.906Z" fill="#884727"/>
<path d="M162.775 249.872C157.043 249.243 153.029 252.708 151.692 254.584C151.311 255.119 151.435 255.862 151.97 256.243C152.505 256.625 153.248 256.5 153.63 255.965C154.635 254.554 157.895 251.731 162.516 252.237C163.169 252.309 163.757 251.838 163.828 251.184C163.9 250.531 163.429 249.944 162.775 249.872Z" fill="#884727"/>
<path d="M187.287 297.583C184.16 294.11 184.459 287.391 188.974 281.186L202.8 262.425C212.86 249.665 225.51 251.434 231.311 257.876C237.112 264.318 237.765 278.006 223.806 285.755L202.445 297.259C196.175 300.395 190.414 301.056 187.287 297.583Z" fill="#B06C4C"/>
<path d="M143.184 169.731C143.184 169.731 139.779 188.928 151.68 210.114C166.731 236.906 188.7 250.669 188.7 250.669L196.228 185.894L143.184 169.731Z" fill="#B06C4C"/>
<path d="M171.074 145.68C186.493 145.68 199.012 158.199 199.012 173.618C199.012 189.037 186.493 201.556 171.074 201.556C155.655 201.556 143.136 189.037 143.136 173.618C143.136 158.199 155.655 145.68 171.074 145.68Z" fill="#B06C4C"/>
<path d="M413.755 265.173C413.755 265.173 412.898 253.775 408.12 239.886C401.113 219.518 390.57 204.9 390.57 204.9L359.151 256.998L413.755 265.173Z" fill="#B06C4C"/>
<path d="M385.445 239.101C400.864 239.101 413.384 251.62 413.384 267.039C413.384 282.458 400.864 294.977 385.445 294.977C370.026 294.977 357.507 282.458 357.507 267.039C357.507 251.62 370.026 239.101 385.445 239.101Z" fill="#B06C4C"/>
<path d="M413.138 126.612C413.138 126.612 404.339 123.612 379.263 120.99C357.84 118.749 348.267 119.871 348.267 119.871L384.439 172.619L413.138 126.612Z" fill="#B06C4C"/>
<path d="M405.086 125.549C420.505 125.549 433.024 138.068 433.024 153.487C433.024 168.906 420.505 181.425 405.086 181.425C389.667 181.425 377.148 168.906 377.148 153.487C377.148 138.068 389.667 125.549 405.086 125.549Z" fill="#B06C4C"/>
<path d="M329.717 49.9342C345.136 49.9342 357.656 62.4533 357.656 77.8723C357.656 93.2914 345.136 105.81 329.717 105.81C314.298 105.81 301.779 93.2914 301.779 77.8723C301.779 62.4533 314.298 49.9342 329.717 49.9342Z" fill="#B06C4C"/>
<path d="M314.014 54.7187C314.014 54.7187 303.586 59.1354 285.244 76.434C269.574 91.2126 266.596 99.4988 266.596 99.4988L329.656 105.388L314.014 54.7187Z" fill="#B06C4C"/>
<mask id="mask1_2001_5940" style="mask-type:luminance" maskUnits="userSpaceOnUse" x="-33" y="-118" width="643" height="643">
<path d="M-32.2158 -117.114H609.084V524.186H-32.2158V-117.114Z" fill="white"/>
</mask>
<g mask="url(#mask1_2001_5940)">
<path d="M277.989 87.894L264 99.2711C262.166 100.761 259.794 101.397 257.465 101.024L239.66 98.1637C231.915 96.9185 224.362 101.281 221.568 108.607L215.143 125.46C214.304 127.663 212.564 129.404 210.361 130.243L193.508 136.671C186.182 139.462 181.82 147.015 183.065 154.759L185.925 172.564C186.298 174.893 185.662 177.272 184.172 179.099L172.795 193.09C170.347 196.096 169.111 199.747 169.081 203.408V203.664C169.111 207.324 170.347 210.973 172.795 213.979L184.172 227.972C185.662 229.799 186.298 232.178 185.925 234.504L183.065 252.309C181.82 260.054 186.182 267.604 193.508 270.401L210.361 276.823C212.564 277.668 214.304 279.409 215.143 281.609L221.568 298.461C224.362 305.788 231.915 310.15 239.66 308.908L257.465 306.045C259.794 305.671 262.166 306.311 264 307.798L277.989 319.175C280.996 321.623 284.647 322.859 288.304 322.889H288.564C292.221 322.859 295.872 321.623 298.879 319.175L312.868 307.798C314.695 306.311 317.072 305.671 319.401 306.045L337.209 308.908C344.952 310.15 352.503 305.788 355.297 298.461L361.722 281.609C362.564 279.409 364.304 277.668 366.508 276.823L383.36 270.401C390.683 267.604 395.048 260.054 393.8 252.309L390.944 234.504C390.57 232.178 391.206 229.799 392.696 227.972L404.074 213.979C406.521 210.973 407.757 207.322 407.787 203.664V203.408C407.757 199.75 406.521 196.096 404.074 193.09L392.696 179.099C391.206 177.272 390.57 174.893 390.944 172.564L393.8 154.759C395.048 147.015 390.683 139.462 383.36 136.671L366.508 130.243C364.304 129.404 362.564 127.663 361.722 125.46L355.297 108.607C352.503 101.281 344.952 96.9185 337.209 98.1637L319.401 101.024C317.072 101.397 314.695 100.761 312.868 99.2711L298.879 87.894C295.836 85.4184 292.135 84.1827 288.432 84.1827C284.734 84.1827 281.032 85.4184 277.989 87.894Z" fill="url(#paint0_linear_2001_5940)"/>
<path d="M218.215 215.317L280.262 191.508C283.588 190.231 287.191 192.573 287.38 196.131C288.285 213.228 277.963 229.235 261.57 235.525C245.177 241.816 226.793 236.825 216.021 223.514C213.779 220.744 214.89 216.593 218.215 215.317Z" fill="white"/>
<path d="M326.962 139.172L283.368 189.332C281.032 192.022 281.998 196.21 285.278 197.603C301.034 204.301 319.607 200.076 331.124 186.823C342.641 173.571 344.239 154.587 335.416 139.912C333.579 136.858 329.299 136.483 326.962 139.172Z" fill="white"/>
<path d="M356.144 203.873C352.142 203.008 348.195 205.551 347.329 209.554C347.326 209.571 347.322 209.588 347.319 209.604L344.915 221.11C344.071 225.155 346.648 229.124 350.687 229.997C354.69 230.863 358.636 228.32 359.502 224.317C359.505 224.3 359.509 224.283 359.512 224.266L361.916 212.761C362.761 208.715 360.183 204.747 356.144 203.873Z" fill="white"/>
<path d="M237.839 168.429C250.097 165.818 257.977 163.285 261.478 160.834C264.957 158.398 269.947 151.957 276.448 141.514C280.794 134.53 289.979 132.392 296.964 136.739C298.668 137.801 300.142 139.196 301.294 140.841L327.779 178.666C341.798 198.687 336.931 226.282 316.911 240.301C296.889 254.32 269.294 249.454 255.275 229.433L228.742 191.54C224.024 184.802 225.662 175.515 232.4 170.796C234.036 169.651 235.886 168.846 237.839 168.429Z" fill="white"/>
<path d="M268.948 264.927C269.504 260.87 273.244 258.032 277.301 258.587C277.318 258.59 277.336 258.592 277.353 258.594L288.986 260.271C293.077 260.86 295.924 264.64 295.364 268.734C294.808 272.792 291.068 275.63 287.011 275.075C286.994 275.072 286.977 275.07 286.959 275.068L275.326 273.391C271.236 272.801 268.388 269.022 268.948 264.927Z" fill="white"/>
</g>
<path d="M329.717 49.9342C345.136 49.9342 357.655 62.4533 357.655 77.8723C357.655 93.2914 345.136 105.81 329.717 105.81C314.298 105.81 301.779 93.2914 301.779 77.8723C301.779 62.4533 314.298 49.9342 329.717 49.9342Z" fill="#B06C4C"/>
<path d="M314.014 54.7187C314.014 54.7187 295.751 65.1425 290.791 71.9157C291.04 76.589 298.521 85.4273 309.947 97.0912C319.921 107.273 329.656 105.388 329.656 105.388L314.014 54.7187Z" fill="#B06C4C"/>
</g>
</g>
</g>
</g>
<defs>
<linearGradient id="paint0_linear_2001_5940" x1="203.844" y1="117.579" x2="372.273" y2="291.376" gradientUnits="userSpaceOnUse">
<stop stop-color="#FFC100"/>
<stop offset="0.5" stop-color="#FFB200"/>
<stop offset="1" stop-color="#FFA300"/>
</linearGradient>
<clipPath id="clip0_2001_5940">
<rect width="530" height="530" fill="white" transform="translate(0.369629 0.859863)"/>
</clipPath>
<clipPath id="clip1_2001_5940">
<rect width="530" height="530" fill="white" transform="translate(0.369629 0.859863)"/>
</clipPath>
<clipPath id="clip2_2001_5940">
<rect width="530" height="530" fill="white" transform="translate(0.369629 0.859863)"/>
</clipPath>
</defs>
</svg>
