<svg width="504" height="531" viewBox="0 0 504 531" fill="none" xmlns="http://www.w3.org/2000/svg">
<g clip-path="url(#clip0_2001_6099)">
<mask id="mask0_2001_6099" style="mask-type:luminance" maskUnits="userSpaceOnUse" x="-27" y="0" width="531" height="531">
<path d="M503.449 0.859863H-26.5508V530.86H503.449V0.859863Z" fill="white"/>
</mask>
<g mask="url(#mask0_2001_6099)">
<path d="M381.658 404.2L393.977 371.544L360.02 382.402L381.658 404.2Z" fill="#58CC02"/>
<path d="M24.8102 292.838L18.0605 257.007L45.6382 280.871L24.8102 292.838Z" fill="#58CC02"/>
<path d="M371.632 414.107L231.831 477.191C218.945 483.006 200.044 479.759 190.806 470.143L28.5871 301.273C22.1501 294.572 24.1126 286.273 33.0926 282.221L148.428 230.176C157.433 226.112 170.447 227.692 178.267 233.798L374.764 387.22C385.926 395.936 384.486 408.306 371.632 414.107Z" fill="#58CC02"/>
<path d="M383.14 382.949L235.981 449.354C222.417 455.475 202.521 452.057 192.798 441.935L22.0408 264.176C15.2652 257.123 17.3312 248.387 26.7838 244.121L148.19 189.337C157.668 185.06 171.367 186.723 179.598 193.15L386.437 354.647C398.188 363.822 396.671 376.843 383.14 382.949Z" fill="white"/>
<path d="M383.14 382.949L235.981 449.354C222.417 455.475 202.521 452.057 192.798 441.935L22.0408 264.176C15.2652 257.123 17.3312 248.387 26.7838 244.121L148.19 189.337C157.668 185.06 171.367 186.723 179.598 193.15L386.437 354.647C398.188 363.822 396.671 376.843 383.14 382.949Z" stroke="#89E219" stroke-width="4.63014"/>
<path d="M353.178 367.323L222.656 426.222C218.38 428.151 212.114 427.097 209.002 423.924L193.064 407.676C190.234 404.791 191.056 401.187 194.944 399.433L322.529 341.861C326.417 340.106 332.041 340.802 335.392 343.451L354.268 358.373C357.954 361.286 357.453 365.394 353.178 367.323Z" fill="#89E219"/>
<path d="M171.576 213.941L58.7395 264.858C55.4844 266.327 50.7438 265.636 48.1503 263.313L48.033 263.209C45.4394 260.887 45.9758 257.814 49.2309 256.345L162.068 205.428C165.323 203.959 170.064 204.65 172.657 206.972L172.774 207.077C175.368 209.399 174.832 212.472 171.576 213.941Z" fill="#E5E5E5"/>
<path d="M142.904 226.879L58.739 264.858C55.4839 266.327 50.7428 265.636 48.1493 263.313L48.032 263.209C45.4384 260.887 45.9748 257.814 49.2299 256.345L133.395 218.365C136.65 216.897 141.391 217.588 143.985 219.91L144.102 220.015C146.696 222.337 146.16 225.41 142.904 226.879Z" fill="#89E219"/>
<path d="M193.668 230.746L76.413 283.657C74.3779 284.575 71.4138 284.143 69.7924 282.691C68.171 281.24 68.5062 279.318 70.5413 278.4L187.796 225.489C189.832 224.57 192.796 225.003 194.417 226.454C196.038 227.906 195.703 229.828 193.668 230.746Z" fill="#E5E5E5"/>
<path d="M274.403 209.491C273.087 202.765 271.233 195.476 269.648 189.375C266.972 179.077 265.808 175.777 265.808 175.777C262.91 168.216 253.911 163.823 245.936 162.428L218.715 157.665C212.384 156.557 205.911 158.6 201.363 163.141L190.968 174.563C185.483 180.04 183.714 188.216 186.437 195.474C189.471 203.56 191.027 205.929 193.607 214.715C196.083 223.144 199.238 240.228 199.238 240.228C201.053 248.866 207.645 255.708 216.211 257.842L236.887 257.374C244.512 257.341 253.901 257.439 260.118 253.153L269.942 245.765C276.326 241.363 277.966 229.191 276.586 221.559L274.403 209.491C274.516 209.544 274.296 209.438 274.403 209.491Z" fill="#78C800"/>
<mask id="mask1_2001_6099" style="mask-type:luminance" maskUnits="userSpaceOnUse" x="-27" y="0" width="531" height="531">
<path d="M-26.5508 0.859863H503.449V530.86H-26.5508V0.859863Z" fill="white"/>
</mask>
<g mask="url(#mask1_2001_6099)">
<mask id="mask2_2001_6099" style="mask-type:luminance" maskUnits="userSpaceOnUse" x="190" y="172" width="94" height="67">
<path d="M267.893 172.619L190.356 211.878L194.282 238.378L283.597 197.156L267.893 172.619Z" fill="white"/>
</mask>
<g mask="url(#mask2_2001_6099)">
<path d="M147.171 84.2857C97.1156 87.2302 87.3008 127.471 87.3008 127.471C87.3008 127.471 112.854 110.62 145.208 108.823C198.208 105.878 207.042 193.23 207.042 193.23L234.523 175.564C234.523 175.564 212.934 80.4172 147.171 84.2857Z" fill="#BFEDF8"/>
<path d="M147.171 84.2857C97.1156 87.2302 87.3008 127.471 87.3008 127.471C87.3008 127.471 112.854 110.62 145.208 108.823C198.208 105.878 207.042 193.23 207.042 193.23L234.523 175.564C234.523 175.564 212.934 80.4172 147.171 84.2857Z" fill="url(#paint0_radial_2001_6099)"/>
</g>
<mask id="mask3_2001_6099" style="mask-type:luminance" maskUnits="userSpaceOnUse" x="84" y="192" width="58" height="51">
<path d="M92.2083 192.249L84.3564 210.897L125.579 242.304L141.282 224.638L92.2083 192.249Z" fill="white"/>
</mask>
<g mask="url(#mask3_2001_6099)">
<path d="M116.255 152.499C142.264 158.878 136.866 182.434 129.014 204.026C145.208 192.249 162.384 183.906 159.931 153.971C157.477 124.036 50.0046 129.802 52.9491 215.191C69.1435 191.145 90.2454 146.119 116.255 152.499Z" fill="#BFEDF8"/>
<path d="M116.255 152.499C142.264 158.878 136.866 182.434 129.014 204.026C145.208 192.249 162.384 183.906 159.931 153.971C157.477 124.036 50.0046 129.802 52.9491 215.191C69.1435 191.145 90.2454 146.119 116.255 152.499Z" fill="url(#paint1_radial_2001_6099)"/>
</g>
</g>
<mask id="mask4_2001_6099" style="mask-type:luminance" maskUnits="userSpaceOnUse" x="-27" y="0" width="531" height="531">
<path d="M-26.5508 0.859863H503.449V530.86H-26.5508V0.859863Z" fill="white"/>
</mask>
<g mask="url(#mask4_2001_6099)">
<mask id="mask5_2001_6099" style="mask-type:luminance" maskUnits="userSpaceOnUse" x="193" y="138" width="66" height="49">
<path d="M247.282 138.267L193.301 172.619L198.208 186.36L258.079 154.952L247.282 138.267Z" fill="white"/>
</mask>
<g mask="url(#mask5_2001_6099)">
<path d="M168.764 106.86C106.054 110.994 89.2676 218.381 61.7822 219.239C30.3748 220.221 18.597 184.397 41.1711 162.804C30.3748 165.749 9.76367 173.11 9.76367 205.499C9.76367 247.714 77.9634 272.234 110.366 198.628C150.116 108.332 181.523 122.563 207.041 155.934C215.875 151.026 228.143 139.739 228.143 139.739C228.143 139.739 213.421 103.915 168.764 106.86Z" fill="#BFEDF8"/>
<path d="M168.764 106.86C106.054 110.994 89.2676 218.381 61.7822 219.239C30.3748 220.221 18.597 184.397 41.1711 162.804C30.3748 165.749 9.76367 173.11 9.76367 205.499C9.76367 247.714 77.9634 272.234 110.366 198.628C150.116 108.332 181.523 122.563 207.041 155.934C215.875 151.026 228.143 139.739 228.143 139.739C228.143 139.739 213.421 103.915 168.764 106.86Z" fill="url(#paint2_radial_2001_6099)"/>
</g>
<mask id="mask6_2001_6099" style="mask-type:luminance" maskUnits="userSpaceOnUse" x="-31" y="107" width="125" height="69">
<path d="M61.7827 107.841L-30.4766 153.971L-18.6988 175.564L93.1901 128.452L61.7827 107.841Z" fill="white"/>
</mask>
<g mask="url(#mask6_2001_6099)">
<path d="M26.9404 169.061C41.0492 170.411 59.2425 188.109 98.0978 261.934C122.635 308.554 163.366 347.814 163.366 347.814L190.357 332.11C190.357 332.11 143.246 290.888 116.746 243.286C86.5129 188.978 70.371 143.911 26.9404 169.061Z" fill="#BFEDF8"/>
</g>
</g>
<mask id="mask7_2001_6099" style="mask-type:luminance" maskUnits="userSpaceOnUse" x="-27" y="0" width="531" height="531">
<path d="M-26.5508 0.859863H503.449V530.86H-26.5508V0.859863Z" fill="white"/>
</mask>
<g mask="url(#mask7_2001_6099)">
<mask id="mask8_2001_6099" style="mask-type:luminance" maskUnits="userSpaceOnUse" x="211" y="126" width="99" height="44">
<path d="M215.875 126.49L212.667 145.735L211.458 152.99L309.606 169.184L302.245 140.721L215.875 126.49Z" fill="white"/>
</mask>
<g mask="url(#mask8_2001_6099)">
<path d="M315.004 42.0821C224.708 27.3599 242.375 121.582 242.375 121.582L280.652 131.888C280.652 131.888 278.199 108.823 280.162 88.2117C282.125 67.6006 299.819 53.0148 314.513 54.3506C336.106 56.3136 351.505 72.8805 355.245 90.1747C359.171 108.332 343.344 126.98 339.419 128.636C397.449 141.457 405.3 56.8043 315.004 42.0821Z" fill="#BFEDF8"/>
<path d="M315.004 42.0821C224.708 27.3599 242.375 121.582 242.375 121.582L280.652 131.888C280.652 131.888 278.199 108.823 280.162 88.2117C282.125 67.6006 299.819 53.0148 314.513 54.3506C336.106 56.3136 351.505 72.8805 355.245 90.1747C359.171 108.332 343.344 126.98 339.419 128.636C397.449 141.457 405.3 56.8043 315.004 42.0821Z" fill="url(#paint3_radial_2001_6099)"/>
</g>
<mask id="mask9_2001_6099" style="mask-type:luminance" maskUnits="userSpaceOnUse" x="334" y="128" width="80" height="48">
<path d="M368.741 128.453L334.171 140.985L413.398 175.809L407.018 147.837C407.018 147.837 396.467 142.929 392.051 140.721C385.836 137.613 368.741 128.453 368.741 128.453Z" fill="white"/>
</mask>
<g mask="url(#mask9_2001_6099)">
<path d="M319.421 96.0636C318.213 82.7689 327.273 71.5266 354.755 67.6006C382.236 63.6747 426.403 94.1006 439.162 117.656C451.921 141.212 448.977 175.564 444.07 197.156C439.162 218.749 430.509 235.802 406.773 266.841C381.255 300.212 319.421 293.341 319.421 293.341C319.421 293.341 339.892 285.343 366.533 259.971C387.144 240.341 406.773 217.767 412.662 192.249C420.437 158.559 427.384 102.934 401.866 69.5636C369.726 27.5351 306.662 55.8229 298.81 80.3599C290.958 104.897 299.792 125.508 350.829 130.415C346.105 128.33 321.384 117.656 319.421 96.0636Z" fill="#BFEDF8"/>
<path d="M319.421 96.0636C318.213 82.7689 327.273 71.5266 354.755 67.6006C382.236 63.6747 426.403 94.1006 439.162 117.656C451.921 141.212 448.977 175.564 444.07 197.156C439.162 218.749 430.509 235.802 406.773 266.841C381.255 300.212 319.421 293.341 319.421 293.341C319.421 293.341 339.892 285.343 366.533 259.971C387.144 240.341 406.773 217.767 412.662 192.249C420.437 158.559 427.384 102.934 401.866 69.5636C369.726 27.5351 306.662 55.8229 298.81 80.3599C290.958 104.897 299.792 125.508 350.829 130.415C346.105 128.33 321.384 117.656 319.421 96.0636Z" fill="url(#paint4_linear_2001_6099)"/>
</g>
</g>
<path d="M228.277 164.516C214.778 162.65 196.633 159.691 186.088 157.537" stroke="#78C800" stroke-width="12.7593" stroke-linecap="round" stroke-linejoin="round"/>
<mask id="mask10_2001_6099" style="mask-type:luminance" maskUnits="userSpaceOnUse" x="-38" y="-13" width="563" height="552">
<path d="M-37.9062 14.7378L497.305 -12.6183L524.064 510.921L-11.1467 538.277L-37.9062 14.7378Z" fill="white"/>
</mask>
<g mask="url(#mask10_2001_6099)">
<path d="M338.701 161.302C338.701 161.302 341.112 160.474 343.026 159.815C344.544 159.292 348.423 157.554 348.423 157.554" stroke="#FFC6B7" stroke-width="7.36171" stroke-linecap="round" stroke-linejoin="round"/>
<path d="M335.602 156.112C335.602 156.112 338.059 153.248 339.307 152.077C340.622 150.843 344.854 148.022 344.854 148.022" stroke="#FFC6B7" stroke-width="7.36171" stroke-linecap="round" stroke-linejoin="round"/>
<path d="M330.825 152.411C330.825 152.411 331.863 149.727 333.175 147.462C334.336 145.458 336.378 143.134 336.378 143.134" stroke="#FFC6B7" stroke-width="7.36171" stroke-linecap="round" stroke-linejoin="round"/>
<path d="M324.771 157.804C324.771 157.804 324.354 154.979 324.2 152.196C324.07 149.841 323.591 147.089 323.591 147.089" stroke="#FFC6B7" stroke-width="7.36168" stroke-linecap="round" stroke-linejoin="round"/>
<path d="M328.8 163.307L330.835 161.42" stroke="#FFC6B7" stroke-width="23.0666" stroke-linecap="round" stroke-linejoin="round"/>
<path d="M328.225 151.487C331.366 152.838 334.521 155.232 335.338 158.429" stroke="#EE9583" stroke-width="2.6188" stroke-linecap="round"/>
<path d="M306.551 177.526C306.551 177.526 313.19 175.174 315.525 173.846C318.294 172.271 323.588 168.839 323.588 168.839" stroke="#33E3FF" stroke-width="24.5389" stroke-linecap="round" stroke-linejoin="round"/>
</g>
<path d="M239.473 92.3218C244.586 99.811 241.48 108.301 233.991 113.413C226.501 118.526 217.465 118.327 212.351 110.838C207.238 103.348 209.873 94.1682 217.362 89.0554C224.851 83.9425 234.359 84.8326 239.473 92.3218Z" fill="#FF9500"/>
<path d="M256.401 74.9334C262.205 83.4347 260.018 95.0315 251.517 100.835C243.016 106.639 231.419 104.453 225.615 95.9513C219.812 87.4495 221.999 75.8531 230.5 70.0497C239.001 64.2453 250.597 66.4322 256.401 74.9334Z" fill="#FF9500"/>
<mask id="mask11_2001_6099" style="mask-type:luminance" maskUnits="userSpaceOnUse" x="-27" y="0" width="531" height="531">
<path d="M-26.5508 0.859741H503.449V530.86H-26.5508V0.859741Z" fill="white"/>
</mask>
<g mask="url(#mask11_2001_6099)">
<path d="M241.272 107.8L209.359 138.763C209.359 138.763 215.791 155.744 220.338 175.239C224.058 191.19 232.562 220.022 232.562 220.022L274.167 231.466L313.01 202.246C313.01 202.246 312.894 201.592 312.679 200.416C311.522 194.095 307.5 172.696 303.223 156.895C299.926 144.712 294.041 131.546 290.408 123.977C288.525 120.053 287.246 117.632 287.246 117.632L241.272 107.8Z" fill="#FFC7B8"/>
<path d="M241.272 107.8L209.359 138.763C209.359 138.763 215.791 155.744 220.338 175.239C224.058 191.19 232.562 220.022 232.562 220.022L274.167 231.466L313.01 202.246C313.01 202.246 312.894 201.592 312.679 200.416C311.522 194.095 307.5 172.696 303.223 156.895C299.926 144.712 294.041 131.546 290.408 123.977C288.525 120.053 287.246 117.632 287.246 117.632L241.272 107.8Z" stroke="#FFC7B8" stroke-width="33.3704" stroke-linecap="round" stroke-linejoin="round"/>
</g>
<mask id="mask12_2001_6099" style="mask-type:alpha" maskUnits="userSpaceOnUse" x="192" y="91" width="138" height="158">
<mask id="mask13_2001_6099" style="mask-type:luminance" maskUnits="userSpaceOnUse" x="-27" y="0" width="531" height="531">
<path d="M-26.5508 0.859741H503.449V530.86H-26.5508V0.859741Z" fill="white"/>
</mask>
<g mask="url(#mask13_2001_6099)">
<path d="M241.272 107.8L209.359 138.763C209.359 138.763 215.791 155.744 220.338 175.239C224.058 191.19 232.562 220.022 232.562 220.022L274.167 231.466L313.01 202.246C313.01 202.246 312.894 201.592 312.679 200.416C311.522 194.095 307.5 172.696 303.223 156.895C299.926 144.712 294.041 131.546 290.408 123.977C288.525 120.053 287.246 117.632 287.246 117.632L241.272 107.8Z" fill="#FFC7B8"/>
<path d="M241.272 107.8L209.359 138.763C209.359 138.763 215.791 155.744 220.338 175.239C224.058 191.19 232.562 220.022 232.562 220.022L274.167 231.466L313.01 202.246C313.01 202.246 312.894 201.592 312.679 200.416C311.522 194.095 307.5 172.696 303.223 156.895C299.926 144.712 294.041 131.546 290.408 123.977C288.525 120.053 287.246 117.632 287.246 117.632L241.272 107.8Z" stroke="#FFC7B8" stroke-width="33.3704" stroke-linecap="round" stroke-linejoin="round"/>
</g>
</mask>
<g mask="url(#mask12_2001_6099)">
<path d="M202.884 213.109C202.884 213.109 235.134 180.685 259.594 174.484C276.161 170.283 305.762 175.894 322.998 179.911C331.099 181.799 336.469 183.335 336.469 183.335" stroke="#33E3FF" stroke-width="35.3333"/>
</g>
<mask id="mask14_2001_6099" style="mask-type:alpha" maskUnits="userSpaceOnUse" x="192" y="91" width="138" height="158">
<mask id="mask15_2001_6099" style="mask-type:luminance" maskUnits="userSpaceOnUse" x="-27" y="0" width="531" height="531">
<path d="M-26.5508 0.859741H503.449V530.86H-26.5508V0.859741Z" fill="white"/>
</mask>
<g mask="url(#mask15_2001_6099)">
<path d="M241.272 107.8L209.359 138.763C209.359 138.763 215.791 155.744 220.338 175.239C224.058 191.19 232.562 220.022 232.562 220.022L274.167 231.466L313.01 202.246C313.01 202.246 312.894 201.592 312.679 200.416C311.522 194.095 307.5 172.696 303.223 156.895C299.926 144.712 294.041 131.546 290.408 123.977C288.525 120.053 287.246 117.632 287.246 117.632L241.272 107.8Z" fill="#FFC7B8"/>
<path d="M241.272 107.8L209.359 138.763C209.359 138.763 215.791 155.744 220.338 175.239C224.058 191.19 232.562 220.022 232.562 220.022L274.167 231.466L313.01 202.246C313.01 202.246 312.894 201.592 312.679 200.416C311.522 194.095 307.5 172.696 303.223 156.895C299.926 144.712 294.041 131.546 290.408 123.977C288.525 120.053 287.246 117.632 287.246 117.632L241.272 107.8Z" stroke="#FFC7B8" stroke-width="33.3704" stroke-linecap="round" stroke-linejoin="round"/>
</g>
</mask>
<g mask="url(#mask14_2001_6099)">
<path d="M202.774 178.392C202.774 178.392 204.037 166.265 216.338 162.6C216.338 162.6 241.763 178.815 232.182 179.561C227.271 179.943 219.208 181.058 219.208 181.058L203.868 185.193L202.774 178.392Z" fill="#58A700"/>
</g>
<mask id="mask16_2001_6099" style="mask-type:luminance" maskUnits="userSpaceOnUse" x="-27" y="0" width="531" height="531">
<path d="M-26.5508 0.859741H503.449V530.86H-26.5508V0.859741Z" fill="white"/>
</mask>
<g mask="url(#mask16_2001_6099)">
<path d="M188.884 193.966C188.884 193.966 189.375 191.144 188.148 187.586C186.921 184.028 184.223 181.084 184.223 181.084" stroke="#FFC6B7" stroke-width="7.36111" stroke-linecap="round" stroke-linejoin="round"/>
<path d="M189.375 195.684C189.375 195.684 188.271 193.721 184.958 191.39C182.176 189.431 177.352 187.709 177.352 187.709" stroke="#FFC6B7" stroke-width="7.36111" stroke-linecap="round" stroke-linejoin="round"/>
<path d="M189.375 201.143C189.375 201.143 186.369 198.812 183.916 197.831C181.646 196.923 176.37 195.99 176.37 195.99" stroke="#FFC6B7" stroke-width="7.36111" stroke-linecap="round" stroke-linejoin="round"/>
<path d="M196 201.144C196 201.144 193.094 202.801 191.276 204.149C189.375 205.56 187.105 208.014 187.105 208.014" stroke="#FFC6B7" stroke-width="7.36111" stroke-linecap="round" stroke-linejoin="round"/>
<path d="M193.914 193.905L196.491 193.169" stroke="#FFC6B7" stroke-width="24.537" stroke-linecap="round" stroke-linejoin="round"/>
<path d="M203.116 190.654C203.116 190.654 208.462 187.055 213.912 186.237C218.82 185.501 226.426 187.341 226.426 187.341" stroke="#33E3FF" stroke-width="24.537" stroke-linecap="round" stroke-linejoin="round"/>
</g>
<mask id="mask17_2001_6099" style="mask-type:alpha" maskUnits="userSpaceOnUse" x="192" y="91" width="138" height="158">
<mask id="mask18_2001_6099" style="mask-type:luminance" maskUnits="userSpaceOnUse" x="-27" y="0" width="531" height="531">
<path d="M-26.5508 0.859741H503.449V530.86H-26.5508V0.859741Z" fill="white"/>
</mask>
<g mask="url(#mask18_2001_6099)">
<path d="M241.272 107.8L209.359 138.763C209.359 138.763 215.791 155.744 220.338 175.239C224.058 191.19 232.562 220.022 232.562 220.022L274.167 231.466L313.01 202.246C313.01 202.246 312.894 201.592 312.679 200.416C311.522 194.095 307.5 172.696 303.223 156.895C299.926 144.712 294.041 131.546 290.408 123.977C288.525 120.053 287.246 117.632 287.246 117.632L241.272 107.8Z" fill="#FFC7B8"/>
<path d="M241.272 107.8L209.359 138.763C209.359 138.763 215.791 155.744 220.338 175.239C224.058 191.19 232.562 220.022 232.562 220.022L274.167 231.466L313.01 202.246C313.01 202.246 312.894 201.592 312.679 200.416C311.522 194.095 307.5 172.696 303.223 156.895C299.926 144.712 294.041 131.546 290.408 123.977C288.525 120.053 287.246 117.632 287.246 117.632L241.272 107.8Z" stroke="#FFC7B8" stroke-width="33.3704" stroke-linecap="round" stroke-linejoin="round"/>
</g>
</mask>
<g mask="url(#mask17_2001_6099)">
<path d="M248.508 91.6092L245.572 91.1369C237.954 90.279 230.33 92.815 224.723 98.0817L222.796 99.9713L200.807 121.929C193.531 129.195 191.185 140.042 194.797 149.669C195.861 152.505 196.996 155.6 198.143 158.831L242.678 120.84L238.593 102.086C237.284 96.0758 242.435 90.6326 248.508 91.6092Z" fill="url(#paint5_linear_2001_6099)"/>
</g>
<mask id="mask19_2001_6099" style="mask-type:alpha" maskUnits="userSpaceOnUse" x="192" y="91" width="138" height="158">
<mask id="mask20_2001_6099" style="mask-type:luminance" maskUnits="userSpaceOnUse" x="-27" y="0" width="531" height="531">
<path d="M-26.5508 0.859741H503.449V530.86H-26.5508V0.859741Z" fill="white"/>
</mask>
<g mask="url(#mask20_2001_6099)">
<path d="M241.272 107.8L209.359 138.763C209.359 138.763 215.791 155.744 220.338 175.239C224.058 191.19 232.562 220.022 232.562 220.022L274.167 231.466L313.01 202.246C313.01 202.246 312.894 201.592 312.679 200.416C311.522 194.095 307.5 172.696 303.223 156.895C299.926 144.712 294.041 131.546 290.408 123.977C288.525 120.053 287.246 117.632 287.246 117.632L241.272 107.8Z" fill="#FFC7B8"/>
<path d="M241.272 107.8L209.359 138.763C209.359 138.763 215.791 155.744 220.338 175.239C224.058 191.19 232.562 220.022 232.562 220.022L274.167 231.466L313.01 202.246C313.01 202.246 312.894 201.592 312.679 200.416C311.522 194.095 307.5 172.696 303.223 156.895C299.926 144.712 294.041 131.546 290.408 123.977C288.525 120.053 287.246 117.632 287.246 117.632L241.272 107.8Z" stroke="#FFC7B8" stroke-width="33.3704" stroke-linecap="round" stroke-linejoin="round"/>
</g>
</mask>
<g mask="url(#mask19_2001_6099)">
<path d="M301.878 89.9774L304.778 89.2221C312.34 87.6279 315.228 89.1061 323.221 91.1555L325.933 91.6266L357.539 104.163C367.039 108.212 379.901 114.694 380.441 125.681C380.589 128.709 380.85 138.384 380.968 141.813L324.262 122.626L318.11 100.715C316.462 95.094 307.878 88.4149 301.878 89.9774Z" fill="url(#paint6_linear_2001_6099)"/>
</g>
<mask id="mask21_2001_6099" style="mask-type:alpha" maskUnits="userSpaceOnUse" x="192" y="91" width="138" height="158">
<mask id="mask22_2001_6099" style="mask-type:luminance" maskUnits="userSpaceOnUse" x="-27" y="0" width="531" height="531">
<path d="M-26.5508 0.859741H503.449V530.86H-26.5508V0.859741Z" fill="white"/>
</mask>
<g mask="url(#mask22_2001_6099)">
<path d="M241.272 107.8L209.359 138.763C209.359 138.763 215.791 155.744 220.338 175.239C224.058 191.19 232.562 220.022 232.562 220.022L274.167 231.466L313.01 202.246C313.01 202.246 312.894 201.592 312.679 200.416C311.522 194.095 307.5 172.696 303.223 156.895C299.926 144.712 294.041 131.546 290.408 123.977C288.525 120.053 287.246 117.632 287.246 117.632L241.272 107.8Z" fill="#FFC7B8"/>
<path d="M241.272 107.8L209.359 138.763C209.359 138.763 215.791 155.744 220.338 175.239C224.058 191.19 232.562 220.022 232.562 220.022L274.167 231.466L313.01 202.246C313.01 202.246 312.894 201.592 312.679 200.416C311.522 194.095 307.5 172.696 303.223 156.895C299.926 144.712 294.041 131.546 290.408 123.977C288.525 120.053 287.246 117.632 287.246 117.632L241.272 107.8Z" stroke="#FFC7B8" stroke-width="33.3704" stroke-linecap="round" stroke-linejoin="round"/>
</g>
</mask>
<g mask="url(#mask21_2001_6099)">
<path d="M281.744 269.031L231.745 302.533L354.664 277.026L328.007 274.104L281.744 269.031Z" stroke="#0084C2" stroke-width="186.481" stroke-linecap="round" stroke-linejoin="round"/>
</g>
<mask id="mask23_2001_6099" style="mask-type:alpha" maskUnits="userSpaceOnUse" x="192" y="91" width="138" height="158">
<mask id="mask24_2001_6099" style="mask-type:luminance" maskUnits="userSpaceOnUse" x="-27" y="0" width="531" height="531">
<path d="M-26.5508 0.859741H503.449V530.86H-26.5508V0.859741Z" fill="white"/>
</mask>
<g mask="url(#mask24_2001_6099)">
<path d="M241.272 107.8L209.359 138.763C209.359 138.763 215.791 155.744 220.338 175.239C224.058 191.19 232.562 220.022 232.562 220.022L274.167 231.466L313.01 202.246C313.01 202.246 312.894 201.592 312.679 200.416C311.522 194.095 307.5 172.696 303.223 156.895C299.926 144.712 294.041 131.546 290.408 123.977C288.525 120.053 287.246 117.632 287.246 117.632L241.272 107.8Z" fill="#FFC7B8"/>
<path d="M241.272 107.8L209.359 138.763C209.359 138.763 215.791 155.744 220.338 175.239C224.058 191.19 232.562 220.022 232.562 220.022L274.167 231.466L313.01 202.246C313.01 202.246 312.894 201.592 312.679 200.416C311.522 194.095 307.5 172.696 303.223 156.895C299.926 144.712 294.041 131.546 290.408 123.977C288.525 120.053 287.246 117.632 287.246 117.632L241.272 107.8Z" stroke="#FFC7B8" stroke-width="33.3704" stroke-linecap="round" stroke-linejoin="round"/>
</g>
</mask>
<g mask="url(#mask23_2001_6099)">
<path d="M247.181 182.636C245.721 169.687 234.05 160.269 221.128 161.597C219.466 161.768 217.864 162.108 216.338 162.6L221.14 173.611C227.741 173.253 233.139 178.084 233.936 183.834C234.647 191.348 230.932 198.486 224.889 201.475L211.041 206.148L213.434 217.135C245.227 210.512 248.467 195.258 247.181 182.636Z" fill="#58A700"/>
</g>
<mask id="mask25_2001_6099" style="mask-type:alpha" maskUnits="userSpaceOnUse" x="192" y="91" width="138" height="158">
<mask id="mask26_2001_6099" style="mask-type:luminance" maskUnits="userSpaceOnUse" x="-27" y="0" width="531" height="531">
<path d="M-26.5508 0.859741H503.449V530.86H-26.5508V0.859741Z" fill="white"/>
</mask>
<g mask="url(#mask26_2001_6099)">
<path d="M241.272 107.8L209.359 138.763C209.359 138.763 215.791 155.744 220.338 175.239C224.058 191.19 232.562 220.022 232.562 220.022L274.167 231.466L313.01 202.246C313.01 202.246 312.894 201.592 312.679 200.416C311.522 194.095 307.5 172.696 303.223 156.895C299.926 144.712 294.041 131.546 290.408 123.977C288.525 120.053 287.246 117.632 287.246 117.632L241.272 107.8Z" fill="#FFC7B8"/>
<path d="M241.272 107.8L209.359 138.763C209.359 138.763 215.791 155.744 220.338 175.239C224.058 191.19 232.562 220.022 232.562 220.022L274.167 231.466L313.01 202.246C313.01 202.246 312.894 201.592 312.679 200.416C311.522 194.095 307.5 172.696 303.223 156.895C299.926 144.712 294.041 131.546 290.408 123.977C288.525 120.053 287.246 117.632 287.246 117.632L241.272 107.8Z" stroke="#FFC7B8" stroke-width="33.3704" stroke-linecap="round" stroke-linejoin="round"/>
</g>
</mask>
<g mask="url(#mask25_2001_6099)">
<path d="M220.756 145.881C217.083 148.501 212.61 147.745 210.769 144.193C208.927 140.64 210.411 135.637 214.084 133.017C217.758 130.397 222.23 131.152 224.072 134.705C225.913 138.257 224.429 143.261 220.756 145.881Z" fill="#FFC7B8"/>
</g>
<mask id="mask27_2001_6099" style="mask-type:alpha" maskUnits="userSpaceOnUse" x="192" y="91" width="138" height="158">
<mask id="mask28_2001_6099" style="mask-type:luminance" maskUnits="userSpaceOnUse" x="-27" y="0" width="531" height="531">
<path d="M-26.5508 0.859741H503.449V530.86H-26.5508V0.859741Z" fill="white"/>
</mask>
<g mask="url(#mask28_2001_6099)">
<path d="M241.272 107.8L209.359 138.763C209.359 138.763 215.791 155.744 220.338 175.239C224.058 191.19 232.562 220.022 232.562 220.022L274.167 231.466L313.01 202.246C313.01 202.246 312.894 201.592 312.679 200.416C311.522 194.095 307.5 172.696 303.223 156.895C299.926 144.712 294.041 131.546 290.408 123.977C288.525 120.053 287.246 117.632 287.246 117.632L241.272 107.8Z" fill="#FFC7B8"/>
<path d="M241.272 107.8L209.359 138.763C209.359 138.763 215.791 155.744 220.338 175.239C224.058 191.19 232.562 220.022 232.562 220.022L274.167 231.466L313.01 202.246C313.01 202.246 312.894 201.592 312.679 200.416C311.522 194.095 307.5 172.696 303.223 156.895C299.926 144.712 294.041 131.546 290.408 123.977C288.525 120.053 287.246 117.632 287.246 117.632L241.272 107.8Z" stroke="#FFC7B8" stroke-width="33.3704" stroke-linecap="round" stroke-linejoin="round"/>
</g>
</mask>
<g mask="url(#mask27_2001_6099)">
<path d="M331.07 125.198C330.559 129.681 327.005 132.499 323.133 131.491C319.26 130.482 316.535 126.032 317.046 121.548C317.557 117.065 321.111 114.247 324.983 115.256C328.855 116.264 331.581 120.715 331.07 125.198Z" fill="#FFC7B8"/>
</g>
<path d="M303.607 162.135C304.344 165.448 304.957 167.533 305.571 170.478" stroke="white" stroke-width="4.90741" stroke-linecap="round" stroke-linejoin="round"/>
<path d="M291.818 160.106C292.554 163.418 293.168 165.503 293.781 168.448" stroke="white" stroke-width="4.90741" stroke-linecap="round"/>
<path d="M291.818 160.106C292.554 163.418 293.168 165.503 293.781 168.448" stroke="white" stroke-width="4.90741" stroke-linecap="round" stroke-linejoin="round"/>
<path d="M226.863 246.347C229.833 250.354 235.492 251.195 239.499 248.225L242.595 245.93C246.601 242.959 247.442 237.302 244.47 233.294C241.499 229.286 235.843 228.446 231.835 231.417L228.739 233.712C224.732 236.682 223.892 242.34 226.863 246.347Z" fill="#393939"/>
<path d="M310.193 225.275C308.246 221.6 303.689 220.201 300.014 222.15L294.186 225.239C290.512 227.187 289.113 231.745 291.06 235.419C293.009 239.093 297.566 240.492 301.24 238.544L307.068 235.454C310.743 233.506 312.142 228.949 310.193 225.275Z" fill="#393939"/>
<path d="M278.851 111.426C277.37 106.617 279.766 102.704 284.461 102.265C290.144 101.734 296.799 106.444 298.592 112.265L300.812 119.472C302.294 124.281 299.897 128.195 295.202 128.633C289.519 129.164 282.864 124.455 281.071 118.633L278.851 111.426Z" fill="white"/>
<path d="M253.559 109.852C251.835 104.254 255.095 99.0662 260.907 98.1589C266.927 97.2194 273.363 101.224 275.149 107.024L277.18 113.616C278.904 119.213 275.643 124.402 269.832 125.309C263.81 126.249 257.376 122.244 255.59 116.444L253.559 109.852Z" fill="white"/>
<path d="M264.738 112.803C263.922 110.003 265.449 107.412 268.18 106.964C271.009 106.5 274.038 108.509 274.883 111.41L275.844 114.708C276.659 117.508 275.132 120.099 272.401 120.547C269.572 121.011 266.544 119.003 265.698 116.101L264.738 112.803Z" fill="#4B4B4B"/>
<path d="M282.28 114.725C281.495 112.177 282.765 110.103 285.253 109.87C288.266 109.589 291.793 112.085 292.743 115.17L293.92 118.99C294.705 121.539 293.435 123.613 290.946 123.845C287.934 124.127 284.407 121.631 283.457 118.545L282.28 114.725Z" fill="#4B4B4B"/>
<path d="M268.231 108.986C268.703 110.52 267.842 112.147 266.309 112.619C264.775 113.092 263.148 112.231 262.676 110.698C262.203 109.164 263.064 107.537 264.598 107.065C266.131 106.592 267.758 107.453 268.231 108.986Z" fill="white"/>
<path d="M285.133 111.7C285.605 113.233 284.744 114.86 283.211 115.333C281.677 115.805 281.756 114.24 281.284 112.707C280.811 111.173 281.584 111.123 282.215 110.699C282.986 110.18 283.307 109.678 284.015 110.17C284.53 110.528 284.934 111.054 285.133 111.7Z" fill="white"/>
<path d="M257.897 127.25C258.004 123.475 262.265 121.531 266.202 123.355C270.654 125.418 275.865 127.657 278.837 128.327C281.344 128.893 283.546 129.152 285.251 129.263C287.114 129.384 288.871 130.991 288.773 132.672L288.553 136.465C288.097 144.335 280.452 149.255 271.736 147.288C263.676 145.469 257.58 138.379 257.788 131.063L257.897 127.25Z" fill="#D04040"/>
<path d="M271.228 129.485C271.716 129.424 272.171 129.305 272.587 129.136C273.971 130.875 276.288 131.928 278.526 131.648C280.337 131.422 281.679 130.375 282.256 128.953C281.203 128.805 280.057 128.602 278.837 128.327C275.867 127.657 270.654 125.418 266.202 123.355C265.436 123 264.658 122.788 263.901 122.704C263.789 123.403 263.839 124.156 264.077 124.927C264.97 127.826 268.171 129.867 271.228 129.485Z" fill="white"/>
<path d="M279.67 147.163C277.277 147.84 274.562 147.926 271.735 147.288C266.812 146.178 262.623 143.101 260.154 139.206C261.511 138.005 263.302 137.184 265.412 136.92C271.368 136.176 277.608 140.152 279.348 145.802C279.488 146.26 279.596 146.714 279.67 147.163Z" fill="#F05C53"/>
<path d="M291.431 133.17L291.211 136.963C290.676 146.194 281.709 151.965 271.486 149.658C262.033 147.524 254.884 139.208 255.128 130.628L255.237 126.815C255.393 121.33 261.531 118.627 267.094 121.205C271.615 123.299 276.506 125.375 279.086 125.958C281.413 126.483 283.455 126.723 285.031 126.825C288.275 127.035 291.623 129.844 291.431 133.17ZM266.202 123.355C262.265 121.531 258.005 123.475 257.897 127.25L257.788 131.063C257.58 138.379 263.676 145.47 271.736 147.288C280.452 149.255 288.097 144.335 288.553 136.464L288.773 132.671C288.871 130.991 287.114 129.383 285.252 129.262C283.546 129.151 281.344 128.893 278.837 128.327C275.866 127.656 270.655 125.418 266.202 123.355Z" fill="#FFC6B7"/>
<path d="M288.489 123.439C289.963 125.54 289.421 127.791 287.668 129.02C285.915 130.25 283.614 129.993 282.14 127.892C280.667 125.792 281.244 120.883 281.724 120.546C282.203 120.209 287.016 121.338 288.489 123.439Z" fill="#EE9583"/>
<path d="M337.761 319.045L196.493 386.618C173.724 397.509 146.437 387.881 135.547 365.112L133.551 360.941C122.66 338.172 132.289 310.886 155.058 299.995L296.326 232.422C319.095 221.531 346.381 231.159 357.272 253.928L359.267 258.099C370.158 280.868 360.53 308.154 337.761 319.045Z" fill="#FCAE9B"/>
<path d="M370.535 303.368L230.986 370.119C208.217 381.01 180.931 371.381 170.04 348.612L168.044 344.441C157.154 321.673 166.782 294.386 189.551 283.495L329.1 216.744C351.869 205.853 379.156 215.482 390.047 238.251L392.042 242.422C402.933 265.19 393.304 292.477 370.535 303.368Z" fill="#DAF4FC"/>
<path d="M396.125 291.128L250.239 360.91C227.47 371.801 200.183 362.172 189.292 339.403L187.297 335.232C176.406 312.463 186.035 285.177 208.804 274.286L354.69 204.503C377.459 193.613 404.746 203.241 415.637 226.01L417.631 230.181C428.522 252.95 418.894 280.237 396.125 291.128Z" fill="#FCD838"/>
<mask id="mask29_2001_6099" style="mask-type:alpha" maskUnits="userSpaceOnUse" x="182" y="200" width="241" height="166">
<path d="M396.125 291.128L250.239 360.91C227.47 371.801 200.183 362.172 189.292 339.403L187.297 335.232C176.406 312.463 186.035 285.177 208.804 274.286L354.69 204.503C377.459 193.613 404.746 203.241 415.637 226.01L417.631 230.181C428.522 252.95 418.894 280.237 396.125 291.128Z" fill="#FCD838"/>
</mask>
<g mask="url(#mask29_2001_6099)">
<path d="M409.728 213.658L162.136 332.09L148.324 303.215L395.916 184.784L409.728 213.658Z" fill="#FCE369"/>
<path d="M437.351 271.407L189.759 389.839L175.947 360.964L423.539 242.533L437.351 271.407Z" fill="#FCCA45"/>
<path d="M465.498 326.878L217.905 445.309L204.094 416.435L451.686 298.003L465.498 326.878Z" fill="#FCE369"/>
<path d="M493.121 384.627L245.529 503.059L231.717 474.184L479.309 355.753L493.121 384.627Z" fill="#FCCA45"/>
</g>
<path d="M433.485 207.99L385.541 200.643C375.575 198.545 364.866 199.585 354.968 204.319C331.048 215.761 320.932 244.428 332.374 268.349C343.816 292.269 372.483 302.385 396.403 290.943C406.301 286.209 413.831 278.524 418.453 269.449L442.823 227.511C447.46 219.532 442.608 209.387 433.485 207.99Z" fill="#FDF4BF"/>
<path d="M434.149 208.08C434.143 208.078 434.138 208.077 434.133 208.076C433.84 208.011 433.543 207.953 433.241 207.907L409.031 204.197C408.727 204.328 408.423 204.46 408.122 204.604C395.846 210.476 390.655 225.187 396.527 237.463C402.399 249.739 417.11 254.93 429.386 249.058C429.687 248.914 429.981 248.761 430.274 248.606L442.579 227.429C442.733 227.165 442.875 226.898 443.008 226.63C443.01 226.625 443.012 226.62 443.015 226.615C446.747 219.048 442.382 209.922 434.149 208.08Z" fill="#3D3D3D"/>
</g>
</g>
<defs>
<radialGradient id="paint0_radial_2001_6099" cx="0" cy="0" r="1" gradientUnits="userSpaceOnUse" gradientTransform="translate(87.8053 126.945) scale(36.6821 36.6821)">
<stop stop-color="#9CD6E4"/>
<stop offset="0.5" stop-color="#ADE1EE"/>
<stop offset="1" stop-color="#BFEDF8"/>
</radialGradient>
<radialGradient id="paint1_radial_2001_6099" cx="0" cy="0" r="1" gradientUnits="userSpaceOnUse" gradientTransform="translate(134.449 205.253) scale(66.6749 66.6749)">
<stop stop-color="#9CD6E4"/>
<stop offset="0.5" stop-color="#ADE1EE"/>
<stop offset="1" stop-color="#BFEDF8"/>
</radialGradient>
<radialGradient id="paint2_radial_2001_6099" cx="0" cy="0" r="1" gradientUnits="userSpaceOnUse" gradientTransform="translate(33.9847 169.433) scale(37.6277)">
<stop stop-color="#9CD6E4"/>
<stop offset="0.5" stop-color="#ADE1EE"/>
<stop offset="1" stop-color="#BFEDF8"/>
</radialGradient>
<radialGradient id="paint3_radial_2001_6099" cx="0" cy="0" r="1" gradientUnits="userSpaceOnUse" gradientTransform="translate(342.86 128.993) scale(27.4095 27.4095)">
<stop stop-color="#9CD6E4"/>
<stop offset="0.5" stop-color="#ADE1EE"/>
<stop offset="1" stop-color="#BFEDF8"/>
</radialGradient>
<linearGradient id="paint4_linear_2001_6099" x1="430.689" y1="117.992" x2="411.308" y2="90.9393" gradientUnits="userSpaceOnUse">
<stop stop-color="#BFEDF8"/>
<stop offset="0.49" stop-color="#ADE1EE"/>
<stop offset="0.99" stop-color="#ADE1EE"/>
<stop offset="1" stop-color="#BFEDF8"/>
</linearGradient>
<linearGradient id="paint5_linear_2001_6099" x1="232.84" y1="92.9479" x2="261.663" y2="151.335" gradientUnits="userSpaceOnUse">
<stop offset="0.42" stop-color="#FFA75F"/>
<stop offset="0.64" stop-color="#FFAE6C" stop-opacity="0.5"/>
<stop offset="0.86" stop-color="#FFB67A" stop-opacity="0"/>
</linearGradient>
<linearGradient id="paint6_linear_2001_6099" x1="266.838" y1="90.6152" x2="266.951" y2="155.788" gradientUnits="userSpaceOnUse">
<stop offset="0.42" stop-color="#FFA75F"/>
<stop offset="0.64" stop-color="#FFAE6C" stop-opacity="0.5"/>
<stop offset="0.86" stop-color="#FFB67A" stop-opacity="0"/>
</linearGradient>
<clipPath id="clip0_2001_6099">
<rect width="530" height="530" fill="white" transform="translate(-26.5508 0.859863)"/>
</clipPath>
</defs>
</svg>
