<svg width="531" height="531" viewBox="0 0 531 531" fill="none" xmlns="http://www.w3.org/2000/svg">
<g clip-path="url(#clip0_2001_6518)">
<g clip-path="url(#clip1_2001_6518)">
<mask id="mask0_2001_6518" style="mask-type:luminance" maskUnits="userSpaceOnUse" x="0" y="0" width="531" height="531">
<path d="M530.85 0.859863H0.849609V530.86H530.85V0.859863Z" fill="white"/>
</mask>
<g mask="url(#mask0_2001_6518)">
<mask id="mask1_2001_6518" style="mask-type:luminance" maskUnits="userSpaceOnUse" x="0" y="0" width="531" height="531">
<path d="M0.849609 0.859863H530.85V530.86H0.849609V0.859863Z" fill="white"/>
</mask>
<g mask="url(#mask1_2001_6518)">
<path d="M159.297 300.549L140.618 302.849L134.085 387.134L177.332 387.87L159.297 300.549Z" fill="#1CB0F6"/>
<path d="M144.115 281.318C144.115 281.318 93.5076 286.977 90.9312 287.207C88.6783 287.409 86.9746 287.943 86.9746 290.52C86.9746 290.704 141.937 303.156 141.937 303.156L194.907 296.685L144.115 281.318Z" fill="#BBF4A2"/>
<path d="M92.2651 288.633C90.3789 288.081 88.8146 288.127 88.0785 288.771C87.0601 289.663 86.8823 290.888 86.8823 293.096C86.8823 295.304 87.0203 368.87 87.0203 370.94C87.0203 373.01 87.0664 373.7 87.8485 374.666C88.6306 375.633 89.5507 376.093 95.2556 378.301C100.96 380.509 141.999 397.44 141.999 397.44C141.999 397.44 142.367 362.291 142.367 351.433C142.367 340.575 142.524 309.764 142.409 306.592C142.367 305.426 142.413 303.448 141.953 302.758C141.493 302.067 140.02 301.561 137.996 301.009C135.972 300.457 94.1223 289.177 92.2651 288.633Z" fill="#84D8FF"/>
<path d="M160.954 287.391C160.954 287.391 150.452 289.15 146.508 289.783C141.355 290.612 141.907 294.292 144.667 295.58C146.532 296.45 157.549 301.515 157.549 301.515L195.183 296.593L160.954 287.391Z" fill="#85D99D"/>
<path d="M194.539 184.382L147.397 186.958L198.281 195.868L194.539 184.382Z" fill="#FFE488"/>
<path d="M152.167 187.464C149.176 186.912 145.68 186.084 144.299 189.258C144.253 189.396 144.23 196.343 144.23 196.343C144.23 196.343 144.069 280.812 144.069 281.456C144.069 282.1 144.253 283.526 145.45 283.895C146.646 284.263 207.329 299.445 207.329 299.445L208.571 197.724C208.571 197.724 155.157 188.016 152.167 187.464Z" fill="#1CB0F6"/>
<path d="M190.812 194.58L162.15 288.035L194.263 296.409L156.997 301.377L171.259 389.159C171.259 389.159 212.205 386.352 215.518 386.352C218.83 386.352 218.37 383.086 218.37 381.429C218.37 379.773 215.058 197.77 215.058 197.77L190.812 194.58Z" fill="#149DEE"/>
<path d="M175.906 204.47C191.012 204.47 203.277 221.791 203.277 243.123C203.277 264.456 191.012 281.776 175.906 281.776C160.801 281.776 148.536 264.456 148.536 243.123C148.536 221.791 160.801 204.47 175.906 204.47Z" fill="#C0F0FF"/>
<path d="M186.824 207.638C196.655 213.501 203.277 227.106 203.277 243.123C203.277 264.471 191.023 281.776 175.907 281.776C172.026 281.776 168.334 280.636 164.989 278.579C165.003 278.558 186.902 207.661 186.824 207.638Z" fill="#88D6F7"/>
<path d="M202.636 173.662C200.428 174.858 195.183 178.447 193.251 182.311C191.318 186.176 190.766 189.396 192.054 198.598C193.343 207.799 217.174 370.112 217.726 373.884C218.278 377.657 221.131 388.238 226.284 392.103C229.999 394.89 237.325 395.784 253.152 393.391C263.179 391.876 325.843 383.27 330.075 382.534C334.308 381.797 341.669 380.141 343.325 374.436C344.981 368.731 204.844 172.466 202.636 173.662Z" fill="#2B70C9"/>
<path d="M307.072 164.645L212.298 167.773L201.624 179.367L233.921 382.257L351.607 367.811L316.641 172.742L307.072 164.645Z" fill="white"/>
<path d="M293.822 163.724C293.822 163.724 228.676 166.485 216.53 167.773C204.384 169.061 201.992 179.183 202.728 186.176C203.464 193.169 228.782 360.586 230.7 373.148C232.541 385.202 243.306 383.085 248.275 382.533C252.155 382.102 351.607 367.995 356.023 367.075C358.584 366.542 346.454 342.047 346.454 342.047C346.454 342.047 320.322 192.433 318.114 178.631C315.217 160.524 293.822 163.724 293.822 163.724Z" stroke="#84D8FF" stroke-width="4.96875"/>
<path d="M328.307 237.875C323.28 208.926 318.956 183.896 318.114 178.631C315.217 160.524 293.822 163.724 293.822 163.724C293.822 163.724 286.096 164.052 275.469 164.534" stroke="#B7E9FF" stroke-width="4.96875" stroke-linecap="round"/>
<path d="M203.685 193.094C206.021 209.295 212.187 250.45 218.051 289.407" stroke="#B7E9FF" stroke-width="4.96875" stroke-linecap="round"/>
<path d="M209.881 169.767C205.648 172.137 203.633 176.166 202.921 180.203" stroke="#B7E9FF" stroke-width="4.96875" stroke-linecap="round"/>
<path d="M335.412 304.138L335.09 383.96C335.09 383.96 334.952 385.57 336.378 386.398C337.804 387.226 364.995 404.341 364.995 404.341L404.607 402.777L365.593 318.308L335.412 304.138Z" fill="#84D8FF"/>
<path d="M406.815 299.721C406.815 299.721 340.381 302.114 338.633 302.114C336.884 302.114 335.504 303.402 335.504 304.782C335.32 304.782 365.731 318.354 365.731 318.354C365.731 318.354 444.725 316.284 444.725 316.192C444.725 314.259 442.792 313.431 440.492 312.327C438.192 311.223 406.815 299.721 406.815 299.721Z" fill="#1CB0F6"/>
<path d="M442.148 314.995C440.308 314.995 373.276 317.066 370.608 317.066C367.939 317.066 365.179 317.25 365.087 320.47C364.995 323.691 364.949 396.474 364.949 399.97C364.949 401.726 365.077 402.83 365.943 403.358C366.802 403.882 368.387 403.835 370.93 403.835C376.036 403.835 438.744 401.764 440.676 401.764C442.608 401.764 444.633 401.028 444.633 398.084C444.633 395.139 444.725 318.032 444.725 316.836C444.725 315.639 443.989 314.995 442.148 314.995Z" fill="#FFE488"/>
<path d="M404.699 327.969C398.166 327.969 396.049 333.49 395.037 335.698C392.894 340.375 380.315 370.388 378.843 374.436C377.371 378.485 377.813 383.16 379.947 385.294C382.063 387.41 384.456 389.066 389.148 389.066C394.669 389.066 422.641 388.238 425.218 387.962C427.794 387.686 431.291 386.214 432.763 383.914C434.235 381.613 435.063 378.209 432.763 373.332C430.634 368.819 415.648 338.091 414.452 335.882C413.256 333.674 411.232 327.969 404.699 327.969Z" fill="#1CB0F6"/>
<path d="M90.6841 306.059L90.8241 365.111C90.8332 368.953 93.2136 372.39 96.8066 373.75L125.906 384.76C131.98 387.059 138.471 382.553 138.442 376.059L138.165 314.079C138.147 309.939 135.383 306.314 131.395 305.201L102.432 297.119C96.5211 295.469 90.6696 299.922 90.6841 306.059Z" stroke="#9AE1FF" stroke-width="2.20833"/>
<path d="M261.601 318.216C260.297 318.399 259.287 317.858 258.681 316.614C258.38 316.009 258.141 315.073 257.972 313.875C257.804 312.677 257.776 311.71 257.898 311.046C258.138 309.683 258.96 308.885 260.264 308.702C261.567 308.518 262.542 309.064 263.148 310.309C263.449 310.913 263.689 311.85 263.857 313.048C264.025 314.246 264.053 315.212 263.931 315.876C263.691 317.239 262.904 318.032 261.601 318.216ZM267.552 321.44C268.996 321.237 269.88 320.106 269.652 318.486L266.958 299.317C266.73 297.696 265.569 296.853 264.125 297.056C262.715 297.254 261.797 298.389 262.025 300.01L262.862 305.965L262.826 305.97C262.018 305.077 260.455 304.435 258.235 304.747C255.451 305.138 253.428 307.111 252.924 309.913C252.679 311.241 252.701 312.675 252.969 314.578C253.236 316.481 253.61 317.866 254.211 319.075C255.469 321.629 257.956 322.968 260.74 322.577C262.96 322.265 264.281 321.181 264.903 319.979L264.938 319.974C265.314 320.856 266.177 321.633 267.552 321.44Z" fill="#D8D8D8"/>
<path d="M322.543 271.573C321.671 272.69 320.54 272.958 319.32 272.512C318.562 272.243 317.745 271.696 316.8 270.958C315.856 270.22 315.128 269.56 314.683 268.889C313.956 267.814 313.942 266.651 314.814 265.535C315.687 264.418 316.818 264.15 318.038 264.596C318.795 264.865 319.613 265.412 320.557 266.15C321.502 266.888 322.23 267.548 322.675 268.219C323.402 269.294 323.415 270.457 322.543 271.573ZM325.921 274.212C328.292 271.178 328.538 267.913 326.638 265.092C325.883 263.995 325.079 263.136 323.733 262.085C322.388 261.034 321.36 260.461 320.112 259.993C316.916 258.833 313.808 259.862 311.437 262.896C309.066 265.93 308.82 269.195 310.719 272.016C311.475 273.113 312.279 273.972 313.625 275.023C314.97 276.074 315.998 276.647 317.246 277.115C320.442 278.275 323.55 277.246 325.921 274.212Z" fill="#FFAADE"/>
<path d="M317.069 336.635C318.469 337.144 319.806 336.549 320.378 334.979L324.701 323.1C325.273 321.53 324.597 320.202 323.231 319.705C321.832 319.195 320.494 319.791 319.923 321.361L317.189 328.87C316.531 330.68 315.243 331.564 313.57 330.955C311.863 330.334 311.479 328.841 312.137 327.032L314.871 319.522C315.442 317.952 314.8 316.636 313.435 316.139C312.036 315.63 310.663 316.212 310.092 317.783L307.023 326.214C305.719 329.798 306.665 333.042 310.317 334.371C312.433 335.141 314.177 334.81 315.381 334.05L315.416 334.062C315.291 335.254 315.943 336.225 317.069 336.635Z" fill="#58CC01"/>
<path d="M234.075 216.655C232.923 215.962 232.469 214.884 232.788 213.508C232.938 212.835 233.349 211.938 233.985 210.88C234.622 209.821 235.22 209.036 235.744 208.588C236.809 207.66 237.974 207.555 239.127 208.248C240.279 208.94 240.702 209.999 240.383 211.376C240.233 212.048 239.821 212.945 239.185 214.004C238.549 215.063 237.95 215.847 237.427 216.295C236.361 217.223 235.227 217.347 234.075 216.655ZM236.725 223.035C238.001 223.802 239.428 223.473 240.289 222.041L250.467 205.103C251.327 203.67 250.948 202.256 249.671 201.489C248.426 200.741 246.968 201.051 246.107 202.483L242.945 207.745L242.914 207.727C242.847 206.5 242.019 204.985 240.057 203.807C237.597 202.329 234.726 202.594 232.525 204.493C231.478 205.39 230.574 206.542 229.564 208.223C228.554 209.904 227.961 211.243 227.661 212.589C227.018 215.423 228.131 218.084 230.591 219.562C232.552 220.74 234.297 220.729 235.562 220.175L235.593 220.194C235.325 221.135 235.511 222.306 236.725 223.035Z" fill="#1BB0F6"/>
<path d="M300.64 313.137C299.263 313.306 298.293 312.709 297.757 311.556C297.419 310.844 297.231 309.899 297.088 308.734C296.945 307.568 296.898 306.606 297.055 305.834C297.296 304.585 298.092 303.771 299.469 303.602C300.847 303.432 301.817 304.03 302.352 305.183C302.691 305.894 302.879 306.84 303.022 308.005C303.165 309.171 303.211 310.133 303.055 310.905C302.814 312.154 302.018 312.968 300.64 313.137ZM301.152 317.305C304.896 316.845 307.328 314.754 307.966 311.485C308.203 310.201 308.241 309.049 308.037 307.389C307.833 305.73 307.518 304.621 306.977 303.432C305.567 300.415 302.701 298.974 298.958 299.434C295.214 299.894 292.782 301.985 292.144 305.254C291.907 306.538 291.869 307.69 292.073 309.35C292.277 311.01 292.592 312.118 293.132 313.306C294.543 316.324 297.408 317.764 301.152 317.305Z" fill="#D8D8D8"/>
<path d="M287.31 318.965C288.755 318.762 289.638 317.632 289.41 316.011L287.687 303.748C287.459 302.128 286.263 301.289 284.854 301.488C283.409 301.691 282.526 302.821 282.754 304.442L283.843 312.194C284.106 314.062 283.398 315.419 281.672 315.661C279.91 315.909 278.891 314.795 278.628 312.927L277.539 305.175C277.311 303.554 276.15 302.711 274.741 302.909C273.296 303.112 272.377 304.247 272.605 305.868L273.828 314.572C274.348 318.271 276.658 320.642 280.429 320.112C282.613 319.805 283.97 318.716 284.662 317.505L284.697 317.5C285.137 318.588 286.148 319.129 287.31 318.965Z" fill="#D8D8D8"/>
<path d="M228.262 184.796L274.631 182.471L295.248 181.437" stroke="#D9D9D9" stroke-width="10.8576" stroke-linecap="round"/>
<path d="M228.262 184.796L275.833 182.471" stroke="#58CC02" stroke-width="10.8576" stroke-linecap="round"/>
<path d="M250.896 228.451C259.396 230.36 265.141 231.116 268.106 230.661C271.07 230.207 276.153 227.848 283.434 223.512C288.213 220.647 294.633 222.004 297.748 226.494C298.48 227.583 299.004 228.814 299.245 230.088L304.949 259.761C308.032 275.473 296.455 290.308 279.01 292.892C261.505 295.422 245.198 284.831 242.657 269.118L237.97 239.392C237.158 234.136 241.076 229.192 246.784 228.319C248.153 228.109 249.507 228.174 250.896 228.451Z" fill="#58CC02"/>
<path d="M273.316 273.789C273.358 273.401 273.029 273.123 272.648 273.181L265.286 274.28C264.904 274.337 264.695 274.75 264.86 275.052C265.747 276.608 267.644 277.523 269.556 277.238C271.469 276.953 273.009 275.524 273.316 273.789ZM285.441 271.266L278.095 272.366C277.714 272.423 277.508 272.835 277.675 273.138C278.571 274.694 280.474 275.609 282.382 275.324C284.29 275.039 285.818 273.61 286.112 271.875C286.162 271.54 285.821 271.21 285.441 271.266ZM280.11 278.226L272.731 279.325C272.349 279.383 272.141 279.795 272.307 280.097C273.203 281.653 275.109 282.568 277.026 282.283C278.942 281.999 280.481 280.569 280.782 278.835C280.888 278.492 280.546 278.161 280.11 278.226Z" fill="#89E219"/>
<path d="M254.364 232.491L264.581 240.514C265.144 240.918 265.066 241.747 264.531 242.155C261.754 243.938 258.088 243.732 255.421 241.58C252.76 239.427 251.806 235.928 252.95 232.87C253.228 232.229 253.806 232.087 254.364 232.491Z" fill="#89E219"/>
<path d="M263.206 239.525C266.908 242.23 272.475 241.383 275.39 237.668C278.293 233.954 278.139 256.222 278.121 256.116C278.121 256.116 276.223 256.348 272.454 256.971C271.428 257.126 269.591 257.403 266.997 257.794C262.013 243.844 260.761 237.72 263.206 239.525Z" fill="#89E219"/>
<path d="M249.976 235.445L259.984 243.554C260.548 243.958 260.467 244.786 259.93 245.195C257.143 246.978 253.472 246.772 250.806 244.62C248.147 242.467 247.2 238.968 248.407 235.902C248.626 235.216 249.418 235.041 249.976 235.445Z" fill="#89E219"/>
<path d="M254.356 237.443L254.676 237.394C260.929 236.442 266.813 240.719 267.873 246.876L268.904 252.822C269.987 259.032 265.709 264.795 259.41 265.74L259.084 265.789C252.724 266.742 246.789 262.465 245.794 256.307L244.849 250.415C243.859 244.205 248.095 238.396 254.356 237.443Z" fill="#89E219"/>
<path d="M281.39 228.353L274.581 238.991C274.185 239.542 274.539 240.305 275.183 240.534C278.414 241.405 281.809 240.124 283.6 237.288C285.386 234.451 285.112 230.837 282.957 228.276C282.534 227.741 281.729 227.81 281.39 228.353Z" fill="#89E219"/>
<path d="M286.677 229.833L279.904 240.524C279.509 241.075 279.865 241.838 280.511 242.067C283.747 242.938 287.141 241.657 288.926 238.821C290.704 235.984 290.419 232.37 288.255 229.809C287.873 229.213 287.067 229.282 286.677 229.833Z" fill="#89E219"/>
<path d="M282.789 233.102L283.108 233.053C289.33 232.1 295.269 236.377 296.428 242.535L297.554 248.48C298.736 254.691 294.563 260.454 288.295 261.399L288.025 261.44C281.751 262.384 275.769 258.16 274.622 252.011L273.519 246.074C272.376 239.871 276.506 234.063 282.789 233.102Z" fill="#89E219"/>
<path d="M272.05 253.73C274.259 253.396 276.412 254.925 276.801 257.101L277.967 263.608C278.359 265.784 276.838 267.866 274.611 268.2C272.382 268.534 270.216 267.006 269.834 264.83L268.698 258.323C268.319 256.147 269.839 254.064 272.05 253.73Z" fill="#F49000"/>
<path d="M272.124 254.154C273.935 253.88 275.699 255.132 276.017 256.915L276.97 262.249C277.29 264.032 276.044 265.738 274.221 266.012C272.397 266.286 270.624 265.034 270.31 263.25L269.377 257.917C269.066 256.133 270.312 254.428 272.124 254.154Z" fill="#B16900"/>
<path d="M266.951 257.528C267.015 255.013 269.074 252.85 271.876 252.427C274.514 252.028 277.16 253.535 278.073 255.85L278.111 256.063C278.14 256.222 278.104 256.336 277.933 256.308L272.857 258C272.749 258.016 272.749 258.016 272.641 258.033L267.241 257.92C267.079 257.944 267.016 257.9 266.988 257.74L266.951 257.528Z" fill="#FFC200"/>
<path d="M273.465 254.857C273.357 254.873 273.304 254.881 273.187 254.844C272.439 254.684 271.791 254.782 271.245 255.137C270.841 255.362 270.372 255.214 270.145 254.867C269.909 254.467 270.051 254.01 270.4 253.794C271.305 253.276 272.33 253.121 273.473 253.33C273.932 253.423 274.222 253.815 274.136 254.265C274.075 254.546 273.789 254.808 273.465 254.857Z" fill="#FFDE00"/>
<path d="M255.61 241.388C259.949 240.728 264.079 243.694 264.813 247.994L265.623 252.718C266.364 257.018 263.397 261.058 259.008 261.718C254.616 262.378 250.458 259.412 249.755 255.112L248.987 250.388C248.29 246.089 251.267 242.047 255.61 241.388Z" fill="white"/>
<path d="M257.584 245.66C259.625 245.35 261.568 246.743 261.909 248.76L262.595 252.795C262.938 254.811 261.545 256.71 259.491 257.019C257.436 257.329 255.485 255.935 255.15 253.918L254.481 249.884C254.148 247.867 255.542 245.969 257.584 245.66Z" fill="#4B4B4B"/>
<path d="M255.223 250.697C256.562 250.494 257.468 249.261 257.248 247.942C257.028 246.623 255.768 245.717 254.433 245.919C253.097 246.122 252.188 247.355 252.405 248.674C252.622 249.994 253.883 250.899 255.223 250.697Z" fill="white"/>
<path d="M283.251 237.177C287.57 236.517 291.737 239.483 292.538 243.783L293.421 248.507C294.229 252.807 291.332 256.848 286.965 257.508C282.593 258.168 278.4 255.202 277.63 250.902L276.788 246.177C276.025 241.878 278.929 237.837 283.251 237.177Z" fill="white"/>
<path d="M282.83 241.823C284.861 241.514 286.819 242.907 287.19 244.924L287.932 248.958C288.305 250.975 286.942 252.873 284.896 253.183C282.85 253.493 280.884 252.099 280.52 250.082L279.794 246.048C279.433 244.031 280.797 242.133 282.83 241.823Z" fill="#4B4B4B"/>
<path d="M280.118 246.926C281.451 246.724 282.338 245.49 282.099 244.171C281.861 242.852 280.591 241.946 279.261 242.149C277.931 242.351 277.042 243.585 277.277 244.904C277.512 246.223 278.784 247.128 280.118 246.926Z" fill="white"/>
<path d="M273.495 261.923C272.183 262.12 271.118 262.892 270.517 263.935C271.105 265.34 272.642 266.249 274.221 266.012C275.799 265.775 276.94 264.463 277.012 262.959C276.081 262.145 274.807 261.726 273.495 261.923Z" fill="#FFB8D1"/>
<path d="M122.909 395.197C122.928 392.808 123.609 390.576 124.775 388.68C125.21 387.917 125.454 387.039 125.462 386.103C125.471 384.096 124.372 382.334 122.73 381.415C116.278 378.016 111.901 371.22 111.948 363.421C112.014 352.273 121.116 343.289 132.261 343.361C143.414 343.43 152.395 352.523 152.327 363.676L148.071 395.355C148.028 402.303 142.36 404.182 135.412 404.139C128.464 404.096 122.867 402.145 122.909 395.197ZM171.422 388.085C171.659 387.89 171.974 387.821 172.275 387.884C178.288 389.2 182.778 394.611 182.734 401.053C182.734 404.139 178.143 408.407 172.108 409.647C171.81 409.711 171.494 409.634 171.26 409.437C171.023 409.245 170.889 408.952 170.888 408.645L171.044 388.869C171.043 388.563 171.182 388.272 171.422 388.085ZM171.37 400.926L171.694 349.181L183.058 349.255L182.737 400.995L171.37 400.926ZM144.144 403.946L138.178 346.053L175.361 347.173L174.984 404.139L144.144 403.946Z" fill="#FFAE00"/>
<path d="M165.041 391.351C168.344 391.367 171.009 394.063 170.986 397.369C170.966 400.678 168.274 403.339 164.964 403.32C161.658 403.296 158.998 400.601 159.017 397.293C159.038 393.992 161.735 391.326 165.041 391.351ZM165.348 341.229C168.657 341.249 171.322 343.944 171.297 347.251C171.279 350.56 168.585 353.22 165.276 353.201C161.97 353.177 159.309 350.483 159.329 347.174C159.35 343.873 162.047 341.208 165.348 341.229ZM143.201 395.27L143.514 345.352L177.602 345.567C183.54 345.605 188.324 350.371 188.286 356.216L188.111 384.967C188.071 390.811 183.23 395.518 177.293 395.479L143.201 395.27Z" fill="#FFC3B3"/>
<path d="M151.706 357.216C151.68 361.568 155.183 365.122 159.534 365.147L162.091 365.164C166.443 365.19 169.994 361.679 170.02 357.327C170.046 352.977 166.541 349.428 162.189 349.402L159.632 349.385C155.281 349.358 151.732 352.865 151.706 357.216ZM151.587 376.187C151.56 380.538 155.066 384.086 159.418 384.112L161.975 384.129C166.326 384.156 169.875 380.649 169.901 376.298C169.927 371.946 166.424 368.393 162.072 368.367L159.516 368.35C155.164 368.324 151.615 371.83 151.587 376.187Z" fill="white"/>
<path d="M167.914 357.368C169.351 356.953 170.183 355.451 169.768 354.014C168.789 350.601 165.227 348.635 161.82 349.616C160.376 350.029 159.549 351.533 159.961 352.976C160.31 354.185 161.423 354.963 162.624 354.936C163.074 354.925 163.538 354.955 163.936 355.175C164.328 355.391 164.598 355.769 164.835 356.159C165.448 357.186 166.704 357.717 167.914 357.368ZM167.794 376.406C169.231 375.99 170.064 374.488 169.652 373.046C168.67 369.638 165.11 367.667 161.7 368.654C160.258 369.066 159.43 370.571 159.846 372.008C160.194 373.216 161.304 374 162.505 373.974C162.955 373.963 163.422 373.987 163.82 374.206C164.212 374.423 164.479 374.807 164.716 375.196C165.328 376.223 166.585 376.754 167.794 376.406Z" fill="#3D3D3D"/>
<path d="M164.968 390.748C165.829 386.923 165.295 384.28 166.368 375.899C167.214 369.295 170.856 362.398 170.714 361.158L175.273 361.315L172.685 390.334L164.968 390.748ZM151.49 367.003C151.665 366.889 151.337 384.12 151.49 383.55C146.921 383.55 143.216 379.846 143.216 375.277C143.216 370.707 146.921 367.003 151.49 367.003ZM151.583 365.614C151.758 365.728 151.43 348.497 151.583 349.067C147.014 349.067 143.31 352.771 143.31 357.341C143.31 361.91 147.014 365.614 151.583 365.614Z" fill="#FFC3B3"/>
<path d="M183.294 373.374C184.141 368.287 181.077 363.452 176.287 361.954C175.543 361.723 174.805 362.254 174.675 363.022L171.779 380.36C171.649 381.128 172.172 381.869 172.953 381.893C177.969 382.03 182.442 378.46 183.294 373.374Z" fill="#A52020"/>
<mask id="mask2_2001_6518" style="mask-type:alpha" maskUnits="userSpaceOnUse" x="171" y="361" width="13" height="21">
<path d="M183.294 373.374C184.141 368.287 181.077 363.452 176.287 361.954C175.543 361.723 174.805 362.254 174.675 363.022L171.779 380.36C171.649 381.128 172.172 381.869 172.953 381.893C177.969 382.03 182.442 378.46 183.294 373.374Z" fill="#A52020"/>
</mask>
<g mask="url(#mask2_2001_6518)">
<path d="M182.961 368.623C183.431 370.11 183.568 371.731 183.295 373.374C182.615 377.419 179.639 380.512 175.923 381.536C175.22 379.299 175.277 376.809 176.265 374.483C177.531 371.491 180.057 369.42 182.961 368.623Z" fill="#E63F3F"/>
</g>
<path d="M168.07 361.735C169.402 360.996 171.049 361.417 171.746 362.676C172.444 363.935 171.929 365.554 170.596 366.293C169.263 367.032 164.961 366.561 164.908 366.466C164.856 366.371 166.737 362.473 168.07 361.735Z" fill="#EE9583"/>
<path d="M194.038 394.443L199.563 371.958" stroke="#FF2D38" stroke-width="6.06065" stroke-linecap="round"/>
<path d="M199.566 371.962L203.34 350.124" stroke="#FF2D38" stroke-width="6.06065" stroke-linecap="round"/>
<path d="M203.34 350.124L204.6 342.832" stroke="#FFC3B3" stroke-width="6.06065"/>
<path d="M206.084 347.476C206.881 347.856 207.831 347.522 208.216 346.728L210.668 340.81C211.048 340.014 210.713 339.064 209.925 338.681C209.128 338.3 208.173 338.633 207.795 339.424L205.341 345.347C204.961 346.143 205.296 347.093 206.084 347.476Z" fill="#FFC3B3"/>
<path d="M203.698 349.636C205.854 349.989 207.888 348.528 208.245 346.377C208.602 344.227 207.145 342.189 204.99 341.836C202.839 341.479 200.802 342.936 200.444 345.086C200.091 347.242 201.544 349.274 203.698 349.636Z" fill="#FFC3B3"/>
<path d="M140.491 403.921L140.877 345.334L148.383 345.383L147.997 403.97L140.491 403.921ZM214.617 385.107H185.328C183.306 385.107 181.667 386.746 181.667 388.769V393.932C181.667 395.954 183.306 397.593 185.328 397.593H214.617C216.64 397.593 218.279 395.954 218.279 393.932V388.769C218.279 386.746 216.64 385.107 214.617 385.107Z" fill="#FF2D38"/>
<path d="M234.293 395.096H241.706" stroke="#FF2D38" stroke-width="5.12824" stroke-linecap="round"/>
<path d="M217.064 384.582L222.498 368.616" stroke="#FFC3B3" stroke-width="6.06065" stroke-linecap="round"/>
<path d="M222.498 368.616L224.821 373.607" stroke="#FFC3B3" stroke-width="6.06065" stroke-linecap="round"/>
<path d="M214.2 392.998L217.064 384.582" stroke="#EA0000" stroke-width="6.06065"/>
<path d="M224.821 373.607L231.476 387.911" stroke="#D8D8D8" stroke-width="6.06065"/>
<path d="M234.018 386.261C234.928 387.664 234.529 389.542 233.127 390.453C231.724 391.364 229.846 390.964 228.935 389.562C228.024 388.159 228.423 386.281 229.826 385.37C231.228 384.459 233.107 384.858 234.018 386.261Z" fill="#D8D8D8"/>
<path d="M186.912 387.938C186.568 387.986 186.256 387.744 186.213 387.403C186.162 387.064 186.402 386.744 186.743 386.701C191.995 385.99 197.418 385.925 202.903 386.577C208.228 387.216 213.325 388.486 218.131 390.312L217.558 391.432C212.888 389.668 207.931 388.44 202.755 387.822C197.371 387.181 192.063 387.244 186.912 387.938Z" fill="#D8D8D8"/>
<path d="M215.831 385.107H202.127V397.593H215.831C217.183 397.593 218.279 396.497 218.279 395.146V387.555C218.279 386.203 217.183 385.107 215.831 385.107Z" fill="#EA0000"/>
<path d="M213.567 378.568L219.001 362.602" stroke="#FFC3B3" stroke-width="6.06065" stroke-linecap="round"/>
<path d="M210.703 386.984L213.567 378.568" stroke="#EA0000" stroke-width="6.06065"/>
<path d="M216.95 376.541L218.908 371.087" stroke="#EE9583" stroke-width="1.11889" stroke-linecap="round"/>
<path d="M172.612 339.507L176.28 342.557C176.889 343.06 177.79 342.977 178.293 342.369C178.802 341.763 178.722 340.857 178.113 340.353L174.442 337.308C173.836 336.799 172.93 336.88 172.426 337.488C171.921 338.102 172.003 339.003 172.612 339.507Z" fill="#FFC3B3"/>
<path d="M206.007 328.836C206.76 329.281 207.393 329.902 207.851 330.647L217.719 346.693C218.032 347.267 217.819 347.986 217.245 348.299C216.88 348.497 216.437 348.489 216.078 348.278L193.036 334.682C192.852 334.573 192.701 334.416 192.598 334.228L181.607 314.439L206.007 328.836Z" fill="#FA8F19"/>
<path d="M208.926 349.294L211.795 344.432L193.704 333.757L190.835 338.62L208.926 349.294Z" fill="#D4CBCB"/>
<path d="M204.499 331.786L213.209 345.55L209.576 349.155C209.311 349.417 208.873 349.375 208.663 349.067L203.66 341.71C201.558 338.619 201.908 334.479 204.499 331.786Z" fill="#D8D8D8"/>
<path d="M198.502 340.346C197.732 340.779 197.455 341.749 197.882 342.517L200.308 346.889C200.741 347.66 201.711 347.937 202.479 347.51C203.246 347.083 203.524 346.112 203.1 345.339L200.668 340.964C200.241 340.196 199.27 339.919 198.502 340.346Z" fill="#FFC3B3"/>
<path d="M194.646 345.787L192.683 349.114L165.982 333.359C165.619 333.145 165.342 332.809 165.203 332.411L164.122 329.333L167.127 329.55L194.646 345.787Z" fill="#D4CBCB"/>
<path d="M203.66 332.001L190.869 344.421L192.341 348.742C192.48 349.15 192.993 349.28 193.309 348.989L201.027 341.883C203.747 339.379 204.774 335.527 203.66 332.001Z" fill="#D8D8D8"/>
<path d="M205.078 328.288C206.112 328.898 206.264 330.332 205.381 331.145L190.77 344.596C190.098 345.202 189.11 345.302 188.33 344.842L163.672 330.292C163.25 330.043 163.11 329.499 163.359 329.077C163.404 328.999 163.462 328.929 163.529 328.869L178.516 315.074C179.483 314.185 180.918 314.033 182.05 314.701L205.078 328.288Z" fill="#FAA519"/>
<path d="M184.141 323.185L174.701 331.737C174.275 332.124 173.646 332.188 173.15 331.896L169.747 329.887C169.122 329.519 168.913 328.712 169.282 328.087C169.35 327.973 169.434 327.869 169.532 327.78L178.972 319.228C179.399 318.842 180.028 318.778 180.523 319.07L183.927 321.078C184.552 321.448 184.76 322.253 184.391 322.879C184.324 322.993 184.239 323.097 184.141 323.185Z" fill="#FA8F19"/>
<path d="M184.968 394.07L191.775 371.879" stroke="#FF2D38" stroke-width="6.06065" stroke-linecap="round" stroke-linejoin="round"/>
<path d="M191.775 371.879L180.924 344.909" stroke="#FF2D38" stroke-width="6.06065" stroke-linecap="round" stroke-linejoin="round"/>
<path d="M179.358 332.296L175.8 338.846C175.421 339.542 175.677 340.409 176.373 340.787C177.064 341.165 177.937 340.909 178.315 340.213L181.868 333.663C182.251 332.972 181.99 332.099 181.299 331.721C180.603 331.344 179.736 331.605 179.358 332.296ZM182.5 334.655L179.943 338.685C179.523 339.354 179.717 340.237 180.388 340.662C181.052 341.083 181.938 340.882 182.36 340.218L184.917 336.189C185.339 335.525 185.143 334.637 184.473 334.217C183.808 333.79 182.922 333.991 182.5 334.655ZM180.929 332.725L178.537 336.854C178.143 337.534 178.373 338.414 179.059 338.807C179.746 339.206 180.619 338.97 181.012 338.284L183.405 334.155C183.798 333.475 183.568 332.601 182.883 332.202C182.196 331.809 181.322 332.039 180.929 332.725Z" fill="#FFC3B3"/>
<path d="M180.924 344.909L178.722 339.711" stroke="#FFC3B3" stroke-width="6.06065" stroke-linejoin="round"/>
<path d="M178.721 336.681C180.394 336.681 181.752 338.039 181.752 339.711C181.752 341.384 180.394 342.742 178.721 342.742C177.049 342.742 175.691 341.384 175.691 339.711C175.691 338.039 177.049 336.681 178.721 336.681Z" fill="#FFC3B3"/>
<path d="M248.7 361.034L247.3 367.497" stroke="#FF2D38" stroke-width="5.12824" stroke-linecap="round"/>
<path d="M219.001 362.602L224.453 363.373" stroke="#FFC3B3" stroke-width="6.06065" stroke-linecap="round"/>
<path d="M224.453 363.373L240.074 365.581" stroke="#D8D8D8" stroke-width="6.06065"/>
<path d="M240.074 362.551C241.746 362.551 243.104 363.909 243.104 365.581C243.104 367.254 241.746 368.612 240.074 368.612C238.401 368.612 237.043 367.254 237.043 365.581C237.043 363.909 238.401 362.551 240.074 362.551Z" fill="#D8D8D8"/>
<mask id="mask3_2001_6518" style="mask-type:luminance" maskUnits="userSpaceOnUse" x="63" y="64" width="404" height="404">
<path d="M63.6895 64.7739H466.489V467.574H63.6895V64.7739Z" fill="white"/>
</mask>
<g mask="url(#mask3_2001_6518)">
<path d="M415.303 246.673L420.641 298.412C421.435 306.108 418.471 311.862 409.993 313.458C402.307 314.905 391.337 315.614 384.345 315.426C376.606 315.219 369.989 314.307 362.964 312.826C354.414 311.023 348.923 305.807 350.032 297.947L357.336 246.02C358.245 236.99 364.782 234.499 370.224 234.425C380.454 234.285 391.751 234.289 402.188 234.425C407.679 234.496 414.616 237.332 415.303 246.673Z" fill="#A56644"/>
</g>
<mask id="mask4_2001_6518" style="mask-type:alpha" maskUnits="userSpaceOnUse" x="349" y="234" width="72" height="82">
<mask id="mask5_2001_6518" style="mask-type:luminance" maskUnits="userSpaceOnUse" x="63" y="64" width="404" height="404">
<path d="M63.6895 64.7739H466.489V467.574H63.6895V64.7739Z" fill="white"/>
</mask>
<g mask="url(#mask5_2001_6518)">
<path d="M415.303 246.673L420.641 298.412C421.435 306.108 418.471 311.862 409.993 313.458C402.307 314.905 391.337 315.614 384.345 315.426C376.606 315.219 369.989 314.307 362.964 312.826C354.414 311.023 348.923 305.807 350.032 297.947L357.336 246.02C358.245 236.99 364.782 234.499 370.224 234.425C380.454 234.285 391.751 234.289 402.188 234.425C407.679 234.496 414.616 237.332 415.303 246.673Z" fill="#A56644"/>
</g>
</mask>
<g mask="url(#mask4_2001_6518)">
<path d="M357.305 228.411L348.26 247.339C348.26 247.339 349.193 251.908 359.915 253.213C370.638 254.519 389.566 253.726 400.568 244.169C404.746 240.54 404.578 234.472 400.195 232.514C397.26 231.202 357.305 228.411 357.305 228.411Z" fill="#C28667"/>
<path d="M386.862 289.298C386.769 292.002 386.209 295.731 383.878 298.435C381.547 301.139 377.833 307.098 381.454 312.608C383.599 315.871 387.981 317.083 387.981 317.083" stroke="#944D27" stroke-width="1.86481" stroke-linecap="round"/>
<path d="M368.867 289.111C368.773 293.587 367.934 296.477 370.731 299.647C373.529 302.817 374.927 305.801 374.648 308.692C374.368 311.582 371.664 316.151 366.629 315.312" stroke="#944D27" stroke-width="1.86481" stroke-linecap="round"/>
<path d="M417.632 257.223L372.69 269.717L351.99 256.477L349.193 268.598L371.944 276.617L420.056 271.022L417.632 257.223Z" fill="#2FE3FF"/>
</g>
<path d="M391.431 226.267L392.55 222.91" stroke="#A56644" stroke-width="10.9092" stroke-linecap="round"/>
<mask id="mask6_2001_6518" style="mask-type:alpha" maskUnits="userSpaceOnUse" x="385" y="217" width="14" height="15">
<path d="M391.431 226.267L392.55 222.91" stroke="#A56644" stroke-width="10.9092" stroke-linecap="round"/>
</mask>
<g mask="url(#mask6_2001_6518)">
<path d="M389.846 223.283L390.965 219.927" stroke="#C28667" stroke-width="10.9092" stroke-linecap="round"/>
</g>
<path d="M404.857 228.132L407.561 224.961" stroke="#A56644" stroke-width="10.9092" stroke-linecap="round"/>
<mask id="mask7_2001_6518" style="mask-type:alpha" maskUnits="userSpaceOnUse" x="399" y="219" width="15" height="15">
<path d="M404.857 228.132L407.561 224.961" stroke="#A56644" stroke-width="10.9092" stroke-linecap="round"/>
</mask>
<g mask="url(#mask7_2001_6518)">
<path d="M404.624 223.423L407.328 220.253" stroke="#C28667" stroke-width="10.9092" stroke-linecap="round"/>
</g>
<path d="M371.69 269.575L368.891 269.081C368.309 268.979 367.729 269.271 367.465 269.8L360.853 283.037C360.447 283.817 360.95 284.808 361.815 284.949L368.763 286.174C369.489 286.302 370.181 285.817 370.31 285.091L372.772 271.121C372.901 270.396 372.416 269.703 371.69 269.575ZM374.235 273.049H377.077C377.669 273.049 378.189 273.437 378.358 274.003L382.57 288.188C382.834 289.026 382.167 289.916 381.291 289.904H374.235C373.498 289.904 372.9 289.306 372.9 288.568V274.384C372.9 273.646 373.498 273.049 374.235 273.049Z" fill="#2FE3FF"/>
<path d="M376.699 251.255L375.114 259.461" stroke="#E5A259" stroke-width="14.4523" stroke-linecap="round"/>
<path d="M374.675 245.172C376.154 245.172 377.355 246.373 377.355 247.853C377.355 249.332 376.154 250.533 374.675 250.533C373.195 250.533 371.994 249.332 371.994 247.853C371.994 246.373 373.195 245.172 374.675 245.172Z" fill="#3D3D3D"/>
<path d="M376.402 252.281C376.175 252.818 375.487 253.446 374.558 253.751C372.871 254.306 372.165 256.307 373.253 257.994C374.605 260.092 377.752 258.958 379.453 257.574C382.204 255.336 382.393 252.715 380.573 251.197C379.5 250.301 377.072 250.696 376.402 252.281Z" fill="#7E3B2A"/>
<path d="M376.402 252.281C376.175 252.818 375.486 253.447 374.557 253.752C372.871 254.306 372.165 256.307 373.252 257.994C374.604 260.092 377.753 258.958 379.453 257.575C382.203 255.337 382.393 252.715 380.572 251.197C379.499 250.302 377.071 250.696 376.402 252.281Z" fill="#7E3B2A"/>
<mask id="mask8_2001_6518" style="mask-type:alpha" maskUnits="userSpaceOnUse" x="372" y="250" width="10" height="10">
<path d="M376.402 252.281C376.175 252.818 375.486 253.447 374.557 253.752C372.871 254.306 372.165 256.307 373.252 257.994C374.604 260.092 377.753 258.958 379.453 257.575C382.203 255.337 382.393 252.715 380.572 251.197C379.499 250.302 377.071 250.696 376.402 252.281Z" fill="#7E3B2A"/>
<path d="M376.402 252.281C376.175 252.818 375.486 253.447 374.557 253.752C372.871 254.306 372.165 256.307 373.252 257.994C374.604 260.092 377.753 258.958 379.453 257.575C382.203 255.337 382.393 252.715 380.572 251.197C379.499 250.302 377.071 250.696 376.402 252.281Z" fill="#7E3B2A"/>
</mask>
<g mask="url(#mask8_2001_6518)">
<path d="M380.378 253.847C383.22 253.847 385.528 256.155 385.528 258.997C385.528 261.84 383.22 264.148 380.378 264.148C377.535 264.148 375.227 261.84 375.227 258.997C375.227 256.155 377.535 253.847 380.378 253.847Z" fill="#E64340"/>
</g>
<mask id="mask9_2001_6518" style="mask-type:alpha" maskUnits="userSpaceOnUse" x="349" y="234" width="72" height="82">
<mask id="mask10_2001_6518" style="mask-type:luminance" maskUnits="userSpaceOnUse" x="63" y="64" width="404" height="404">
<path d="M63.6895 64.7739H466.489V467.574H63.6895V64.7739Z" fill="white"/>
</mask>
<g mask="url(#mask10_2001_6518)">
<path d="M415.303 246.673L420.641 298.412C421.435 306.108 418.471 311.862 409.993 313.458C402.307 314.905 391.337 315.614 384.345 315.426C376.606 315.219 369.989 314.307 362.964 312.826C354.414 311.023 348.923 305.807 350.032 297.947L357.336 246.02C358.245 236.99 364.782 234.499 370.224 234.425C380.454 234.285 391.751 234.289 402.188 234.425C407.679 234.496 414.616 237.332 415.303 246.673Z" fill="#A56644"/>
</g>
</mask>
<g mask="url(#mask9_2001_6518)">
<path d="M403.928 319.928C403.261 319.928 402.594 319.837 401.948 319.655C400.066 319.127 398.501 317.897 397.544 316.194C396.586 314.488 396.349 312.514 396.878 310.631L399.022 302.985C399.904 299.838 402.801 297.642 406.067 297.642C406.733 297.642 407.399 297.733 408.046 297.915C409.929 298.443 411.493 299.672 412.451 301.376C413.409 303.081 413.645 305.056 413.117 306.939L410.972 314.584C410.09 317.731 407.193 319.928 403.928 319.928ZM354.694 319.369C351.592 319.369 348.816 317.401 347.788 314.473L344.711 305.708C343.374 301.9 345.385 297.714 349.193 296.377C349.976 296.102 350.792 295.963 351.617 295.963C354.719 295.963 357.495 297.931 358.523 300.859L361.6 309.624C362.937 313.432 360.926 317.618 357.118 318.955C356.335 319.23 355.518 319.369 354.694 319.369Z" fill="#944D27"/>
<path d="M403.928 319.929C403.261 319.929 402.595 319.837 401.948 319.655C400.066 319.127 398.502 317.898 397.544 316.193C396.586 314.489 396.35 312.514 396.878 310.631L399.022 302.985C399.905 299.839 402.802 297.641 406.067 297.641C406.734 297.641 407.4 297.733 408.046 297.915C409.929 298.443 411.493 299.672 412.451 301.377C413.409 303.081 413.645 305.056 413.117 306.939L410.973 314.585C410.09 317.731 407.193 319.929 403.928 319.929Z" fill="#944D27"/>
</g>
<path d="M403.928 318.063C403.44 318.063 402.945 317.998 402.452 317.86C399.551 317.046 397.86 314.035 398.673 311.135L400.817 303.489C401.631 300.588 404.642 298.897 407.543 299.71C410.443 300.524 412.135 303.535 411.322 306.435L409.177 314.081C408.501 316.489 406.312 318.063 403.928 318.063ZM354.694 317.504C352.442 317.504 350.335 316.1 349.547 313.855L346.47 305.091C345.472 302.248 346.968 299.135 349.81 298.137C352.653 297.139 355.766 298.635 356.764 301.477L359.841 310.241C360.838 313.084 359.343 316.198 356.501 317.195C355.903 317.405 355.293 317.504 354.694 317.504Z" fill="#A56644"/>
<path d="M232.317 160.883C233.201 159.986 234.311 159.253 235.556 158.683C240.828 156.265 244.715 154.8 250.882 155.719" stroke="#1CB0F6" stroke-width="13.158" stroke-linecap="round"/>
<mask id="mask11_2001_6518" style="mask-type:alpha" maskUnits="userSpaceOnUse" x="145" y="164" width="185" height="119">
<path d="M329.299 237.278C324.396 209.036 320.22 184.855 319.394 179.691C319.133 178.064 318.722 176.613 318.192 175.312L317.097 173.104C315.136 169.805 312.283 167.75 309.277 166.487L307.209 165.74C301.121 163.882 295.099 164.782 295.099 164.782C295.099 164.782 236.718 167.256 220.179 168.613C220.179 168.613 193.825 184.826 193.56 185.565C193.56 185.565 145.33 278.661 145.325 282.398C143.667 282.584 329.299 237.278 329.299 237.278Z" fill="#C10606"/>
</mask>
<g mask="url(#mask11_2001_6518)">
<path d="M326.498 175.557C325.844 175.067 324.026 174.478 320.69 173.666C315.055 172.292 310.832 169.474 306.028 170.904" stroke="#1CB0F6" stroke-width="0.184028"/>
<path d="M326.498 175.557C325.844 175.067 324.026 174.478 320.69 173.666C315.055 172.292 310.832 169.474 306.028 170.904" stroke="#1CB0F6" stroke-width="13.158" stroke-linecap="round"/>
</g>
<mask id="mask12_2001_6518" style="mask-type:alpha" maskUnits="userSpaceOnUse" x="145" y="164" width="185" height="119">
<path d="M329.299 237.278C324.396 209.036 320.22 184.855 319.394 179.691C319.133 178.064 318.722 176.613 318.192 175.312L317.097 173.104C315.136 169.805 312.283 167.75 309.277 166.487L307.209 165.74C301.121 163.882 295.099 164.782 295.099 164.782C295.099 164.782 236.718 167.256 220.179 168.613C220.179 168.613 193.825 184.826 193.56 185.565C193.56 185.565 145.33 278.661 145.325 282.398C143.667 282.584 329.299 237.278 329.299 237.278Z" fill="#C10606"/>
</mask>
<g mask="url(#mask12_2001_6518)">
<path d="M280.418 141.549C255.666 146.61 243.337 146.334 237.724 155.719C232.111 165.105 232.387 188.752 232.387 188.752L309.127 175.134C309.127 175.134 298.851 144.106 288.694 142.732C285.695 142.326 285.746 140.46 280.418 141.549Z" fill="#1CB0F6"/>
</g>
<path d="M276.904 111.896L298.619 122.662" stroke="#1CB0F6" stroke-width="12.8819" stroke-linecap="round"/>
<path d="M285.608 113.253C305.4 113.253 321.47 129.323 321.47 149.115C321.47 168.907 305.4 184.977 285.608 184.977C265.815 184.977 249.746 168.907 249.746 149.115C249.746 129.323 265.815 113.253 285.608 113.253Z" fill="#1CB0F6"/>
<path d="M286.477 138.406C301.299 138.406 313.333 149.054 313.333 162.168C313.333 175.282 301.299 185.93 286.477 185.93C271.656 185.93 259.622 175.282 259.622 162.168C259.622 149.054 271.656 138.406 286.477 138.406Z" fill="#E18E70"/>
<mask id="mask13_2001_6518" style="mask-type:alpha" maskUnits="userSpaceOnUse" x="249" y="105" width="73" height="80">
<path d="M276.904 111.896L298.619 122.662" stroke="#1CB0F6" stroke-width="12.8819" stroke-linecap="round"/>
<path d="M285.608 113.253C305.4 113.253 321.47 129.323 321.47 149.115C321.47 168.907 305.4 184.977 285.608 184.977C265.815 184.977 249.746 168.907 249.746 149.115C249.746 129.323 265.815 113.253 285.608 113.253Z" fill="#1CB0F6"/>
</mask>
<g mask="url(#mask13_2001_6518)">
<path d="M242.785 104.393C242.785 104.393 247.1 146.407 247.319 146.754C249.944 142.5 257.892 124.546 286.649 123.098C310.296 121.908 326.635 145.541 326.635 145.541L320.881 98.4051L242.785 104.393Z" fill="#51D1FA"/>
</g>
<path d="M289.61 176.503C290.187 177.892 289.598 179.477 288.295 180.042C286.992 180.608 285.468 179.941 284.892 178.552C284.315 177.163 285.239 172.959 285.337 172.917C285.436 172.874 289.034 175.114 289.61 176.503Z" fill="#9A4E34"/>
<path d="M280.476 156.205C284.924 157.15 287.764 161.523 286.819 165.971L286.263 168.583C285.318 173.031 280.945 175.87 276.497 174.924C272.049 173.979 269.209 169.607 270.154 165.159L270.71 162.547C271.655 158.099 276.027 155.259 280.476 156.205ZM297.867 159.15C302.315 160.095 305.154 164.467 304.209 168.915L303.654 171.527C302.709 175.975 298.336 178.815 293.887 177.869C289.439 176.924 286.6 172.551 287.545 168.103L288.1 165.491C289.045 161.043 293.418 158.204 297.867 159.15Z" fill="white"/>
<path d="M275.256 170.545C276.884 171.989 279.368 171.787 280.78 170.796M292.509 173.489C294.137 174.934 296.62 174.732 298.033 173.741" stroke="#3D3D3D" stroke-width="5.98091" stroke-linecap="round"/>
<path d="M280.782 167.67C281.693 167.665 282.436 168.4 282.439 169.307C282.444 170.214 281.707 170.954 280.796 170.958C279.886 170.962 279.142 170.228 279.139 169.321C279.135 168.413 279.871 167.674 280.782 167.67ZM298.081 170.66C298.991 170.657 299.734 171.39 299.738 172.297C299.742 173.205 299.005 173.944 298.094 173.949C297.184 173.953 296.441 173.219 296.437 172.312C296.433 171.404 297.17 170.664 298.081 170.66Z" fill="white"/>
<path d="M230.183 166.228C230.15 164.924 230.431 163.764 230.955 162.746" stroke="#E18E70" stroke-width="13.158" stroke-linecap="round"/>
<path d="M321.389 177.853C322.927 177.5 324.213 177.201 325.144 176.917" stroke="#E18E70" stroke-width="13.158" stroke-linecap="round"/>
<path d="M296.613 139.065C289.62 136.304 280.142 137.96 276.738 140.077C276.37 146.334 280.471 153.381 293.3 156.041C312.163 159.952 317.96 145.874 316.12 143.527C315.37 142.572 311.059 143.987 307.838 143.803C304.439 143.609 303.606 141.825 296.613 139.065Z" fill="#3D3D3D"/>
<path d="M273.214 176.093C271.397 173.79 268.279 175.289 270.14 177.823C271.525 179.708 274.15 181.254 275.882 181.677C279.034 182.445 279.5 179.758 277.309 179.031C275.362 178.384 274.402 177.599 273.214 176.093Z" fill="#A52020"/>
<mask id="mask14_2001_6518" style="mask-type:alpha" maskUnits="userSpaceOnUse" x="269" y="174" width="10" height="8">
<path d="M273.214 176.093C271.397 173.79 268.279 175.289 270.14 177.823C271.525 179.708 274.15 181.254 275.882 181.677C279.034 182.445 279.5 179.758 277.309 179.031C275.362 178.384 274.402 177.599 273.214 176.093Z" fill="#A52020"/>
</mask>
<g mask="url(#mask14_2001_6518)">
<path d="M271.725 177.596C273.515 177.408 275.102 178.711 275.267 180.503C275.431 182.296 274.111 183.904 272.32 184.093C270.53 184.281 268.943 182.978 268.779 181.185C268.615 179.392 269.935 177.784 271.725 177.596Z" fill="#E63F3F"/>
</g>
</g>
</g>
</g>
</g>
<defs>
<clipPath id="clip0_2001_6518">
<rect width="530" height="530" fill="white" transform="translate(0.849609 0.859863)"/>
</clipPath>
<clipPath id="clip1_2001_6518">
<rect width="530" height="530" fill="white" transform="translate(0.849609 0.859863)"/>
</clipPath>
</defs>
</svg>
