<svg width="525" height="531" viewBox="0 0 525 531" fill="none" xmlns="http://www.w3.org/2000/svg">
<g clip-path="url(#clip0_2001_7063)">
<g clip-path="url(#clip1_2001_7063)">
<g clip-path="url(#clip2_2001_7063)">
<mask id="mask0_2001_7063" style="mask-type:luminance" maskUnits="userSpaceOnUse" x="-6" y="0" width="531" height="531">
<path d="M524.85 0.859863H-5.15039V530.86H524.85V0.859863Z" fill="white"/>
</mask>
<g mask="url(#mask0_2001_7063)">
<mask id="mask1_2001_7063" style="mask-type:luminance" maskUnits="userSpaceOnUse" x="-6" y="0" width="531" height="531">
<path d="M-5.15039 0.859863H524.85V530.86H-5.15039V0.859863Z" fill="white"/>
</mask>
<g mask="url(#mask1_2001_7063)">
<path d="M106.439 319.202L108.65 299.041L337.932 417.817L335.925 434.962L205.618 451.304L106.439 319.202ZM328.238 441.778L215.544 458.441C208.275 459.403 201.054 456.356 196.638 450.465L107.675 322.46C105.172 318.582 106.555 314.443 112.668 314.08L208.878 305.966C208.96 305.961 209.042 305.959 209.123 305.96C212.972 305.999 216.654 307.554 219.381 310.293L333.48 426.218C338.822 431.585 335.721 440.788 328.238 441.778Z" fill="#007AC3"/>
<path d="M330.324 423.981L217.63 438.882C210.361 439.844 203.139 436.797 198.724 430.906L109.76 302.901C107.257 299.023 108.641 294.884 114.754 294.521L217.541 289.455C217.622 289.451 217.704 289.449 217.786 289.45C221.634 289.489 225.317 291.043 228.043 293.782L335.566 408.421C340.908 413.788 337.807 422.992 330.324 423.981Z" fill="#00C5FF"/>
<path d="M323.52 420.663L219.508 434.711C213.038 435.567 206.61 432.855 202.68 427.612L117.47 305.481C115.242 302.029 115.058 298.521 120.499 298.198L213.655 293.646C213.728 293.642 216.754 293.639 216.827 293.64C220.253 293.675 223.53 295.058 225.957 297.496L328.187 406.815C332.941 411.592 330.181 419.783 323.52 420.663Z" fill="white"/>
<path d="M137.325 311.677L219.033 307.231C220.565 307.147 222.471 307.801 223.294 308.692C224.12 309.587 224.021 311.064 222.482 311.151L140.373 315.53C138.708 315.623 136.402 314.861 135.689 313.92C134.979 312.983 135.668 311.767 137.325 311.677Z" fill="#E3E3E3"/>
<path d="M137.318 311.677L157.67 310.568C159.302 310.48 161.052 310.844 161.949 312.084C162.684 313.014 161.944 314.295 160.304 314.387L139.902 315.524C138.237 315.618 136.507 315.191 135.682 313.921C134.972 312.983 135.661 311.768 137.318 311.677ZM205.892 403.949L296.669 393.481C299.425 393.216 304.081 394.526 305.887 396.507L311.726 402.987C313.574 405.012 312.822 406.897 310.028 407.185L216.798 418.505C213.723 418.822 209.916 417.314 208.31 415.147L203.235 408.3C201.667 406.183 202.864 404.24 205.892 403.949Z" fill="#57CA03"/>
<path d="M156.967 328.921L205.283 390.705M169.042 328.091L218.316 389.388M180.98 327.27L231.103 387.985M192.786 326.458L243.725 386.596M204.46 325.655L256.374 385.441M216.006 324.861L268.839 384.26M227.425 324.076L281.124 383.06M243.17 329.569L150.061 336.27M249.805 336.713L156.033 343.811M256.604 344.034L161.853 351.57M263.575 351.537L167.94 359.524M270.722 359.233L174.226 367.686M278.053 367.126L180.321 376.101M285.575 375.225L186.789 384.729M288.742 383.08L197.606 392.218C194.623 392.518 190.947 391.126 189.429 389.126L145.871 331.76C144.619 330.111 145.849 328.623 148.601 328.435L233.024 322.671C235.558 322.498 238.789 323.62 240.24 325.18L290.502 379.178C292.247 381.052 291.464 382.807 288.742 383.08Z" stroke="#E3E3E3" stroke-width="1.47222" stroke-miterlimit="10"/>
<path d="M199.221 348.342L221.805 346.548C222.225 346.515 222.753 346.705 222.985 346.971L235.623 361.524C235.866 361.805 235.716 362.062 235.288 362.1L212.264 364.114C211.826 364.152 211.28 363.952 211.045 363.668L198.848 348.894C198.625 348.623 198.792 348.376 199.221 348.342Z" fill="#DBF2FF"/>
<path d="M235.552 362.404L212.519 364.423C211.819 364.484 210.944 364.164 210.569 363.71L198.381 348.931C198.024 348.499 198.292 348.103 198.978 348.049L221.554 346.259C222.225 346.206 223.071 346.509 223.441 346.934L236.087 361.484C236.475 361.931 236.236 362.344 235.552 362.404ZM199.464 348.636C199.292 348.649 199.225 348.748 199.314 348.856L211.52 363.627C211.614 363.74 211.833 363.82 212.008 363.805L235.024 361.795C235.195 361.78 235.255 361.677 235.158 361.565L222.528 347.007C222.435 346.901 222.224 346.825 222.056 346.838L199.464 348.636Z" fill="#81D6FD"/>
<path d="M223.88 362.651L222.94 362.733L210.461 347.981L211.384 347.908L223.88 362.651ZM228.762 354.669L206.076 356.566L205.578 355.963L228.248 354.076L228.762 354.669Z" fill="#81D6FD"/>
<path d="M201.365 352.283C198.098 352.549 194.062 351.081 192.386 349.025C190.723 346.983 192.018 345.127 195.254 344.876C198.48 344.625 202.467 346.062 204.161 348.089C205.867 350.131 204.621 352.018 201.365 352.283ZM214.284 367.873C210.953 368.171 206.792 366.641 205.029 364.477C203.278 362.328 204.555 360.36 207.854 360.079C211.143 359.798 215.251 361.295 217.034 363.428C218.828 365.576 217.604 367.576 214.284 367.873ZM239.18 365.523C235.989 365.783 231.963 364.337 230.225 362.311C228.498 360.299 229.681 358.472 232.842 358.227C235.994 357.982 239.971 359.4 241.727 361.397C243.494 363.409 242.36 365.265 239.18 365.523ZM226.117 350.456C222.866 350.747 218.716 349.24 216.888 347.109C215.072 344.993 216.232 343.058 219.453 342.783C222.664 342.509 226.761 343.985 228.607 346.085C230.465 348.2 229.358 350.166 226.117 350.456Z" fill="white"/>
<path d="M195.733 345.463C198.454 345.251 201.806 346.46 203.233 348.17C204.668 349.891 203.618 351.474 200.875 351.696C198.125 351.919 194.738 350.689 193.325 348.958C191.92 347.237 193.004 345.676 195.733 345.463ZM208.359 360.698C211.133 360.46 214.587 361.718 216.087 363.518C217.597 365.329 216.566 367.006 213.769 367.255C210.965 367.505 207.474 366.223 205.987 364.401C204.508 362.59 205.577 360.936 208.359 360.698ZM233.34 358.806C235.999 358.599 239.342 359.791 240.82 361.476C242.307 363.171 241.351 364.728 238.672 364.945C235.986 365.163 232.609 363.951 231.143 362.245C229.685 360.55 230.675 359.013 233.34 358.806ZM219.976 343.392C222.685 343.16 226.129 344.402 227.683 346.174C229.247 347.956 228.313 349.605 225.583 349.848C222.846 350.092 219.365 348.829 217.823 347.035C216.29 345.252 217.261 343.625 219.976 343.392Z" fill="#23AEF4"/>
</g>
<path d="M211.154 105.894C210.546 106.815 211.367 107.998 212.454 107.787L219.368 106.364L224.243 105.361L229.457 104.288C230.542 104.065 230.812 102.645 229.885 102.039L219.615 95.3459C219.038 94.9593 218.267 95.1184 217.89 95.6887L211.154 105.894Z" fill="#81D6FD"/>
<path d="M221.008 104.122L240.864 225.578" stroke="#81D6FD" stroke-width="3.92593" stroke-linecap="round"/>
<path d="M120.413 250.327C121.317 250.961 122.523 250.176 122.343 249.083L121.123 242.13L120.263 237.229L119.343 231.986C119.152 230.894 117.74 230.583 117.108 231.492L110.117 241.561C109.714 242.126 109.85 242.902 110.409 243.296L120.413 250.327Z" fill="#81D6FD"/>
<path d="M240.584 224.509L117.078 240.968" stroke="#81D6FD" stroke-width="3.92593" stroke-linecap="round"/>
<mask id="mask2_2001_7063" style="mask-type:alpha" maskUnits="userSpaceOnUse" x="232" y="176" width="50" height="32">
<path d="M281.275 193.142L232.317 176.851L237.481 207.851L281.275 193.142Z" fill="#23AEF4"/>
</mask>
<g mask="url(#mask2_2001_7063)">
<path d="M245.642 194.686L250.916 196.571M233.83 193.715L239.542 193.692M223.06 198.119L228.105 195.514M214.381 206.371L218.476 201.826M209.563 217L211.565 211.521M209.212 228.262L208.901 222.882" stroke="#81D6FD" stroke-width="3.92593" stroke-linecap="round"/>
</g>
<path d="M246.629 225.012C245.808 228.914 241.98 231.412 238.078 230.591C234.176 229.77 231.678 225.941 232.499 222.039C233.32 218.137 237.148 215.639 241.05 216.46C244.952 217.281 247.45 221.11 246.629 225.012Z" fill="white"/>
<path d="M246.629 225.012C245.808 228.914 241.98 231.412 238.078 230.591C234.176 229.77 231.678 225.941 232.499 222.039C233.32 218.137 237.148 215.639 241.05 216.46C244.952 217.281 247.45 221.11 246.629 225.012Z" stroke="#81D6FD" stroke-width="3.92593" stroke-linecap="round"/>
<mask id="mask3_2001_7063" style="mask-type:luminance" maskUnits="userSpaceOnUse" x="-3" y="-10" width="589" height="590">
<path d="M59.1348 -9.20532L585.49 52.8419L523.443 579.197L-2.91241 517.15L59.1348 -9.20532Z" fill="white"/>
</mask>
<g mask="url(#mask3_2001_7063)">
<path d="M403.238 403.969L402.416 410.945L401.63 417.61L400.1 430.592L399.497 435.709" stroke="#81D6FD" stroke-width="8.83333" stroke-linecap="round" stroke-linejoin="round"/>
<path d="M401.264 419.67L385.607 417.825M417.34 421.625L401.684 419.78" stroke="#81D6FD" stroke-width="8.83333" stroke-linecap="round" stroke-linejoin="round"/>
</g>
<mask id="mask4_2001_7063" style="mask-type:luminance" maskUnits="userSpaceOnUse" x="-28" y="-22" width="588" height="589">
<path d="M33.4414 -21.5398L559.888 39.7305L498.618 566.177L-27.8289 504.907L33.4414 -21.5398Z" fill="white"/>
</mask>
<g mask="url(#mask4_2001_7063)">
<path d="M430.289 342.914C429.083 356.723 417.509 367.023 404.439 365.921C391.368 364.819 381.751 352.733 382.957 338.925C384.163 325.117 395.737 314.816 408.808 315.918C421.878 317.02 431.496 329.106 430.289 342.914Z" fill="#333333"/>
<path d="M386.249 311.285C382.499 322.192 370.636 327.779 359.752 323.764C348.868 319.75 343.084 307.653 346.834 296.747C350.584 285.841 362.447 280.254 373.332 284.268C384.216 288.283 389.999 300.379 386.249 311.285Z" fill="#333333"/>
<path d="M417.041 321.027C409.676 331.381 394.473 333.447 383.086 325.644C371.699 317.841 368.438 303.122 375.803 292.769C383.168 282.416 398.371 280.349 409.758 288.152C421.145 295.955 424.406 310.674 417.041 321.027Z" fill="url(#paint0_radial_2001_7063)"/>
<mask id="mask5_2001_7063" style="mask-type:luminance" maskUnits="userSpaceOnUse" x="-28" y="-22" width="588" height="589">
<path d="M33.4414 -21.5398L559.888 39.7305L498.618 566.177L-27.8289 504.907L33.4414 -21.5398Z" fill="white"/>
</mask>
<g mask="url(#mask5_2001_7063)">
<path d="M418.757 355.9C412.242 382.39 385.628 398.58 359.315 392.063C333.002 385.545 316.953 358.787 323.468 332.298C329.984 305.808 356.597 289.618 382.911 296.135C409.224 302.653 425.273 329.411 418.757 355.9Z" fill="url(#paint1_radial_2001_7063)"/>
</g>
<path d="M393.707 320.225C390.1 323.878 383.491 323.152 378.946 318.606C374.401 314.06 373.641 307.414 377.248 303.762C380.855 300.11 387.464 300.835 392.009 305.381C396.554 309.927 397.314 316.573 393.707 320.225Z" fill="white"/>
<path d="M393.197 311.919C392.316 312.736 390.743 312.548 389.684 311.499C388.624 310.451 388.48 308.939 389.361 308.122C390.242 307.305 391.815 307.492 392.874 308.541C393.934 309.59 394.079 311.102 393.197 311.919Z" fill="#3D3D3D"/>
<path d="M391.574 316.949C388.462 321.036 390.063 327.527 395.151 331.449C400.239 335.37 406.887 335.235 409.999 331.148C413.112 327.061 411.51 320.569 406.422 316.648C401.334 312.727 394.686 312.862 391.574 316.949Z" fill="white"/>
<path d="M398.648 315.443C397.893 316.32 398.238 317.816 399.419 318.787C400.6 319.757 402.169 319.833 402.924 318.957C403.679 318.081 403.334 316.584 402.154 315.614C400.973 314.644 399.403 314.567 398.648 315.443Z" fill="#3D3D3D"/>
<mask id="mask6_2001_7063" style="mask-type:alpha" maskUnits="userSpaceOnUse" x="322" y="294" width="99" height="100">
<mask id="mask7_2001_7063" style="mask-type:luminance" maskUnits="userSpaceOnUse" x="-28" y="-22" width="588" height="589">
<path d="M33.4414 -21.5398L559.888 39.7305L498.618 566.177L-27.8289 504.907L33.4414 -21.5398Z" fill="white"/>
</mask>
<g mask="url(#mask7_2001_7063)">
<path d="M418.757 355.9C412.242 382.39 385.628 398.58 359.315 392.063C333.002 385.545 316.953 358.787 323.468 332.298C329.984 305.808 356.597 289.618 382.911 296.135C409.224 302.653 425.273 329.411 418.757 355.9Z" fill="url(#paint2_radial_2001_7063)"/>
</g>
</mask>
<g mask="url(#mask6_2001_7063)">
<path d="M376.441 281.723C376.441 281.723 366.784 307.53 372.314 303.381C383.753 294.8 398.258 302.293 396.368 312.714C395.839 315.635 402.357 294.149 402.357 294.149L376.441 281.723ZM385.598 335.791C385.598 335.791 392.03 328.164 392.241 321.254C392.503 312.682 378.657 302.178 371.341 304.451C368.506 305.331 366.781 317.368 366.781 317.368L385.598 335.791Z" fill="#DA8E74"/>
</g>
<mask id="mask8_2001_7063" style="mask-type:alpha" maskUnits="userSpaceOnUse" x="322" y="294" width="99" height="100">
<mask id="mask9_2001_7063" style="mask-type:luminance" maskUnits="userSpaceOnUse" x="-28" y="-22" width="588" height="589">
<path d="M33.4414 -21.5398L559.888 39.7305L498.618 566.177L-27.8289 504.907L33.4414 -21.5398Z" fill="white"/>
</mask>
<g mask="url(#mask9_2001_7063)">
<path d="M418.757 355.9C412.242 382.39 385.628 398.58 359.315 392.063C333.002 385.545 316.953 358.787 323.468 332.298C329.984 305.808 356.597 289.618 382.911 296.135C409.224 302.653 425.273 329.411 418.757 355.9Z" fill="url(#paint3_radial_2001_7063)"/>
</g>
</mask>
<g mask="url(#mask8_2001_7063)">
<path d="M400.835 298.704L418.085 307.59C418.085 307.59 411.96 333.695 412.424 330.763C414.374 318.44 400.364 308.286 396.039 313.368C399.031 305.414 400.835 298.704 400.835 298.704ZM379.37 329.715C379.37 329.715 385.282 322.792 392.012 321.229C400.361 319.291 413.439 329.353 412.434 336.453C412.045 339.205 400.548 343.161 400.548 343.161L379.37 329.715Z" fill="#DA8E74"/>
</g>
<mask id="mask10_2001_7063" style="mask-type:alpha" maskUnits="userSpaceOnUse" x="322" y="294" width="99" height="100">
<mask id="mask11_2001_7063" style="mask-type:luminance" maskUnits="userSpaceOnUse" x="-28" y="-22" width="588" height="589">
<path d="M33.4414 -21.5398L559.888 39.7305L498.618 566.177L-27.8289 504.907L33.4414 -21.5398Z" fill="white"/>
</mask>
<g mask="url(#mask11_2001_7063)">
<path d="M418.757 355.9C412.242 382.39 385.628 398.58 359.315 392.063C333.002 385.545 316.953 358.787 323.468 332.298C329.984 305.808 356.597 289.618 382.911 296.135C409.224 302.653 425.273 329.411 418.757 355.9Z" fill="url(#paint4_radial_2001_7063)"/>
</g>
</mask>
<g mask="url(#mask10_2001_7063)">
<path d="M367.838 361.543L357.174 365.212C356.178 365.555 355.159 364.764 355.235 363.709L356.007 352.975C341.185 340.042 336.012 320.087 338.446 305.354C333.364 311.852 324.268 322.481 322.247 331.161C314.393 364.878 334.523 389.937 360.933 395.391C384.598 400.278 403.699 386.555 415.883 372.971C401.889 376.312 383.744 370.967 367.838 361.543Z" fill="url(#paint5_radial_2001_7063)"/>
</g>
<path d="M401.547 341.317C401.547 341.317 391.034 340.406 383.093 334.853C373.065 327.847 367.822 318.209 367.822 318.209" stroke="url(#paint6_linear_2001_7063)" stroke-width="29.4444" stroke-miterlimit="10" stroke-linecap="round"/>
<path d="M391.102 326.566C387.68 326.586 384.895 323.893 384.88 320.551C384.865 317.209 387.627 314.483 391.049 314.463C394.471 314.443 397.256 317.136 397.271 320.478C397.285 323.82 394.523 326.546 391.102 326.566Z" fill="#DA8E74"/>
</g>
<mask id="mask12_2001_7063" style="mask-type:luminance" maskUnits="userSpaceOnUse" x="-80" y="-88" width="658" height="658">
<path d="M68.2324 -87.7014L577.122 60.3909L429.03 569.281L-79.8599 421.188L68.2324 -87.7014Z" fill="white"/>
</mask>
<g mask="url(#mask12_2001_7063)">
<path d="M321.185 230.382C319.64 228.948 319.24 226.441 320.287 224.785L336.547 199.08C337.596 197.421 339.697 197.239 341.243 198.673L365.194 220.899C366.738 222.332 367.142 224.838 366.093 226.497L349.833 252.202C348.785 253.858 346.681 254.041 345.137 252.608L321.185 230.382Z" fill="#81D6FD"/>
<path d="M358.376 190.754C356.448 191.346 345.268 195.267 341.403 196.44C337.103 197.745 336.547 199.08 336.547 199.08C337.596 197.421 339.697 197.239 341.243 198.673L365.194 220.899C366.738 222.332 367.142 224.838 366.093 226.497C366.093 226.497 354.114 245.614 349.826 252.188C348.526 254.181 346.355 253.74 345.157 252.644C346.946 254.231 348.429 253.418 350.526 252.679C354.458 251.292 368.075 246.51 368.724 246.273C370.229 245.722 370.74 244.848 371.544 243.708C372.527 242.314 385.915 220.738 386.595 219.733C388.347 217.142 387.346 215.316 385.35 213.351C383.354 211.385 364.155 193.403 362.393 191.749C361.134 190.567 360.303 190.162 358.376 190.754Z" fill="#23AEF4"/>
</g>
<mask id="mask13_2001_7063" style="mask-type:luminance" maskUnits="userSpaceOnUse" x="-122" y="-198" width="600" height="599">
<path d="M-47.6025 -197.718L477.223 -123.838L403.344 400.987L-121.482 327.108L-47.6025 -197.718Z" fill="white"/>
</mask>
<g mask="url(#mask13_2001_7063)">
<path d="M279.603 254.176L281.984 247.568L284.26 241.255L288.692 228.957L290.439 224.11" stroke="#81D6FD" stroke-width="8.83333" stroke-linecap="round" stroke-linejoin="round"/>
<path d="M295.205 243.003L290.827 241.426M279.007 237.141L274.483 235.466" stroke="#81D6FD" stroke-width="8.83333" stroke-linecap="round" stroke-linejoin="round"/>
</g>
<mask id="mask14_2001_7063" style="mask-type:luminance" maskUnits="userSpaceOnUse" x="-35" y="-20" width="614" height="615">
<path d="M56.8359 -19.1401L578.927 72.0797L487.707 594.171L-34.3839 502.951L56.8359 -19.1401Z" fill="white"/>
</mask>
<g mask="url(#mask14_2001_7063)">
<path d="M244.929 274.784C244.08 265.904 235.548 261.026 230.898 266.762L192.936 313.583C188.978 318.465 190.871 327.679 196.492 330.892L241.379 356.552C247 359.765 252.577 354.82 251.854 347.264L244.929 274.784Z" fill="url(#paint7_linear_2001_7063)"/>
<path d="M221.821 335.928C223.691 333.958 227.479 333.225 230.455 335.056" stroke="#FF8F83" stroke-width="4.46476" stroke-linecap="round"/>
<mask id="mask15_2001_7063" style="mask-type:luminance" maskUnits="userSpaceOnUse" x="-35" y="-20" width="614" height="615">
<path d="M56.8359 -19.1401L578.927 72.0797L487.707 594.171L-34.3839 502.951L56.8359 -19.1401Z" fill="white"/>
</mask>
<g mask="url(#mask15_2001_7063)">
<path d="M243.551 326.761L243.97 308.879C243.932 308.043 243.28 304.65 237.548 303.511C232.323 302.472 230.314 305.58 228.944 311.028L226.065 321.82C225.456 324.241 226.562 327.103 228.542 328.235L235.96 332.476C239.756 334.646 243.785 331.851 243.551 326.761Z" fill="white"/>
</g>
<mask id="mask16_2001_7063" style="mask-type:alpha" maskUnits="userSpaceOnUse" x="225" y="303" width="19" height="31">
<mask id="mask17_2001_7063" style="mask-type:luminance" maskUnits="userSpaceOnUse" x="-35" y="-20" width="614" height="615">
<path d="M56.8359 -19.1401L578.927 72.0797L487.707 594.171L-34.3839 502.951L56.8359 -19.1401Z" fill="white"/>
</mask>
<g mask="url(#mask17_2001_7063)">
<path d="M243.551 326.761L243.97 308.879C243.932 308.043 243.28 304.65 237.548 303.511C232.323 302.472 230.314 305.58 228.944 311.028L226.065 321.82C225.456 324.241 226.562 327.103 228.542 328.235L235.96 332.476C239.756 334.646 243.785 331.851 243.551 326.761Z" fill="white"/>
</g>
</mask>
<g mask="url(#mask16_2001_7063)">
<path d="M238.884 315.049C237.01 313.978 234.741 315.992 233.815 319.547C232.89 323.103 233.66 326.854 235.534 327.926C237.409 328.997 239.678 326.983 240.603 323.427C241.528 319.872 240.758 316.12 238.884 315.049Z" fill="#4A4D4D"/>
</g>
<mask id="mask18_2001_7063" style="mask-type:alpha" maskUnits="userSpaceOnUse" x="225" y="303" width="19" height="31">
<mask id="mask19_2001_7063" style="mask-type:luminance" maskUnits="userSpaceOnUse" x="-35" y="-20" width="614" height="615">
<path d="M56.8359 -19.1401L578.927 72.0797L487.707 594.171L-34.3839 502.951L56.8359 -19.1401Z" fill="white"/>
</mask>
<g mask="url(#mask19_2001_7063)">
<path d="M243.551 326.761L243.97 308.879C243.932 308.043 243.28 304.65 237.548 303.511C232.323 302.472 230.314 305.58 228.944 311.028L226.065 321.82C225.456 324.241 226.562 327.103 228.542 328.235L235.96 332.476C239.756 334.646 243.785 331.851 243.551 326.761Z" fill="white"/>
</g>
</mask>
<g mask="url(#mask18_2001_7063)">
<path d="M243.542 327.614L243.49 327.885L226.922 318.414L229.072 308.843C230.441 303.396 234.688 302.032 239.806 303.896C240.685 304.235 242.133 304.911 242.196 305.881L244.746 308.654L244.821 325.001C244.839 325.395 243.57 327.245 243.542 327.614Z" fill="#A46FFF"/>
</g>
<mask id="mask20_2001_7063" style="mask-type:luminance" maskUnits="userSpaceOnUse" x="-35" y="-20" width="614" height="615">
<path d="M56.8359 -19.1401L578.927 72.0797L487.707 594.171L-34.3839 502.951L56.8359 -19.1401Z" fill="white"/>
</mask>
<g mask="url(#mask20_2001_7063)">
<path d="M208.937 306.606L214.166 296.964C215.391 294.08 219.617 291.757 221.884 293.5C228.437 298.538 227.19 306.817 225.732 312.229L223.573 320.398C222.927 322.796 220.812 323.816 218.832 322.684L211.592 318.545C207.748 316.348 206.361 310.111 208.937 306.606Z" fill="white"/>
</g>
<mask id="mask21_2001_7063" style="mask-type:alpha" maskUnits="userSpaceOnUse" x="207" y="292" width="20" height="32">
<mask id="mask22_2001_7063" style="mask-type:luminance" maskUnits="userSpaceOnUse" x="-35" y="-20" width="614" height="615">
<path d="M56.8359 -19.1401L578.927 72.0797L487.707 594.171L-34.3839 502.951L56.8359 -19.1401Z" fill="white"/>
</mask>
<g mask="url(#mask22_2001_7063)">
<path d="M208.937 306.606L214.166 296.964C215.391 294.08 219.617 291.757 221.884 293.5C228.437 298.538 227.19 306.817 225.732 312.229L223.573 320.398C222.927 322.796 220.812 323.816 218.832 322.684L211.592 318.545C207.748 316.348 206.361 310.111 208.937 306.606Z" fill="white"/>
</g>
</mask>
<g mask="url(#mask21_2001_7063)">
<path d="M222.302 306.219C224.176 307.29 224.946 311.042 224.021 314.597C223.095 318.153 220.826 320.167 218.952 319.095C217.078 318.024 216.308 314.273 217.233 310.717C218.158 307.161 220.427 305.148 222.302 306.219Z" fill="#4A4D4D"/>
</g>
<mask id="mask23_2001_7063" style="mask-type:alpha" maskUnits="userSpaceOnUse" x="207" y="292" width="20" height="32">
<mask id="mask24_2001_7063" style="mask-type:luminance" maskUnits="userSpaceOnUse" x="-35" y="-20" width="614" height="615">
<path d="M56.8359 -19.1401L578.927 72.0797L487.707 594.171L-34.3839 502.951L56.8359 -19.1401Z" fill="white"/>
</mask>
<g mask="url(#mask24_2001_7063)">
<path d="M208.937 306.606L214.166 296.964C215.391 294.08 219.617 291.757 221.884 293.5C228.437 298.538 227.19 306.817 225.732 312.229L223.573 320.398C222.927 322.796 220.812 323.816 218.832 322.684L211.592 318.545C207.748 316.348 206.361 310.111 208.937 306.606Z" fill="white"/>
</g>
</mask>
<g mask="url(#mask23_2001_7063)">
<path d="M208.174 307.471L208.123 307.667L224.929 317.282L226.964 307.407C228.417 302.007 225.799 295.059 221.341 292.511C220.718 292.155 220.038 292.303 219.631 292.884L208.68 306.607C208.488 306.88 208.32 307.17 208.174 307.471Z" fill="#A46FFF"/>
</g>
<mask id="mask25_2001_7063" style="mask-type:alpha" maskUnits="userSpaceOnUse" x="190" y="260" width="105" height="98">
<path d="M249.575 266.3C245.049 260.839 237.541 258.905 234.367 262.46C228.789 268.708 197.339 308.2 193.186 313.178C188.697 318.558 190.432 327.517 196.809 330.935C204.332 334.968 235.385 353.028 239.51 355.272C244.401 357.932 246.426 358.099 250.891 354.645C256.518 350.29 280.723 331.701 289.616 325.107C295.053 321.075 297.136 312.721 290.262 305.728C281.145 296.454 252.021 269.251 249.575 266.3Z" fill="#A68AD6"/>
</mask>
<g mask="url(#mask25_2001_7063)">
<path d="M241.863 258.956L195.491 333.436L189.514 331.804C183.08 331.123 181.429 323.843 186.413 318.129L234.212 263.331C236.44 260.777 239.233 259.344 241.863 258.956Z" fill="#A46FFF"/>
</g>
<path d="M246.983 263.931C246.871 265.335 247.293 267.363 246.94 268.72L246.455 301.644C239.134 299.285 235.553 297.086 230.833 294.383C227.206 292.306 225.358 288.709 226.752 283.227C226.752 283.227 220.072 282.757 218.878 281.586L233.441 263.572C236.852 259.662 242.587 259.051 246.983 263.931Z" fill="#A46FFF"/>
<path d="M239.788 264.912C239.62 262.041 242.958 260.362 245.133 262.222C245.155 262.241 245.176 262.259 245.197 262.277C245.596 262.527 247.256 264.212 247.634 264.569L291.52 306.887C296.074 311.19 295.388 320.58 290.232 324.525L249.055 356.028C249.037 356.039 249.019 356.049 249.002 356.059C247.281 357.047 245.131 355.876 245.019 353.888L239.788 264.912Z" fill="url(#paint8_linear_2001_7063)"/>
</g>
<mask id="mask26_2001_7063" style="mask-type:luminance" maskUnits="userSpaceOnUse" x="-79" y="-28" width="679" height="679">
<path d="M101.232 -27.9136L599.832 151.804L420.115 650.403L-78.4847 470.686L101.232 -27.9136Z" fill="white"/>
</mask>
<g mask="url(#mask26_2001_7063)">
<path d="M161.648 310.502C160.447 311.53 158.446 311.991 157.179 311.531L137.762 305.701C136.496 305.242 136.444 304.036 137.645 303.008L156.287 287.059C157.488 286.032 159.488 285.571 160.754 286.03L180.397 293.159C181.665 293.619 181.717 294.824 180.516 295.852L161.648 310.502Z" fill="#81D6FD"/>
<path d="M173.66 269.977C173.544 269.613 172.826 269.093 172.319 268.909L152.899 261.376L152.898 261.373C151.632 260.913 149.631 261.374 148.43 262.402L130.594 278.787C129.873 279.404 129.604 280.085 129.777 280.63L136.806 304.864C136.633 304.319 136.902 303.638 137.623 303.022L156.265 287.073C157.465 286.046 159.462 285.585 160.728 286.042L160.729 286.046L180.372 293.174C180.879 293.358 181.195 293.66 181.31 294.024L173.66 269.977Z" fill="#23AEF4"/>
</g>
<mask id="mask27_2001_7063" style="mask-type:luminance" maskUnits="userSpaceOnUse" x="-62" y="-16" width="609" height="609">
<path d="M23.8047 -15.4128L546.9 69.8582L461.629 592.954L-61.4664 507.683L23.8047 -15.4128Z" fill="white"/>
</mask>
<g mask="url(#mask27_2001_7063)">
<path d="M117.922 179.349L207.343 162.149C210.661 173.535 202.985 181.731 200.18 186.79C197.375 191.848 194.248 196.41 191.478 200.835C188.708 205.259 185.556 207.786 179.12 208.794C179.12 208.794 160.326 211.147 143.219 213.262C139.523 213.718 135.906 214.164 132.574 214.573C125.523 215.437 119.749 216.133 117.209 216.415C107.913 217.447 102.451 213.562 101.047 205.588L113.979 185.48L117.922 179.349ZM94.9686 139.435C96.7478 134.953 103.544 117.664 106.012 111.198C108.479 104.732 113.607 100.161 118.975 100.834L184.318 115.886C185.848 123.882 118.706 144.375 109.654 147.449C100.602 150.523 92.0219 154.278 92.0219 154.278C90.7834 147.903 93.1894 143.917 94.9686 139.435ZM103.614 137.488L164.931 129.504C172.801 128.226 177.97 133.7 179.467 141.522L189.269 192.27C190.799 200.266 185.556 207.786 179.12 208.794C179.12 208.794 126.506 215.383 117.209 216.415C107.913 217.447 102.451 213.562 101.047 205.588L91.9601 153.895C90.5863 146.092 95.8021 138.757 103.614 137.488Z" fill="url(#paint9_linear_2001_7063)"/>
<path d="M119.348 100.239L181.089 94.8497C190.313 93.538 196.227 100.053 197.795 109.227L207.942 165.513C209.545 174.89 203.246 183.554 195.702 184.584L135.887 192.784C124.761 194.314 116.045 187.748 114.588 178.399L105.354 119.139C103.928 109.992 110.192 101.541 119.348 100.239Z" fill="url(#paint10_linear_2001_7063)"/>
<path d="M192.196 105.701C189.222 106.024 183.768 106.437 181.44 106.868C178.941 107.331 177.859 109.392 178.067 111.166C178.148 111.861 178.291 112.862 178.348 113.636C178.464 115.209 176.621 115.841 175.351 116.007C174.081 116.173 171.453 116.55 169.505 116.794C163.033 117.604 160.348 122.635 160.867 126.698C160.98 127.584 161.074 128.099 161.207 128.804C161.475 130.215 160.408 131.036 159.25 131.282C158.091 131.528 152.235 132.376 150.451 132.644C148.666 132.913 147.966 131.493 147.781 130.718C147.597 129.942 147.386 129.291 147.106 127.997C146.255 124.067 141.705 120.715 136.544 121.49C134.952 121.729 130.406 122.54 128.683 122.819C126.959 123.097 126.253 121.955 126.125 120.972C126.042 120.337 125.946 119.737 125.755 119.047C124.856 115.793 122.272 115.248 120.186 115.467C118.099 115.686 112.938 116.461 110.64 116.832C108.342 117.203 105.311 118.263 106.096 123.736C107.004 130.053 111.648 159.073 112.639 165.574C113.63 172.075 117.414 175.551 124.077 174.711C130.74 173.87 139.129 172.761 145.587 171.629C151.281 170.63 153.079 165.703 152.345 160.673C152.012 158.388 151.808 157.105 151.808 157.105L165.557 155.12C165.557 155.12 165.876 156.974 166.247 159.272C167.049 164.234 170.454 168.162 177.056 167.312C183.659 166.461 192.469 165.411 198.013 164.575C203.346 163.77 206.899 159.249 205.972 153.877C205.045 148.505 199.151 116.033 198.327 111.175C197.503 106.317 195.17 105.377 192.196 105.701Z" fill="#89E219"/>
<mask id="mask28_2001_7063" style="mask-type:luminance" maskUnits="userSpaceOnUse" x="-62" y="-16" width="609" height="609">
<path d="M23.8047 -15.4128L546.9 69.8582L461.629 592.954L-61.4664 507.683L23.8047 -15.4128Z" fill="white"/>
</mask>
<g mask="url(#mask28_2001_7063)">
<path d="M171.26 123.429L187.526 121.143C190.385 120.741 193.095 122.723 193.578 125.57L198.117 152.307C198.605 155.182 196.668 157.837 193.791 158.236L177.423 160.503C174.552 160.901 171.84 158.892 171.365 156.02L166.946 129.306C166.475 126.46 168.406 123.83 171.26 123.429Z" fill="white"/>
</g>
<mask id="mask29_2001_7063" style="mask-type:alpha" maskUnits="userSpaceOnUse" x="166" y="121" width="33" height="40">
<mask id="mask30_2001_7063" style="mask-type:luminance" maskUnits="userSpaceOnUse" x="-62" y="-16" width="609" height="609">
<path d="M23.8047 -15.4128L546.9 69.8582L461.629 592.954L-61.4664 507.683L23.8047 -15.4128Z" fill="white"/>
</mask>
<g mask="url(#mask30_2001_7063)">
<path d="M171.26 123.429L187.526 121.143C190.385 120.741 193.095 122.723 193.578 125.57L198.117 152.307C198.605 155.182 196.668 157.837 193.791 158.236L177.423 160.503C174.552 160.901 171.84 158.892 171.365 156.02L166.946 129.306C166.475 126.46 168.406 123.83 171.26 123.429Z" fill="white"/>
</g>
</mask>
<g mask="url(#mask29_2001_7063)">
<path d="M169.965 136.778C168.974 136.917 168.292 137.843 168.449 138.836L169.9 147.99C170.255 150.23 172.375 151.809 174.611 151.498L183.038 150.328C185.279 150.016 186.817 147.925 186.455 145.681L183.996 130.434C183.636 128.203 181.52 126.634 179.293 126.946L176.221 127.377C175.231 127.516 174.55 128.441 174.709 129.434L175.446 134.046C175.615 135.104 174.889 136.09 173.834 136.238L169.965 136.778Z" fill="#404242"/>
</g>
<mask id="mask31_2001_7063" style="mask-type:luminance" maskUnits="userSpaceOnUse" x="-62" y="-16" width="609" height="609">
<path d="M23.8047 -15.4128L546.9 69.8582L461.629 592.954L-61.4664 507.683L23.8047 -15.4128Z" fill="white"/>
</mask>
<g mask="url(#mask31_2001_7063)">
<path d="M119.227 130.69L135.492 128.403C138.351 128.001 141.061 129.983 141.545 132.831L146.084 159.567C146.572 162.442 144.635 165.098 141.758 165.496L125.39 167.764C122.519 168.161 119.806 166.153 119.331 163.281L114.913 136.566C114.442 133.721 116.373 131.091 119.227 130.69Z" fill="white"/>
</g>
<mask id="mask32_2001_7063" style="mask-type:alpha" maskUnits="userSpaceOnUse" x="114" y="128" width="33" height="40">
<mask id="mask33_2001_7063" style="mask-type:luminance" maskUnits="userSpaceOnUse" x="-62" y="-16" width="609" height="609">
<path d="M23.8047 -15.4128L546.9 69.8582L461.629 592.954L-61.4664 507.683L23.8047 -15.4128Z" fill="white"/>
</mask>
<g mask="url(#mask33_2001_7063)">
<path d="M119.227 130.69L135.492 128.403C138.351 128.001 141.061 129.983 141.545 132.831L146.084 159.567C146.572 162.442 144.635 165.098 141.758 165.496L125.39 167.764C122.519 168.161 119.806 166.153 119.331 163.281L114.913 136.566C114.442 133.721 116.373 131.091 119.227 130.69Z" fill="white"/>
</g>
</mask>
<g mask="url(#mask32_2001_7063)">
<path d="M128.144 142.939C127.153 143.077 126.471 144.003 126.629 144.996L128.08 154.15C128.436 156.39 130.555 157.969 132.791 157.658L141.218 156.488C143.459 156.176 144.997 154.085 144.635 151.841L142.176 136.595C141.816 134.364 139.7 132.794 137.473 133.106L134.401 133.537C133.41 133.676 132.73 134.601 132.889 135.594L133.626 140.206C133.795 141.264 133.07 142.25 132.014 142.398L128.144 142.939Z" fill="#404242"/>
</g>
<path d="M154.873 150.348L161.363 149.533C163.505 149.263 165.505 150.786 165.829 152.933L167.773 165.892C168.097 168.044 166.621 170.007 164.474 170.275L157.972 171.087C155.828 171.355 153.83 169.828 153.511 167.678L151.576 154.72C151.257 152.574 152.733 150.617 154.873 150.348Z" fill="#F48000"/>
<path d="M157.157 151.097L160.685 150.484C162.1 150.226 163.424 151.302 163.644 152.876L165.049 164.459C165.26 165.963 164.32 167.388 162.95 167.651L159.54 168.281C158.158 168.546 156.843 167.545 156.604 166.035L155.023 154.439C154.774 152.858 155.729 151.357 157.157 151.097Z" fill="#963600"/>
<path d="M162.95 167.651C164.32 167.388 165.26 165.963 165.05 164.459C165.05 164.459 162.021 158.768 155.771 159.923L156.604 166.035C156.844 167.545 158.159 168.546 159.54 168.281L162.95 167.651Z" fill="#FFA9E3"/>
<path d="M156.221 147.704L149.808 153.124C149.523 153.722 149.97 154.995 150.638 155.042L160.59 155.123C160.713 155.132 160.835 155.116 160.951 155.078L166.73 152.919C167.351 152.712 167.528 151.378 167.096 150.87L160.275 147.149C160.004 146.959 159.671 146.88 159.344 146.929L157.004 147.277C156.701 147.322 156.425 147.474 156.221 147.704Z" fill="#FFC200"/>
</g>
</g>
</g>
</g>
</g>
<defs>
<radialGradient id="paint0_radial_2001_7063" cx="0" cy="0" r="1" gradientUnits="userSpaceOnUse" gradientTransform="translate(401.895 300.604) rotate(6.63848) scale(23.0401 24.0769)">
<stop stop-color="#474B4B"/>
<stop offset="0.46" stop-color="#3D3F3F"/>
<stop offset="1" stop-color="#333333"/>
</radialGradient>
<radialGradient id="paint1_radial_2001_7063" cx="0" cy="0" r="1" gradientUnits="userSpaceOnUse" gradientTransform="translate(363.182 331.43) rotate(6.63848) scale(55.9436 55.9436)">
<stop offset="0.87" stop-color="#DA8E74"/>
<stop offset="0.96" stop-color="#D38575"/>
<stop offset="0.99" stop-color="#CC7B75"/>
</radialGradient>
<radialGradient id="paint2_radial_2001_7063" cx="0" cy="0" r="1" gradientUnits="userSpaceOnUse" gradientTransform="translate(363.182 331.43) rotate(6.63848) scale(55.9436 55.9436)">
<stop offset="0.87" stop-color="#DA8E74"/>
<stop offset="0.96" stop-color="#D38575"/>
<stop offset="0.99" stop-color="#CC7B75"/>
</radialGradient>
<radialGradient id="paint3_radial_2001_7063" cx="0" cy="0" r="1" gradientUnits="userSpaceOnUse" gradientTransform="translate(363.182 331.43) rotate(6.63848) scale(55.9436 55.9436)">
<stop offset="0.87" stop-color="#DA8E74"/>
<stop offset="0.96" stop-color="#D38575"/>
<stop offset="0.99" stop-color="#CC7B75"/>
</radialGradient>
<radialGradient id="paint4_radial_2001_7063" cx="0" cy="0" r="1" gradientUnits="userSpaceOnUse" gradientTransform="translate(363.182 331.43) rotate(6.63848) scale(55.9436 55.9436)">
<stop offset="0.87" stop-color="#DA8E74"/>
<stop offset="0.96" stop-color="#D38575"/>
<stop offset="0.99" stop-color="#CC7B75"/>
</radialGradient>
<radialGradient id="paint5_radial_2001_7063" cx="0" cy="0" r="1" gradientUnits="userSpaceOnUse" gradientTransform="translate(368.55 334.954) rotate(6.63848) scale(53.2306)">
<stop offset="0.73" stop-color="#FFAADE"/>
<stop offset="0.89" stop-color="#F5A1D2"/>
<stop offset="0.92" stop-color="#EA98C5"/>
</radialGradient>
<linearGradient id="paint6_linear_2001_7063" x1="389.084" y1="305.45" x2="375.825" y2="349.82" gradientUnits="userSpaceOnUse">
<stop offset="0.32" stop-color="#474B4B"/>
<stop offset="0.56" stop-color="#3C3F3F"/>
<stop offset="0.68" stop-color="#313434"/>
</linearGradient>
<linearGradient id="paint7_linear_2001_7063" x1="209.759" y1="341.132" x2="235.002" y2="294.244" gradientUnits="userSpaceOnUse">
<stop stop-color="#EABBB9"/>
<stop offset="0.06" stop-color="#F5C2BD"/>
<stop offset="0.12" stop-color="#FFC8C1"/>
<stop offset="0.56" stop-color="#FFC8C1"/>
<stop offset="0.88" stop-color="#FFC8C1"/>
<stop offset="0.94" stop-color="#F7BAB6"/>
<stop offset="1" stop-color="#EFADAB"/>
</linearGradient>
<linearGradient id="paint8_linear_2001_7063" x1="249.576" y1="315.329" x2="243.671" y2="315.735" gradientUnits="userSpaceOnUse">
<stop stop-color="#945BF7"/>
<stop offset="0.46" stop-color="#9C65FB"/>
<stop offset="1" stop-color="#A46FFF"/>
</linearGradient>
<linearGradient id="paint9_linear_2001_7063" x1="129.583" y1="215.013" x2="113.917" y2="203.683" gradientUnits="userSpaceOnUse">
<stop stop-color="#3FDA00"/>
<stop offset="0.58" stop-color="#20CD10"/>
<stop offset="1" stop-color="#00C01F"/>
</linearGradient>
<linearGradient id="paint10_linear_2001_7063" x1="164.864" y1="189.165" x2="163.779" y2="182.455" gradientUnits="userSpaceOnUse">
<stop stop-color="#3FDB01"/>
<stop offset="0.5" stop-color="#3CD201"/>
<stop offset="1" stop-color="#3ACA00"/>
</linearGradient>
<clipPath id="clip0_2001_7063">
<rect width="530" height="530" fill="white" transform="translate(-5.15039 0.859863)"/>
</clipPath>
<clipPath id="clip1_2001_7063">
<rect width="530" height="530" fill="white" transform="translate(-5.15039 0.859863)"/>
</clipPath>
<clipPath id="clip2_2001_7063">
<rect width="530" height="530" fill="white" transform="translate(-5.15039 0.859863)"/>
</clipPath>
</defs>
</svg>
