<svg width="606" height="89" viewBox="0 0 606 89" fill="none" xmlns="http://www.w3.org/2000/svg">
<g clip-path="url(#clip0_2001_5911)">
<g clip-path="url(#clip1_2001_5911)">
<g clip-path="url(#clip2_2001_5911)">
<path fill-rule="evenodd" clip-rule="evenodd" d="M393.819 43.4941C393.29 42.5676 392.495 41.7735 391.503 41.1778C390.51 40.6483 389.649 40.3836 388.326 40.3836L360.927 40.516C358.611 40.516 357.155 40.913 355.169 42.0382C353.184 43.1632 352.191 44.884 351.066 46.8694L335.248 74.467L332.866 78.9011C332.271 79.8938 331.939 80.9528 331.939 82.0779C331.939 83.2029 332.204 84.3281 332.8 85.2546C333.329 86.2473 334.123 87.0414 335.117 87.5709C336.043 88.1004 337.168 88.4313 338.293 88.3651H364.368C366.618 88.3651 368.802 87.7695 370.788 86.6443C372.773 85.5193 374.362 83.8647 375.487 81.9455L391.635 53.4214L393.753 49.8476C394.349 48.9211 394.613 47.7959 394.613 46.6709C394.679 45.5458 394.349 44.4868 393.819 43.4941ZM370.514 55.8535L370.511 55.8584L370.51 55.8606C369.969 56.8016 369.439 57.7256 368.935 58.6496L368.933 58.6534C368.007 60.2405 367.081 61.8276 366.155 63.4809C365.362 64.8034 364.568 66.1921 363.775 67.5808L363.772 67.5842C363.73 67.6598 363.685 67.7373 363.639 67.8162L363.566 67.9402L363.528 68.0043C363.321 68.3559 363.1 68.7311 362.912 69.1063C362.282 70.1572 361.678 71.208 361.084 72.2419L361.081 72.2471C360.741 72.8393 360.404 73.4259 360.066 74.0038L359.471 74.9965L359.418 75.0628C359.179 75.3629 358.985 75.6055 358.677 75.7906C358.279 75.9892 357.882 76.1215 357.486 76.1215H354.507C354.309 76.1215 354.177 76.0553 353.978 75.923C353.647 75.7906 353.382 75.3935 353.515 74.9965C353.581 74.7979 353.647 74.6656 353.78 74.467C354.507 73.2095 355.235 71.9355 355.964 70.6616C356.691 69.3876 357.419 68.1136 358.148 66.8562C358.743 65.8304 359.339 64.7881 359.934 63.7457C360.53 62.7034 361.125 61.661 361.721 60.6351L362.25 59.6424C362.516 59.2454 362.78 58.8482 362.979 58.3849C363.367 57.8026 363.72 57.1847 364.063 56.5833C364.188 56.3647 364.311 56.1479 364.434 55.9363C364.563 55.7309 364.682 55.5255 364.798 55.324C364.981 55.0062 365.159 54.6975 365.362 54.4141C365.427 54.2818 365.493 54.166 365.559 54.0502C365.626 53.9343 365.692 53.8185 365.758 53.6861C365.891 53.4214 366.155 53.1566 366.487 53.0243C366.883 52.7596 367.28 52.6934 367.677 52.6934H370.656C370.813 52.6934 370.928 52.7348 371.068 52.7849C371.105 52.7981 371.144 52.8119 371.185 52.8257C371.273 52.8698 371.362 52.9726 371.45 53.0754C371.494 53.1269 371.538 53.1787 371.582 53.2228C371.781 53.6199 371.648 53.8846 371.45 54.2155C371.139 54.7659 370.828 55.3077 370.519 55.8439L370.514 55.8535ZM260.154 45.2149C261.545 42.8323 264.125 41.3102 266.905 41.3102H279.876C293.642 41.3102 299.467 48.9211 295.099 57.8555L284.642 77.5114C281.134 83.7323 274.582 87.5709 267.435 87.5709H246.587L243.94 87.5047C240.432 87.5047 238.315 83.7985 240.036 80.7543L260.154 45.2149ZM276.17 58.8482L276.436 58.3187C278.354 54.6126 275.707 53.7523 274.383 53.5537C273.854 53.4875 273.324 53.6861 273.06 54.1493H272.994C272.961 54.2487 272.911 54.3479 272.861 54.4472C272.811 54.5463 272.762 54.6459 272.729 54.7449C272.564 54.9766 272.415 55.2248 272.266 55.4729L272.265 55.4738L272.264 55.4749C272.116 55.7225 271.968 55.9699 271.803 56.201L270.413 58.5835C270.292 58.8661 270.146 59.1242 270.005 59.3725C269.915 59.5313 269.829 59.6861 269.751 59.841L269.222 60.7675C268.384 62.1624 267.58 63.5573 266.762 64.9752C266.416 65.5751 266.067 66.1801 265.714 66.79L261.545 74.1361C261.443 74.2372 261.381 74.3769 261.327 74.4963C261.311 74.5331 261.295 74.5681 261.279 74.5994C261.147 74.9965 261.412 75.3935 261.743 75.5259C261.875 75.6583 262.074 75.7244 262.272 75.7244H265.118C265.515 75.7244 265.846 75.5921 266.177 75.4597C266.508 75.2612 266.706 75.0626 266.905 74.7979C267.169 74.4008 267.368 74.07 267.567 73.6729C268.493 72.1506 269.42 70.5623 270.347 68.9739C270.478 68.7092 270.628 68.461 270.777 68.2128L270.778 68.2114C270.927 67.9639 271.075 67.7159 271.207 67.4518C271.57 66.79 271.952 66.1282 272.332 65.4663L272.334 65.4628C272.713 64.8022 273.094 64.1415 273.457 63.4809C273.92 62.7198 274.367 61.9422 274.814 61.1646C275.261 60.387 275.707 59.6093 276.17 58.8482ZM346.504 41.7735C347.099 42.1044 347.496 42.5676 347.828 43.0971C348.158 43.6265 348.291 44.2221 348.291 44.8178C348.291 45.4796 348.158 46.0752 347.828 46.6047L329.032 80.4234C327.708 82.8058 325.723 84.8575 323.34 86.2473C320.957 87.6371 318.244 88.3651 315.53 88.3651H293.89C292.499 88.3651 291.176 88.0342 289.985 87.3723C288.793 86.7105 287.735 85.7178 287.073 84.5266C286.345 83.3353 286.014 82.0117 286.014 80.6219C286.014 79.2982 286.345 77.9085 287.006 76.7171L305.405 44.0236C305.802 43.2294 306.464 42.5676 307.258 42.0382C308.052 41.5749 308.979 41.3102 309.906 41.3102H319.833C320.494 41.3102 321.09 41.5088 321.619 41.8397C322.149 42.1044 322.612 42.5676 322.877 43.0971C323.207 43.6265 323.406 44.2221 323.406 44.884C323.406 45.4796 323.207 46.0752 322.943 46.6709L308.979 71.2903C308.847 71.4888 308.781 71.6874 308.781 71.9521C308.781 72.2168 308.847 72.4154 308.979 72.6139C309.111 72.8124 309.244 73.011 309.442 73.0772C309.641 73.2095 309.906 73.2757 310.104 73.2757H312.023C312.487 73.2757 313.016 73.1433 313.479 72.8786C313.876 72.6139 314.274 72.283 314.538 71.8197L330.025 43.9574C330.488 43.1632 331.15 42.5014 331.943 42.0382C332.738 41.5749 333.598 41.3102 334.525 41.3102H344.783C345.379 41.3102 345.974 41.5088 346.504 41.7735ZM404.795 73.2757H419.62C422.2 73.2757 423.855 76.1215 422.597 78.4379L418.693 85.3869C418.693 85.3869 417.303 87.5709 414.193 87.5709H414.06H412.273H412.075H380.11C377.992 87.5709 376.668 85.2546 377.727 83.4676L384.081 72.4154C384.742 71.2903 385.404 70.1653 386.066 68.9739C386.309 68.6322 386.518 68.2542 386.717 67.8935C386.788 67.7654 386.856 67.6394 386.926 67.518C387.257 66.9224 387.588 66.3929 387.919 65.8634L389.043 63.878L391.029 60.5028C391.227 60.1719 391.36 59.9071 391.426 59.6424C391.551 59.4762 391.65 59.31 391.739 59.1602C391.79 59.0714 391.84 58.9883 391.889 58.9144C392.287 58.2195 392.684 57.508 393.081 56.7966C393.477 56.0852 393.875 55.3737 394.272 54.6788L399.964 44.7517C401.154 42.6338 403.405 41.3102 405.854 41.3102H416.509C418.495 41.3102 419.752 43.4941 418.759 45.2149L415.781 50.4432L413.795 53.8846L403.736 71.555C403.338 72.3492 403.868 73.2757 404.795 73.2757ZM459.815 41.244H449.093C446.71 41.244 444.461 42.5676 443.203 44.6854L437.577 54.6126C436.717 56.0686 435.923 57.4584 435.129 58.8482L434.731 59.5762C434.712 59.614 434.693 59.6532 434.674 59.6932L434.634 59.7788C434.531 59.9977 434.419 60.236 434.268 60.4366L432.283 63.878L431.158 65.7972C430.992 66.0951 430.827 66.3764 430.662 66.6577C430.496 66.9389 430.33 67.2201 430.166 67.518C430.127 67.585 430.089 67.6532 430.05 67.7225L430 67.8135L429.956 67.8933C429.757 68.254 429.549 68.6322 429.305 68.9739C428.974 69.5365 428.643 70.1155 428.312 70.6946C427.982 71.2737 427.65 71.8528 427.32 72.4154L419.973 85.056C419.377 86.1811 420.172 87.5709 421.429 87.5709H430.695L435.592 87.5047C437.048 87.5047 438.306 86.7105 439.033 85.4531L441.482 81.3499L457.1 53.8846L459.086 50.377L462.064 45.1487C463.058 43.428 461.8 41.244 459.815 41.244ZM496.395 41.3764H507.049C508.969 41.3764 510.227 43.4941 509.299 45.2149L506.322 50.5094L504.336 53.9508L488.784 81.3499L486.335 85.4531C485.607 86.7105 484.283 87.4385 482.894 87.5047L477.996 87.5709H475.282H468.797C467.738 87.5709 466.878 86.5782 467.142 85.5193L470.253 71.8197C470.319 71.4889 469.922 71.3565 469.789 71.6212L464.23 81.3499L461.848 85.4531C461.12 86.7105 459.797 87.4385 458.34 87.5047L453.509 87.5709H444.244C442.986 87.5709 442.192 86.1811 442.788 85.056L450.134 72.4154L452.12 69.0401C452.384 68.5107 452.649 68.0474 452.98 67.518C453.145 67.2533 453.293 66.9721 453.443 66.6908C453.592 66.4095 453.741 66.1282 453.906 65.8634L455.031 63.9442L457.083 60.5028C457.115 60.4034 457.165 60.3042 457.215 60.2049C457.265 60.1057 457.314 60.0064 457.347 59.9071L457.811 58.9805C458.336 58.1317 458.837 57.2582 459.343 56.375L459.344 56.3728L459.345 56.3719L459.354 56.356L459.357 56.3505C459.676 55.7958 459.995 55.2373 460.326 54.6788L465.951 44.7517C467.208 42.6338 469.392 41.3764 471.842 41.3764H482.496C484.283 41.3764 485.475 43.0971 484.945 44.6854V44.7517L481.769 58.9805C481.703 59.3115 482.166 59.4439 482.298 59.1792L484.813 54.6788L490.505 44.7517C491.695 42.6338 493.945 41.3764 496.395 41.3764ZM554.162 43.4941C553.633 42.5015 552.838 41.7073 551.846 41.1778C550.919 40.6483 550.059 40.3836 548.735 40.3836L521.468 40.516C519.152 40.516 517.696 40.913 515.777 42.0382C513.815 43.1499 512.822 44.8433 511.713 46.735L511.673 46.8032L495.923 74.2685L493.54 78.7026C492.944 79.6953 492.68 80.7543 492.614 81.8793C492.614 83.0044 492.878 84.1295 493.473 85.056C494.003 86.0487 494.797 86.8429 495.79 87.3723C496.716 87.9019 497.841 88.1666 498.9 88.1666H524.91C527.16 88.1666 529.344 87.5709 531.329 86.4458C533.249 85.3208 534.109 84.7251 535.83 81.8131L540.065 74.4008C540.463 73.6729 541.19 73.2757 541.985 73.2757C542.911 73.2757 543.838 73.011 544.632 72.5477C545.492 72.0183 546.154 71.3565 546.552 70.4962L548.404 67.2533C548.669 66.7238 548.801 66.1281 548.801 65.5987C548.801 65.0031 548.669 64.4074 548.338 63.878C548.073 63.4148 547.61 62.9515 547.146 62.6868C546.617 62.422 546.022 62.2234 545.426 62.2234H526.035C524.38 62.2234 522.858 63.15 522.064 64.6722L518.622 70.8271C517.829 72.1506 517.895 73.2757 519.218 73.2757C519.269 73.2757 519.331 73.2741 519.401 73.2723C519.953 73.2577 520.953 73.2315 520.542 73.9376L520.012 74.7979C519.814 75.1288 519.616 75.3935 519.284 75.5921C518.887 75.7906 518.491 75.923 518.093 75.923H515.115C514.958 75.923 514.842 75.8815 514.703 75.8314C514.666 75.8183 514.627 75.8045 514.586 75.7906C514.254 75.5921 513.99 75.2612 514.123 74.7979L526.234 53.7523C526.365 53.4214 526.564 53.2228 526.829 53.0243C527.226 52.7596 527.756 52.6272 528.219 52.6272H530.733C530.932 52.6272 531.131 52.6272 531.263 52.7596C531.462 52.8257 531.594 52.9581 531.661 53.1566C531.859 53.4875 531.727 53.7523 531.528 54.1493C531.5 54.1919 531.483 54.2162 531.468 54.2412C531.448 54.2741 531.43 54.308 531.389 54.3864L531.387 54.3886C531.313 54.529 531.165 54.8101 530.8 55.4729C530.072 56.7966 530.932 58.3849 532.454 58.3849H546.419C548.271 58.3849 549.397 57.6569 550.125 56.5319L552.045 53.3552L554.096 49.7814C554.692 48.8549 555.022 47.7297 555.022 46.6047C555.022 45.5458 554.758 44.4207 554.162 43.4941ZM601.357 41.1778C602.35 41.7735 603.143 42.5676 603.674 43.4941C604.203 44.4868 604.534 45.5458 604.467 46.6709C604.467 47.7959 604.203 48.9211 603.607 49.8476L601.49 53.4214L585.341 81.9455C584.216 83.8647 582.628 85.5193 580.642 86.6443C578.657 87.7695 576.473 88.3651 574.222 88.3651H548.148C547.022 88.4313 545.897 88.1004 544.97 87.5709C543.978 87.0414 543.184 86.2473 542.654 85.2546C542.059 84.3281 541.794 83.2029 541.794 82.0779C541.794 80.9528 542.125 79.8938 542.721 78.9011L545.103 74.467L560.92 46.8694C562.045 44.884 563.037 43.1632 565.024 42.0382C567.009 40.913 568.465 40.516 570.781 40.516L598.181 40.3836C599.504 40.3836 600.365 40.6483 601.357 41.1778ZM580.365 55.8585L580.368 55.8536L580.374 55.8442C580.681 55.3079 580.993 54.766 581.304 54.2155C581.503 53.8846 581.635 53.6199 581.436 53.2228C581.392 53.1787 581.348 53.1273 581.304 53.0759C581.215 52.9729 581.128 52.8699 581.04 52.8257C580.998 52.8119 580.959 52.7981 580.922 52.7848C580.782 52.7348 580.667 52.6934 580.51 52.6934H577.532C577.135 52.6934 576.738 52.7596 576.34 53.0243C576.01 53.1566 575.744 53.4214 575.613 53.6861C575.546 53.8184 575.48 53.9343 575.414 54.0501L575.413 54.0523C575.347 54.1674 575.281 54.2826 575.215 54.4141C575.013 54.6975 574.835 55.0058 574.652 55.3237L574.65 55.3259C574.535 55.5268 574.417 55.7316 574.289 55.9363C574.165 56.1478 574.042 56.3641 573.918 56.5826C573.574 57.1842 573.221 57.8024 572.833 58.3849C572.634 58.848 572.37 59.2449 572.105 59.6417L571.575 60.6351C570.98 61.6602 570.385 62.7017 569.79 63.7432L569.788 63.7457C569.192 64.7881 568.597 65.8304 568.001 66.8562C567.274 68.1136 566.545 69.3876 565.818 70.6616C565.09 71.9355 564.361 73.2095 563.633 74.467C563.502 74.6656 563.435 74.7979 563.369 74.9965C563.236 75.3935 563.502 75.7906 563.832 75.923C564.031 76.0553 564.163 76.1215 564.361 76.1215H567.34C567.737 76.1215 568.134 75.9892 568.531 75.7906C568.84 75.6054 569.034 75.3627 569.273 75.0623L569.325 74.9965L569.921 74.0038C570.259 73.424 570.597 72.8355 570.938 72.2414C571.532 71.2077 572.136 70.157 572.767 69.1063C572.953 68.7319 573.174 68.3574 573.381 68.0063L573.382 68.0044C573.467 67.8598 573.549 67.7192 573.627 67.5842C574.421 66.1944 575.215 64.8045 576.01 63.4809C576.936 61.8263 577.863 60.238 578.789 58.6496C579.294 57.7249 579.825 56.8002 580.365 55.8585ZM61.221 44.2885C60.5592 43.1634 59.6327 42.1708 58.4414 41.509C57.3163 40.8471 55.9927 40.5162 54.669 40.5162H30.9762C28.4613 40.5162 25.9464 41.1781 23.8286 42.5017C21.6446 43.7591 19.8576 45.6122 18.6002 47.7961L14.6956 54.6128C13.769 56.3336 13.4381 58.3189 13.8352 60.1721C14.2323 62.0913 15.2912 63.812 16.8134 65.0033L26.7405 72.5479C27.4686 73.0112 27.998 73.7393 28.1966 74.5334C28.3951 75.3937 28.2627 76.2541 27.7995 76.9821C27.4686 77.3792 27.0715 77.7101 26.6082 77.9087C26.1449 78.1072 25.6155 78.1734 25.086 78.1072C22.9682 78.1072 21.8431 77.1145 22.7035 75.5261C22.9682 74.9967 23.1667 74.401 23.1005 73.8716C23.1005 73.276 22.9682 72.6803 22.6373 72.217C22.3064 71.7538 21.9093 71.3567 21.3799 71.092C20.8504 70.8273 20.2548 70.6949 19.7253 70.6949H8.80542C7.87888 70.7611 6.95234 71.0258 6.15816 71.489C5.36399 71.9523 4.70217 72.6803 4.23891 73.4745L1.39311 78.4381C0.797478 79.4308 0.466572 80.5559 0.400391 81.7472C0.400391 82.8722 0.665115 83.9974 1.26075 85.0562C1.7902 86.0489 2.65055 86.9093 3.64327 87.505C4.636 88.0344 5.82726 88.3653 6.95234 88.3653H32.4321C34.8809 88.3653 37.3295 87.7697 39.5135 86.5784C41.6976 85.3871 43.4844 83.6002 44.7419 81.4824L47.8524 76.1217C49.0437 74.0701 49.4408 71.5552 48.9775 69.1727C48.4481 66.7902 47.1244 64.6724 45.2052 63.2826L36.403 56.7306C36.0059 56.5321 35.7412 56.3336 35.4765 56.0027C35.278 55.7379 35.0794 55.3409 34.9471 55.0099C34.8809 54.6128 34.8147 54.2157 34.8809 53.8848C34.9471 53.4877 35.0794 53.0907 35.278 52.7598C35.675 52.2303 36.2045 51.7008 36.8663 51.3699C37.4619 51.039 38.1238 50.8405 38.8517 50.7743C39.2488 50.7081 39.6459 50.7743 40.043 50.9728C40.4401 51.1714 40.7048 51.4361 40.9695 51.7671C41.168 52.1641 41.2342 52.5612 41.2342 52.9583C41.168 53.4216 41.0357 53.8186 40.771 54.1495C40.5062 54.5466 40.3739 55.0099 40.4401 55.4732C40.4401 55.9365 40.5724 56.3997 40.8371 56.863C41.0357 57.2601 41.4328 57.591 41.8299 57.7895C42.2932 57.988 42.7564 58.1204 43.2197 58.0542H54.7352C55.728 58.0542 56.6545 57.7895 57.4487 57.3262C58.309 56.863 58.9708 56.135 59.4342 55.3409L61.3534 51.8333C62.0152 50.6419 62.3461 49.3845 62.2799 48.0608C62.2799 46.7372 61.8828 45.4136 61.221 44.2885ZM110.329 43.0973C109.999 42.5678 109.601 42.1046 109.006 41.7737C108.477 41.509 107.881 41.3104 107.286 41.3104H97.0272C96.1007 41.3104 95.2402 41.5751 94.4461 42.0384C93.6519 42.5017 92.9901 43.1634 92.5269 43.9576L77.0404 71.8199C76.7757 72.2832 76.3786 72.6141 75.9815 72.8788C75.5183 73.1436 74.9888 73.276 74.5256 73.276H72.6063C72.4077 73.276 72.143 73.2098 71.9445 73.0775C71.7459 73.0112 71.6136 72.8126 71.4812 72.6141C71.3489 72.4156 71.2827 72.217 71.2827 71.9523C71.2827 71.6876 71.3489 71.489 71.4812 71.2905L85.4455 46.6711C85.7102 46.0754 85.9087 45.4798 85.9087 44.8842C85.9087 44.2223 85.7102 43.6267 85.3793 43.0973C85.1145 42.5678 84.6512 42.1046 84.1218 41.8399C83.5924 41.509 82.9967 41.3104 82.3349 41.3104H72.4077C71.4812 41.3104 70.5546 41.5751 69.7604 42.0384C68.9663 42.5678 68.3045 43.2296 67.9074 44.0238L49.509 76.7174C48.8471 77.9087 48.5162 79.2984 48.5162 80.6221C48.5162 82.0119 48.8471 83.3355 49.5752 84.5268C50.237 85.718 51.2959 86.7107 52.4871 87.3725C53.6784 88.0344 55.002 88.3653 56.3918 88.3653H78.0332C80.7465 88.3653 83.46 87.6373 85.8426 86.2475C88.225 84.8577 90.2105 82.806 91.5341 80.4236L110.329 46.6049C110.661 46.0754 110.793 45.4798 110.793 44.818C110.793 44.2223 110.661 43.6267 110.329 43.0973ZM148.115 42.7002C149.571 43.4943 150.762 44.6857 151.623 46.0754C152.416 47.5314 152.88 49.1198 152.88 50.7743C152.88 52.4289 152.483 54.0172 151.689 55.4732L145.071 67.3858C143.747 69.7022 141.828 71.6876 139.511 73.0112C137.195 74.401 134.548 75.129 131.901 75.129H116.613L116.348 75.5261C114.363 79.1661 111.384 82.2104 107.811 84.3283C104.237 86.446 100.2 87.505 96.0303 87.505C95.5009 87.505 94.9714 87.3725 94.5082 87.1078C94.0449 86.9093 93.714 86.5122 93.4492 86.0489C93.1845 85.5857 93.0521 85.1224 92.9859 84.593C92.9859 84.0635 93.1183 83.534 93.383 83.0708L115.156 44.09C115.62 43.2958 116.215 42.634 117.01 42.1708C117.804 41.7075 118.664 41.4428 119.591 41.4428H143.416C145.071 41.4428 146.725 41.906 148.115 42.7002ZM129.915 61.7604L132.96 56.6645C133.092 56.3336 133.224 56.0027 133.224 55.6718C133.224 55.3409 133.158 55.0099 132.96 54.7451C132.827 54.4143 132.563 54.2157 132.298 54.0172C131.967 53.8848 131.636 53.7525 131.305 53.7525H128.922C128.825 53.7525 128.765 53.7879 128.687 53.8329C128.658 53.8494 128.627 53.867 128.592 53.8848C128.547 53.8848 128.503 53.9436 128.459 54.0025C128.437 54.0318 128.415 54.0613 128.393 54.0834L123.694 61.9589C123.628 62.0251 123.628 62.1574 123.628 62.2236C123.628 62.356 123.628 62.4884 123.694 62.5546L123.892 62.7532C123.959 62.8193 124.091 62.8193 124.157 62.8193H127.93C128.326 62.8193 128.724 62.7532 129.055 62.5546C129.452 62.356 129.717 62.0913 129.915 61.7604ZM197.934 43.362C197.669 42.8325 197.206 42.3693 196.676 42.0384C196.147 41.7075 195.551 41.509 194.955 41.4428H164.115C163.321 41.4428 162.46 41.7075 161.733 42.1046C161.004 42.5678 160.409 43.1634 159.946 43.8914L139.429 80.3574C139.032 81.0854 138.9 81.9457 138.9 82.806C138.9 83.6664 139.165 84.4606 139.562 85.1886C140.025 85.9166 140.621 86.5122 141.349 86.9754C142.076 87.3725 142.937 87.5712 143.797 87.6373H172.057C172.983 87.6373 173.843 87.3725 174.571 86.9754C175.366 86.5122 175.962 85.8504 176.425 85.1224L180.197 78.5705C180.528 78.041 180.66 77.3792 180.66 76.7174C180.594 76.1217 180.396 75.4599 180.064 74.9305C179.734 74.401 179.204 73.9378 178.675 73.6731C178.079 73.4084 177.417 73.276 176.822 73.3422H159.68L161.534 70.0993H174.372C175.233 70.0993 176.16 69.8346 176.954 69.3712C177.748 68.908 178.41 68.18 178.873 67.3858L180.66 64.2091C180.925 63.6797 181.057 63.0841 181.057 62.5546C181.057 61.9589 180.925 61.3633 180.594 60.9C180.33 60.3706 179.866 59.9735 179.402 59.7088C178.873 59.3779 178.344 59.2456 177.748 59.2456H167.623L169.475 56.0027H189.263C190.389 56.0027 191.514 55.6718 192.441 55.1422C193.433 54.5466 194.227 53.7525 194.756 52.8259L198.066 46.9358C198.331 46.3402 198.463 45.7445 198.463 45.1489C198.463 44.487 198.264 43.8914 197.934 43.362ZM234.915 42.5678C236.371 43.4282 237.562 44.6195 238.423 46.0754C239.216 47.5314 239.68 49.186 239.68 50.8405C239.68 52.495 239.216 54.1495 238.423 55.6056L233.393 64.3415C232.003 66.6579 230.017 68.5771 227.634 69.9007C225.253 71.2243 222.606 71.9523 219.826 71.9523H218.303C218.899 74.7981 219.826 78.1072 220.686 80.953C220.885 81.681 220.951 82.4751 220.818 83.2031C220.686 83.9974 220.422 84.7253 219.957 85.321C219.561 85.9827 218.965 86.5122 218.303 86.9093C217.642 87.2402 216.914 87.505 216.119 87.5712H210.229C209.104 87.5712 207.979 87.3063 207.053 86.6445C206.126 85.9827 205.464 85.0562 205.068 83.9974C204.339 80.8868 204.009 77.6439 204.009 74.4672V74.2025L198.052 84.9239C197.588 85.7842 196.993 86.446 196.199 86.9093C195.471 87.3725 194.545 87.5712 193.684 87.5712H186.205C185.346 87.5712 184.485 87.3725 183.691 86.9093C182.896 86.446 182.234 85.8504 181.838 85.0562C181.374 84.2621 181.109 83.4016 181.109 82.5413C181.109 81.6148 181.308 80.7545 181.771 79.9602L201.758 43.9576C202.222 43.1634 202.884 42.5017 203.677 42.0384C204.472 41.5751 205.332 41.3104 206.258 41.3104H230.15C231.804 41.3104 233.459 41.7737 234.915 42.5678ZM217.046 61.7604L220.156 56.5983C220.355 56.3336 220.422 56.0027 220.422 55.6718C220.422 55.3409 220.355 55.0099 220.156 54.679C220.024 54.4143 219.76 54.1495 219.494 54.0172C219.164 53.8186 218.833 53.7525 218.502 53.7525H215.987C215.855 53.7525 215.788 53.7525 215.656 53.8186L215.458 54.0172L210.825 62.0251C210.759 62.0913 210.758 62.1574 210.758 62.2898C210.758 62.356 210.759 62.4884 210.825 62.5546C210.891 62.687 210.957 62.7532 211.024 62.8193C211.051 62.8193 211.09 62.8306 211.135 62.844C211.199 62.8628 211.277 62.8855 211.354 62.8855H215.126C215.524 62.8855 215.921 62.7532 216.252 62.5546C216.583 62.356 216.847 62.0913 217.046 61.7604Z" fill="url(#paint0_linear_2001_5911)"/>
<path d="M184.991 3.77611C184.563 3.08353 183.969 2.4899 183.243 2.09414C182.552 1.69839 181.727 1.46753 180.903 1.46753H169.029C168.568 1.46753 168.139 1.59945 167.744 1.83031C167.347 2.06116 167.051 2.39096 166.82 2.78672L155.97 22.2117C155.837 22.4426 155.771 22.7064 155.771 22.9702C155.804 23.234 155.87 23.4649 156.003 23.6958C156.135 23.9267 156.3 24.1245 156.53 24.2234C156.761 24.3554 157.025 24.4214 157.289 24.4214C159.367 24.4214 161.378 23.8936 163.159 22.8384C164.94 21.783 166.424 20.266 167.413 18.4521L167.545 18.2541H175.164C176.483 18.2541 177.802 17.8914 178.956 17.1988C180.111 16.5392 181.067 15.5498 181.727 14.3955L185.025 8.45922C185.42 7.73366 185.618 6.94215 185.618 6.11765C185.618 5.29316 185.388 4.50166 184.991 3.77611ZM175.691 9.05285L174.174 11.5922C174.075 11.7571 173.943 11.8891 173.746 11.988C173.581 12.0869 173.383 12.12 173.185 12.12H171.305C171.272 12.12 171.206 12.12 171.173 12.087C171.14 12.054 171.108 12.021 171.075 11.988C171.042 11.9551 171.042 11.8891 171.042 11.8231C171.042 11.7902 171.042 11.7242 171.075 11.6912L173.416 7.76664C173.449 7.73366 173.482 7.6677 173.515 7.6677C173.581 7.63472 173.614 7.60174 173.68 7.60174H174.867C175.031 7.60174 175.197 7.6677 175.362 7.73366C175.494 7.8326 175.625 7.93154 175.691 8.09644C175.79 8.22836 175.823 8.39326 175.823 8.55815C175.823 8.72305 175.757 8.88795 175.691 9.05285Z" fill="white"/>
<path d="M211.961 2.4899C211.697 2.02818 211.301 1.63242 210.807 1.33561C210.312 1.07177 209.883 0.93985 209.224 0.93985L195.57 1.00581C194.416 1.00581 193.69 1.20369 192.701 1.76434C191.712 2.325 191.217 3.18246 190.656 4.17185L182.774 17.9244L181.586 20.134C181.29 20.6287 181.125 21.1563 181.125 21.717C181.125 22.2777 181.257 22.8384 181.553 23.3C181.818 23.7947 182.213 24.1905 182.708 24.4543C183.169 24.7181 183.73 24.883 184.291 24.8501H197.285C198.407 24.8501 199.495 24.5532 200.484 23.9927C201.473 23.432 202.264 22.6075 202.825 21.651L210.873 7.43684L211.928 5.65594C212.224 5.19422 212.356 4.63357 212.356 4.07291C212.389 3.51226 212.224 2.98459 211.961 2.4899ZM200.814 7.83259C200.385 8.59112 199.957 9.31668 199.56 10.0422C199.098 10.8337 198.637 11.6253 198.175 12.4498C197.78 13.1094 197.383 13.8019 196.988 14.4945C196.856 14.7253 196.692 14.9892 196.559 15.253C196.065 16.0775 195.603 16.902 195.141 17.6935C195.043 17.8584 194.943 18.0233 194.844 18.1882C194.712 18.3531 194.613 18.485 194.449 18.5839C194.251 18.6829 194.052 18.7488 193.855 18.7488H192.371C192.272 18.7488 192.206 18.7159 192.107 18.6499C191.942 18.5839 191.811 18.3861 191.876 18.1882C191.909 18.0893 191.942 18.0233 192.008 17.9244C192.734 16.6711 193.46 15.3849 194.185 14.1317C194.778 13.1094 195.372 12.054 195.966 11.0317L196.229 10.5369C196.361 10.339 196.493 10.1412 196.592 9.91031C196.856 9.51456 197.087 9.08582 197.318 8.69006C197.483 8.42623 197.615 8.16239 197.78 7.93153C197.846 7.79961 197.911 7.70068 197.977 7.56876C198.043 7.43684 198.175 7.30492 198.341 7.23897C198.538 7.10705 198.736 7.07407 198.934 7.07407H200.418C200.517 7.07407 200.583 7.10705 200.681 7.14003C200.747 7.17301 200.814 7.27195 200.88 7.3379C200.979 7.53578 200.913 7.6677 200.814 7.83259Z" fill="white"/>
<path d="M240.384 1.3356H237.152H235.404C234.382 1.3356 233.558 1.8303 233.029 2.75372L232.271 4.03993L228.676 10.0092C228.578 10.1412 228.446 10.2071 228.313 10.2071C228.05 10.2071 227.852 9.91031 227.951 9.64647L228.973 6.97512C229.138 6.38148 228.808 5.88679 228.247 5.88679H226.466C225.874 5.88679 225.313 6.15063 224.949 6.64532L222.51 9.94329C222.443 10.0422 222.344 10.0752 222.245 10.0752C221.949 10.1082 221.751 9.77839 221.883 9.54754L224.29 5.06231L225.082 3.47928C225.576 2.52287 224.883 1.40156 223.828 1.40156H219.64C218.519 1.40156 217.496 2.02817 216.969 3.01756L215.914 5.06231L207.866 19.9361L207.305 20.9255C206.415 22.5086 207.57 24.4543 209.351 24.4543L212.715 24.4874C215.32 24.4874 216.474 23.1682 217.232 22.4426L220.761 18.8478C220.992 18.5839 221.421 18.7818 221.355 19.1446L220.959 22.6075C220.728 24.4214 222.608 24.3883 223.631 24.3883H225.115H227.258C228.841 24.3883 230.292 23.5638 231.084 22.2117L233.722 17.7595C234.151 17.0339 234.547 16.3084 234.976 15.6158L235.207 15.1541C235.239 15.0551 235.305 14.9562 235.371 14.8573L236.36 13.1423L236.921 12.1859C237.086 11.8891 237.251 11.6253 237.416 11.3614C237.548 11.0975 237.68 10.8337 237.845 10.6029C238.174 10.0422 238.505 9.4486 238.834 8.88794L241.803 3.7761C242.428 2.68777 241.638 1.3356 240.384 1.3356Z" fill="white"/>
<path d="M265.108 2.42394C264.977 2.1601 264.746 1.92924 264.482 1.76435C264.218 1.59945 263.922 1.50051 263.625 1.46753H248.256C247.861 1.46753 247.432 1.59945 247.069 1.79733C246.706 2.02818 246.409 2.325 246.179 2.68778L235.954 20.8596C235.757 21.2223 235.691 21.651 235.691 22.0798C235.691 22.5086 235.823 22.9042 236.02 23.2671C236.252 23.6298 236.548 23.9267 236.912 24.1576C237.274 24.3554 237.702 24.4543 238.131 24.4874H252.214C252.676 24.4874 253.104 24.3554 253.467 24.1576C253.863 23.9267 254.159 23.5969 254.391 23.234L256.27 19.9691C256.435 19.7053 256.501 19.3755 256.501 19.0457C256.468 18.7488 256.369 18.419 256.205 18.1552C256.04 17.8914 255.775 17.6605 255.512 17.5286C255.215 17.3967 254.885 17.3307 254.589 17.3637H246.047L246.97 15.7477H253.368C253.797 15.7477 254.258 15.6158 254.654 15.3849C255.05 15.1541 255.38 14.7913 255.611 14.3955L256.501 12.8125C256.633 12.5487 256.699 12.2518 256.699 11.988C256.699 11.6912 256.633 11.3944 256.468 11.1635C256.336 10.8997 256.106 10.7018 255.874 10.5699C255.611 10.405 255.347 10.3391 255.05 10.3391H250.004L250.927 8.72305H260.788C261.349 8.72305 261.91 8.55815 262.371 8.29432C262.866 7.9975 263.262 7.60174 263.526 7.14003L265.175 4.20484C265.307 3.90803 265.373 3.61121 265.373 3.31439C265.373 2.98459 265.274 2.68778 265.108 2.42394Z" fill="white"/>
<path d="M287.594 3.7761C287.165 3.05055 286.571 2.45692 285.845 2.02818C285.121 1.63242 284.296 1.40157 283.472 1.40157H271.565C271.104 1.40157 270.675 1.53348 270.28 1.76434C269.883 1.9952 269.554 2.325 269.323 2.72075L259.364 20.6616C259.132 21.0574 259.033 21.4861 259.033 21.9479C259.033 22.3766 259.165 22.8053 259.397 23.2011C259.594 23.5969 259.924 23.8936 260.32 24.1245C260.715 24.3554 261.144 24.4543 261.573 24.4543H265.3C265.728 24.4543 266.19 24.3554 266.552 24.1245C266.949 23.8936 267.245 23.5638 267.476 23.1351L270.444 17.7925V17.9244C270.444 19.5074 270.609 21.1234 270.972 22.6735C271.17 23.2011 271.499 23.6629 271.962 23.9927C272.423 24.3225 272.984 24.4543 273.545 24.4543H276.479C276.876 24.4214 277.238 24.2894 277.568 24.1245C277.898 23.9267 278.194 23.6629 278.393 23.3331C278.624 23.0362 278.755 22.6735 278.821 22.2777C278.887 21.9149 278.854 21.5192 278.755 21.1563C278.326 19.7382 277.865 18.0893 277.568 16.6711H278.326C279.712 16.6711 281.031 16.3084 282.218 15.6488C283.406 14.9892 284.395 14.0328 285.088 12.8785L287.594 8.52517C287.989 7.79962 288.22 6.97513 288.22 6.15064C288.22 5.32614 287.989 4.50165 287.594 3.7761ZM278.492 9.01986L276.942 11.5922C276.843 11.7571 276.71 11.8891 276.545 11.988C276.381 12.0869 276.183 12.1529 275.985 12.1529H274.105C274.039 12.1529 273.973 12.12 273.94 12.12C273.907 12.0869 273.874 12.054 273.841 11.988C273.808 11.9551 273.808 11.8891 273.808 11.8561C273.808 11.7902 273.808 11.7571 273.841 11.7242L276.15 7.73366C276.183 7.70068 276.216 7.6677 276.249 7.63472C276.315 7.60174 276.348 7.60174 276.414 7.60174H277.667C277.832 7.60174 277.997 7.63472 278.161 7.73366C278.293 7.79962 278.426 7.93154 278.492 8.06346C278.591 8.22835 278.624 8.39325 278.624 8.55814C278.624 8.72304 278.591 8.88794 278.492 9.01986Z" fill="white"/>
<path d="M324.059 2.29202C323.894 2.02818 323.696 1.79732 323.399 1.63242C323.135 1.50051 322.839 1.40157 322.542 1.40157H317.43C316.969 1.40157 316.539 1.53348 316.144 1.76434C315.748 1.9952 315.418 2.325 315.188 2.72075L307.47 16.6052C307.338 16.836 307.141 17.0009 306.943 17.1329C306.711 17.2648 306.448 17.3307 306.217 17.3307H305.261C305.161 17.3307 305.029 17.2978 304.931 17.2318C304.832 17.1988 304.766 17.0999 304.7 17.0009C304.634 16.902 304.601 16.8031 304.601 16.6711C304.601 16.5392 304.634 16.4403 304.7 16.3413L311.658 4.07291C311.79 3.7761 311.89 3.47929 311.89 3.18247C311.89 2.85267 311.79 2.55586 311.625 2.29202C311.494 2.02818 311.263 1.79732 310.999 1.6654C310.735 1.5005 310.439 1.40157 310.108 1.40157H305.161C304.7 1.40157 304.238 1.53348 303.843 1.76434C303.446 2.02818 303.117 2.35798 302.919 2.75373L293.751 19.0457C293.421 19.6393 293.256 20.3319 293.256 20.9914C293.256 21.6841 293.421 22.3437 293.784 22.9373C294.113 23.5309 294.641 24.0256 295.234 24.3554C295.828 24.6852 296.488 24.8501 297.181 24.8501H307.965C309.317 24.8501 310.669 24.4874 311.856 23.7947C313.044 23.1022 314.033 22.0798 314.693 20.8925L324.059 4.03993C324.223 3.7761 324.289 3.47929 324.289 3.14949C324.289 2.85267 324.223 2.55586 324.059 2.29202Z" fill="white"/>
<path d="M346.945 3.77611C346.516 3.08353 345.922 2.4899 345.198 2.09414C344.505 1.69839 343.68 1.46753 342.856 1.46753H330.982C330.521 1.46753 330.092 1.59945 329.697 1.83031C329.3 2.06116 329.004 2.39096 328.773 2.78672L317.923 22.2117C317.791 22.4426 317.726 22.7064 317.726 22.9702C317.759 23.234 317.824 23.4649 317.956 23.6958C318.088 23.9267 318.253 24.1245 318.483 24.2234C318.715 24.3554 318.978 24.4214 319.242 24.4214C321.32 24.4214 323.331 23.8936 325.112 22.8384C326.894 21.783 328.377 20.266 329.367 18.4521L329.499 18.2541H337.117C338.436 18.2541 339.755 17.8914 340.909 17.1988C342.064 16.5392 343.02 15.5498 343.68 14.3955L346.978 8.45922C347.374 7.73366 347.571 6.94215 347.571 6.11765C347.571 5.29316 347.341 4.50166 346.945 3.77611ZM337.645 9.05285L336.128 11.5922C336.029 11.7571 335.896 11.8891 335.699 11.988C335.534 12.0869 335.336 12.12 335.138 12.12H333.258C333.225 12.12 333.159 12.12 333.127 12.087C333.094 12.054 333.061 12.021 333.028 11.988C332.995 11.9551 332.995 11.8891 332.995 11.8231C332.995 11.7902 332.995 11.7242 333.028 11.6912L335.369 7.76664C335.402 7.73366 335.435 7.6677 335.468 7.6677C335.534 7.63472 335.567 7.60174 335.633 7.60174H336.821C336.985 7.60174 337.15 7.6677 337.315 7.73366C337.447 7.8326 337.578 7.93154 337.645 8.09644C337.744 8.22836 337.777 8.39326 337.777 8.55815C337.777 8.72305 337.711 8.88795 337.645 9.05285Z" fill="white"/>
<path d="M385.422 1.3356H382.191H380.442C379.42 1.3356 378.596 1.8303 378.069 2.75372L377.31 4.03993L373.715 10.0092C373.616 10.1412 373.484 10.2071 373.352 10.2071C373.089 10.2071 372.89 9.91031 372.99 9.64647L374.012 6.97512C374.177 6.38148 373.847 5.88679 373.286 5.88679H371.506C370.912 5.88679 370.351 6.15063 369.988 6.64532L367.548 9.94329C367.482 10.0422 367.383 10.0752 367.284 10.0752C366.987 10.1082 366.789 9.77839 366.921 9.54754L369.329 5.06231L370.12 3.47928C370.615 2.52287 369.923 1.40156 368.867 1.40156H364.679C363.557 1.40156 362.535 2.02817 362.007 3.01756L360.952 5.06231L352.905 19.9361L352.345 20.9255C351.454 22.5086 352.608 24.4543 354.389 24.4543L357.753 24.4874C360.358 24.4874 361.513 23.1682 362.271 22.4426L365.8 18.8478C366.031 18.5839 366.46 18.7818 366.394 19.1446L365.998 22.6075C365.767 24.4214 367.647 24.3883 368.669 24.3883H370.153H372.297C373.88 24.3883 375.331 23.5638 376.122 22.2117L378.76 17.7595C379.19 17.0339 379.585 16.3084 380.014 15.6158L380.245 15.1541C380.278 15.0551 380.344 14.9562 380.409 14.8573L381.4 13.1423L381.96 12.1859C382.125 11.8891 382.29 11.6253 382.455 11.3614C382.586 11.0975 382.718 10.8337 382.883 10.6029C383.213 10.0422 383.543 9.4486 383.873 8.88794L386.841 3.7761C387.468 2.68777 386.676 1.3356 385.422 1.3356Z" fill="white"/>
<path d="M399.527 1.36859H394.185C392.997 1.36859 391.876 2.02818 391.25 3.08353L388.447 8.03048C388.017 8.75603 387.622 9.44861 387.226 10.1412L387.028 10.504C386.962 10.6359 386.896 10.8008 386.798 10.9327L385.808 12.6476L385.247 13.6041C385.083 13.9008 384.918 14.1647 384.752 14.4615C384.621 14.6924 384.489 14.9562 384.324 15.1871C383.994 15.7477 383.664 16.3413 383.335 16.902L379.674 23.2011C379.377 23.7618 379.772 24.4543 380.399 24.4543H385.017L387.457 24.4214C388.182 24.4214 388.809 24.0256 389.172 23.3989L390.392 21.3543L398.176 7.6677L399.165 5.91978L400.649 3.31439C401.144 2.45692 400.517 1.36859 399.527 1.36859Z" fill="white"/>
<path d="M424.781 2.325C424.616 2.06116 424.418 1.86328 424.154 1.69838C423.89 1.53348 423.593 1.43455 423.297 1.40157H406.378C406.345 1.40157 406.312 1.40157 406.279 1.40157H405.389C405.356 1.40157 405.356 1.40157 405.323 1.40157C403.772 1.43455 403.08 2.4899 403.08 2.4899L400.739 6.71129C400.277 7.5028 400.871 8.49218 401.761 8.49218H407.335C407.005 9.08582 406.642 9.67945 406.312 10.3061L406.114 10.6359C406.048 10.8008 405.982 10.9326 405.884 11.0646L404.894 12.7796L404.333 13.7359C404.169 13.9998 404.037 14.2636 403.871 14.5604C403.74 14.7913 403.575 15.0551 403.443 15.286C403.113 15.8467 402.783 16.4073 402.454 16.968L398.825 23.234C398.529 23.7947 398.924 24.4874 399.551 24.4874H404.136L406.543 24.4543C407.235 24.4214 407.895 24.0585 408.258 23.432L409.445 21.3872L416.767 8.49218H420.626C421.12 8.49218 421.648 8.32729 422.076 8.09643C422.538 7.79962 422.934 7.40386 423.198 6.94215L424.847 4.07291C424.979 3.80908 425.012 3.51226 425.012 3.21545C425.012 2.88565 424.913 2.58884 424.781 2.325Z" fill="white"/>
<path d="M448.876 1.36859H443.567C442.346 1.36859 441.225 2.02818 440.631 3.08353L437.796 8.03048L436.509 10.3061C436.311 10.7018 435.883 10.9327 435.454 10.9327H434.234C433.871 10.9657 433.64 10.5369 433.838 10.2401L435.289 7.6677L436.278 5.91978L437.763 3.31439C438.257 2.45692 437.631 1.36859 436.641 1.36859H431.298C430.079 1.36859 428.99 2.02818 428.363 3.08353L425.56 8.03048C425.132 8.75603 424.735 9.44861 424.34 10.1412C424.274 10.2731 424.207 10.405 424.141 10.504C424.076 10.6689 424.01 10.8008 423.911 10.9327L422.922 12.6476L422.361 13.6041L421.867 14.4615C421.734 14.6924 421.602 14.9562 421.437 15.1871C421.108 15.7477 420.778 16.3413 420.448 16.902L416.788 23.234C416.49 23.7618 416.887 24.4543 417.513 24.4543H422.13L424.571 24.4214C425.296 24.4214 425.923 24.0256 426.286 23.432L427.505 21.3543L430.737 15.6488C430.936 15.319 431.265 15.1211 431.661 15.1211H432.882C433.277 15.1211 433.508 15.5169 433.31 15.8467C433.112 16.2094 432.914 16.5392 432.684 16.902L429.055 23.234C428.726 23.7618 429.121 24.4543 429.748 24.4543H434.399L436.806 24.4214C437.532 24.4214 438.191 24.0256 438.554 23.432L439.741 21.3543L447.525 7.6677L448.514 5.91978L449.998 3.31439C450.492 2.45692 449.866 1.36859 448.876 1.36859Z" fill="white"/>
</g>
</g>
</g>
<defs>
<linearGradient id="paint0_linear_2001_5911" x1="-7.74499" y1="30.5111" x2="320.293" y2="370.53" gradientUnits="userSpaceOnUse">
<stop stop-color="#26FF55"/>
<stop offset="0.523569" stop-color="#268AFF"/>
<stop offset="1" stop-color="#FC55FF"/>
</linearGradient>
<clipPath id="clip0_2001_5911">
<rect width="605" height="87.84" fill="white" transform="translate(0.349609 0.93985)"/>
</clipPath>
<clipPath id="clip1_2001_5911">
<rect width="605" height="87.84" fill="white" transform="translate(0.349609 0.93985)"/>
</clipPath>
<clipPath id="clip2_2001_5911">
<rect width="604.898" height="87.84" fill="white" transform="translate(0.400391 0.93985)"/>
</clipPath>
</defs>
</svg>
