<svg width="531" height="531" viewBox="0 0 531 531" fill="none" xmlns="http://www.w3.org/2000/svg">
<g clip-path="url(#clip0_2001_5127)">
<mask id="mask0_2001_5127" style="mask-type:luminance" maskUnits="userSpaceOnUse" x="0" y="0" width="531" height="531">
<path d="M530.35 0.859863H0.349609V530.86H530.35V0.859863Z" fill="white"/>
</mask>
<g mask="url(#mask0_2001_5127)">
<mask id="mask1_2001_5127" style="mask-type:luminance" maskUnits="userSpaceOnUse" x="0" y="0" width="531" height="531">
<path d="M0.349609 0.859863H530.35V530.86H0.349609V0.859863Z" fill="white"/>
</mask>
<g mask="url(#mask1_2001_5127)">
<path d="M162.425 244.896C156.712 242.979 139.597 236.415 134.925 234.605C133.875 234.198 133.084 233.417 132.389 232.66C129.93 229.982 129.368 226.078 130.899 222.362L155.406 168.481C155.95 167.161 156.722 166.012 157.648 165.066C160.508 162.144 164.84 161.149 168.465 162.996L195.965 171.631C198.548 173.723 201.893 180.396 199.93 185.162L177.089 235.515L175.484 239.412C173.262 244.805 167.977 246.759 162.425 244.896Z" fill="#4B387F"/>
<path d="M159.909 240.76C155.117 239.176 135.513 232.048 130.875 229.671C126.237 227.294 125.868 221.949 127.831 217.183L152.093 164.099C154.314 158.705 158.954 156.115 165.151 158.614C171.434 161.148 187.407 165.879 192.775 168.722C198.142 171.565 199.07 176.136 197.107 180.903L172.968 235.275C170.746 240.669 164.951 242.426 159.909 240.76Z" fill="#6F56A5"/>
<path d="M129.065 218.507C130.421 214.992 151.718 169.746 153.818 164.686C155.918 159.627 160.76 158.756 164.243 159.97C165.738 160.491 191.879 170.024 192.48 170.322C196.899 172.512 196.664 177.753 195.628 180.193C194.371 183.158 171.42 233.617 171.12 234.442C169.484 238.945 164.441 240.35 160.756 238.975C157.019 237.581 136.38 230.096 132.765 228.684C128.372 226.969 127.709 222.021 129.065 218.507Z" fill="#354593"/>
<path d="M151.716 190.803C150.918 192.852 151.289 195.107 152.509 196.884L157.233 205.695C157.795 206.742 159.046 207.246 160.148 206.869L169.607 203.637C171.493 203.122 173.082 201.805 173.823 199.902C175.128 196.55 173.307 192.648 169.755 191.187C167.94 190.44 166.025 190.475 164.412 191.134C163.687 189.512 162.324 188.128 160.509 187.381C156.957 185.919 153.021 187.452 151.716 190.803Z" stroke="white" stroke-width="4.45738"/>
<mask id="mask2_2001_5127" style="mask-type:alpha" maskUnits="userSpaceOnUse" x="151" y="186" width="24" height="21">
<path d="M151.716 190.803C150.918 192.852 151.289 195.107 152.509 196.884L157.233 205.695C157.795 206.742 159.046 207.246 160.148 206.869L169.607 203.637C171.493 203.122 173.082 201.805 173.823 199.902C175.128 196.55 173.307 192.648 169.755 191.187C167.94 190.44 166.025 190.475 164.412 191.134C163.687 189.512 162.324 188.128 160.509 187.381C156.957 185.919 153.021 187.452 151.716 190.803Z" fill="url(#paint0_linear_2001_5127)"/>
</mask>
<g mask="url(#mask2_2001_5127)">
<mask id="mask3_2001_5127" style="mask-type:luminance" maskUnits="userSpaceOnUse" x="129" y="175" width="52" height="53">
<path d="M141.854 175.862L180.935 189.461L168.784 227.291L129.703 213.691L141.854 175.862Z" fill="white"/>
</mask>
<g mask="url(#mask3_2001_5127)">
<path d="M180.256 192.309L171.863 218.44L144.868 209.046L153.261 182.916L180.256 192.309Z" fill="url(#paint1_radial_2001_5127)"/>
</g>
</g>
<path d="M162.343 199.322C163.039 200.857 164.847 201.6 166.38 200.983C167.914 200.366 168.593 198.622 167.897 197.087C167.201 195.552 165.394 194.809 163.86 195.426L161.083 196.543L162.343 199.322ZM165.766 199.63C164.98 199.946 164.053 199.565 163.696 198.778L163.05 197.352L164.474 196.78C165.26 196.463 166.187 196.844 166.544 197.631C166.901 198.418 166.553 199.313 165.766 199.63Z" fill="#FEFEFE"/>
<path d="M160.159 198.423C158.626 199.04 156.818 198.296 156.123 196.762C155.427 195.227 156.106 193.482 157.639 192.865C159.173 192.248 160.98 192.992 161.676 194.527L162.936 197.306L160.159 198.423ZM157.475 196.217C157.832 197.004 158.759 197.386 159.546 197.069L160.97 196.496L160.323 195.071C159.967 194.284 159.04 193.903 158.253 194.219C157.467 194.536 157.119 195.43 157.475 196.217Z" fill="#FEFEFE"/>
</g>
<path d="M86.3522 178.529C43.0562 187.979 15.8899 224.883 14.295 269.908C13.5334 291.408 13.1092 360.161 100.216 412.26C122.146 425.377 183.845 455.026 244.655 458.285C305.938 461.569 377.52 453.434 441.689 398.173C526.133 325.464 517.057 236.189 508.819 214.087C509.555 214.087 184.01 250.156 184.01 250.647C193.066 286.338 179.013 308.999 163.194 320.493C125.652 347.771 73.1839 337.999 52.5728 300.212C26.1763 251.818 50.1601 196.809 100.461 186.503C120.538 182.39 142.419 187.341 162.417 196.849C146.345 179.244 110.521 173.253 86.3522 178.529Z" fill="white"/>
<path d="M59.5616 312.28C55.0676 306.591 51.9106 302.353 48.2 293.577C43.5354 282.545 43.6598 277.296 41.1955 265.255C18.5073 265.369 44.0262 330.637 59.5616 312.28Z" fill="white"/>
<path d="M38.1474 350.131C48.4417 366.952 64.078 378.63 84.3549 393.648C104.632 408.665 140.579 430.258 146.137 432.94C162.371 420.126 29.7974 336.487 38.1474 350.131Z" fill="white"/>
<path d="M289.331 458.086C351.11 455.154 401.647 434.2 436.455 406.513C463.664 384.86 482.707 357.53 492.273 331.838C474.33 300.403 261.851 438.705 289.331 458.086Z" fill="white"/>
<mask id="mask4_2001_5127" style="mask-type:luminance" maskUnits="userSpaceOnUse" x="0" y="0" width="531" height="531">
<path d="M0.349609 0.859863H530.35V530.86H0.349609V0.859863Z" fill="white"/>
</mask>
<g mask="url(#mask4_2001_5127)">
<path d="M200.778 232.835C194.03 236.898 192.7 245.913 198.079 251.154C217.64 270.205 249.244 274.013 274.87 258.584C300.501 243.16 311.926 213.451 304.246 187.25C302.131 180.036 293.543 176.999 286.795 181.057L200.778 232.835ZM433.772 141.14C428.982 135.443 420.37 135.526 416.272 141.327C401.383 162.389 402.487 192.447 420.669 214.094C438.846 235.74 468.261 242.017 491.581 230.985C498 227.952 499.575 219.482 494.786 213.784L433.772 141.14ZM283.831 97.7783C265.104 97.0863 244.739 117.207 247.104 142.205C248.856 160.696 262.719 178.809 267.47 221.126C272.22 263.447 270.257 308.35 345.586 310.99C397.56 312.811 456.493 263.693 461.204 204.882C464.424 164.725 445.452 125.795 433.723 99.2161C427.417 84.9307 419.202 67.4897 397.992 65.5906C371.595 63.2252 359.817 93.4058 340.943 98.3181C330.412 101.056 318.413 99.0591 283.831 97.7783Z" stroke="white" stroke-width="24.6843"/>
<path d="M306.72 336.918L294.285 350.905C289.949 355.781 282.482 356.219 277.606 351.884C272.73 347.549 272.292 340.082 276.627 335.206L289.062 321.219C293.397 316.343 300.865 315.904 305.741 320.239C310.617 324.575 311.055 332.042 306.72 336.918Z" fill="#E619DF"/>
<mask id="mask5_2001_5127" style="mask-type:alpha" maskUnits="userSpaceOnUse" x="273" y="317" width="37" height="38">
<path d="M306.72 336.918L294.285 350.905C289.949 355.781 282.482 356.219 277.606 351.884C272.73 347.549 272.292 340.082 276.627 335.206L289.062 321.219C293.397 316.343 300.865 315.904 305.741 320.239C310.617 324.575 311.055 332.042 306.72 336.918Z" fill="#E619DF"/>
</mask>
<g mask="url(#mask5_2001_5127)">
<path d="M285.966 340.433L273.53 354.42C269.195 359.296 261.727 359.735 256.851 355.4C251.975 351.065 251.537 343.598 255.872 338.722L268.308 324.735C272.643 319.859 280.11 319.42 284.986 323.755C289.862 328.09 290.301 335.557 285.966 340.433Z" stroke="#AF04AF" stroke-width="5.88889" stroke-miterlimit="10"/>
</g>
<path d="M285.966 340.433L273.53 354.42C269.195 359.296 261.727 359.735 256.851 355.4C251.975 351.065 251.537 343.598 255.872 338.722L268.308 324.735C272.643 319.859 280.11 319.42 284.986 323.755C289.862 328.09 290.301 335.557 285.966 340.433Z" fill="#E619DF"/>
<mask id="mask6_2001_5127" style="mask-type:alpha" maskUnits="userSpaceOnUse" x="194" y="65" width="304" height="247">
<path d="M200.778 232.835C194.03 236.898 192.7 245.913 198.079 251.154C217.64 270.205 249.244 274.013 274.87 258.584C300.501 243.16 311.926 213.451 304.246 187.25C302.131 180.036 293.543 176.999 286.795 181.057L200.778 232.835ZM433.772 141.14C428.982 135.443 420.37 135.526 416.272 141.327C401.383 162.389 402.487 192.447 420.669 214.094C438.846 235.74 468.261 242.017 491.581 230.985C498 227.952 499.575 219.482 494.786 213.784L433.772 141.14ZM283.831 97.7783C265.104 97.0863 244.739 117.207 247.104 142.205C248.856 160.696 262.719 178.809 267.47 221.126C272.22 263.447 270.257 308.35 345.586 310.99C397.56 312.811 456.493 263.693 461.204 204.882C464.424 164.725 445.452 125.795 433.723 99.2161C427.417 84.9307 419.202 67.4897 397.992 65.5906C371.595 63.2252 359.817 93.4058 340.943 98.3181C330.412 101.056 318.413 99.0591 283.831 97.7783Z" fill="#FF0000"/>
</mask>
<g mask="url(#mask6_2001_5127)">
<mask id="mask7_2001_5127" style="mask-type:luminance" maskUnits="userSpaceOnUse" x="0" y="0" width="531" height="531">
<path d="M0.349609 0.901154H530.35V530.901H0.349609V0.901154Z" fill="white"/>
</mask>
<g mask="url(#mask7_2001_5127)">
<path d="M533.221 39.7693V405.862H167.129V39.7693H533.221Z" fill="url(#paint2_radial_2001_5127)"/>
</g>
</g>
<mask id="mask8_2001_5127" style="mask-type:alpha" maskUnits="userSpaceOnUse" x="405" y="136" width="93" height="101">
<path d="M433.772 141.14C428.982 135.443 420.37 135.526 416.272 141.327C401.383 162.389 402.487 192.447 420.669 214.094C438.846 235.74 468.261 242.017 491.581 230.985C498 227.952 499.575 219.482 494.786 213.784L433.772 141.14Z" fill="#FF0000"/>
</mask>
<g mask="url(#mask8_2001_5127)">
<path d="M283.831 97.78C265.104 97.0863 244.739 117.207 247.104 142.207C248.854 160.697 262.719 178.808 267.469 221.128C272.219 263.447 270.256 308.35 345.585 310.99C397.559 312.811 456.494 263.693 461.204 204.882C464.421 164.726 445.451 125.795 433.722 99.215C427.418 84.9287 419.199 67.49 397.99 65.5899C371.595 63.2253 359.817 93.4059 340.943 98.316C330.413 101.056 318.414 99.0613 283.831 97.78Z" stroke="#1E65FA" stroke-width="6.43852"/>
</g>
<mask id="mask9_2001_5127" style="mask-type:alpha" maskUnits="userSpaceOnUse" x="246" y="65" width="216" height="247">
<path d="M283.831 97.7783C265.104 97.0863 244.738 117.207 247.104 142.205C248.856 160.696 262.719 178.809 267.469 221.126C272.22 263.447 270.257 308.35 345.586 310.99C397.56 312.811 456.493 263.693 461.204 204.882C464.423 164.725 445.451 125.795 433.723 99.2161C427.417 84.9307 419.202 67.4898 397.992 65.5906C371.595 63.2252 359.817 93.4058 340.943 98.3181C330.412 101.056 318.413 99.0591 283.831 97.7783Z" fill="#FF0000"/>
</mask>
<g mask="url(#mask9_2001_5127)">
<mask id="mask10_2001_5127" style="mask-type:luminance" maskUnits="userSpaceOnUse" x="0" y="0" width="531" height="531">
<path d="M0.349609 0.901154H530.35V530.901H0.349609V0.901154Z" fill="white"/>
</mask>
<g mask="url(#mask10_2001_5127)">
<path d="M533.221 39.7693V405.862H167.129V39.7693H533.221Z" fill="url(#paint3_radial_2001_5127)"/>
</g>
</g>
<mask id="mask11_2001_5127" style="mask-type:alpha" maskUnits="userSpaceOnUse" x="246" y="65" width="216" height="247">
<path d="M283.831 97.7783C265.104 97.0863 244.738 117.207 247.104 142.205C248.856 160.696 262.719 178.809 267.469 221.126C272.22 263.447 270.257 308.35 345.586 310.99C397.56 312.811 456.493 263.693 461.204 204.882C464.423 164.725 445.451 125.795 433.723 99.2161C427.417 84.9307 419.202 67.4898 397.992 65.5906C371.595 63.2252 359.817 93.4058 340.943 98.3181C330.412 101.056 318.413 99.0591 283.831 97.7783Z" fill="#FF0000"/>
</mask>
<g mask="url(#mask11_2001_5127)">
<path d="M292.123 241.853C281.806 256.038 268.049 264.548 254.678 268.432C243.967 272.651 212.098 273.625 195.175 251.778" stroke="#1E65FA" stroke-width="3.68056" stroke-linecap="round"/>
</g>
<mask id="mask12_2001_5127" style="mask-type:alpha" maskUnits="userSpaceOnUse" x="246" y="65" width="216" height="247">
<path d="M283.831 97.7783C265.104 97.0863 244.738 117.207 247.104 142.205C248.856 160.696 262.719 178.809 267.469 221.126C272.22 263.447 270.257 308.35 345.586 310.99C397.56 312.811 456.493 263.693 461.204 204.882C464.423 164.725 445.451 125.795 433.723 99.2161C427.417 84.9307 419.202 67.4898 397.992 65.5906C371.595 63.2252 359.817 93.4058 340.943 98.3181C330.412 101.056 318.413 99.0591 283.831 97.7783Z" fill="#FF0000"/>
</mask>
<g mask="url(#mask12_2001_5127)">
<mask id="mask13_2001_5127" style="mask-type:luminance" maskUnits="userSpaceOnUse" x="-14" y="-20" width="638" height="638">
<path d="M-13.6523 139.936L463.898 -19.6182L623.453 457.932L145.902 617.487L-13.6523 139.936Z" fill="white"/>
</mask>
<g mask="url(#mask13_2001_5127)">
<path d="M310.097 139.784C303.468 147.528 301.229 161.056 301.638 166.327C302.134 172.721 312.549 197.646 313.677 199.415C317.809 205.899 329.976 212.156 340.369 211.633C350.423 211.127 361.007 208.67 370.948 193.552" stroke="#1E65FA" stroke-width="3.49653" stroke-linecap="round"/>
<path d="M321.024 113.645C330.608 115.481 340.234 123.693 350.336 128.92C355.614 131.651 364.42 135.028 372.526 132.074" stroke="#C6FFFD" stroke-width="3.49653" stroke-linecap="round"/>
<path d="M321.024 113.645C318.852 117.074 319.079 125.109 319.893 130.858" stroke="#1E65FA" stroke-width="3.49653" stroke-linecap="round"/>
<path d="M308.428 125.227C311.708 125.114 317.018 128.501 319.747 131.153" stroke="#C6FFFD" stroke-width="3.49653" stroke-linecap="round"/>
<path d="M307.985 125.374C306.626 131.604 308.03 136.542 310.022 139.563" stroke="#1E65FA" stroke-width="3.49653" stroke-linecap="round"/>
<path d="M452.262 152.621C453.078 160.213 448.249 172.149 440.817 177.581C433.627 182.836 424.975 186.806 409.629 180.137" stroke="#1E65FA" stroke-width="3.2707" stroke-linecap="round"/>
<path d="M422.565 101.715C431.482 104.266 440.643 113.985 443.332 118.494" stroke="#C6FFFD" stroke-width="3.2707" stroke-linecap="round"/>
<path d="M415.917 88.576C420.362 92.8667 422.18 97.666 422.514 101.241" stroke="#C6FFFD" stroke-width="3.2707" stroke-linecap="round"/>
<path d="M414.876 88.6781C412.56 90.435 410.823 96.1767 410.443 99.8672" stroke="#1E65FA" stroke-width="3.2707" stroke-linecap="round"/>
<path d="M400.04 86.7531C403.465 88.3125 407.837 94.962 410.517 100.088" stroke="#C6FFFD" stroke-width="3.2707" stroke-linecap="round"/>
<path d="M399.349 86.6154C393.802 93.5069 391.738 105.994 387.746 115.929C385.66 121.121 381.517 128.824 374.285 130.995" stroke="#1E65FA" stroke-width="3.2707" stroke-linecap="round"/>
<path d="M330.157 139.582C317.263 143.89 310.303 157.835 314.611 170.729L318.629 182.756C322.937 195.65 336.882 202.611 349.776 198.303C362.67 193.995 369.631 180.049 365.323 167.155L361.304 155.128C356.996 142.234 343.051 135.274 330.157 139.582Z" fill="#C6FFFD"/>
<mask id="mask14_2001_5127" style="mask-type:alpha" maskUnits="userSpaceOnUse" x="313" y="138" width="54" height="62">
<path d="M330.157 139.582C317.263 143.89 310.303 157.835 314.611 170.729L318.629 182.756C322.937 195.65 336.882 202.611 349.776 198.303C362.67 193.995 369.631 180.049 365.323 167.155L361.304 155.128C356.996 142.234 343.051 135.274 330.157 139.582Z" fill="#C6FFFD"/>
</mask>
<g mask="url(#mask14_2001_5127)">
<path d="M339.015 146.119C340.81 151.492 337.703 157.371 332.077 159.25L335.717 170.146C337.871 176.592 345.319 179.914 352.352 177.564C359.385 175.215 363.341 168.083 361.187 161.636L356.767 148.406C354.613 141.959 347.165 138.638 340.132 140.987C338.961 141.379 337.875 141.902 336.888 142.534C337.822 143.539 338.556 144.746 339.015 146.119Z" fill="#3B4CFF"/>
</g>
<path d="M407.611 113.212C396.329 116.981 390.675 130.49 394.983 143.384L399.001 155.411C403.309 168.305 415.948 175.702 427.23 171.933C438.513 168.163 444.167 154.655 439.859 141.761L435.84 129.733C431.532 116.84 418.893 109.442 407.611 113.212Z" fill="#C6FFFD"/>
<mask id="mask15_2001_5127" style="mask-type:alpha" maskUnits="userSpaceOnUse" x="393" y="112" width="49" height="61">
<path d="M407.611 113.212C396.329 116.981 390.675 130.49 394.983 143.384L399.001 155.411C403.309 168.305 415.948 175.702 427.23 171.933C438.513 168.163 444.167 154.655 439.859 141.761L435.84 129.733C431.532 116.84 418.893 109.442 407.611 113.212Z" fill="#C6FFFD"/>
</mask>
<g mask="url(#mask15_2001_5127)">
<path d="M402.808 124.414C404.568 129.681 401.919 135.314 396.891 136.994L400.166 146.796C402.366 153.38 409.244 157.015 415.529 154.915C421.815 152.815 425.126 145.776 422.926 139.192L418.677 126.475C416.477 119.891 409.6 116.256 403.314 118.356C402.103 118.761 401.001 119.349 400.029 120.082C401.257 121.222 402.233 122.692 402.808 124.414Z" fill="#3B4CFF"/>
</g>
</g>
</g>
<path d="M374.559 181.832L386.23 207.505C390.233 216.485 397.886 215.815 403.39 213.784C403.39 213.784 409.323 211.84 412.177 203.456" stroke="#0455FF" stroke-width="4.02162" stroke-miterlimit="10" stroke-linecap="round"/>
<path d="M380.599 181.516L390.171 203.063C392.894 207.332 397.518 208.935 400.934 207.37C405.564 205.54 407.771 200.545 405.925 196.075L397.966 176.296L380.599 181.516Z" fill="#0455FF"/>
<path d="M379.781 162.128C388.425 158.518 397.705 155.807 404.733 166.272C405.078 166.684 399.616 175.978 399.616 175.978C392.835 162.394 379.784 163.701 379.781 162.128Z" fill="#C7FFFE"/>
<path d="M373.55 180.915C389.074 179.56 397.299 177.62 398.724 176.903C400.149 176.186 404.715 169.821 405.594 168.048" stroke="#0354FF" stroke-width="3.68056" stroke-linecap="round"/>
<mask id="mask16_2001_5127" style="mask-type:alpha" maskUnits="userSpaceOnUse" x="246" y="65" width="216" height="247">
<path d="M283.831 97.7783C265.104 97.0863 244.738 117.207 247.104 142.205C248.856 160.696 262.719 178.809 267.469 221.126C272.22 263.447 270.257 308.35 345.586 310.99C397.56 312.811 456.493 263.693 461.204 204.882C464.423 164.725 445.451 125.795 433.723 99.2161C427.417 84.9307 419.202 67.4898 397.992 65.5906C371.595 63.2252 359.817 93.4058 340.943 98.3181C330.412 101.056 318.413 99.0591 283.831 97.7783Z" fill="#FF0000"/>
</mask>
<g mask="url(#mask16_2001_5127)">
<mask id="mask17_2001_5127" style="mask-type:luminance" maskUnits="userSpaceOnUse" x="-16" y="-8" width="565" height="566">
<path d="M-15.9023 28.6533L512.882 -7.2195L548.755 521.565L19.9704 557.438L-15.9023 28.6533Z" fill="white"/>
</mask>
<g mask="url(#mask17_2001_5127)">
<path d="M423.474 252.938C430.393 250.37 434.757 244.364 434.331 238.637C434.219 237.141 432.434 236.34 430.701 236.984L407.588 245.562C405.854 246.206 405.023 247.977 405.915 249.183C409.329 253.802 416.554 255.507 423.474 252.938Z" fill="#1F66FB"/>
<path d="M380.488 265.583C387.741 264.215 393.052 259.027 393.595 253.31C393.737 251.817 392.111 250.728 390.294 251.07L366.069 255.642C364.252 255.984 363.135 257.59 363.811 258.929C366.399 264.056 373.235 266.952 380.488 265.583Z" fill="#1F66FB"/>
<path d="M408.264 278.507C415.329 276.371 420.054 270.645 419.983 264.902C419.964 263.403 418.232 262.494 416.462 263.029L392.863 270.163C391.094 270.698 390.155 272.415 390.97 273.674C394.093 278.494 401.198 280.643 408.264 278.507Z" fill="#1F66FB"/>
</g>
</g>
</g>
</g>
</g>
<defs>
<linearGradient id="paint0_linear_2001_5127" x1="166.601" y1="159.463" x2="179.691" y2="142.697" gradientUnits="userSpaceOnUse">
<stop stop-color="#26F663"/>
<stop offset="0.3" stop-color="#26C0B1"/>
<stop offset="0.6" stop-color="#268AFF"/>
<stop offset="0.77" stop-color="#916FFF"/>
<stop offset="0.94" stop-color="#FC55FF"/>
</linearGradient>
<radialGradient id="paint1_radial_2001_5127" cx="0" cy="0" r="1" gradientUnits="userSpaceOnUse" gradientTransform="translate(169.332 192.312) rotate(19.1867) scale(20.3984 19.5806)">
<stop stop-color="#26FF55"/>
<stop offset="0.3" stop-color="#26C5AA"/>
<stop offset="0.6" stop-color="#268AFF"/>
<stop offset="0.75" stop-color="#916FFF"/>
<stop offset="0.9" stop-color="#FC55FF"/>
</radialGradient>
<radialGradient id="paint2_radial_2001_5127" cx="0" cy="0" r="1" gradientUnits="userSpaceOnUse" gradientTransform="translate(399.978 87.7049) scale(261.263)">
<stop stop-color="#26FF55"/>
<stop offset="0.3" stop-color="#26C5AA"/>
<stop offset="0.6" stop-color="#268AFF"/>
<stop offset="0.75" stop-color="#916FFF"/>
<stop offset="0.9" stop-color="#FC55FF"/>
</radialGradient>
<radialGradient id="paint3_radial_2001_5127" cx="0" cy="0" r="1" gradientUnits="userSpaceOnUse" gradientTransform="translate(399.978 87.7049) scale(261.263)">
<stop stop-color="#26FF55"/>
<stop offset="0.3" stop-color="#26C5AA"/>
<stop offset="0.6" stop-color="#268AFF"/>
<stop offset="0.75" stop-color="#916FFF"/>
<stop offset="0.9" stop-color="#FC55FF"/>
</radialGradient>
<clipPath id="clip0_2001_5127">
<rect width="530" height="530" fill="white" transform="translate(0.349609 0.859863)"/>
</clipPath>
</defs>
</svg>
