<svg width="180" height="47" viewBox="0 0 180 47" fill="none" xmlns="http://www.w3.org/2000/svg">
<g clip-path="url(#clip0_2001_7802)">
<g clip-path="url(#clip1_2001_7802)">
<g clip-path="url(#clip2_2001_7802)">
<path fill-rule="evenodd" clip-rule="evenodd" d="M38.209 20.6821C38.9676 27.1376 35.0457 33.2275 28.8644 35.1924C22.683 37.1574 15.9851 34.4434 12.9051 28.7259C7.65342 28.9423 2.88449 25.8273 1.00152 21.0352C0.814126 20.5571 0.866366 20.0177 1.14204 19.5843C1.41771 19.1509 1.8835 18.8758 2.395 18.8443L9.39974 18.4102L7.66073 12.8772C7.20137 11.4154 7.50347 9.81947 8.46522 8.62693C9.42697 7.43442 10.9203 6.80414 12.4421 6.94845C16.2475 7.3121 18.7746 7.29738 20.0233 6.90432C21.2721 6.51126 23.3153 5.09136 26.153 2.64459C27.3147 1.64455 28.8992 1.29619 30.3704 1.71738C31.8417 2.13857 33.0029 3.27294 33.4612 4.73675L35.1825 10.2202L41.0752 6.59759C41.5123 6.32856 42.0512 6.28557 42.5248 6.48197C42.9984 6.67838 43.3494 7.09041 43.4688 7.59024C44.6533 12.5625 42.5669 17.8197 38.209 20.6821ZM20.2859 38.5771L17.0889 37.0454C15.9705 36.5333 14.6484 37.0167 14.1202 38.131C13.5919 39.2453 14.0532 40.5777 15.156 41.1229L18.3548 42.6537C19.4732 43.1659 20.7954 42.6824 21.3237 41.5681C21.8519 40.4537 21.3906 39.1213 20.2877 38.5762L20.2859 38.5771ZM42.6042 29.0851C42.0854 28.79 41.4707 28.7142 40.8958 28.8744C40.3209 29.0347 39.833 29.4178 39.5399 29.9391L37.7959 33.0318C37.2248 34.1113 37.6135 35.4497 38.6728 36.0518C39.7321 36.6538 41.0777 36.301 41.7088 35.2557L43.4514 32.1626C44.065 31.0773 43.6858 29.6997 42.6042 29.0851Z" fill="#58CC02"/>
<path d="M119.422 6.79053C117.905 6.79053 116.716 7.92039 116.716 9.37732C116.716 10.8045 117.905 11.9641 119.422 11.9641C120.879 11.9641 122.127 10.8045 122.127 9.37732C122.127 7.92039 120.879 6.79053 119.422 6.79053ZM66.7635 6.93919C65.0092 6.93919 62.8981 9.10973 62.8981 12.8858V15.0861C61.798 14.313 60.2816 13.7778 58.5571 13.7778C53.9187 13.7778 50.6777 17.3161 50.6777 21.9545C50.6777 26.6524 53.8592 30.1312 58.5571 30.1312C60.9357 30.1312 62.9576 29.0905 63.9685 27.9012C64.8011 29.15 65.9309 29.8338 66.7337 29.8338C67.2987 29.8338 67.6555 29.477 67.6555 28.7634V8.00959C67.6555 7.29599 67.3284 6.93919 66.7635 6.93919ZM112.523 6.93919C110.769 6.93919 108.658 9.10973 108.658 12.8858V27.9606C108.658 29.0608 109.074 29.5365 110.234 29.5365H111.84C112.999 29.5365 113.415 29.0608 113.415 27.9606V8.00959C113.415 7.29599 113.088 6.93919 112.523 6.93919ZM160.513 13.2724C160.245 13.2724 159.948 13.3616 159.562 13.5697C158.343 14.2238 157.659 14.3725 156.648 14.3725C155.131 14.3725 154.358 13.9265 151.742 13.9265C147.311 13.9265 144.487 16.6025 144.487 20.2002C144.487 21.9545 145.319 23.5304 146.836 24.7792C144.844 25.7901 143.654 28.0498 143.654 30.2798C143.654 34.4128 147.014 37.1185 151.98 37.1185C157.004 37.1185 160.305 34.4128 160.305 30.2798C160.305 28.0498 159.116 25.7604 157.123 24.7792C158.58 23.5304 159.472 21.9545 159.472 20.2002C159.472 19.4569 159.324 18.773 159.026 18.1486C160.691 17.554 161.435 16.216 161.435 14.6104C161.435 13.8373 161.167 13.2724 160.513 13.2724ZM97.5077 13.7778C92.6909 13.7778 89.0635 17.1674 89.0635 21.9545C89.0635 26.6821 92.6909 30.1312 97.5077 30.1312C102.325 30.1312 105.952 26.6821 105.952 21.9545C105.952 17.1674 102.325 13.7778 97.5077 13.7778ZM134.229 13.7778C132.326 13.7778 130.334 14.5806 129.085 16.0673C128.252 14.759 127.122 14.0752 126.29 14.0752C125.725 14.0752 125.368 14.432 125.368 15.1456V27.9606C125.368 29.0608 125.785 29.5365 126.944 29.5365H128.55C129.709 29.5365 130.126 29.0608 130.126 27.9606V22.3708C130.126 21.003 130.453 19.9921 131.018 19.338C131.612 18.6541 132.504 18.2973 133.515 18.2973C134.586 18.2973 135.388 18.6541 135.924 19.338C136.429 19.9921 136.667 20.9733 136.667 22.4005V27.9606C136.667 29.1202 137.143 29.5365 138.243 29.5365H139.848C140.949 29.5365 141.424 29.1202 141.424 27.9606V22.2518C141.424 19.2488 140.83 17.4053 139.611 15.9781C138.391 14.5806 136.548 13.7778 134.229 13.7778ZM170.622 13.7778C165.806 13.7778 162.178 17.1674 162.178 21.9545C162.178 26.6821 165.806 30.1312 170.622 30.1312C175.439 30.1312 179.067 26.6821 179.067 21.9545C179.067 17.1674 175.439 13.7778 170.622 13.7778ZM85.0792 14.3725H83.4736C82.314 14.3725 81.8977 14.8482 81.8977 15.9484V21.4788C81.8977 22.9952 81.6004 24.0061 81.0057 24.6602C80.4705 25.2549 79.638 25.6117 78.7162 25.6117C77.7945 25.6117 77.0809 25.3144 76.5755 24.7792C75.9511 24.125 75.6537 23.1438 75.6537 21.3301V15.9484C75.6537 14.7888 75.178 14.3725 74.0779 14.3725H72.4723C71.3721 14.3725 70.8964 14.7888 70.8964 15.9484V21.7761C70.8964 24.8089 71.6397 26.92 73.0669 28.2877C74.2563 29.4176 75.8916 30.1312 77.9432 30.1312C79.9948 30.1312 81.7788 29.2689 82.9681 27.8714C83.8007 29.15 84.9305 29.8338 85.7333 29.8338C86.2983 29.8338 86.6551 29.477 86.6551 28.7634V15.9484C86.6551 14.8482 86.2388 14.3725 85.0792 14.3725ZM120.224 14.3725H118.619C117.519 14.3725 117.043 14.7888 117.043 15.9484V27.9606C117.043 29.1202 117.519 29.5365 118.619 29.5365H120.224C121.325 29.5365 121.8 29.1202 121.8 27.9606V15.9484C121.8 14.7888 121.325 14.3725 120.224 14.3725ZM151.98 17.6729C153.734 17.6729 154.893 18.8028 154.893 20.4678C154.893 22.014 153.615 23.2628 151.98 23.2628C150.374 23.2628 149.066 22.014 149.066 20.4678C149.066 18.8028 150.255 17.6729 151.98 17.6729ZM59.2112 25.8496C57.1299 25.8496 55.4945 24.3034 55.4945 21.9545C55.4945 19.6056 57.1299 18.0594 59.2112 18.0594C61.2628 18.0594 62.8981 19.6056 62.8981 21.9545C62.8981 24.3034 61.2628 25.8496 59.2112 25.8496ZM97.5077 25.8496C95.2777 25.8496 93.8802 24.2142 93.8802 21.9545C93.8802 19.6948 95.2777 18.0594 97.5077 18.0594C99.7377 18.0594 101.136 19.6948 101.136 21.9545C101.136 24.2142 99.7377 25.8496 97.5077 25.8496ZM170.622 25.8496C168.392 25.8496 166.995 24.2142 166.995 21.9545C166.995 19.6948 168.392 18.0594 170.622 18.0594C172.852 18.0594 174.25 19.6948 174.25 21.9545C174.25 24.2142 172.852 25.8496 170.622 25.8496ZM151.98 33.2532C149.898 33.2532 148.352 31.8854 148.352 30.1312C148.352 28.258 149.779 27.0092 151.98 27.0092C154.18 27.0092 155.607 28.2877 155.607 30.1312C155.607 31.8557 154.031 33.2532 151.98 33.2532Z" fill="#58CC02"/>
</g>
</g>
</g>
<defs>
<clipPath id="clip0_2001_7802">
<rect width="179" height="42" fill="white" transform="translate(0.849609 0.919922)"/>
</clipPath>
<clipPath id="clip1_2001_7802">
<rect width="179" height="42" fill="white" transform="translate(0.849609 0.919922)"/>
</clipPath>
<clipPath id="clip2_2001_7802">
<rect width="179" height="42" fill="white" transform="translate(0.849609 0.919922)"/>
</clipPath>
</defs>
</svg>
