<svg width="28" height="31" viewBox="0 0 28 31" fill="none" xmlns="http://www.w3.org/2000/svg">
<path fill-rule="evenodd" clip-rule="evenodd" d="M0.0498047 2.38991C0.0498047 2.18337 0.0662441 1.99009 0.0976711 1.81086L12.9627 15.3926L0.0770414 28.9961C0.0590857 28.8562 0.0498047 28.7084 0.0498047 28.5531V2.38991ZM1.46765 30.6626C1.94109 30.739 2.50236 30.6238 3.10288 30.2885L18.7697 21.5231L14.4473 16.9598L1.46765 30.6626ZM15.9318 15.3926L20.711 20.438L26.5336 17.1809C28.2122 16.2405 28.2122 14.7026 26.5336 13.7645L20.6122 10.4516L15.9318 15.3926ZM18.6715 9.36579L3.10288 0.655622C2.61986 0.384715 2.16209 0.256958 1.75597 0.256958C1.7034 0.256958 1.65168 0.259081 1.60087 0.263308L14.4473 13.8254L18.6715 9.36579Z" fill="#4B4B4B"/>
</svg>
