<svg width="465" height="531" viewBox="0 0 465 531" fill="none" xmlns="http://www.w3.org/2000/svg">
<g clip-path="url(#clip0_2001_3387)">
<g clip-path="url(#clip1_2001_3387)">
<g clip-path="url(#clip2_2001_3387)">
<mask id="mask0_2001_3387" style="mask-type:luminance" maskUnits="userSpaceOnUse" x="-66" y="0" width="531" height="531">
<path d="M464.85 0.919922H-65.1504V530.92H464.85V0.919922Z" fill="white"/>
</mask>
<g mask="url(#mask0_2001_3387)">
<mask id="mask1_2001_3387" style="mask-type:luminance" maskUnits="userSpaceOnUse" x="-66" y="0" width="531" height="531">
<path d="M-65.1504 0.919922H464.85V530.92H-65.1504V0.919922Z" fill="white"/>
</mask>
<g mask="url(#mask1_2001_3387)">
<mask id="mask2_2001_3387" style="mask-type:luminance" maskUnits="userSpaceOnUse" x="-66" y="0" width="531" height="531">
<path d="M-65.1504 0.919922H464.85V530.92H-65.1504V0.919922Z" fill="white"/>
</mask>
<g mask="url(#mask2_2001_3387)">
<mask id="mask3_2001_3387" style="mask-type:luminance" maskUnits="userSpaceOnUse" x="-5" y="61" width="409" height="409">
<path d="M-4.2002 61.8699H403.9V469.97H-4.2002V61.8699Z" fill="white"/>
</mask>
<g mask="url(#mask3_2001_3387)">
<path d="M402.026 360.227L391.988 362.36C391.269 361.023 390.414 359.723 389.409 358.477L312.161 256.146C308.139 251.159 301.656 248.856 295.389 250.188L201.534 270.137C195.41 271.439 191.501 277.459 192.803 283.583L220.02 411.632C222.19 421.838 232.223 428.353 242.429 426.184L375.397 397.921C384.144 396.062 390.428 390.016 393.235 382.656L402.026 360.227Z" fill="#00448E"/>
<path d="M383.625 376.164L238.52 407.007C228.313 409.177 218.281 402.661 216.111 392.455L188.894 264.406C187.592 258.282 191.501 252.262 197.625 250.96L291.48 231.011C297.747 229.679 304.23 231.982 308.252 236.969L397.638 336.72C409.137 350.98 401.544 372.356 383.625 376.164Z" fill="#9ADFFF"/>
<path d="M237.37 402.257C230.237 403.773 223.2 399.204 221.684 392.071L192.865 261.943C192.215 258.885 195.283 255.634 198.34 254.984L292.195 235.035C296.396 234.142 301.789 235.428 304.485 238.771L393.254 341.073C397.408 346.224 398.566 353.023 396.351 359.258C394.136 365.494 388.948 370.038 382.475 371.414L237.37 402.257Z" fill="white"/>
<mask id="mask4_2001_3387" style="mask-type:alpha" maskUnits="userSpaceOnUse" x="192" y="234" width="206" height="169">
<path d="M237.37 402.257C230.237 403.773 223.2 399.204 221.684 392.071L192.865 261.943C192.215 258.885 195.283 255.634 198.34 254.984L292.195 235.035C296.396 234.142 301.789 235.428 304.485 238.771L393.254 341.073C397.408 346.224 398.566 353.023 396.351 359.258C394.136 365.494 388.948 370.038 382.475 371.414L237.37 402.257Z" fill="white"/>
</mask>
<g mask="url(#mask4_2001_3387)">
<mask id="mask5_2001_3387" style="mask-type:luminance" maskUnits="userSpaceOnUse" x="-5" y="61" width="409" height="409">
<path d="M-4.2002 61.8699H403.9V469.97H-4.2002V61.8699Z" fill="white"/>
</mask>
<g mask="url(#mask5_2001_3387)">
<mask id="mask6_2001_3387" style="mask-type:luminance" maskUnits="userSpaceOnUse" x="-5" y="61" width="409" height="409">
<path d="M-4.2002 61.8699H403.9V469.97H-4.2002V61.8699Z" fill="white"/>
</mask>
<g mask="url(#mask6_2001_3387)">
<path d="M241.195 372.047C241.097 368.793 241.172 361.881 241.135 357.997" stroke="#3DB9B8" stroke-width="2.88129" stroke-miterlimit="10" stroke-linecap="round"/>
<path d="M241.408 362.883C243.52 362.648 245.142 360.84 245.555 358.535C245.642 358.531 245.728 358.532 245.815 358.522C248.468 358.226 250.356 355.451 250.032 352.323C249.708 349.196 247.295 346.902 244.642 347.198C244.567 347.206 244.496 347.224 244.422 347.236C243.571 345.008 241.58 343.546 239.43 343.786C237.28 344.026 235.633 345.895 235.258 348.259C235.184 348.263 235.11 348.262 235.035 348.271C232.383 348.567 230.495 351.342 230.819 354.469C231.143 357.596 233.556 359.891 236.209 359.595C236.296 359.585 236.38 359.566 236.466 359.551C237.341 361.711 239.297 363.119 241.408 362.883ZM240.273 349.404C237.854 349.555 235.999 351.472 236.127 353.683C236.256 355.895 238.32 357.566 240.74 357.416C243.157 357.262 245.015 355.348 244.886 353.137C244.758 350.925 242.693 349.254 240.273 349.404Z" fill="#CC348D"/>
<path d="M240.274 349.404C237.855 349.556 235.998 351.472 236.127 353.684C236.255 355.896 238.32 357.566 240.739 357.415C243.159 357.264 245.015 355.348 244.887 353.136C244.758 350.924 242.693 349.253 240.274 349.404Z" fill="white"/>
<mask id="mask7_2001_3387" style="mask-type:luminance" maskUnits="userSpaceOnUse" x="-5" y="61" width="409" height="409">
<path d="M-4.2002 61.8699H403.9V469.97H-4.2002V61.8699Z" fill="white"/>
</mask>
<g mask="url(#mask7_2001_3387)">
<path d="M226.264 232.778C226.179 223.648 214.554 216.354 200.299 216.486C186.043 216.618 174.556 224.126 174.641 233.256C174.726 242.386 186.35 249.68 200.605 249.548C214.861 249.416 226.348 241.908 226.264 232.778ZM226.217 227.736L174.594 228.214L174.641 233.256L226.264 232.778L226.217 227.736Z" fill="#E6A000"/>
<path d="M226.217 227.735C226.302 236.865 214.815 244.374 200.559 244.506C186.304 244.638 174.679 237.344 174.594 228.214C174.509 219.085 185.997 211.576 200.253 211.444C214.508 211.312 226.133 218.606 226.217 227.735Z" fill="#FFC700"/>
<path d="M205.509 241.545C209.305 240.995 212.813 239.857 215.759 238.207C216.387 237.854 216.478 237.062 215.95 236.596L192.143 215.566C191.839 215.298 191.396 215.205 190.989 215.32C188.299 216.081 185.837 217.165 183.729 218.543C183.104 218.951 182.522 219.378 181.986 219.821C181.501 220.221 181.489 220.905 181.958 221.319L204.535 241.262C204.791 241.489 205.153 241.596 205.509 241.545ZM216.906 218.235C212.486 215.462 206.58 213.967 200.277 214.025C200.126 214.026 199.976 214.029 199.825 214.032C198.809 214.054 198.317 215.163 199.042 215.803L219.463 233.842C219.966 234.286 220.8 234.226 221.201 233.704C222.626 231.85 223.369 229.828 223.35 227.762C223.317 224.205 221.028 220.822 216.906 218.235Z" fill="#FFE700"/>
</g>
<mask id="mask8_2001_3387" style="mask-type:luminance" maskUnits="userSpaceOnUse" x="-5" y="61" width="409" height="409">
<path d="M-4.2002 61.8699H403.9V469.97H-4.2002V61.8699Z" fill="white"/>
</mask>
<g mask="url(#mask8_2001_3387)">
<path d="M246.281 243.457C246.192 233.93 234.062 226.319 219.187 226.457C204.312 226.595 192.325 234.43 192.413 243.957C192.502 253.484 204.632 261.095 219.507 260.957C234.382 260.819 246.369 252.984 246.281 243.457ZM246.232 238.196L192.364 238.696L192.413 243.957L246.281 243.457L246.232 238.196Z" fill="#E6A000"/>
<path d="M246.232 238.196C246.321 247.722 234.334 255.558 219.459 255.695C204.583 255.833 192.453 248.222 192.365 238.696C192.276 229.169 204.263 221.334 219.139 221.196C234.014 221.058 246.144 228.669 246.232 238.196Z" fill="#FFC700"/>
<path d="M224.623 252.606C228.584 252.032 232.245 250.845 235.318 249.122C235.974 248.755 236.069 247.928 235.518 247.442L210.676 225.497C210.359 225.217 209.896 225.12 209.472 225.24C206.665 226.035 204.096 227.165 201.896 228.603C201.244 229.03 200.637 229.475 200.077 229.937C199.571 230.354 199.559 231.068 200.048 231.5L223.606 252.311C223.874 252.547 224.252 252.66 224.623 252.606ZM236.516 228.282C231.904 225.389 225.741 223.828 219.163 223.889C219.006 223.891 218.849 223.893 218.692 223.897C217.632 223.92 217.119 225.077 217.875 225.745L239.184 244.568C239.708 245.032 240.579 244.968 240.998 244.424C242.484 242.489 243.26 240.38 243.24 238.224C243.205 234.512 240.817 230.982 236.516 228.282Z" fill="#FFE700"/>
</g>
<mask id="mask9_2001_3387" style="mask-type:luminance" maskUnits="userSpaceOnUse" x="-5" y="61" width="409" height="409">
<path d="M-4.2002 61.8699H403.9V469.97H-4.2002V61.8699Z" fill="white"/>
</mask>
<g mask="url(#mask9_2001_3387)">
<path d="M291.615 284.366C291.523 274.442 278.887 266.514 263.392 266.658C247.897 266.801 235.411 274.963 235.503 284.887C235.595 294.811 248.231 302.739 263.726 302.595C279.221 302.452 291.707 294.29 291.615 284.366ZM291.564 278.886L235.452 279.406L235.503 284.887L291.615 284.366L291.564 278.886Z" fill="#E6A000"/>
<path d="M291.564 278.886C291.657 288.809 279.17 296.971 263.675 297.115C248.18 297.258 235.544 289.33 235.452 279.406C235.36 269.483 247.847 261.321 263.342 261.178C278.837 261.034 291.472 268.962 291.564 278.886Z" fill="#FFC700"/>
<path d="M269.055 293.896C273.181 293.298 276.994 292.062 280.196 290.268C280.879 289.885 280.978 289.024 280.404 288.517L254.526 265.658C254.196 265.367 253.715 265.265 253.273 265.39C250.349 266.218 247.673 267.396 245.381 268.894C244.701 269.338 244.07 269.802 243.486 270.283C242.959 270.718 242.947 271.461 243.456 271.911L267.996 293.589C268.275 293.835 268.669 293.952 269.055 293.896ZM281.443 268.559C276.639 265.545 270.22 263.92 263.368 263.983C263.204 263.985 263.041 263.987 262.877 263.991C261.772 264.015 261.238 265.22 262.026 265.916L284.223 285.524C284.769 286.006 285.676 285.941 286.112 285.373C287.66 283.358 288.468 281.161 288.447 278.915C288.411 275.049 285.924 271.371 281.443 268.559Z" fill="#FFE700"/>
</g>
<mask id="mask10_2001_3387" style="mask-type:luminance" maskUnits="userSpaceOnUse" x="-5" y="61" width="409" height="409">
<path d="M-4.2002 61.8699H403.9V469.97H-4.2002V61.8699Z" fill="white"/>
</mask>
<g mask="url(#mask10_2001_3387)">
<path d="M325.991 338.879C325.895 328.558 312.754 320.313 296.639 320.462C280.525 320.611 267.539 329.099 267.635 339.42C267.73 349.741 280.871 357.986 296.986 357.837C313.101 357.688 326.087 349.2 325.991 338.879ZM325.938 333.179L267.582 333.721L267.635 339.42L325.991 338.879L325.938 333.179Z" fill="#E6A000"/>
<path d="M325.938 333.179C326.034 343.5 313.048 351.988 296.933 352.137C280.819 352.286 267.677 344.041 267.582 333.721C267.486 323.4 280.472 314.912 296.587 314.763C312.701 314.613 325.842 322.859 325.938 333.179Z" fill="#FFC700"/>
<path d="M302.529 348.79C306.82 348.168 310.785 346.882 314.115 345.016C314.825 344.618 314.928 343.723 314.332 343.196L287.419 319.422C287.076 319.119 286.575 319.014 286.115 319.144C283.074 320.005 280.291 321.23 277.907 322.787C277.201 323.249 276.544 323.732 275.937 324.232C275.389 324.684 275.376 325.457 275.906 325.925L301.427 348.47C301.717 348.727 302.127 348.848 302.529 348.79ZM315.412 322.44C310.416 319.305 303.74 317.615 296.614 317.681C296.443 317.682 296.273 317.685 296.104 317.688C294.955 317.714 294.399 318.967 295.218 319.691L318.303 340.083C318.871 340.585 319.814 340.516 320.268 339.926C321.878 337.83 322.718 335.545 322.697 333.21C322.659 329.189 320.072 325.364 315.412 322.44Z" fill="#FFE700"/>
</g>
</g>
</g>
</g>
<mask id="mask11_2001_3387" style="mask-type:luminance" maskUnits="userSpaceOnUse" x="-5" y="61" width="409" height="409">
<path d="M-4.2002 61.8699H403.9V469.97H-4.2002V61.8699Z" fill="white"/>
</mask>
<g mask="url(#mask11_2001_3387)">
<path d="M333.487 324.821C333.289 322.044 334.024 315.032 337.698 306.167" stroke="#3DB9B8" stroke-width="2.89071" stroke-miterlimit="10" stroke-linecap="round"/>
<path d="M336.398 309.234C338.337 310.08 340.601 309.375 342.055 307.659C342.132 307.698 342.206 307.741 342.287 307.776C344.723 308.84 347.677 307.46 348.885 304.693C350.092 301.927 349.096 298.823 346.66 297.759C346.591 297.729 346.521 297.708 346.452 297.682C346.775 295.405 345.748 293.202 343.774 292.34C341.799 291.478 339.485 292.222 338.036 294.007C337.969 293.974 337.906 293.937 337.837 293.907C335.401 292.843 332.447 294.223 331.239 296.99C330.031 299.756 331.028 302.86 333.464 303.924C333.544 303.959 333.626 303.985 333.707 304.014C333.437 306.247 334.459 308.387 336.398 309.234ZM340.621 297.15C338.235 296.799 336.044 298.216 335.732 300.321C335.422 302.423 337.106 304.417 339.496 304.77C341.884 305.126 344.073 303.704 344.383 301.602C344.695 299.497 343.009 297.506 340.621 297.15Z" fill="#CC348D"/>
<path d="M340.622 297.152C338.233 296.799 336.045 298.218 335.734 300.322C335.422 302.425 337.106 304.417 339.495 304.771C341.884 305.124 344.072 303.705 344.383 301.601C344.695 299.497 343.011 297.506 340.622 297.152Z" fill="white"/>
<path d="M338.068 325.007C337.978 322.785 339.701 314.512 346.148 312.67" stroke="#3DB9B8" stroke-width="2.89071" stroke-miterlimit="10" stroke-linecap="round"/>
<path d="M343.134 314.148C343.955 316.098 346.082 317.148 348.318 316.906C348.346 316.988 348.37 317.07 348.405 317.151C349.437 319.601 352.528 320.637 355.31 319.465C358.091 318.293 359.509 315.357 358.478 312.907C358.448 312.838 358.412 312.775 358.38 312.708C360.183 311.282 360.957 308.978 360.121 306.992C359.284 305.007 357.095 303.951 354.815 304.245C354.789 304.175 354.769 304.105 354.74 304.036C353.708 301.586 350.617 300.55 347.835 301.721C345.053 302.893 343.635 305.829 344.667 308.279C344.701 308.36 344.743 308.435 344.781 308.512C343.046 309.944 342.312 312.199 343.134 314.148ZM354.522 308.305C353.035 306.405 350.471 305.922 348.794 307.232C347.12 308.541 346.967 311.146 348.455 313.049C349.939 314.953 352.506 315.432 354.179 314.123C355.856 312.812 356.007 310.208 354.522 308.305Z" fill="#CC348D"/>
<path d="M354.521 308.306C353.034 306.404 350.47 305.924 348.795 307.233C347.119 308.543 346.966 311.147 348.453 313.049C349.941 314.952 352.504 315.432 354.18 314.122C355.855 312.813 356.008 310.209 354.521 308.306Z" fill="white"/>
</g>
</g>
<mask id="mask12_2001_3387" style="mask-type:luminance" maskUnits="userSpaceOnUse" x="-6" y="60" width="409" height="409">
<path d="M-5.71191 60.3584H402.388V468.458H-5.71191V60.3584Z" fill="white"/>
</mask>
<g mask="url(#mask12_2001_3387)">
<path d="M296.802 330.582C296.802 330.582 297.907 335.637 301.007 337.941" stroke="#CC348C" stroke-width="12.8476" stroke-linecap="round"/>
<path d="M294.317 305.596C294.317 305.596 301.496 317.31 295.513 324.552" stroke="#0084C2" stroke-width="15.8706" stroke-linecap="round"/>
<path d="M283.358 311.642C283.358 311.642 287.137 337.715 290.6 356.67" stroke="#0084C2" stroke-width="15.8706" stroke-linecap="round"/>
<path d="M291.485 361.028C291.485 361.028 288.082 356.042 285.514 351.922" stroke="#CC348C" stroke-width="12.8476" stroke-linecap="round"/>
<path d="M336.739 239.038C339.676 243.6 338.358 249.679 333.796 252.616L305.721 266.483C301.159 269.419 295.08 268.101 292.144 263.539C289.207 258.977 290.525 252.897 295.087 249.961L323.161 236.094C327.724 233.158 333.803 234.475 336.739 239.038Z" fill="#CC348D"/>
<path d="M322.286 280.77C325.441 300.689 311.851 319.394 291.932 322.548C272.014 325.703 253.309 312.113 250.154 292.195C246.999 272.276 260.589 253.572 280.508 250.417C300.426 247.263 319.131 260.852 322.286 280.77Z" fill="#0084C2"/>
<path d="M250.487 294.005C248.413 274.782 261.775 257.11 281.084 254.052C300.393 250.994 318.561 263.671 322.529 282.595C322.747 284.622 322.795 286.631 322.682 288.607C317.314 301.62 305.496 311.611 290.575 313.974C275.653 316.338 261.327 310.488 252.2 299.77C251.482 297.926 250.905 296 250.487 294.005Z" fill="#00448E"/>
<path d="M333.305 235.195L333.187 235.131C338.218 237.163 343.752 245.253 339.372 254.343L333.873 259.087C327.934 259.454 329.205 256.37 324.174 254.337L324.174 253.77C319.143 251.738 316.713 246.012 318.746 240.981L320.399 240.559C322.431 235.529 328.274 233.163 333.305 235.195Z" fill="#CC348D"/>
<path d="M250.763 297.301C250.54 296.37 250.306 293.156 250.154 292.195C246.999 272.276 260.589 253.572 280.508 250.417C300.426 247.262 319.131 260.852 322.286 280.77C322.438 281.732 322.551 282.124 322.627 283.078C317.531 296.736 305.424 307.896 289.998 310.339C274.573 312.783 259.83 308.717 250.763 297.301Z" fill="#CC348D"/>
<path d="M299.242 289.214C299.361 288.426 300.096 287.884 300.885 288.003L303.809 288.444L304.561 285.584C304.764 284.814 305.552 284.354 306.323 284.556C307.093 284.759 307.554 285.548 307.351 286.319L306.27 290.431C306.082 291.144 305.387 291.601 304.659 291.49L300.454 290.856C299.666 290.737 299.123 290.002 299.242 289.214Z" fill="#A71E6E"/>
<path d="M287.031 293.292C287.318 292.549 288.154 292.179 288.897 292.466L292.453 293.839L294.875 290.896C295.382 290.28 296.291 290.192 296.906 290.698C297.521 291.204 297.61 292.114 297.103 292.729L294.02 296.477C293.624 296.957 292.966 297.13 292.386 296.906L287.858 295.158C287.115 294.871 286.744 294.035 287.031 293.292Z" fill="#A71E6E"/>
<path d="M301.696 278.63C301.721 277.833 302.388 277.208 303.184 277.233L306.994 277.353L308.307 273.775C308.581 273.027 309.41 272.643 310.158 272.917C310.906 273.191 311.29 274.02 311.016 274.768L309.344 279.325C309.13 279.909 308.566 280.29 307.944 280.27L303.093 280.117C302.297 280.092 301.671 279.426 301.696 278.63Z" fill="#A71E6E"/>
<path d="M290.666 283.652C290.848 282.876 291.625 282.396 292.401 282.578L296.111 283.451L298.107 280.204C298.525 279.525 299.414 279.313 300.092 279.73C300.771 280.147 300.983 281.036 300.566 281.715L298.024 285.85C297.699 286.38 297.07 286.641 296.464 286.499L291.74 285.387C290.964 285.205 290.483 284.427 290.666 283.652Z" fill="#A71E6E"/>
<path d="M279.035 288.151C279.249 287.383 280.044 286.935 280.812 287.148L284.484 288.172L286.611 285.009C287.056 284.348 287.952 284.172 288.613 284.617C289.274 285.061 289.45 285.958 289.005 286.619L286.297 290.647C285.95 291.163 285.311 291.399 284.712 291.231L280.037 289.928C279.269 289.715 278.821 288.919 279.035 288.151Z" fill="#A71E6E"/>
<path d="M338.604 250.497C337.766 247.777 335.561 245.857 332.926 244.92C330.006 243.883 326.559 244.054 323.859 245.685C318.725 248.789 316.831 252.723 321.467 261.026C323.543 264.746 328.707 268.143 333.842 265.04C339.495 261.623 340.563 256.861 338.604 250.497Z" fill="#C6775C"/>
<path d="M323.5 248.187L324.847 252.649" stroke="#C6775C" stroke-width="6.73554" stroke-linecap="round"/>
<path d="M260.083 271.374C255.624 281.176 254.541 285.734 253.719 296.182C253.205 304.988 254.239 315.059 254.075 324.462" stroke="#CC348D" stroke-width="15.8706" stroke-linecap="round"/>
<path d="M245.855 314.571L245.949 326.001C245.949 326.001 245.855 332.803 254.263 332.614C262.102 332.438 262.292 326.19 262.292 326.19L262.103 314.476L245.855 314.571Z" fill="#C6775C"/>
<path d="M306.661 221.186C309 240.24 295.214 255.655 276.16 257.995C257.106 260.335 240 248.713 237.66 229.658C235.32 210.604 248.87 193.261 267.924 190.922C286.979 188.582 304.321 202.132 306.661 221.186Z" fill="#0084C2"/>
<path d="M288.472 194.781C289.548 195.351 290.593 195.977 291.602 196.654C293.143 200.93 294.851 206.089 294.494 211.263C294.001 218.409 290.651 225.795 287.065 230.096L285.456 228.755C288.643 224.934 291.926 218.054 292.404 211.119C292.836 204.859 290.738 198.863 288.472 194.781Z" fill="#006AAD"/>
<path d="M302.267 278.557C312.182 275.142 318.711 265.165 317.381 254.338C315.854 241.897 304.529 233.049 292.088 234.577C285.334 235.406 279.644 239.125 276.093 244.34C275.597 244.375 275.099 244.418 274.597 244.48C262.122 246.011 252.997 255.299 254.539 267.858C256.081 280.417 267.444 289.356 279.919 287.824C281.705 287.605 283.414 287.177 285.032 286.578L285.011 286.636L285.536 286.39C286.342 286.07 287.12 285.701 287.874 285.296L302.267 278.557Z" fill="#3D3D3D"/>
<path d="M283.726 255.307C274.094 256.489 267.94 254.086 264.651 252.658C263.621 252.211 262.379 250.995 262.242 249.88C262.23 249.784 262.226 249.326 262.306 249.27C274.088 240.982 288.109 224.47 288.109 224.47C288.109 224.47 293.951 224.33 300.844 229.406C301.83 230.132 302.337 230.651 302.549 231.857C302.891 233.803 303.182 236.528 303.392 238.826C303.656 241.71 303.061 244.701 301.177 246.9C298.427 250.11 293.345 254.126 283.726 255.307Z" fill="#C6775C"/>
<path d="M335.169 268.301C326.287 247.1 328.568 242.588 327.104 230.091" stroke="#3DB9B8" stroke-width="3.96119" stroke-miterlimit="10" stroke-linecap="round"/>
<path d="M328.502 241.061C331.309 240.684 332.146 239.56 332.619 236.586C332.734 236.578 334.116 235.321 334.232 235.305C337.759 234.832 340.183 231.202 339.646 227.196C339.109 223.191 335.813 220.328 332.286 220.801C332.187 220.815 332.092 220.84 331.994 220.858C330.784 218.027 328.079 216.218 325.221 216.601C322.362 216.985 320.229 219.443 319.808 222.492C319.709 222.501 319.611 222.502 319.512 222.515C315.984 222.988 313.56 226.618 314.097 230.624C314.635 234.629 317.93 237.492 321.457 237.019C321.573 237.003 321.685 236.976 321.799 236.953C323.039 239.697 325.694 241.438 328.502 241.061ZM327.053 224.103C323.823 223.971 321.111 226.174 320.999 229.018C320.887 231.863 323.41 234.276 326.644 234.403C329.874 234.534 332.582 232.332 332.698 229.487C332.81 226.643 330.283 224.23 327.053 224.103Z" fill="#CC348D"/>
<path d="M327.054 224.102C323.823 223.973 321.113 226.175 320.999 229.02C320.886 231.865 323.412 234.276 326.643 234.405C329.873 234.534 332.583 232.332 332.697 229.487C332.811 226.642 330.284 224.231 327.054 224.102Z" fill="white"/>
<path d="M325.964 245.845C325.964 245.845 328.798 251.041 325.916 252.741C323.035 254.442 320.39 251.608 320.249 248.821C320.249 247.593 321.524 247.215 321.524 247.215L324.547 245.892L325.964 245.845Z" fill="#C6775C"/>
<path d="M338.182 252.814C341.805 262.855 331.4 265.573 331.4 265.573C331.4 265.573 328.514 262.802 330.026 258.079C327.947 257.701 327.003 255.434 327.759 253.166C328.514 250.899 329.27 250.522 332.293 250.049C335.316 249.577 336.603 248.438 338.182 252.814Z" fill="#C6775C"/>
<path d="M332.792 250.326C332.792 250.326 328.865 249.901 327.829 253.38C327.071 255.923 328.261 257.42 329.468 258.517M332.018 263.556C332.018 263.556 329.8 262.062 329.926 259.979C330.053 257.896 331.824 255.007 334.594 256.086M325.866 245.749C328.159 249.157 327.271 252.898 324.611 253.357C322.213 253.77 320.542 251.38 320.37 250.054" stroke="#9F543A" stroke-width="1.7382" stroke-linecap="round"/>
<mask id="mask13_2001_3387" style="mask-type:luminance" maskUnits="userSpaceOnUse" x="-39" y="50" width="485" height="485">
<path d="M-38.2344 135.354L360.948 50.5051L445.796 449.687L46.6144 534.536L-38.2344 135.354Z" fill="white"/>
</mask>
<g mask="url(#mask13_2001_3387)">
<path d="M299.487 248.955C299.959 251.175 298.541 253.357 296.321 253.829C294.101 254.301 291.918 252.884 291.446 250.664C290.974 248.444 292.392 246.261 294.612 245.79C296.832 245.318 299.015 246.735 299.487 248.955Z" fill="#C6775C"/>
<path d="M298.202 246.647C298.674 248.867 297.257 251.049 295.036 251.521C292.816 251.993 290.634 250.576 290.162 248.356C289.69 246.135 291.107 243.953 293.327 243.481C295.548 243.009 297.73 244.426 298.202 246.647Z" fill="#C6775C"/>
<path d="M276.567 244.175C275.764 240.396 278.177 236.681 281.956 235.878C285.735 235.074 289.45 237.487 290.253 241.266L291.02 244.872C291.823 248.651 289.411 252.366 285.631 253.17C281.852 253.973 278.137 251.561 277.334 247.781L276.567 244.175Z" fill="white"/>
<path d="M285.027 238.559C284.976 239.691 284.172 240.69 283.013 240.936C282.991 240.941 282.969 240.942 282.948 240.947C282.829 241.437 282.813 241.958 282.923 242.477L283.412 244.777C283.879 246.975 286.29 248.146 288.307 247.154C289.724 246.457 290.486 244.887 290.158 243.343L289.669 241.043C289.221 238.936 286.987 237.778 285.027 238.559Z" fill="#3D3D3D"/>
<path d="M292.766 239.074C291.969 235.324 293.955 229.604 297.288 228.895C299.305 228.467 300.234 230.107 300.447 230.981L301.62 236.503C302.435 240.335 301.178 245.857 297.727 246.591C294.967 247.177 293.777 243.956 293.449 242.288L292.766 239.074Z" fill="white"/>
<path d="M293.971 238.045C295.039 237.818 295.673 236.547 295.388 235.205C295.296 234.771 295.118 234.382 294.884 234.063C295.374 233.491 295.99 233.078 296.683 232.93C297.9 232.672 298.46 233.662 298.589 234.189L299.297 237.523C299.789 239.836 298.865 242.395 296.783 242.837C295.116 243.191 294.398 241.247 294.2 240.24L293.788 238.3C293.772 238.226 293.759 238.152 293.747 238.077C293.822 238.072 293.897 238.061 293.971 238.045Z" fill="#3D3D3D"/>
<mask id="mask14_2001_3387" style="mask-type:luminance" maskUnits="userSpaceOnUse" x="-39" y="50" width="485" height="485">
<path d="M-38.2344 135.354L360.948 50.5051L445.796 449.687L46.6144 534.536L-38.2344 135.354Z" fill="white"/>
</mask>
<g mask="url(#mask14_2001_3387)">
<path d="M285.797 259.334C286.629 257.191 289.041 256.128 291.184 256.96C291.387 257.038 292.074 257.23 292.944 257.238C293.79 257.246 294.546 257.079 295.137 256.731C297.117 255.563 299.67 256.222 300.837 258.202C302.005 260.183 301.346 262.735 299.366 263.903C294.998 266.478 290.135 265.484 288.171 264.722C286.028 263.89 284.965 261.478 285.797 259.334Z" fill="#262626"/>
<path d="M300.828 258.188C299.656 256.219 297.112 255.566 295.137 256.731C294.546 257.079 293.79 257.246 292.944 257.238C292.074 257.23 291.387 257.038 291.184 256.96C289.041 256.128 286.629 257.191 285.797 259.334C285.777 259.386 285.763 259.439 285.745 259.491C290.003 261.569 296.953 260.917 300.828 258.188Z" fill="white"/>
</g>
<g opacity="0.02">
<path d="M286.593 259.562C286.593 259.562 291.397 263.08 300.351 258.859" stroke="#262626" stroke-width="2.64509" stroke-linecap="round"/>
</g>
</g>
</g>
<mask id="mask15_2001_3387" style="mask-type:luminance" maskUnits="userSpaceOnUse" x="-5" y="61" width="409" height="409">
<path d="M-4.2002 61.8699H403.9V469.97H-4.2002V61.8699Z" fill="white"/>
</mask>
<g mask="url(#mask15_2001_3387)">
<path d="M197.586 250.683L103.595 231.381C97.3196 230.092 90.8527 232.44 86.8654 237.454L10.3236 340.315C9.3279 341.568 8.48148 342.874 7.77184 344.216L-2.28027 342.152L6.66505 364.52C9.52213 371.86 15.8481 377.862 24.6075 379.662L157.767 407.008C167.989 409.107 177.976 402.523 180.075 392.301L206.41 264.068C207.669 257.935 203.718 251.942 197.586 250.683Z" fill="#F48C03"/>
<path d="M16.371 359.051L161.686 388.894C171.907 390.993 181.895 384.408 183.994 374.187L210.328 245.954C211.588 239.821 207.637 233.828 201.504 232.569L107.514 213.266C101.238 211.977 94.7712 214.325 90.7839 219.34L2.08754 319.705C-9.31394 334.043 -1.57327 355.366 16.371 359.051Z" fill="#FFB34A"/>
<path d="M162.094 382.79C169.238 384.257 176.243 379.638 177.71 372.495L205.631 242.172C206.26 239.11 203.17 235.88 200.109 235.252L106.118 215.949C101.912 215.085 96.5278 216.408 93.8548 219.77L5.79247 322.681C1.67368 327.861 0.562743 334.667 2.82128 340.888C5.07943 347.108 10.2974 351.616 16.7798 352.948L162.094 382.79Z" fill="white"/>
<mask id="mask16_2001_3387" style="mask-type:alpha" maskUnits="userSpaceOnUse" x="2" y="215" width="205" height="169">
<path d="M162.525 382.915C169.668 384.382 176.674 379.764 178.141 372.621L206.062 242.297C206.691 239.236 203.601 236.006 200.54 235.377L106.549 216.075C102.342 215.211 96.9585 216.534 94.2855 219.895L6.22313 322.807C2.10435 327.987 0.993407 334.792 3.25195 341.013C5.51009 347.233 10.7281 351.742 17.2105 353.073L162.525 382.915Z" fill="white"/>
</mask>
<g mask="url(#mask16_2001_3387)">
<mask id="mask17_2001_3387" style="mask-type:luminance" maskUnits="userSpaceOnUse" x="-5" y="61" width="409" height="409">
<path d="M-4.20117 61.8699H403.899V469.97H-4.20117V61.8699Z" fill="white"/>
</mask>
<g mask="url(#mask17_2001_3387)">
<mask id="mask18_2001_3387" style="mask-type:luminance" maskUnits="userSpaceOnUse" x="-5" y="61" width="409" height="409">
<path d="M-4.20117 61.8699H403.899V469.97H-4.20117V61.8699Z" fill="white"/>
</mask>
<g mask="url(#mask18_2001_3387)">
<mask id="mask19_2001_3387" style="mask-type:luminance" maskUnits="userSpaceOnUse" x="-5" y="61" width="409" height="409">
<path d="M-4.20117 61.8699H403.899V469.97H-4.20117V61.8699Z" fill="white"/>
</mask>
<g mask="url(#mask19_2001_3387)">
<path d="M110.343 401.39C110.458 413.747 94.9014 423.909 75.5969 424.088C56.2923 424.267 40.5501 414.395 40.4352 402.039C40.3203 389.682 55.8771 379.52 75.1816 379.341C94.4862 379.162 110.228 389.034 110.343 401.39Z" fill="#D8D8D8"/>
<path d="M82.3001 420.081C87.4405 419.336 92.1906 417.796 96.1795 415.562C97.0306 415.086 97.1535 414.014 96.4393 413.383L64.1988 384.92C63.7878 384.557 63.1876 384.431 62.6373 384.587C58.994 385.618 55.6599 387.084 52.8047 388.949C51.9582 389.502 51.1711 390.079 50.4447 390.678C49.788 391.22 49.7724 392.145 50.407 392.706L80.98 419.698C81.328 420.005 81.818 420.15 82.3001 420.081ZM97.7335 388.532C91.7481 384.779 83.7506 382.755 75.214 382.835C75.0097 382.836 74.8063 382.839 74.6029 382.844C73.2264 382.874 72.5607 384.374 73.5423 385.241L101.197 409.656C101.877 410.257 103.007 410.175 103.55 409.468C105.479 406.959 106.486 404.223 106.46 401.427C106.415 396.613 103.316 392.033 97.7335 388.532Z" fill="#D8D8D8"/>
</g>
<mask id="mask20_2001_3387" style="mask-type:luminance" maskUnits="userSpaceOnUse" x="-5" y="61" width="409" height="409">
<path d="M-4.20117 61.8699H403.899V469.97H-4.20117V61.8699Z" fill="white"/>
</mask>
<g mask="url(#mask20_2001_3387)">
<path d="M110.349 363.09C110.237 351.14 94.9372 341.593 76.1751 341.766C57.413 341.939 42.2939 351.766 42.4055 363.716C42.5172 375.666 57.8166 385.213 76.5786 385.04C95.3407 384.867 110.46 375.04 110.349 363.09ZM110.287 356.491L42.3438 357.117L42.4055 363.716L110.349 363.09L110.287 356.491Z" fill="#7F7F7F"/>
<path d="M110.287 356.49C110.399 368.44 95.2791 378.267 76.517 378.44C57.7549 378.613 42.455 369.067 42.3434 357.117C42.2317 345.168 57.3513 335.34 76.1134 335.167C94.8755 334.994 110.175 344.541 110.287 356.49Z" fill="#D8D8D8"/>
<path d="M83.0324 374.565C88.0283 373.845 92.645 372.356 96.5217 370.195C97.349 369.735 97.4684 368.698 96.7743 368.088L65.4398 340.562C65.0403 340.211 64.457 340.089 63.9221 340.24C60.3812 341.237 57.1408 342.655 54.3658 344.458C53.5432 344.993 52.7781 345.552 52.0722 346.131C51.4339 346.655 51.4188 347.55 52.0355 348.092L81.7494 374.195C82.0876 374.492 82.5639 374.632 83.0324 374.565ZM98.0321 344.056C92.2149 340.426 84.4421 338.469 76.1454 338.546C75.9468 338.547 75.7492 338.55 75.5515 338.555C74.2137 338.584 73.5667 340.035 74.5207 340.873L101.398 364.483C102.059 365.064 103.157 364.985 103.685 364.302C105.56 361.876 106.538 359.23 106.513 356.526C106.47 351.87 103.458 347.441 98.0321 344.056Z" fill="#D8D8D8"/>
</g>
<mask id="mask21_2001_3387" style="mask-type:luminance" maskUnits="userSpaceOnUse" x="-5" y="61" width="409" height="409">
<path d="M-4.20117 61.8699H403.899V469.97H-4.20117V61.8699Z" fill="white"/>
</mask>
<g mask="url(#mask21_2001_3387)">
<path d="M133.92 305.642C133.816 294.717 119.631 285.989 102.235 286.147C84.839 286.305 70.8209 295.289 70.9245 306.214C71.028 317.139 85.2132 325.867 102.609 325.709C120.005 325.551 134.023 316.566 133.92 305.642ZM133.862 299.609L70.8672 300.181L70.9245 306.214L133.92 305.642L133.862 299.609Z" fill="#E6A000"/>
<path d="M133.863 299.608C133.966 310.533 119.948 319.517 102.552 319.676C85.156 319.834 70.9703 311.106 70.8668 300.181C70.7633 289.257 84.7818 280.272 102.178 280.114C119.573 279.956 133.759 288.684 133.863 299.608Z" fill="#FFC700"/>
<path d="M108.593 316.133C113.225 315.474 117.505 314.113 121.1 312.138C121.867 311.717 121.977 310.768 121.334 310.211L92.2813 285.046C91.9109 284.726 91.37 284.614 90.8741 284.752C87.591 285.663 84.5867 286.959 82.0138 288.608C81.251 289.097 80.5417 289.608 79.8871 290.137C79.2953 290.616 79.2813 291.435 79.8532 291.93L107.403 315.794C107.717 316.066 108.158 316.194 108.593 316.133ZM122.5 288.24C117.107 284.922 109.9 283.133 102.207 283.203C102.023 283.204 101.84 283.207 101.657 283.211C100.416 283.238 99.8164 284.564 100.701 285.33L125.621 306.916C126.234 307.447 127.252 307.374 127.741 306.75C129.48 304.532 130.387 302.113 130.364 299.641C130.323 295.384 127.531 291.336 122.5 288.24Z" fill="#FFE700"/>
</g>
<mask id="mask22_2001_3387" style="mask-type:luminance" maskUnits="userSpaceOnUse" x="-5" y="61" width="409" height="409">
<path d="M-4.20117 61.8699H403.899V469.97H-4.20117V61.8699Z" fill="white"/>
</mask>
<g mask="url(#mask22_2001_3387)">
<path d="M167.216 255.67C167.132 247.183 155.625 240.403 141.514 240.525C127.402 240.648 116.031 247.628 116.115 256.115C116.199 264.603 127.706 271.383 141.817 271.261C155.928 271.138 167.3 264.158 167.216 255.67ZM167.17 250.984L116.068 251.429L116.115 256.115L167.216 255.67L167.17 250.984Z" fill="#E6A000"/>
<path d="M167.171 250.983C167.255 259.47 155.883 266.45 141.771 266.573C127.66 266.696 116.153 259.916 116.069 251.429C115.985 242.942 127.357 235.961 141.468 235.839C155.579 235.716 167.087 242.496 167.171 250.983Z" fill="#FFC700"/>
<path d="M146.671 263.821C150.429 263.309 153.901 262.252 156.817 260.717C157.439 260.39 157.529 259.654 157.007 259.221L133.44 239.67C133.139 239.421 132.7 239.335 132.298 239.442C129.635 240.15 127.198 241.157 125.111 242.438C124.492 242.817 123.916 243.214 123.385 243.626C122.905 243.998 122.894 244.633 123.358 245.018L145.706 263.558C145.961 263.769 146.319 263.869 146.671 263.821ZM157.953 242.152C153.578 239.574 147.732 238.184 141.491 238.238C141.342 238.239 141.193 238.241 141.045 238.245C140.039 238.265 139.552 239.296 140.269 239.891L160.484 256.66C160.982 257.073 161.807 257.017 162.205 256.531C163.615 254.808 164.351 252.929 164.332 251.008C164.299 247.702 162.034 244.556 157.953 242.152Z" fill="#FFE700"/>
</g>
<mask id="mask23_2001_3387" style="mask-type:luminance" maskUnits="userSpaceOnUse" x="-5" y="61" width="409" height="409">
<path d="M-4.20117 61.8699H403.899V469.97H-4.20117V61.8699Z" fill="white"/>
</mask>
<g mask="url(#mask23_2001_3387)">
<path d="M189.129 224.128C189.077 219.363 181.93 215.556 173.167 215.625C164.403 215.694 157.341 219.613 157.393 224.378C157.445 229.143 164.592 232.949 173.355 232.88C182.119 232.811 189.181 228.893 189.129 224.128ZM189.1 221.497L157.364 221.747L157.393 224.378L189.129 224.128L189.1 221.497Z" fill="#E6A000"/>
<path d="M189.101 221.496C189.153 226.261 182.091 230.18 173.327 230.249C164.563 230.318 157.417 226.511 157.365 221.746C157.312 216.982 164.375 213.063 173.138 212.994C181.902 212.925 189.049 216.732 189.101 221.496Z" fill="#FFC700"/>
<path d="M176.37 228.704C178.703 228.416 180.86 227.823 182.67 226.961C183.057 226.778 183.113 226.364 182.788 226.121L168.152 215.145C167.966 215.005 167.693 214.957 167.443 215.017C165.789 215.414 164.276 215.98 162.98 216.699C162.595 216.912 162.238 217.135 161.908 217.366C161.61 217.575 161.603 217.932 161.891 218.148L175.77 228.556C175.928 228.674 176.151 228.73 176.37 228.704ZM183.376 216.538C180.659 215.091 177.028 214.311 173.153 214.341C173.06 214.342 172.968 214.343 172.875 214.345C172.25 214.356 171.948 214.935 172.394 215.269L184.948 224.684C185.257 224.915 185.77 224.884 186.016 224.611C186.892 223.644 187.349 222.589 187.337 221.511C187.317 219.654 185.91 217.888 183.376 216.538Z" fill="#FFE700"/>
</g>
<path d="M129.212 396.503C138.141 331.327 180.501 235.257 216.329 200.247M9.45312 381.791C36.4081 321.783 97.079 222.2 187.349 202.46" stroke="#EBF3FF" stroke-width="11.3361" stroke-miterlimit="10"/>
</g>
</g>
</g>
</g>
<mask id="mask24_2001_3387" style="mask-type:luminance" maskUnits="userSpaceOnUse" x="-66" y="0" width="531" height="531">
<path d="M-65.1504 0.919922H464.85V530.92H-65.1504V0.919922Z" fill="white"/>
</mask>
<g mask="url(#mask24_2001_3387)">
<path d="M166.479 189.503C180.486 189.503 191.859 200.876 191.859 214.883C191.859 228.89 180.486 240.262 166.479 240.262C152.472 240.262 141.1 228.89 141.1 214.883C141.1 200.876 152.472 189.503 166.479 189.503Z" fill="#D8D8D8"/>
<path d="M213.38 128.635C222.575 128.635 230.04 136.1 230.04 145.294C230.04 154.489 222.575 161.954 213.38 161.954C204.186 161.954 196.721 154.489 196.721 145.294C196.721 136.1 204.186 128.635 213.38 128.635Z" fill="#D8D8D8"/>
<path d="M219.819 141.406C227.854 141.406 234.378 147.93 234.378 155.966C234.378 164.001 227.854 170.525 219.819 170.525C211.783 170.525 205.259 164.001 205.259 155.966C205.259 147.93 211.783 141.406 219.819 141.406Z" fill="#D8D8D8"/>
<path d="M201.344 152.48C212.968 152.48 222.406 161.918 222.406 173.542C222.406 185.166 212.968 194.604 201.344 194.604C189.72 194.604 180.282 185.166 180.282 173.542C180.282 161.918 189.72 152.48 201.344 152.48Z" fill="#D8D8D8"/>
<path d="M184.764 182.808C200.632 182.808 213.516 194.21 213.516 208.252C213.516 222.295 200.632 233.696 184.764 233.696C168.895 233.696 156.012 222.295 156.012 208.252C156.012 194.21 168.895 182.808 184.764 182.808Z" fill="#D8D8D8"/>
<path d="M169.664 186.019C185.532 186.019 198.416 197.42 198.416 211.463C198.416 225.506 185.532 236.907 169.664 236.907C153.796 236.907 140.912 225.506 140.912 211.463C140.912 197.42 153.796 186.019 169.664 186.019Z" fill="#D8D8D8"/>
</g>
<mask id="mask25_2001_3387" style="mask-type:luminance" maskUnits="userSpaceOnUse" x="-5" y="61" width="409" height="409">
<path d="M-4.2002 61.8699H403.9V469.97H-4.2002V61.8699Z" fill="white"/>
</mask>
<g mask="url(#mask25_2001_3387)">
<path d="M91.1049 195.026L114.259 184.512L163.575 198.527L170.027 218.247L158.74 214.926L103.082 198.55L91.1049 195.026Z" fill="#744007"/>
<path d="M107.328 202.755L104.275 221.085L148.165 230.812L155.798 209.488L107.328 202.755Z" fill="#744007"/>
<path d="M168.957 195.257C158.905 204.674 143.608 207.609 130.247 201.502C116.886 195.395 109.347 182.022 110.245 168.421C120.297 159.005 135.594 156.069 148.955 162.176C162.316 168.283 169.855 181.656 168.957 195.257Z" fill="white"/>
<path d="M113.531 195.022C103.844 197.46 94.9812 196.231 88.7175 192.123C86.6555 190.77 84.8748 189.106 83.4395 187.158C82.4323 185.791 81.5949 184.284 80.9492 182.647C80.4378 181.35 81.2808 179.97 82.654 179.624L89.4398 177.916" fill="#C86902"/>
<path d="M113.53 195.022C110.707 195.732 107.953 196.132 105.314 196.239C101.751 196.383 89.4394 177.916 89.4394 177.916L107.383 161.975L136.432 166.086L135.735 171.351C124.872 176.665 116.436 188.234 115.626 194.482" fill="#C86902"/>
<path d="M134.888 159.134C134.408 163.912 130.068 167.404 125.194 166.933L98.0606 164.315C93.1864 163.845 89.624 159.591 90.1038 154.814C90.5837 150.036 94.9238 146.544 99.7979 147.014L126.931 149.632C131.806 150.102 135.368 154.356 134.888 159.134Z" fill="#C86902"/>
<path d="M106.392 161.769L106.16 168.874L113.051 168.341L113.591 163.492L106.392 161.769Z" fill="#C86902"/>
<path d="M96.3372 190.991C91.4514 190.656 87.7678 186.502 88.1094 181.713L90.0113 155.054C90.3529 150.265 94.5905 146.654 99.4763 146.989C104.362 147.324 108.046 151.478 107.704 156.267L105.802 182.926C105.461 187.715 101.223 191.326 96.3372 190.991Z" fill="#C86902"/>
<path d="M160.195 203.47C164.183 206.788 173.22 213.298 181.35 214.279C185.651 214.799 190.332 214.327 195.185 212.16C196.467 211.587 196.404 209.724 195.464 208.682L191.285 202.431L182.899 189.885C182.899 189.885 157.725 201.416 160.195 203.47Z" fill="#C86902"/>
<path d="M158.629 167.873L156.267 172.688C151.271 184.17 153.878 197.039 158.589 201.808C158.589 201.808 159.286 202.599 160.564 203.786C165.571 208.439 181.328 187.535 181.328 187.535L177.686 182.087L178.734 174.628L168.774 169.481L158.629 167.873Z" fill="#C86902"/>
<path d="M168.699 203.412C172.797 206.041 178.293 204.916 180.975 200.899L195.908 178.54C198.59 174.523 197.443 169.135 193.345 166.506C189.247 163.876 183.751 165.001 181.068 169.018L166.136 191.378C163.454 195.395 164.601 200.782 168.699 203.412Z" fill="#C86902"/>
<path d="M153.246 166.099C152.178 170.784 155.188 175.431 159.968 176.477L186.577 182.3C191.357 183.346 196.097 180.396 197.165 175.711C198.232 171.026 195.222 166.379 190.442 165.333L163.833 159.51C159.053 158.464 154.313 161.414 153.246 166.099Z" fill="#C86902"/>
<path d="M172.904 178.029L172.883 181.209L176.69 182.729L177.298 177.309L172.904 178.029Z" fill="#C86902"/>
<path d="M135.989 162.979C138.667 157.351 145.492 154.916 151.234 157.541C156.975 160.165 159.459 166.855 156.782 172.483L154.084 178.155C151.406 183.783 144.581 186.218 138.84 183.594C133.098 180.969 130.614 174.279 133.291 168.651L135.989 162.979Z" fill="#FFCBA3"/>
<path d="M121.526 136.335C123.258 123.391 124.305 111.096 137.511 112.794L147.673 114.1C160.878 115.798 170.179 127.667 168.447 140.611C166.716 153.554 154.607 162.672 141.401 160.974L131.239 159.668C118.034 157.97 119.794 149.279 121.526 136.335Z" fill="#3D3D3D"/>
<path d="M112.232 148.019C114.111 133.977 127.247 124.087 141.572 125.928L157.926 128.031C172.251 129.872 182.342 142.748 180.463 156.79C178.584 170.831 165.448 180.721 151.123 178.88L134.769 176.778C120.444 174.936 110.354 162.06 112.232 148.019Z" fill="#FFCBA3"/>
<path d="M148.01 169.682C150.353 168.154 156.512 167.374 159.69 167.291L160.022 171.094L151.453 172.697L148.01 169.682Z" fill="#FFCBA3"/>
<path d="M185.095 163.442C184.726 166.203 182.142 168.148 179.325 167.786C176.507 167.425 174.523 164.892 174.892 162.131C175.262 159.369 177.845 157.424 180.663 157.786C183.48 158.148 185.464 160.68 185.095 163.442Z" fill="#FFCBA3"/>
<path d="M115.56 148.967C115.19 151.729 112.607 153.674 109.79 153.312C106.972 152.95 104.988 150.417 105.357 147.656C105.727 144.894 108.31 142.949 111.127 143.311C113.945 143.673 115.929 146.206 115.56 148.967Z" fill="#FFCBA3"/>
<path d="M112.933 154.116C112.729 155.636 111.308 156.707 109.757 156.507C108.206 156.308 107.114 154.914 107.317 153.394C107.521 151.874 108.943 150.803 110.493 151.003C112.044 151.202 113.136 152.596 112.933 154.116Z" fill="#C86902"/>
<path d="M167.751 131.372C166.844 132.989 166.223 134.795 165.963 136.735L165.114 143.08C163.998 151.426 169.995 159.08 178.511 160.175L179.683 160.325C180.003 159.186 180.247 158.011 180.409 156.806C181.815 146.295 176.515 136.438 167.751 131.372Z" fill="#D6C5B9"/>
<path d="M167.839 131.538C166.932 133.155 166.311 134.961 166.051 136.901L165.202 143.246C164.085 151.592 170.083 159.246 178.599 160.341L179.77 160.491C180.091 159.352 180.335 158.177 180.497 156.972C181.903 146.461 176.602 136.603 167.839 131.538Z" fill="#D6C5B9"/>
<path d="M114.166 140.6C113.7 141.726 113.32 142.866 113.025 144.012L114.12 144.448C122.077 147.618 131.148 143.865 134.381 136.066L136.84 130.139C137.591 128.326 137.961 126.455 137.987 124.61C127.814 124.773 118.239 130.779 114.166 140.6Z" fill="#D6C5B9"/>
<path d="M134.588 134.865C135.046 131.438 138.252 129.024 141.749 129.473L166.096 132.603C166.587 132.666 166.932 133.107 166.868 133.588C166.015 139.961 160.053 144.45 153.551 143.614L139.819 141.849C136.472 141.419 134.113 138.41 134.552 135.129L134.588 134.865Z" fill="#3D3D3D"/>
<path d="M166.076 136.088L167.818 131.381L163.685 128.101L146.403 123.81L136.873 128.494L166.076 136.088Z" fill="#3D3D3D"/>
<path d="M113.921 109.44C115.963 99.8463 122.8 94.954 131.498 95.9043C140.196 96.8546 146.768 104.709 146.176 113.448L143.101 142.107L133.74 141.084C121.514 139.749 112.277 128.708 113.108 116.425L113.921 109.44Z" fill="#3D3D3D"/>
<path d="M113.921 109.439C115.963 99.8463 122.8 94.954 131.498 95.9043C125.409 100.602 114.451 111.371 119.206 133.637C115.963 131.209 112.668 122.929 113.108 116.425L113.921 109.439Z" fill="#515151"/>
<mask id="mask26_2001_3387" style="mask-type:luminance" maskUnits="userSpaceOnUse" x="-61" y="-39" width="557" height="546">
<path d="M-60.1162 148.295L305.396 -38.4416L495.905 319.833L130.393 506.57L-60.1162 148.295Z" fill="white"/>
</mask>
<g mask="url(#mask26_2001_3387)">
<path d="M129.973 158.216C130.395 155.06 133.796 152.895 137.569 153.38C141.342 153.865 144.058 156.816 143.636 159.972L143.16 163.532C142.738 166.688 139.337 168.853 135.563 168.368C131.791 167.883 129.074 164.932 129.497 161.776L129.973 158.216Z" fill="white"/>
<path d="M135.808 161.224C136.82 161.282 137.704 160.67 137.82 159.801C137.882 159.338 137.715 158.89 137.394 158.542C137.94 158.309 138.593 158.212 139.275 158.3C140.944 158.514 142.156 159.751 141.981 161.062L141.581 164.05C141.406 165.361 139.909 166.25 138.24 166.035C136.57 165.82 135.358 164.584 135.533 163.273L135.808 161.224Z" fill="#3D3D3D"/>
<path d="M143.328 163.801C143.328 163.801 139.894 162.544 136.736 161.308C134.238 160.33 129.757 157.463 129.757 157.463C129.759 157.449 130.08 156.112 130.082 156.098L130.573 154.692C130.995 151.536 133.943 151.554 137.716 152.039C141.489 152.524 144.271 155.6 143.849 158.756L143.307 162.191C143.305 162.205 143.33 163.787 143.328 163.801Z" fill="#FFCBA3"/>
<path d="M142.965 163.053C140.752 162.844 132.209 159.931 127.737 155.348" stroke="#E99B5F" stroke-width="1.88938" stroke-miterlimit="10" stroke-linecap="round"/>
<path d="M146.994 160.404C147.416 157.248 150.817 155.083 154.59 155.568C158.363 156.053 161.079 159.004 160.657 162.16L160.181 165.72C159.759 168.876 156.358 171.041 152.585 170.556C148.812 170.071 146.096 167.12 146.518 163.964L146.994 160.404Z" fill="white"/>
<path d="M148.183 162.806C149.153 162.819 149.983 162.219 150.095 161.378C150.155 160.933 150.002 160.502 149.705 160.16C150.263 159.906 150.94 159.799 151.649 159.89C153.318 160.105 154.53 161.341 154.355 162.652L153.955 165.641C153.78 166.952 152.283 167.84 150.614 167.625C148.944 167.411 147.732 166.174 147.908 164.864L148.183 162.806Z" fill="#3D3D3D"/>
<path d="M160.924 159.684C160.926 159.67 161.178 159.317 161.18 159.303L161.192 158.512C161.614 155.356 158.511 154.712 154.738 154.227C150.965 153.742 147.564 155.907 147.142 159.063L146.666 162.623C146.664 162.637 146.662 162.65 146.66 162.664C146.66 162.664 150.143 162.687 152.811 163.03C155.479 163.373 160.924 159.684 160.924 159.684Z" fill="#FFCBA3"/>
<path d="M146.632 163.049C153.228 163.642 159.956 160.31 161.924 158.636" stroke="#E99B5F" stroke-width="1.88938" stroke-miterlimit="10" stroke-linecap="round"/>
<path d="M146.526 170.454C146.36 171.83 145.086 172.813 143.682 172.649C142.278 172.486 141.275 171.238 141.442 169.862C141.609 168.485 143.824 165.575 144.53 165.658C145.237 165.74 146.693 169.078 146.526 170.454Z" fill="#E89665"/>
<path d="M147.672 175.655C150.331 176.406 153.219 173.138 153.219 173.138" stroke="#E99B5F" stroke-width="1.88938" stroke-linecap="round"/>
</g>
<path d="M94.6833 234.615C92.8312 231.658 93.7758 227.788 96.7928 225.973L107.297 219.652C110.314 217.837 114.261 218.763 116.113 221.72C117.965 224.677 117.021 228.546 114.004 230.361L103.5 236.682C100.483 238.498 96.5353 237.572 94.6833 234.615Z" fill="#FFB100"/>
<path d="M87.6101 205.834C86.2672 198.369 91.3521 191.251 98.9672 189.935C106.582 188.619 113.844 193.603 115.187 201.068L117.616 214.055C118.491 220.88 114.249 227.179 107.395 228.364C100.541 229.548 95.4188 224.733 92.7969 218.344L87.6101 205.834Z" fill="#744007"/>
<path d="M143.355 249.744C146.847 249.17 149.202 245.931 148.616 242.508L146.577 230.593C145.992 227.171 142.687 224.862 139.195 225.436C135.704 226.01 133.348 229.249 133.934 232.672L135.973 244.587C136.559 248.009 139.864 250.318 143.355 249.744Z" fill="#FFB100"/>
<path d="M156.766 235.146C151.237 239.393 144.344 241.054 139.013 236.669C133.682 232.284 133.222 224.749 137.461 219.267L146.189 209.21C151.159 203.404 159.991 202.646 165.914 207.518C171.838 212.39 172.611 221.047 167.64 226.854L156.766 235.146Z" fill="#744007"/>
<path d="M99.2128 177.26C98.5406 179.07 99.4928 181.072 101.34 181.731L106.233 183.477C108.08 184.136 110.123 183.203 110.795 181.392C111.467 179.582 110.515 177.58 108.668 176.921L103.774 175.175C101.927 174.516 99.8851 175.45 99.2128 177.26Z" fill="#FFCBA3"/>
<path d="M109.06 229.434L107.237 236.295L104.627 246.122C102.656 253.333 107.022 260.744 114.378 262.676L115.615 263.001C122.971 264.933 130.533 260.654 132.504 253.444L134.442 246.148L136.936 236.755C140.153 224.989 112.276 217.667 109.06 229.434Z" fill="#D52D2D"/>
<path d="M108.892 276.322C108.557 277.83 106.949 278.706 105.462 278.198C102.734 277.265 100.629 275.942 99.0523 274.338C96.9665 272.216 95.9714 269.768 95.5655 267.521C95.1639 265.297 95.3309 263.239 95.581 261.769C95.7073 261.026 95.8588 260.411 95.9814 259.973C96.0431 259.753 96.0984 259.576 96.14 259.448C96.1545 259.403 96.167 259.365 96.1781 259.332L113.613 195.553C114.313 192.993 112.707 189.991 110.578 188.575C109.518 187.869 108.539 187.384 107.835 187.08C107.485 186.928 107.207 186.823 107.026 186.758C106.935 186.726 106.87 186.704 106.832 186.692C106.813 186.685 106.801 186.682 106.796 186.68L106.799 186.681L106.802 186.682L106.795 186.68C105.726 186.354 104.946 185.404 104.937 184.307C104.922 182.457 106.674 181.283 108.318 181.769L107.562 184.226C108.318 181.769 108.319 181.769 108.32 181.769L108.322 181.77L108.328 181.772L108.34 181.776C108.349 181.778 108.361 181.782 108.374 181.786C108.401 181.794 108.436 181.805 108.478 181.819C108.562 181.846 108.675 181.884 108.816 181.935C109.097 182.035 109.484 182.182 109.952 182.384C110.884 182.788 112.149 183.417 113.519 184.328C116.253 186.147 120.376 190.646 118.671 196.881L101.213 260.744C101.213 260.744 101.214 260.744 98.6844 260.08L101.214 260.744L101.185 260.847L101.153 260.937C101.153 260.937 101.152 260.937 101.151 260.94C101.151 260.941 101.151 260.942 101.15 260.944C101.146 260.955 101.139 260.977 101.128 261.01C101.106 261.076 101.072 261.186 101.031 261.333C100.948 261.629 100.839 262.069 100.746 262.612C100.559 263.714 100.456 265.153 100.722 266.626C100.984 268.076 101.594 269.526 102.823 270.777C103.754 271.723 105.132 272.651 107.2 273.356C108.448 273.782 109.173 275.057 108.892 276.322Z" fill="#AFAFAF"/>
<path d="M86.5907 174.22L107.101 180.295C109.039 180.869 110.135 182.874 109.55 184.774C108.965 186.673 106.919 187.748 104.981 187.174L84.4705 181.099C82.5326 180.525 81.436 178.52 82.0217 176.621C82.6073 174.721 84.6528 173.646 86.5907 174.22Z" fill="#4B4B4B"/>
<path d="M167.204 192.325L162.016 191.88C160.058 191.712 158.332 193.132 158.161 195.051C157.989 196.97 159.438 198.662 161.396 198.83L166.584 199.275C168.542 199.443 170.268 198.024 170.44 196.104C170.611 194.185 169.163 192.493 167.204 192.325Z" fill="#FFCBA3"/>
<path d="M111.34 276.873C111.743 275.64 113.021 274.891 114.318 275.134C116.469 275.537 118.136 275.409 119.425 275.045C121.127 274.565 122.396 273.608 123.362 272.481C124.344 271.336 124.988 270.039 125.388 268.993C125.585 268.477 125.716 268.042 125.795 267.745C125.834 267.597 125.86 267.486 125.875 267.418C125.882 267.384 125.888 267.361 125.89 267.35C125.89 267.348 125.89 267.346 125.891 267.345C125.891 267.343 125.891 267.342 125.891 267.342L125.909 267.249L125.937 267.146L128.466 267.81C125.937 267.146 125.937 267.146 125.937 267.146L143.395 203.283C145.099 197.048 150.965 195.172 154.259 194.936C155.911 194.818 157.327 194.895 158.341 195.002C158.849 195.056 159.26 195.117 159.554 195.168C159.701 195.194 159.819 195.217 159.906 195.234C159.949 195.243 159.984 195.251 160.012 195.256C160.026 195.259 160.038 195.262 160.047 195.264L160.06 195.267L160.065 195.269L160.068 195.269C160.069 195.269 160.07 195.27 159.471 197.768L160.07 195.269C161.741 195.654 162.66 197.53 161.703 199.124C161.135 200.07 159.975 200.51 158.883 200.269L158.876 200.267L158.879 200.268L158.882 200.268C158.877 200.267 158.865 200.265 158.846 200.261C158.806 200.253 158.738 200.24 158.644 200.223C158.454 200.191 158.159 200.145 157.778 200.105C157.013 200.024 155.919 199.965 154.64 200.056C152.074 200.239 149.152 202.052 148.453 204.611L131.018 268.391C131.011 268.425 131.002 268.464 130.992 268.509C130.963 268.641 130.92 268.821 130.861 269.042C130.744 269.481 130.562 270.088 130.292 270.793C129.758 272.189 128.853 274.054 127.371 275.783C125.873 277.53 123.763 279.162 120.874 279.978C118.691 280.594 116.193 280.708 113.355 280.179C111.807 279.891 110.861 278.344 111.34 276.873Z" fill="#AFAFAF"/>
<path d="M185.254 203.762C184.792 205.694 182.82 206.893 180.849 206.44L159.987 201.649C158.016 201.196 156.793 199.263 157.255 197.331C157.716 195.399 159.689 194.199 161.66 194.652L182.521 199.444C184.492 199.896 185.716 201.83 185.254 203.762Z" fill="#4B4B4B"/>
<path d="M165.341 205.093L174.849 208.34C177.565 209.268 180.534 207.861 181.481 205.199L182.966 201.021C183.913 198.359 182.478 195.448 179.761 194.521L170.253 191.273C167.537 190.346 164.568 191.753 163.621 194.415L162.136 198.593C161.19 201.255 162.625 204.165 165.341 205.093Z" fill="#FFCBA3"/>
<path d="M122.921 238.765L122.034 238.558C116.764 237.332 111.306 240.289 109.845 245.162L94.0012 297.994C92.5398 302.867 95.6278 307.811 100.898 309.037L101.785 309.243C107.055 310.469 112.513 307.513 113.974 302.64L129.818 249.808C131.28 244.935 128.191 239.991 122.921 238.765Z" fill="#4B4B4B"/>
<path d="M100.373 275.516C99.8967 275.143 99.4569 274.75 99.0523 274.338C96.9665 272.216 95.9714 269.768 95.5655 267.521C95.1639 265.297 95.3309 263.239 95.581 261.769C95.7073 261.026 95.8588 260.411 95.9814 259.973C96.0431 259.753 96.0984 259.576 96.14 259.448C96.1545 259.403 96.167 259.365 96.1781 259.332L113.613 195.553C114.313 192.993 112.707 189.991 110.578 188.575C109.518 187.869 108.539 187.384 107.835 187.08C107.485 186.928 107.207 186.823 107.026 186.758C106.935 186.726 106.87 186.704 106.832 186.692C106.813 186.685 106.801 186.682 106.796 186.68L106.799 186.681L106.802 186.682L106.795 186.68C105.726 186.354 104.946 185.404 104.937 184.307C104.922 182.457 106.674 181.283 108.318 181.769L107.562 184.226C108.318 181.769 108.319 181.769 108.32 181.769L108.322 181.77L108.328 181.772L108.34 181.776C108.349 181.778 108.361 181.782 108.374 181.786C108.401 181.794 108.436 181.805 108.478 181.819C108.562 181.846 108.675 181.884 108.816 181.935C109.097 182.035 109.484 182.182 109.952 182.384C110.884 182.788 112.149 183.417 113.519 184.328C116.253 186.147 120.376 190.646 118.671 196.881L101.213 260.744C101.213 260.744 101.214 260.744 98.6844 260.08L101.214 260.744L101.185 260.847L101.153 260.937C101.153 260.937 101.152 260.937 101.151 260.94C101.151 260.941 101.151 260.942 101.15 260.944C101.146 260.955 101.139 260.977 101.128 261.01C101.106 261.076 101.072 261.186 101.031 261.333C100.948 261.629 100.839 262.069 100.746 262.612C100.559 263.714 100.456 265.153 100.722 266.626C100.92 267.723 101.318 268.821 102.032 269.832C102.262 270.157 100.529 275.638 100.373 275.516Z" fill="#AFAFAF"/>
<path d="M86.5907 174.22L107.101 180.295C109.039 180.869 110.135 182.874 109.55 184.774C108.965 186.673 106.919 187.748 104.981 187.174L84.4705 181.099C82.5326 180.525 81.436 178.52 82.0217 176.621C82.6073 174.721 84.6528 173.646 86.5907 174.22Z" fill="#4B4B4B"/>
<path d="M105.593 183.16L106.143 178.769C106.494 175.97 104.463 173.423 101.608 173.08L91.6148 171.877C88.76 171.533 86.1612 173.523 85.8108 176.322L85.2607 180.713C84.9103 183.511 86.9407 186.058 89.7955 186.402L99.7891 187.605C102.644 187.948 105.242 185.958 105.593 183.16Z" fill="#FFCBA3"/>
<path d="M108.307 222.063L106.446 229.192L103.781 239.4C101.767 246.891 106.401 254.561 114.132 256.531L115.432 256.862C123.163 258.832 131.062 254.356 133.076 246.865L135.054 239.286L137.602 229.528C140.888 217.304 111.594 209.839 108.307 222.063Z" fill="#FF4B4B"/>
<path d="M130.416 187.976C123.768 188.145 111.715 191.156 110.761 207.99C136.293 210.599 147.4 209.206 147.4 209.206C147.4 209.206 147.59 189.473 130.416 187.976Z" fill="#FF4B4B"/>
<path d="M130.504 195.294C140.598 196.326 148.198 202.768 147.464 209.672C146.73 216.576 137.938 221.344 127.844 220.313C117.749 219.282 110.15 212.839 110.884 205.935C111.618 199.031 120.41 194.263 130.504 195.294Z" fill="#FF4B4B"/>
<path d="M141.808 211.089C140.206 216.055 133.18 218.333 126.115 216.177C119.05 214.021 114.622 208.246 116.223 203.28C117.825 198.314 124.851 196.036 131.916 198.193C138.98 200.349 143.409 206.123 141.808 211.089Z" fill="#DDF4FF"/>
</g>
</g>
</g>
</g>
</g>
</g>
</g>
<defs>
<clipPath id="clip0_2001_3387">
<rect width="530" height="530" fill="white" transform="translate(-65.1504 0.919922)"/>
</clipPath>
<clipPath id="clip1_2001_3387">
<rect width="530" height="530" fill="white" transform="translate(-65.1504 0.919922)"/>
</clipPath>
<clipPath id="clip2_2001_3387">
<rect width="530" height="530" fill="white" transform="translate(-65.1504 0.919922)"/>
</clipPath>
</defs>
</svg>
