<svg width="531" height="531" viewBox="0 0 531 531" fill="none" xmlns="http://www.w3.org/2000/svg">
<g clip-path="url(#clip0_2001_55)">
<g clip-path="url(#clip1_2001_55)">
<mask id="mask0_2001_55" style="mask-type:luminance" maskUnits="userSpaceOnUse" x="0" y="0" width="531" height="531">
<path d="M530.85 0.919922H0.849609V530.92H530.85V0.919922Z" fill="white"/>
</mask>
<g mask="url(#mask0_2001_55)">
<mask id="mask1_2001_55" style="mask-type:luminance" maskUnits="userSpaceOnUse" x="0" y="0" width="531" height="531">
<path d="M0.849609 0.919922H530.85V530.92H0.849609V0.919922Z" fill="white"/>
</mask>
<g mask="url(#mask1_2001_55)">
<path d="M354.674 78.0966V355.595C354.674 365.887 346.318 374.243 336.026 374.243H185.859C175.567 374.243 167.211 365.887 167.211 355.595V78.0966C167.211 67.8047 175.567 59.4485 185.859 59.4485H336.026C346.318 59.4485 354.674 67.8047 354.674 78.0966Z" fill="white"/>
<path d="M354.674 78.0966V355.595C354.674 365.887 346.318 374.243 336.026 374.243H185.859C175.567 374.243 167.211 365.887 167.211 355.595V78.0966C167.211 67.8047 175.567 59.4485 185.859 59.4485H336.026C346.318 59.4485 354.674 67.8047 354.674 78.0966Z" stroke="#F3C35B" stroke-width="7.36111" stroke-linecap="round" stroke-linejoin="round"/>
<path d="M192.239 97.5957H328.91" stroke="#E5E5E5" stroke-width="12.7593" stroke-linecap="round" stroke-linejoin="round"/>
<path d="M192.239 97.5957C192.239 97.5957 209.562 97.5957 231.873 97.5957" stroke="#89E219" stroke-width="12.7593" stroke-linecap="round" stroke-linejoin="round"/>
<path d="M311.489 387.669V414.079C311.489 415.433 310.389 416.532 309.035 416.532H214.322C212.968 416.532 211.868 415.433 211.868 414.079V387.669C211.868 386.314 212.968 385.215 214.322 385.215H309.035C310.389 385.215 311.489 386.314 311.489 387.669Z" fill="#FDE371"/>
<path d="M311.489 387.669V414.079C311.489 415.433 310.389 416.532 309.035 416.532H214.322C212.968 416.532 211.868 415.433 211.868 414.079V387.669C211.868 386.314 212.968 385.215 214.322 385.215H309.035C310.389 385.215 311.489 386.314 311.489 387.669Z" stroke="#F8C55A" stroke-width="4.90741"/>
<path d="M268.925 407.859C268.925 409.109 269.713 409.87 270.827 409.87C271.915 409.87 272.731 409.109 272.731 407.859V393.371C272.731 391.984 271.915 391.06 270.61 391.06C269.74 391.06 269.006 391.414 268.3 391.903L265.391 393.914C264.739 394.349 264.44 394.947 264.44 395.518C264.44 396.442 265.147 397.122 266.017 397.122C266.397 397.122 266.805 397.013 267.158 396.769L268.87 395.6H268.925V407.859Z" fill="white"/>
<path d="M253.237 401.716L253.617 398.943H256.471L256.091 401.716H253.237ZM249.404 408.13C249.268 409.163 249.921 409.87 250.845 409.87C251.633 409.87 252.204 409.354 252.313 408.511L252.856 404.406H255.737L255.221 408.13C255.085 409.163 255.737 409.87 256.662 409.87C257.45 409.87 258.02 409.354 258.129 408.511L258.673 404.406H259.842C260.794 404.406 261.337 403.863 261.337 403.048C261.337 402.232 260.794 401.716 259.842 401.716H259.053L259.434 398.943H260.549C261.5 398.943 262.043 398.399 262.043 397.584C262.043 396.768 261.5 396.252 260.549 396.252H259.788L260.277 392.8C260.413 391.767 259.76 391.06 258.836 391.06C258.048 391.06 257.477 391.577 257.368 392.419L256.824 396.252H253.97L254.46 392.8C254.596 391.767 253.943 391.06 253.019 391.06C252.231 391.06 251.66 391.577 251.551 392.419L251.008 396.252H249.92C248.969 396.252 248.425 396.768 248.425 397.584C248.425 398.399 248.969 398.943 249.92 398.943H250.654L250.274 401.716H249.214C248.262 401.716 247.719 402.232 247.719 403.048C247.719 403.863 248.262 404.406 249.214 404.406H249.92L249.404 408.13Z" fill="white"/>
<path d="M353.569 393.88C353.569 393.88 333.326 445.04 261.678 445.04C190.03 445.04 172.854 393.758 172.854 393.758" stroke="#FDE371" stroke-width="12.2685" stroke-linecap="round" stroke-linejoin="round"/>
<path d="M348.24 403.494C338.397 418.311 313.466 445.04 261.678 445.04C210.134 445.04 186.781 418.499 177.734 403.605" stroke="#EB6C6C" stroke-width="12.2685" stroke-linejoin="round"/>
<path d="M393.565 462.584C393.565 466.105 390.706 468.964 387.185 468.964H355.287C351.766 468.964 348.907 466.105 348.907 462.584C348.907 459.064 351.766 456.205 355.287 456.205H387.185C390.706 456.205 393.565 459.064 393.565 462.584Z" fill="#FEE472"/>
<path d="M377.37 398.297V458.168H365.102V398.297H377.37Z" fill="#FEE472"/>
<path d="M381.541 397.316C381.541 399.347 379.892 400.996 377.861 400.996H364.611C362.579 400.996 360.93 399.347 360.93 397.316C360.93 395.285 362.579 393.635 364.611 393.635H377.861C379.892 393.635 381.541 395.285 381.541 397.316Z" fill="#FEE472"/>
<path d="M379.579 387.992C379.579 392.596 375.84 396.334 371.236 396.334C366.632 396.334 362.894 392.596 362.894 387.992C362.894 383.387 366.632 379.649 371.236 379.649C375.84 379.649 379.579 383.387 379.579 387.992Z" fill="#FEE472"/>
<path d="M393.565 462.584C393.565 466.108 390.709 468.964 387.185 468.964H355.287C351.763 468.964 348.907 466.108 348.907 462.584C356.851 462.615 384.486 462.615 393.565 462.584Z" fill="#F8C55A"/>
<path d="M377.37 401.119V405.72H365.102V401.119H377.37Z" fill="#F8C55A"/>
<path d="M379.579 387.992C379.579 390.069 378.781 392.083 377.525 393.543C373.812 393.604 368.261 393.635 365.021 393.557C363.698 392.081 362.893 390.13 362.893 387.992C362.863 388.022 364.856 391.672 371.481 391.734C377.463 391.789 379.64 387.992 379.579 387.992Z" fill="#F8C55A"/>
<path d="M177.394 462.584C177.394 466.105 174.535 468.964 171.014 468.964H139.116C135.595 468.964 132.736 466.105 132.736 462.584C132.736 459.064 135.595 456.205 139.116 456.205H171.014C174.535 456.205 177.394 459.064 177.394 462.584Z" fill="#FEE472"/>
<path d="M161.199 398.297V458.168H148.931V398.297H161.199Z" fill="#FEE472"/>
<path d="M165.37 397.316C165.37 399.347 163.721 400.996 161.69 400.996H148.44C146.409 400.996 144.759 399.347 144.759 397.316C144.759 395.285 146.409 393.635 148.44 393.635H161.69C163.721 393.635 165.37 395.285 165.37 397.316Z" fill="#FEE472"/>
<path d="M163.408 387.992C163.408 392.596 159.67 396.334 155.065 396.334C150.461 396.334 146.723 392.596 146.723 387.992C146.723 383.387 150.461 379.649 155.065 379.649C159.67 379.649 163.408 383.387 163.408 387.992Z" fill="#FEE472"/>
<path d="M177.394 462.584C177.394 466.108 174.538 468.964 171.014 468.964H139.116C135.592 468.964 132.736 466.108 132.736 462.584C140.68 462.615 168.315 462.615 177.394 462.584Z" fill="#F8C55A"/>
<path d="M161.199 401.119V405.72H148.931V401.119H161.199Z" fill="#F8C55A"/>
<path d="M163.408 387.992C163.408 390.069 162.61 392.083 161.354 393.543C157.641 393.604 152.09 393.635 148.85 393.557C147.527 392.081 146.723 390.13 146.723 387.992C146.692 388.022 148.685 391.672 155.31 391.734C161.292 391.789 163.469 387.992 163.408 387.992Z" fill="#F8C55A"/>
<mask id="mask2_2001_55" style="mask-type:luminance" maskUnits="userSpaceOnUse" x="173" y="146" width="91" height="93">
<path d="M173.836 146.547H263.151V238.316H173.836V146.547Z" fill="white"/>
</mask>
<g mask="url(#mask2_2001_55)">
<path d="M256.649 164.214V220.649C256.649 226.066 252.251 230.464 246.834 230.464H190.153C184.736 230.464 180.338 226.066 180.338 220.649V164.214C180.338 158.797 184.736 154.399 190.153 154.399H246.834C252.251 154.399 256.649 158.797 256.649 164.214Z" fill="#F1F1F1"/>
<path d="M218.56 173.907C235.858 174.02 248.039 188.445 248.252 202.683C248.372 210.712 240.889 210.958 240.889 210.958H196.231C196.231 210.958 188.625 210.896 188.735 202.105C188.885 190.163 199.728 173.784 218.56 173.907Z" fill="#1EB0F6"/>
<path d="M232.664 198.26C232.664 202.221 229.447 205.437 225.486 205.437H211.5C207.539 205.437 204.323 202.221 204.323 198.26C204.323 194.299 207.539 191.083 211.5 191.083H225.486C229.447 191.083 232.664 194.299 232.664 198.26Z" fill="white"/>
<path d="M195.495 174.336L197.397 186.911L205.126 180.838L195.495 174.336Z" fill="#1EB0F6"/>
<path d="M195.495 174.336L197.397 186.911L205.126 180.838L195.495 174.336Z" stroke="#1EB0F6" stroke-width="6.37963" stroke-linecap="round" stroke-linejoin="round"/>
<path d="M241.502 174.336L239.6 186.911L231.871 180.838L241.502 174.336Z" fill="#1EB0F6"/>
<path d="M241.502 174.336L239.6 186.911L231.871 180.838L241.502 174.336Z" stroke="#1EB0F6" stroke-width="6.37963" stroke-linecap="round" stroke-linejoin="round"/>
<mask id="mask3_2001_55" style="mask-type:alpha" maskUnits="userSpaceOnUse" x="188" y="173" width="61" height="38">
<path d="M218.56 173.907C235.858 174.02 248.039 188.445 248.252 202.683C248.372 210.712 240.889 210.958 240.889 210.958H196.231C196.231 210.958 188.625 210.896 188.735 202.105C188.885 190.163 199.728 173.784 218.56 173.907Z" fill="#1EB0F6"/>
</mask>
<g mask="url(#mask3_2001_55)">
<path d="M195.618 201.511H183.901V192.8H199.114" stroke="#0498DE" stroke-width="6.87037" stroke-linecap="round" stroke-linejoin="round"/>
<path d="M241.364 201.511H253.08V192.8H237.867" stroke="#0498DE" stroke-width="6.87037" stroke-linecap="round" stroke-linejoin="round"/>
</g>
<mask id="mask4_2001_55" style="mask-type:alpha" maskUnits="userSpaceOnUse" x="204" y="191" width="29" height="15">
<path d="M232.664 198.26C232.664 202.221 229.447 205.437 225.486 205.437H211.5C207.539 205.437 204.323 202.221 204.323 198.26C204.323 194.299 207.539 191.083 211.5 191.083H225.486C229.447 191.083 232.664 194.299 232.664 198.26Z" fill="white"/>
</mask>
<g mask="url(#mask4_2001_55)">
<path d="M218.493 187.77V193.414" stroke="#FFC5DF" stroke-width="5.88889" stroke-linecap="round" stroke-linejoin="round"/>
</g>
</g>
<mask id="mask5_2001_55" style="mask-type:luminance" maskUnits="userSpaceOnUse" x="173" y="230" width="91" height="93">
<path d="M173.836 230.709H263.151V322.478H173.836V230.709Z" fill="white"/>
</mask>
<g mask="url(#mask5_2001_55)">
<path d="M256.649 248.376V304.811C256.649 310.228 252.251 314.626 246.834 314.626H190.153C184.736 314.626 180.338 310.228 180.338 304.811V248.376C180.338 242.959 184.736 238.561 190.153 238.561H246.834C252.251 238.561 256.649 242.959 256.649 248.376Z" fill="#F1F1F1"/>
<path d="M221.197 250.305C229.259 250.356 227.239 253.738 231.212 255.651C235.185 257.564 237.753 256.349 241.075 259.801C244.332 263.185 242.525 265.509 243.506 269.808C244.488 274.108 247.837 273.14 247.8 279.812C247.761 286.931 244.479 286.738 242.063 290.427C239.564 294.242 242.201 298.023 235.787 301.111C234.394 301.782 232.297 302.677 229.736 302.661C222.914 302.62 214.642 302.655 207.715 302.591C204.888 302.565 202.569 301.624 201.069 300.901C194.655 297.812 197.261 293.454 194.512 290.006C191.762 286.558 188.527 285.479 189.195 278.9C189.762 273.314 192.788 274.318 193.77 270.019C194.751 265.72 192.272 264.593 195.57 260.151C199.043 255.474 201.39 257.567 205.363 255.653C209.19 253.81 208.219 250.585 214.752 250.289C215.001 250.277 220.935 250.304 221.197 250.305Z" fill="#F48F00"/>
<path d="M232.414 273.097L232.423 283.805C232.423 291.496 226.18 294.015 218.489 294.015C210.799 294.015 204.573 291.496 204.573 283.805L204.564 273.097C204.564 265.406 210.799 259.172 218.489 259.172C226.18 259.172 232.414 265.406 232.414 273.097Z" fill="#FFD2A6"/>
<path d="M203.885 272.721C206.475 272.721 208.578 274.824 208.578 277.413C208.578 280.003 206.475 282.106 203.885 282.106C201.295 282.106 199.192 280.003 199.192 277.413C199.192 274.824 201.295 272.721 203.885 272.721Z" fill="#FFD2A6"/>
<path d="M232.489 272.721C235.079 272.721 237.181 274.824 237.181 277.413C237.181 280.003 235.079 282.106 232.489 282.106C229.899 282.106 227.796 280.003 227.796 277.413C227.796 274.824 229.899 272.721 232.489 272.721Z" fill="#FFD2A6"/>
<path d="M241.413 270.443C239.121 272.012 236.348 272.93 233.361 272.93C225.481 272.93 219.094 266.543 219.094 258.664C219.094 256.645 219.514 254.724 220.27 252.983C222.466 247.931 245.165 267.873 241.413 270.443Z" fill="#F48F00"/>
</g>
<path d="M341.792 164.214V220.649C341.792 226.066 337.394 230.464 331.977 230.464H275.296C269.879 230.464 265.481 226.066 265.481 220.649V164.214C265.481 158.797 269.879 154.399 275.296 154.399H331.977C337.394 154.399 341.792 158.797 341.792 164.214Z" fill="#F1F1F1"/>
<mask id="mask6_2001_55" style="mask-type:luminance" maskUnits="userSpaceOnUse" x="258" y="230" width="91" height="93">
<path d="M258.979 230.709H348.294V322.478H258.979V230.709Z" fill="white"/>
</mask>
<g mask="url(#mask6_2001_55)">
<path d="M341.792 248.376V304.811C341.792 310.228 337.394 314.626 331.977 314.626H275.297C269.88 314.626 265.482 310.228 265.482 304.811V248.376C265.482 242.959 269.88 238.561 275.297 238.561H331.977C337.394 238.561 341.792 242.959 341.792 248.376Z" fill="#F1F1F1"/>
<path d="M322.285 266.84V289.414C322.285 294.831 317.887 299.229 312.471 299.229H296.399C290.982 299.229 286.584 294.831 286.584 289.414V266.84C286.584 261.423 290.982 257.025 296.399 257.025H312.471C317.887 257.025 322.285 261.423 322.285 266.84Z" fill="#E4976D"/>
<path d="M286.676 275.366C289.266 275.366 291.369 277.469 291.369 280.059C291.369 282.649 289.266 284.752 286.676 284.752C284.086 284.752 281.983 282.649 281.983 280.059C281.983 277.469 284.086 275.366 286.676 275.366Z" fill="#E4976D"/>
<path d="M322.01 275.366C324.6 275.366 326.702 277.469 326.702 280.059C326.702 282.649 324.6 284.752 322.01 284.752C319.42 284.752 317.317 282.649 317.317 280.059C317.317 277.469 319.42 275.366 322.01 275.366Z" fill="#E4976D"/>
<path d="M324.003 262.362V275.489C323.972 276.655 321.847 276.474 321.867 275.548C321.978 270.122 322.93 263.221 318.022 263.405H294.681C289.26 263.405 284.866 262.362 284.866 262.362C284.866 256.941 289.26 252.547 294.681 252.547H314.188C319.609 252.547 324.003 256.941 324.003 262.362Z" fill="#824E33"/>
<path d="M292.933 248.376C298.773 248.376 303.514 253.118 303.514 258.958C303.514 264.798 298.773 269.539 292.933 269.539C287.093 269.539 282.351 264.798 282.351 258.958C282.351 253.118 287.093 248.376 292.933 248.376Z" fill="#824E33"/>
<path d="M287.969 278.119C283.761 277.579 280.51 273.985 280.51 269.631C280.51 265.277 283.761 261.683 287.969 261.144C287.948 261.196 287.964 278.127 287.969 278.119Z" fill="#824E33"/>
<path d="M298.361 287.129L304.741 284.016L311.121 287.129" stroke="#824E33" stroke-width="7.36111" stroke-linecap="round" stroke-linejoin="round"/>
<path d="M304.741 274.447C304.741 274.447 298.852 282.881 304.741 282.881C310.63 282.881 304.741 274.447 304.741 274.447Z" fill="#CC7D52"/>
<path d="M304.741 274.447C304.741 274.447 298.852 282.881 304.741 282.881C310.63 282.881 304.741 274.447 304.741 274.447Z" stroke="#CC7D52" stroke-width="2.4537" stroke-linecap="round" stroke-linejoin="round"/>
</g>
<mask id="mask7_2001_55" style="mask-type:luminance" maskUnits="userSpaceOnUse" x="18" y="0" width="531" height="531">
<path d="M18.5161 0.919922H548.516V530.92H18.5161V0.919922Z" fill="white"/>
</mask>
<g mask="url(#mask7_2001_55)">
<path d="M108.512 356.997C116.077 355.799 123.192 360.968 124.39 368.533C125.588 376.098 120.419 383.213 112.854 384.411C105.289 385.609 98.1738 380.44 96.9757 372.875C95.7775 365.31 100.947 358.195 108.512 356.997Z" fill="#3D3D3D"/>
<path d="M153.266 346.642C160.831 345.444 167.945 350.613 169.144 358.178C170.342 365.743 165.173 372.858 157.608 374.056C150.043 375.254 142.928 370.085 141.73 362.52C140.531 354.955 145.701 347.84 153.266 346.642Z" fill="#3D3D3D"/>
<path d="M121.752 331.247C131.725 329.667 141.104 336.482 142.684 346.454C144.263 356.427 137.449 365.806 127.476 367.385C117.504 368.965 108.124 362.15 106.545 352.178C104.966 342.206 111.78 332.826 121.752 331.247Z" fill="#3D3D3D"/>
<path d="M140.84 340.822C140.84 340.822 127.503 341.319 128.638 353.188C129.772 365.058 152.433 363.829 154.499 362.756C156.565 361.683 163.348 344.772 150.065 347.31C142.47 348.762 140.84 340.822 140.84 340.822Z" fill="#3D3D3D"/>
<path d="M193.715 404.524L189.267 399.265" stroke="#DA8E74" stroke-width="5.88889" stroke-linecap="round" stroke-linejoin="round"/>
<path d="M190.826 397.893C190.848 397.893 213.279 397.858 213.292 397.858C215.288 397.88 216.898 399.504 216.898 401.505C216.898 403.505 215.287 405.129 213.292 405.151C213.278 405.151 195.756 409.768 195.734 409.768C192.459 409.768 189.805 407.114 189.805 403.84C189.805 400.565 187.552 397.893 190.826 397.893Z" fill="#DA8E74"/>
<path d="M165.248 421.853C174.817 423.571 192.238 426.515 192.729 426.024C193.22 425.534 197.268 405.781 197.268 405.781" stroke="#FFAADE" stroke-width="14.7222"/>
<mask id="mask8_2001_55" style="mask-type:luminance" maskUnits="userSpaceOnUse" x="18" y="0" width="531" height="531">
<path d="M18.5161 0.919922H548.516V530.92H18.5161V0.919922Z" fill="white"/>
</mask>
<g mask="url(#mask8_2001_55)">
<path d="M137.275 381.244C140.711 395.721 142.919 424.674 141.692 436.452" stroke="#DA8E74" stroke-width="60.1648" stroke-linecap="round" stroke-linejoin="round"/>
</g>
<mask id="mask9_2001_55" style="mask-type:alpha" maskUnits="userSpaceOnUse" x="106" y="350" width="67" height="118">
<mask id="mask10_2001_55" style="mask-type:luminance" maskUnits="userSpaceOnUse" x="18" y="0" width="531" height="531">
<path d="M18.5161 0.919922H548.516V530.92H18.5161V0.919922Z" fill="white"/>
</mask>
<g mask="url(#mask10_2001_55)">
<path d="M137.275 381.244C140.711 395.721 142.919 424.674 141.692 436.452" stroke="#DA8E74" stroke-width="61.3426" stroke-linecap="round" stroke-linejoin="round"/>
</g>
</mask>
<g mask="url(#mask9_2001_55)">
<path d="M116.977 361.926L118.626 375.362C119.286 380.739 115.457 385.64 110.081 386.3L94.8804 388.166C89.504 388.827 84.6028 384.997 83.9426 379.621L82.2928 366.184C81.6327 360.808 85.4619 355.907 90.8383 355.247L106.039 353.38C111.415 352.72 116.316 356.549 116.977 361.926Z" fill="#3D3D3D"/>
<path d="M203.394 351.315L205.044 364.751C205.704 370.128 201.875 375.029 196.499 375.689L181.298 377.556C175.922 378.216 171.021 374.387 170.361 369.01L168.711 355.573C168.051 350.197 171.88 345.296 177.256 344.636L192.457 342.769C197.833 342.109 202.734 345.938 203.394 351.315Z" fill="#3D3D3D"/>
</g>
<path d="M114.088 425.288L94.7036 433.508L112.37 442.832" stroke="#FFAADE" stroke-width="14.7222" stroke-linecap="round" stroke-linejoin="round"/>
<path d="M115.946 443.447C115.717 437.934 114.628 441.461 114.628 441.461L115.946 443.447Z" fill="#3D3D3D"/>
<path d="M115.946 443.447C115.717 437.934 114.628 441.461 114.628 441.461" stroke="#DA8E74" stroke-width="5.88889" stroke-linecap="round"/>
<path d="M112.179 433.753C117.016 433.753 120.943 437.681 120.943 442.518C120.943 447.355 117.016 451.283 112.179 451.283C107.341 451.283 103.414 447.355 103.414 442.518C103.414 437.681 107.341 433.753 112.179 433.753Z" fill="#DA8E74"/>
<path d="M120.13 476.018C125.242 476.018 132.058 476.018 135.466 476.018" stroke="#1CB0F6" stroke-width="9.32407" stroke-linecap="round" stroke-linejoin="round"/>
<path d="M154.819 475.957C159.931 475.957 166.747 475.957 170.155 475.957" stroke="#1CB0F6" stroke-width="9.32407" stroke-linecap="round" stroke-linejoin="round"/>
<path d="M106.71 383.082C109.418 383.082 111.617 385.281 111.617 387.989C111.617 390.698 109.418 392.897 106.71 392.897C104.001 392.897 101.802 390.698 101.802 387.989C101.802 385.281 104.001 383.082 106.71 383.082Z" fill="#DA8E74"/>
<mask id="mask11_2001_55" style="mask-type:alpha" maskUnits="userSpaceOnUse" x="106" y="350" width="67" height="118">
<mask id="mask12_2001_55" style="mask-type:luminance" maskUnits="userSpaceOnUse" x="18" y="0" width="531" height="531">
<path d="M18.5161 0.919922H548.516V530.92H18.5161V0.919922Z" fill="white"/>
</mask>
<g mask="url(#mask12_2001_55)">
<path d="M137.275 381.244C140.711 395.721 142.919 424.674 141.692 436.452" stroke="#DA8E74" stroke-width="61.3426" stroke-linecap="round" stroke-linejoin="round"/>
</g>
</mask>
<g mask="url(#mask11_2001_55)">
<mask id="mask13_2001_55" style="mask-type:luminance" maskUnits="userSpaceOnUse" x="125" y="369" width="19" height="10">
<path d="M125.539 370.928L126.37 377.861C126.37 377.861 129.296 378.766 134.816 378.517C138.983 378.329 143.274 376.851 143.274 376.851L142.566 369.919C142.566 369.919 139.474 369.865 134.345 370.269C129.426 370.657 125.539 370.928 125.539 370.928Z" fill="white"/>
</mask>
<g mask="url(#mask13_2001_55)">
<path d="M141.806 372.098L142.412 377.866C142.805 381.6 140.092 384.95 136.358 385.342C132.625 385.735 129.275 383.022 128.882 379.288L128.276 373.521C127.884 369.787 130.596 366.437 134.33 366.044C138.064 365.652 141.414 368.365 141.806 372.098Z" fill="white"/>
</g>
</g>
<mask id="mask14_2001_55" style="mask-type:alpha" maskUnits="userSpaceOnUse" x="106" y="350" width="67" height="118">
<mask id="mask15_2001_55" style="mask-type:luminance" maskUnits="userSpaceOnUse" x="18" y="0" width="531" height="531">
<path d="M18.5161 0.919922H548.516V530.92H18.5161V0.919922Z" fill="white"/>
</mask>
<g mask="url(#mask15_2001_55)">
<path d="M137.275 381.244C140.711 395.721 142.919 424.674 141.692 436.452" stroke="#DA8E74" stroke-width="61.3426" stroke-linecap="round" stroke-linejoin="round"/>
</g>
</mask>
<g mask="url(#mask14_2001_55)">
<mask id="mask16_2001_55" style="mask-type:luminance" maskUnits="userSpaceOnUse" x="143" y="367" width="18" height="10">
<path d="M160.076 367.161L160.704 374.115C160.704 374.115 158.031 375.609 152.58 376.513C148.465 377.196 143.96 376.643 143.96 376.643L143.211 369.714C143.211 369.714 146.224 369.018 151.325 368.347C156.217 367.704 160.076 367.161 160.076 367.161Z" fill="white"/>
</mask>
<g mask="url(#mask16_2001_55)">
<path d="M144.407 371.688L145.014 377.456C145.406 381.19 148.756 383.903 152.49 383.51C156.223 383.118 158.936 379.768 158.544 376.034L157.938 370.266C157.545 366.532 154.195 363.82 150.461 364.212C146.728 364.604 144.015 367.955 144.407 371.688Z" fill="white"/>
</g>
</g>
<mask id="mask17_2001_55" style="mask-type:alpha" maskUnits="userSpaceOnUse" x="128" y="369" width="15" height="10">
<mask id="mask18_2001_55" style="mask-type:luminance" maskUnits="userSpaceOnUse" x="125" y="369" width="19" height="10">
<path d="M125.539 370.928L126.37 377.861C126.37 377.861 129.296 378.766 134.816 378.517C138.983 378.329 143.274 376.851 143.274 376.851L142.566 369.919C142.566 369.919 139.474 369.865 134.345 370.269C129.426 370.657 125.539 370.928 125.539 370.928Z" fill="white"/>
</mask>
<g mask="url(#mask18_2001_55)">
<path d="M141.806 372.098L142.412 377.866C142.805 381.6 140.092 384.95 136.358 385.342C132.625 385.735 129.275 383.022 128.882 379.288L128.276 373.521C127.884 369.787 130.596 366.437 134.33 366.044C138.064 365.652 141.414 368.365 141.806 372.098Z" fill="white"/>
</g>
</mask>
<g mask="url(#mask17_2001_55)">
<path d="M133.188 370.212L133.419 372.861C133.553 374.39 132.42 375.74 130.892 375.874C129.363 376.007 128.013 374.875 127.879 373.346L127.648 370.696C127.514 369.167 128.646 367.818 130.175 367.684C131.704 367.55 133.054 368.683 133.188 370.212Z" fill="#3D3D3D"/>
</g>
<mask id="mask19_2001_55" style="mask-type:alpha" maskUnits="userSpaceOnUse" x="144" y="367" width="15" height="10">
<mask id="mask20_2001_55" style="mask-type:luminance" maskUnits="userSpaceOnUse" x="143" y="367" width="18" height="10">
<path d="M160.076 367.161L160.704 374.115C160.704 374.115 158.031 375.609 152.58 376.513C148.465 377.196 143.96 376.643 143.96 376.643L143.211 369.714C143.211 369.714 146.224 369.018 151.325 368.347C156.217 367.704 160.076 367.161 160.076 367.161Z" fill="white"/>
</mask>
<g mask="url(#mask20_2001_55)">
<path d="M144.407 371.688L145.014 377.456C145.406 381.19 148.756 383.903 152.49 383.51C156.223 383.118 158.936 379.768 158.544 376.034L157.938 370.266C157.545 366.532 154.195 363.82 150.461 364.212C146.728 364.604 144.015 367.955 144.407 371.688Z" fill="white"/>
</g>
</mask>
<g mask="url(#mask19_2001_55)">
<path d="M149.564 368.779L149.796 371.428C149.93 372.957 148.797 374.307 147.269 374.441C145.74 374.574 144.39 373.442 144.256 371.913L144.025 369.263C143.891 367.735 145.023 366.385 146.552 366.251C148.081 366.117 149.431 367.25 149.564 368.779Z" fill="#3D3D3D"/>
</g>
<path d="M135.841 397.732L146.24 388.027L160.212 391.52" stroke="#3D3D3D" stroke-width="15.7037" stroke-linecap="round" stroke-linejoin="round"/>
<path d="M145.262 378.052C147.495 378.052 149.308 379.865 149.308 382.098C149.308 384.331 147.495 386.144 145.262 386.144C143.029 386.144 141.216 384.331 141.216 382.098C141.216 379.865 143.029 378.052 145.262 378.052Z" fill="#DA8E74"/>
<path d="M127.229 359.404C127.229 359.404 128.579 357.564 131.646 357.073C134.937 356.546 137.29 357.932 137.29 357.932" stroke="#3D3D3D" stroke-width="6.87037" stroke-linecap="round"/>
<path d="M146.222 364.866C146.222 364.866 148.116 365.933 151.215 366.145C154.54 366.372 156.355 365.694 156.355 365.694" stroke="#3D3D3D" stroke-width="6.87037" stroke-linecap="round"/>
</g>
</g>
<path d="M277.512 173.975C277.512 167.826 284.024 163.792 289.693 166.175C294.979 168.397 300.638 170.431 303.636 170.431C306.636 170.431 312.294 168.397 317.58 166.175C323.249 163.792 329.762 167.826 329.762 173.975L329.761 193.258C329.761 207.686 318.065 219.382 303.636 219.382C289.208 219.382 277.512 207.686 277.512 193.258V173.975Z" fill="#57CC02"/>
<path d="M297.994 177.725C300.863 180.642 305.922 180.642 309.117 177.725C312.312 174.809 308.636 194.71 308.636 194.659C308.636 194.634 306.929 194.627 303.513 194.638C302.597 194.641 300.948 194.648 298.564 194.659C296.272 181.426 296.082 175.781 297.994 177.725Z" fill="#88E118"/>
<path d="M315.912 170.213L308.171 178.831C307.756 179.293 307.91 180.026 308.476 180.278C311.193 181.49 314.436 180.806 316.481 178.529C318.526 176.252 318.866 172.949 317.379 170.366C317.07 169.829 316.327 169.751 315.912 170.213Z" fill="#8EDF00"/>
<path d="M320.42 172.269L312.679 180.887C312.264 181.349 312.418 182.081 312.984 182.334C315.702 183.546 318.943 182.862 320.988 180.585C323.034 178.308 323.373 175.004 321.887 172.422C321.577 171.885 320.835 171.807 320.42 172.269Z" fill="#8EDF00"/>
<path d="M291.311 170.19L298.814 178.625C299.216 179.077 299.059 179.787 298.505 180.027C295.843 181.18 292.681 180.487 290.699 178.259C288.717 176.03 288.407 172.82 289.877 170.326C290.182 169.806 290.908 169.738 291.311 170.19Z" fill="#88E118"/>
<path d="M286.719 172.277L293.776 180.212C294.155 180.637 294.009 181.304 293.488 181.53C290.983 182.615 288.008 181.964 286.143 179.868C284.279 177.772 283.988 174.751 285.37 172.405C285.658 171.916 286.341 171.851 286.719 172.277Z" fill="#88E118"/>
<path d="M280.094 185.164C280.094 179.376 284.787 174.683 290.574 174.683C296.363 174.683 301.055 179.376 301.055 185.164V190.328C301.055 196.116 296.363 200.808 290.574 200.808C284.787 200.808 280.094 196.116 280.094 190.328V185.164Z" fill="#88E118"/>
<path d="M306.067 185.164C306.067 179.376 310.76 174.683 316.548 174.683C322.335 174.683 327.029 179.376 327.029 185.164V190.328C327.029 196.116 322.335 200.808 316.548 200.808C310.76 200.808 306.067 196.116 306.067 190.328V185.164Z" fill="#88E118"/>
<path d="M316.244 178.329C320.271 178.329 323.535 181.593 323.535 185.62V189.721C323.535 193.747 320.271 197.011 316.244 197.011C312.218 197.011 308.954 193.747 308.954 189.721V185.62C308.954 181.593 312.218 178.329 316.244 178.329Z" fill="white"/>
<path d="M290.878 178.329C294.905 178.329 298.17 181.593 298.17 185.62V189.721C298.17 193.747 294.905 197.011 290.878 197.011C286.852 197.011 283.588 193.747 283.588 189.721V185.62C283.588 181.593 286.852 178.329 290.878 178.329Z" fill="white"/>
<path d="M303.561 190.48C305.533 190.48 307.13 192.078 307.13 194.049V195.264C307.13 197.236 305.533 198.833 303.561 198.833C301.59 198.833 299.992 197.236 299.992 195.264V194.049C299.992 192.078 301.59 190.48 303.561 190.48Z" fill="#F49000"/>
<path d="M308.701 194.432C308.743 194.596 308.631 194.757 308.465 194.786L303.62 195.644L298.776 194.786C298.609 194.757 298.498 194.596 298.54 194.432C299.113 192.161 301.17 190.48 303.62 190.48C306.07 190.48 308.127 192.161 308.701 194.432Z" fill="#FFC200"/>
<path d="M302.563 191.91C302.903 191.763 303.838 191.658 304.538 191.91" stroke="#FFDE00" stroke-width="1.51884" stroke-linecap="round" stroke-linejoin="round"/>
<path d="M310.624 186.683C312.134 186.683 313.358 185.459 313.358 183.949C313.358 183.455 313.227 182.992 312.998 182.592C313.327 182.487 313.678 182.43 314.042 182.43C315.929 182.43 317.459 183.96 317.459 185.847V189.493C317.459 191.38 315.929 192.91 314.042 192.91C312.154 192.91 310.624 191.38 310.624 189.493V186.683Z" fill="#4A4A4A"/>
<path d="M289.666 186.683C291.176 186.683 292.4 185.459 292.4 183.949C292.4 183.455 292.269 182.992 292.04 182.592C292.369 182.487 292.72 182.43 293.084 182.43C294.971 182.43 296.501 183.96 296.501 185.847V189.493C296.501 191.38 294.971 192.91 293.084 192.91C291.196 192.91 289.666 191.38 289.666 189.493V186.683Z" fill="#4A4A4A"/>
<path d="M283.104 190.728C283.104 190.728 282.848 198.975 289.119 198.975C292.402 198.975 295.867 198.157 297.23 196.794C283.762 201.388 283.104 190.728 283.104 190.728Z" fill="#89E219"/>
<path d="M324.17 190.728C324.17 190.728 323.266 198.975 318.21 198.975C314.959 198.975 311.53 198.157 310.18 196.794C322.776 201.388 324.17 190.728 324.17 190.728Z" fill="#89E219"/>
</g>
</g>
</g>
<defs>
<clipPath id="clip0_2001_55">
<rect width="530" height="530" fill="white" transform="translate(0.849609 0.919922)"/>
</clipPath>
<clipPath id="clip1_2001_55">
<rect width="530" height="530" fill="white" transform="translate(0.849609 0.919922)"/>
</clipPath>
</defs>
</svg>
