<svg width="525" height="531" viewBox="0 0 525 531" fill="none" xmlns="http://www.w3.org/2000/svg">
<g clip-path="url(#clip0_2001_1593)">
<g clip-path="url(#clip1_2001_1593)">
<mask id="mask0_2001_1593" style="mask-type:luminance" maskUnits="userSpaceOnUse" x="-6" y="0" width="531" height="531">
<path d="M524.85 0.919922H-5.15039V530.92H524.85V0.919922Z" fill="white"/>
</mask>
<g mask="url(#mask0_2001_1593)">
<mask id="mask1_2001_1593" style="mask-type:luminance" maskUnits="userSpaceOnUse" x="-6" y="0" width="531" height="531">
<path d="M-5.15039 0.919922H524.85V530.92H-5.15039V0.919922Z" fill="white"/>
</mask>
<g mask="url(#mask1_2001_1593)">
<mask id="mask2_2001_1593" style="mask-type:luminance" maskUnits="userSpaceOnUse" x="-6" y="0" width="531" height="531">
<path d="M-5.15039 0.919922H524.85V530.92H-5.15039V0.919922Z" fill="white"/>
</mask>
<g mask="url(#mask2_2001_1593)">
<path d="M147.198 314.928C152.274 309.142 159.989 301.021 164.354 296.859C171.693 289.861 182.626 288.535 189.833 294.22C197.977 300.643 208.004 313.304 208.004 313.304L147.198 314.928Z" fill="#A56FFF"/>
<path d="M150.175 249.998C163.606 258.371 224.209 262.043 234.365 262.917C234.038 256.692 232.725 218.283 231.539 208.968C229.245 190.947 216.035 179.791 199.758 179.371C182.83 178.934 175.392 184.248 167.977 194.333C159.786 205.473 155.417 230.121 150.175 249.998Z" fill="#A56FFF"/>
<path d="M206.075 251.381C206.989 255.34 211.556 277.876 212.876 286.911C214.196 295.945 217.241 310.259 217.241 310.259L197.751 310.36C197.751 310.36 199.21 294.278 198.056 286.505C195.01 265.999 191.66 257.473 189.122 248.945L206.075 251.381Z" fill="#593F86"/>
<mask id="mask3_2001_1593" style="mask-type:luminance" maskUnits="userSpaceOnUse" x="-6" y="0" width="531" height="531">
<path d="M-5.15039 0.919922H524.85V530.92H-5.15039V0.919922Z" fill="white"/>
</mask>
<g mask="url(#mask3_2001_1593)">
<path d="M260.34 302.971C223.535 304.934 80.6064 319.901 78.7661 321.803C76.9258 323.705 75.883 326.097 75.699 328.612C75.5149 331.127 74.1654 354.008 74.0427 356.277C73.92 358.547 74.5335 361.676 75.8217 363.393C77.1098 365.111 175.107 453.894 177.466 455.836C182.68 460.13 192.005 460.683 201.206 458.229C211.931 455.369 382.535 404.922 387.994 403.266C393.454 401.61 394.435 396.518 394.864 392.838C395.294 389.157 398.742 370.38 399.158 367.258C399.404 365.417 399.158 365.172 397.87 363.884C396.582 362.596 297.146 301.008 260.34 302.971Z" fill="#F38DEE"/>
<path d="M280.768 292.113C274.233 293.008 96.5603 317.112 87.1091 318.306C75.454 319.779 75.0859 327.017 81.9563 333.887C88.8267 340.758 173.017 416.433 180.963 423.938C187.588 430.195 196.912 430.563 204.151 428.11C213.678 424.88 389.913 373.799 394.558 371.797C401.674 368.73 400.386 363.577 390.264 356.216C384.644 352.129 303.935 298.904 298.434 294.996C293.772 291.684 289.724 290.886 280.768 292.113Z" fill="#FFB7E3"/>
<path d="M279.149 295.685C272.867 296.545 102.06 319.718 92.9743 320.866C81.7697 322.281 81.1484 326.476 87.5114 332.839C94.1163 339.444 177.308 410.66 184.41 416.956C190.901 422.711 195.931 423.693 205.351 420.843C214.609 418.043 384.28 369.973 388.891 368.425C394.191 366.644 394.681 363.823 383.965 357.31C378.257 353.841 299.968 301.498 295.071 298.15C290.532 295.047 287.758 294.505 279.149 295.685Z" fill="white"/>
<path d="M123.301 327.814C120.908 328.121 110.728 329.975 108.456 330.33C104.53 330.943 105.143 333.274 107.168 334.992C109.979 337.377 182.77 398.805 187.097 402.591C190.042 405.167 194.09 406.026 196.544 405.29C198.998 404.554 209.18 401.732 212.738 400.505C216.296 399.279 215.56 397.07 212.248 394.003C208.935 390.936 136.656 332.375 134.036 330.268C130.907 327.753 127.595 327.264 123.301 327.814Z" fill="#58CC02"/>
<path d="M212.677 312.54C210.646 312.718 208.503 313.008 206.052 313.276C202.126 313.706 208.383 319.533 212.554 319.226C215.513 319.009 217.71 318.694 219.793 318.306C223.15 317.682 217.016 312.161 212.677 312.54Z" fill="#2E67E2"/>
<path d="M227.154 320.024C225.129 320.265 215.233 322.072 212.8 322.478C208.015 323.275 215.745 329.287 221.572 328.305C225.414 327.658 232.745 326.267 234.822 325.852C239.116 324.993 232.307 319.411 227.154 320.024Z" fill="#1FA5F3"/>
<path d="M245.556 326.465C242.305 326.894 217.563 332.194 215.13 332.599C210.345 333.397 218.075 339.408 223.902 338.427C227.744 337.78 250.305 332.918 253.224 332.292C257.518 331.372 250.701 325.785 245.556 326.465Z" fill="#3068E2"/>
<path d="M250.464 336.771C247.213 337.2 237.285 339.278 234.883 339.838C230.405 340.881 237.827 346.647 243.655 345.665C247.496 345.018 255.213 343.224 258.132 342.598C262.426 341.678 255.608 336.091 250.464 336.771Z" fill="#1FA5F3"/>
<path d="M270.462 343.948C267.211 344.377 240.536 350.381 238.134 350.941C233.656 351.983 241.079 357.75 246.906 356.768C250.748 356.121 275.211 350.401 278.13 349.775C282.424 348.855 275.606 343.268 270.462 343.948Z" fill="#3068E2"/>
<path d="M295.612 350.818C292.407 351.513 241.027 363.263 238.625 363.823C234.147 364.865 241.57 370.632 247.397 369.65C251.239 369.003 300.401 357.434 303.28 356.646C307.758 355.419 300.704 349.714 295.612 350.818Z" fill="#1FA5F3"/>
<path d="M287.944 365.847C284.739 366.542 276.666 368.048 274.265 368.607C269.787 369.65 277.209 375.416 283.037 374.435C286.878 373.788 292.733 372.463 295.612 371.674C300.09 370.448 293.036 364.743 287.944 365.847Z" fill="#3068E2"/>
<path d="M297.759 376.582C294.549 377.253 295.796 377.011 292.054 377.87C287.573 378.899 295.074 385.051 300.826 383.697C302.912 383.207 304.437 382.753 305.427 382.409C310.028 380.814 301.869 375.723 297.759 376.582Z" fill="#3068E2"/>
<path d="M285.298 306.891C284.21 307.476 284.08 308.614 285.491 309.657C289.678 312.752 336.206 345.136 346.404 351.615C352.293 355.357 355.317 354.976 356.777 353.942C358.243 352.904 357.568 351.125 353.09 348.119C348.767 345.217 299.048 312.05 292.729 307.94C290.815 306.695 287.454 305.731 285.298 306.891ZM285.298 306.891C284.21 307.476 284.08 308.614 285.491 309.657C289.678 312.752 316.224 331.188 325.916 337.875C331.659 341.837 334.828 341.235 336.289 340.201C337.755 339.163 337.08 337.384 332.602 334.378C328.279 331.476 299.048 312.05 292.729 307.94C290.815 306.695 287.454 305.731 285.298 306.891Z" fill="#D7E8E5"/>
<path d="M285.298 306.891C284.21 307.476 284.08 308.614 285.491 309.657C289.678 312.752 316.224 331.188 325.916 337.875C331.659 341.837 334.828 341.235 336.289 340.201C337.755 339.163 337.08 337.384 332.602 334.378C328.279 331.476 299.048 312.05 292.729 307.94C290.815 306.695 287.454 305.731 285.298 306.891Z" fill="#58CC02"/>
</g>
<mask id="mask4_2001_1593" style="mask-type:luminance" maskUnits="userSpaceOnUse" x="-277" y="-5" width="531" height="531">
<path d="M253.47 -4.47827H-276.53V525.522H253.47V-4.47827Z" fill="white"/>
</mask>
<g mask="url(#mask4_2001_1593)">
<path d="M131.736 144.635C131.736 151.862 137.594 157.719 144.82 157.719C152.047 157.719 157.904 151.862 157.904 144.635C157.904 137.409 152.047 131.551 144.82 131.551C137.594 131.551 131.736 137.409 131.736 144.635Z" fill="#58CC02"/>
</g>
<mask id="mask5_2001_1593" style="mask-type:luminance" maskUnits="userSpaceOnUse" x="-6" y="0" width="531" height="531">
<path d="M-5.15039 0.919922H524.85V530.92H-5.15039V0.919922Z" fill="white"/>
</mask>
<g mask="url(#mask5_2001_1593)">
<path d="M127.756 223.788C127.756 225.41 126.441 226.725 124.819 226.725C123.197 226.725 121.883 225.41 121.883 223.788C121.883 222.166 123.197 220.851 124.819 220.851C126.441 220.851 127.756 222.166 127.756 223.788Z" fill="#58CC02"/>
</g>
<path d="M193.588 259.706C192.166 262.243 183.129 270.362 169.627 272.389C156.125 274.416 129.734 269.232 119.892 248.825C123.04 245.374 131.67 240.504 136.341 236.648C137.762 237.968 151.056 251.27 162.729 254.217C174.402 257.163 178.463 257.367 190.849 252.599C191.457 254.528 193.588 259.706 193.588 259.706Z" fill="#593F86"/>
<path d="M205.364 255.239C208.917 259.503 226.073 286.404 228.408 289.145C230.743 291.885 231.656 299.397 227.494 300.818C223.332 302.24 210.745 306.605 205.872 308.127C201 309.65 196.666 312.723 194.807 317.06C193.589 319.903 191.762 319.903 189.529 319.903C187.375 319.903 166.21 317.752 167.906 311.477C168.921 307.722 189.325 300.007 198.766 295.642C208.207 291.277 198.766 259.706 199.274 259.503C199.781 259.3 205.364 255.239 205.364 255.239Z" fill="#593F86"/>
<path d="M211.028 252.649C216.528 252.866 222.366 248.273 222.698 243.168C223.029 238.063 224.554 212.271 224.819 207.629C225.085 202.988 219.003 185.075 202.011 184.357C187.888 183.76 176.949 188.601 175.888 194.369C175.253 197.818 168.196 238.394 167.798 241.51C167.401 244.627 168.992 247.677 173.301 248.141C177.611 248.604 205.989 252.45 211.028 252.649Z" fill="#FFC4B4"/>
<path d="M223.038 200.355C225.908 216.688 220.936 264.17 220.854 266.945C220.772 269.721 222.16 269.965 222.976 269.965C223.688 269.965 230.95 269.215 234.262 266.805C235.014 266.258 235.433 265.366 235.392 264.437C235.032 256.142 232.56 217.175 231.792 211.111C230.976 204.663 230.568 202.703 229.099 199.928C227.629 197.152 223.038 200.355 223.038 200.355Z" fill="#A56FFF"/>
<mask id="mask6_2001_1593" style="mask-type:luminance" maskUnits="userSpaceOnUse" x="-35" y="-22" width="588" height="588">
<path d="M26.0771 -21.0549L552.648 39.1451L492.448 565.716L-34.1228 505.516L26.0771 -21.0549Z" fill="white"/>
</mask>
<g mask="url(#mask6_2001_1593)">
<path d="M190.027 224.899C190.004 226.841 191.727 230.438 193.941 230.514C196.154 230.59 201.574 230.688 203.379 230.751C205.593 230.827 208.517 227.964 208.685 225.405C208.804 223.601 209.223 216.512 209.336 213.208C209.368 212.289 208.332 211.539 207.413 211.507C204.462 211.405 199.646 211.271 197.807 211.271C194.028 211.271 190.641 215.027 190.47 217.561C190.344 219.427 190.05 222.931 190.027 224.899Z" fill="#F0F2F8"/>
<path d="M187.947 223.61C187.875 225.089 185.948 229.285 183.716 229.208C181.483 229.132 176.025 228.851 174.204 228.788C171.971 228.712 169.041 225.525 169.134 222.812C169.221 220.266 169.595 213.28 169.715 209.783C169.748 208.81 170.603 208.217 171.529 208.249C174.506 208.351 179.038 208.372 180.888 208.502C184.123 208.73 188.169 213.218 188.069 216.127C188.001 218.106 188.047 221.529 187.947 223.61Z" fill="#F0F2F8"/>
</g>
<mask id="mask7_2001_1593" style="mask-type:alpha" maskUnits="userSpaceOnUse" x="169" y="208" width="41" height="23">
<mask id="mask8_2001_1593" style="mask-type:luminance" maskUnits="userSpaceOnUse" x="-35" y="-22" width="588" height="588">
<path d="M26.0771 -21.0549L552.648 39.1451L492.448 565.716L-34.1228 505.516L26.0771 -21.0549Z" fill="white"/>
</mask>
<g mask="url(#mask8_2001_1593)">
<path d="M190.027 224.899C190.004 226.841 191.727 230.438 193.941 230.514C196.154 230.59 201.574 230.688 203.379 230.751C205.593 230.827 208.517 227.964 208.685 225.405C208.804 223.601 209.223 216.512 209.336 213.208C209.368 212.289 208.332 211.539 207.413 211.507C204.462 211.405 199.646 211.271 197.807 211.271C194.028 211.271 190.641 215.027 190.47 217.561C190.344 219.427 190.05 222.931 190.027 224.899Z" fill="#F0F2F8"/>
<path d="M187.947 223.61C187.875 225.089 185.948 229.285 183.716 229.208C181.483 229.132 176.025 228.851 174.204 228.788C171.971 228.712 169.041 225.525 169.134 222.812C169.221 220.266 169.595 213.28 169.715 209.783C169.748 208.81 170.603 208.217 171.529 208.249C174.506 208.351 179.038 208.372 180.888 208.502C184.123 208.73 188.169 213.218 188.069 216.127C188.001 218.106 188.047 221.529 187.947 223.61Z" fill="#F0F2F8"/>
</g>
</mask>
<g mask="url(#mask7_2001_1593)">
<path d="M203.32 223.504L203.478 218.304L203.32 223.504Z" fill="#F0F2F8"/>
<path d="M203.32 223.504L203.478 218.304" stroke="#3D3D3D" stroke-width="6.63482" stroke-linecap="round" stroke-linejoin="round"/>
</g>
<mask id="mask9_2001_1593" style="mask-type:alpha" maskUnits="userSpaceOnUse" x="169" y="208" width="41" height="23">
<mask id="mask10_2001_1593" style="mask-type:luminance" maskUnits="userSpaceOnUse" x="-35" y="-22" width="588" height="588">
<path d="M26.0771 -21.0549L552.648 39.1451L492.448 565.716L-34.1228 505.516L26.0771 -21.0549Z" fill="white"/>
</mask>
<g mask="url(#mask10_2001_1593)">
<path d="M190.027 224.899C190.004 226.841 191.727 230.438 193.941 230.514C196.154 230.59 201.574 230.688 203.379 230.751C205.593 230.827 208.517 227.964 208.685 225.405C208.804 223.601 209.223 216.512 209.336 213.208C209.368 212.289 208.332 211.539 207.413 211.507C204.462 211.405 199.646 211.271 197.807 211.271C194.028 211.271 190.641 215.027 190.47 217.561C190.344 219.427 190.05 222.931 190.027 224.899Z" fill="#F0F2F8"/>
<path d="M187.947 223.61C187.875 225.089 185.948 229.285 183.716 229.208C181.483 229.132 176.025 228.851 174.204 228.788C171.971 228.712 169.041 225.525 169.134 222.812C169.221 220.266 169.595 213.28 169.715 209.783C169.748 208.81 170.603 208.217 171.529 208.249C174.506 208.351 179.038 208.372 180.888 208.502C184.123 208.73 188.169 213.218 188.069 216.127C188.001 218.106 188.047 221.529 187.947 223.61Z" fill="#F0F2F8"/>
</g>
</mask>
<g mask="url(#mask9_2001_1593)">
<path d="M184.479 222.269L184.649 217.069L184.479 222.269Z" fill="#F0F2F8"/>
<path d="M184.479 222.269L184.649 217.069" stroke="#3D3D3D" stroke-width="6.63483" stroke-linecap="round" stroke-linejoin="round"/>
</g>
<mask id="mask11_2001_1593" style="mask-type:alpha" maskUnits="userSpaceOnUse" x="169" y="208" width="41" height="23">
<mask id="mask12_2001_1593" style="mask-type:luminance" maskUnits="userSpaceOnUse" x="-35" y="-22" width="588" height="588">
<path d="M26.0771 -21.0549L552.648 39.1451L492.448 565.716L-34.1228 505.516L26.0771 -21.0549Z" fill="white"/>
</mask>
<g mask="url(#mask12_2001_1593)">
<path d="M190.027 224.899C190.004 226.841 191.727 230.438 193.941 230.514C196.154 230.59 201.574 230.688 203.379 230.751C205.593 230.827 208.517 227.964 208.685 225.405C208.804 223.601 209.223 216.512 209.336 213.208C209.368 212.289 208.332 211.539 207.413 211.507C204.462 211.405 199.646 211.271 197.807 211.271C194.028 211.271 190.641 215.027 190.47 217.561C190.344 219.427 190.05 222.931 190.027 224.899Z" fill="#F0F2F8"/>
<path d="M187.947 223.61C187.875 225.089 185.948 229.285 183.716 229.208C181.483 229.132 176.025 228.851 174.204 228.788C171.971 228.712 169.041 225.525 169.134 222.812C169.221 220.266 169.595 213.28 169.715 209.783C169.748 208.81 170.603 208.217 171.529 208.249C174.506 208.351 179.038 208.372 180.888 208.502C184.123 208.73 188.169 213.218 188.069 216.127C188.001 218.106 188.047 221.529 187.947 223.61Z" fill="#F0F2F8"/>
</g>
</mask>
<g mask="url(#mask11_2001_1593)">
<path d="M189.361 223.767L209.406 224.546C209.406 224.546 217.501 210.522 211.137 210.522C204.774 210.522 194.859 210.522 191.959 210.522C189.058 210.522 189.491 223.896 189.361 223.767Z" fill="#A56FFF"/>
</g>
<mask id="mask13_2001_1593" style="mask-type:alpha" maskUnits="userSpaceOnUse" x="169" y="208" width="41" height="23">
<mask id="mask14_2001_1593" style="mask-type:luminance" maskUnits="userSpaceOnUse" x="-35" y="-22" width="588" height="588">
<path d="M26.0771 -21.0549L552.648 39.1451L492.448 565.716L-34.1228 505.516L26.0771 -21.0549Z" fill="white"/>
</mask>
<g mask="url(#mask14_2001_1593)">
<path d="M190.027 224.899C190.004 226.841 191.727 230.438 193.941 230.514C196.154 230.59 201.574 230.688 203.379 230.751C205.593 230.827 208.517 227.964 208.685 225.405C208.804 223.601 209.223 216.512 209.336 213.208C209.368 212.289 208.332 211.539 207.413 211.507C204.462 211.405 199.646 211.271 197.807 211.271C194.028 211.271 190.641 215.027 190.47 217.561C190.344 219.427 190.05 222.931 190.027 224.899Z" fill="#F0F2F8"/>
<path d="M187.947 223.61C187.875 225.089 185.948 229.285 183.716 229.208C181.483 229.132 176.025 228.851 174.204 228.788C171.971 228.712 169.041 225.525 169.134 222.812C169.221 220.266 169.595 213.28 169.715 209.783C169.748 208.81 170.603 208.217 171.529 208.249C174.506 208.351 179.038 208.372 180.888 208.502C184.123 208.73 188.169 213.218 188.069 216.127C188.001 218.106 188.047 221.529 187.947 223.61Z" fill="#F0F2F8"/>
</g>
</mask>
<g mask="url(#mask13_2001_1593)">
<path d="M187.659 223.528C182.896 223.322 172.332 222.824 170.513 222.742C168.695 222.659 170.658 209.367 171.953 207.372C173.248 205.378 177.97 207.273 179.962 207.269C181.953 207.265 189.618 208.417 188.678 214.35C187.739 220.283 187.659 223.528 187.659 223.528Z" fill="#A56FFF"/>
</g>
<path d="M202.123 231.679C199.212 232.35 197 233.327 194.504 235.763C192.009 238.199 198.683 243.083 204.254 240.745C209.825 238.407 212.881 233.492 211.518 232.671C209.378 231.382 205.545 230.89 202.123 231.679Z" fill="#FFC4B4"/>
<path d="M195.118 239.424C196.9 237.476 199.075 236.552 202.571 236.463" stroke="#FA907E" stroke-width="2.04148" stroke-linecap="round" stroke-linejoin="round"/>
<path d="M225.099 211.356L196.885 209.518C188.446 209.036 181.68 201.999 182.162 193.561L181.265 185.806C181.265 185.806 183.645 183.826 198.033 183.76C212.421 183.693 224.5 190.312 225.099 211.356Z" fill="#A56FFF"/>
<path d="M230.065 218.702C230.065 222.845 226.707 226.203 222.564 226.203C218.421 226.203 215.062 222.845 215.062 218.702C215.062 214.559 218.421 211.2 222.564 211.2C226.707 211.2 230.065 214.559 230.065 218.702Z" fill="#FFC4B4"/>
<path d="M188.167 225.874C186.649 226.722 183.794 229.244 183.742 230.813C183.682 232.643 185.054 234.08 186.984 234.08C189.196 234.08 190.174 232.022 190.174 230.787C190.174 229.552 188.959 226.863 188.167 225.874Z" fill="#FA907E"/>
<path d="M182.569 190.867C181.707 200.818 172.302 254.436 172.025 256.649C171.666 259.519 170.805 261.852 168.33 261.421C166.234 261.057 157.356 259.332 150.768 251.694C150.212 251.049 149.948 250.2 150.065 249.357C150.85 243.717 156.297 223.608 158.811 215.407C160.619 209.512 164.916 197.218 171.021 191.487C174.443 188.274 183.175 183.881 182.569 190.867Z" fill="#A56FFF"/>
<mask id="mask15_2001_1593" style="mask-type:luminance" maskUnits="userSpaceOnUse" x="-6" y="0" width="531" height="531">
<path d="M-5.15137 0.919922H524.849V530.921H-5.15137V0.919922Z" fill="white"/>
</mask>
<g mask="url(#mask15_2001_1593)">
<path d="M133.112 234.732C132.075 235.96 130.136 237.215 128.717 237.897" stroke="#F7AFB1" stroke-width="6.63481" stroke-linecap="round" stroke-linejoin="round"/>
<path d="M114.73 234.346C115.519 234.54 116.594 234.913 117.039 235.056" stroke="#F7AFB1" stroke-width="5.61407" stroke-linecap="round" stroke-linejoin="round"/>
<path d="M115.325 240.758C116.138 240.763 117.047 240.805 117.513 240.841" stroke="#F7AFB1" stroke-width="5.61407" stroke-linecap="round" stroke-linejoin="round"/>
<path d="M114.901 245.853C114.438 245.999 112.916 246.682 112.202 246.861" stroke="#F7AFB1" stroke-width="5.61407" stroke-linecap="round" stroke-linejoin="round"/>
<path d="M124.374 226.069C128.132 226.07 132.24 226.596 132.299 231.002C132.356 235.288 132.648 242.979 132.647 244.271C132.647 245.562 133.234 248.38 134.114 249.614C134.994 250.847 138.222 254.312 141.744 257.013C145.266 259.714 146.967 263.179 146.967 266.467C146.966 268.346 144.966 273.44 135.164 275.27C127.942 276.618 122.012 276.91 114.85 276.087C108.645 275.373 103.681 272.444 103.639 268.804C103.581 263.872 105.523 260.748 109.513 257.122C112.743 254.187 114.749 252.168 115.855 250.842C117.323 249.081 117.382 247.261 117.383 244.325C117.384 241.801 116.271 232.055 116.271 230.881C116.272 226.713 120.91 226.068 124.374 226.069Z" fill="#E4F5FF"/>
<mask id="mask16_2001_1593" style="mask-type:luminance" maskUnits="userSpaceOnUse" x="-15" y="-3" width="552" height="552">
<path d="M7.06738 -2.94116L536.624 18.7631L514.919 548.319L-14.6369 526.615L7.06738 -2.94116Z" fill="white"/>
</mask>
<g mask="url(#mask16_2001_1593)">
<path d="M133.567 257.518C129.813 256.432 120.888 256.746 117.515 257.046C114.582 257.306 112.588 258.181 110.276 260.01C106.11 263.305 107.016 269.085 111.758 270.905C116.076 272.562 129.658 272.6 135.637 271.469C142.833 270.109 143.32 264.402 140.79 261.789C139.032 259.972 136.531 258.375 133.567 257.518Z" fill="#4AAF22"/>
</g>
<mask id="mask17_2001_1593" style="mask-type:alpha" maskUnits="userSpaceOnUse" x="107" y="256" width="36" height="17">
<mask id="mask18_2001_1593" style="mask-type:luminance" maskUnits="userSpaceOnUse" x="-15" y="-3" width="552" height="552">
<path d="M7.06738 -2.94116L536.624 18.7631L514.919 548.319L-14.6369 526.615L7.06738 -2.94116Z" fill="white"/>
</mask>
<g mask="url(#mask18_2001_1593)">
<path d="M133.567 257.518C129.813 256.432 120.888 256.746 117.515 257.046C114.582 257.306 112.588 258.181 110.276 260.01C106.11 263.305 107.016 269.085 111.758 270.905C116.076 272.562 129.658 272.6 135.637 271.469C142.833 270.109 143.32 264.402 140.79 261.789C139.032 259.972 136.531 258.375 133.567 257.518Z" fill="#4AAF22"/>
</g>
</mask>
<g mask="url(#mask17_2001_1593)">
<path d="M123.606 246.016C116.923 245.707 116.227 249.892 114.611 252.217C112.113 255.81 111.191 260.42 115.156 261.317C120.669 262.564 131.946 262.041 135.865 260.99C138.276 260.343 140.651 256.632 137.892 253.442C135.134 250.251 130.29 246.324 123.606 246.016Z" fill="#58CC02"/>
</g>
</g>
</g>
<mask id="mask19_2001_1593" style="mask-type:luminance" maskUnits="userSpaceOnUse" x="-6" y="0" width="531" height="531">
<path d="M-5.15039 0.919922H524.85V530.92H-5.15039V0.919922Z" fill="white"/>
</mask>
<g mask="url(#mask19_2001_1593)">
<path d="M386.461 153.05L351.128 156.975L336.16 210.957L381.799 190.837L386.461 153.05Z" fill="#F38DEE"/>
<path d="M323.881 312.999C325.065 314.183 352.809 331.919 352.809 331.919L405.455 221.691L367.067 226.626C367.067 226.626 325.115 306.555 324.155 308.338C323.196 310.12 323.196 312.314 323.881 312.999Z" fill="#9CD9FF"/>
<path d="M371.168 344.516C372.647 344.22 373.535 343.481 374.867 341.409C376.198 339.338 423.398 247.01 427.393 234.877C431.388 222.743 428.029 213.243 423.959 208.539C419.697 203.613 413.768 199.3 406.947 199.056C402.783 198.906 340.391 204.529 340.391 204.529L336.857 233.775C336.857 233.775 396.47 224.994 399.678 224.474C402.123 223.971 403.179 225.167 402.53 226.871C397.24 240.923 353.999 325.628 352.969 327.945C351.785 330.608 351.933 332.975 352.821 333.271C353.708 333.567 371.168 344.516 371.168 344.516Z" fill="#55AFF9"/>
<path d="M384.124 280.189C389.707 268.877 399.527 255.64 409.636 252.655C414.45 251.307 418.108 252.559 420.226 253.329C422.345 254.099 435.63 259.394 437.556 260.261C439.482 261.127 404.534 340.553 400.875 339.302C397.217 338.05 382.391 330.926 380.08 329.289C377.77 327.652 374.836 324.474 374.689 319.662C374.4 310.227 376.711 295.208 384.124 280.189Z" fill="#088DE3"/>
<path d="M399.101 290.318C388.814 310.528 385.652 332.625 398.786 338.523C410.507 343.786 426.931 331.237 436.382 309.633C445.613 288.534 450.177 266.244 439.052 260.892C425.175 254.216 410.728 267.475 399.101 290.318Z" fill="#264AA0"/>
<mask id="mask20_2001_1593" style="mask-type:luminance" maskUnits="userSpaceOnUse" x="-6" y="0" width="531" height="531">
<path d="M-5.15039 0.919922H524.85V530.92H-5.15039V0.919922Z" fill="white"/>
</mask>
<g mask="url(#mask20_2001_1593)">
<path d="M353.424 256.671L365.97 251.951" stroke="#FF86D0" stroke-width="13.2696" stroke-linecap="round" stroke-linejoin="round"/>
<path d="M386.041 159.66C386.031 162.604 384.552 165.129 383.073 167.087C381.593 169.045 361.154 190.075 357.706 193.744C354.258 197.412 352.258 204.97 359.423 212.185C364.028 216.822 369.714 215.71 373.406 212.287C377.099 208.865 395.506 189.628 395.506 189.628C395.506 189.628 386.051 156.715 386.041 159.66Z" fill="#F38DEE"/>
<path d="M357.373 193.793C354.911 196.053 353.764 197.539 353.207 201.607C352.845 204.251 349.022 233.312 349.012 236.011C349.002 238.71 349.729 241.166 352.917 241.546C356.106 241.926 368.616 242.832 371.315 242.965C374.014 243.098 375.739 240.896 375.994 238.443C376.249 235.99 378.44 200.749 378.45 198.05C378.46 195.351 376.194 190.961 372.306 190.835C368.302 190.706 360.197 191.201 357.373 193.793Z" fill="#F38DEE"/>
</g>
<path d="M362.945 131.499C362.943 129.004 362.942 127.403 362.942 127.403C362.942 127.403 387.575 110.622 387.755 110.442L386.566 157.584C386.566 157.584 378.8 161.57 362.968 159.064C362.964 154.565 362.951 138.995 362.945 131.499Z" fill="#3067E2"/>
<path d="M383.034 159.46C389.729 160.042 388.778 142.648 383.004 141.848C374.867 140.72 366.263 136.466 366.263 136.466L361.52 149.79C361.52 149.79 376.34 158.878 383.034 159.46Z" fill="#C2E2F6"/>
<path d="M382.582 121.264C382.582 121.264 382.539 126.323 382.475 134.116C382.278 158.083 381.876 207.922 381.883 216.084C392.702 219.48 409.132 215.588 413.839 204.737C413.954 190.638 407.453 149.457 400.513 126.317C399.489 123.367 396.198 120.988 394.155 120.989C392.113 120.991 382.375 121.057 382.582 121.264Z" fill="#C2E2F6"/>
<mask id="mask21_2001_1593" style="mask-type:luminance" maskUnits="userSpaceOnUse" x="-119" y="-113" width="670" height="670">
<path d="M47.0703 -112.522L550.474 53.2654L384.687 556.669L-118.717 390.882L47.0703 -112.522Z" fill="white"/>
</mask>
<g mask="url(#mask21_2001_1593)">
<path d="M407.414 102.109C400.888 121.92 379.538 132.69 359.726 126.164C339.915 119.638 329.145 98.2873 335.671 78.4761C342.197 58.6649 363.548 47.8951 383.359 54.4211C403.17 60.9471 413.94 82.2977 407.414 102.109Z" fill="#E37BDC"/>
</g>
<mask id="mask22_2001_1593" style="mask-type:alpha" maskUnits="userSpaceOnUse" x="333" y="52" width="77" height="77">
<mask id="mask23_2001_1593" style="mask-type:luminance" maskUnits="userSpaceOnUse" x="-119" y="-113" width="670" height="670">
<path d="M47.0703 -112.522L550.474 53.2654L384.687 556.669L-118.717 390.882L47.0703 -112.522Z" fill="white"/>
</mask>
<g mask="url(#mask23_2001_1593)">
<path d="M407.414 102.109C400.888 121.92 379.538 132.69 359.726 126.164C339.915 119.638 329.145 98.2873 335.671 78.4761C342.197 58.6649 363.548 47.8951 383.359 54.4211C403.17 60.9471 413.94 82.2977 407.414 102.109Z" fill="#E37BDC"/>
</g>
</mask>
<g mask="url(#mask22_2001_1593)">
<path d="M406.726 67.1467C405.642 80.2235 397.151 97.8456 391.522 103.514C385.569 109.509 365.117 121.684 323.446 112.793C281.775 103.902 323.962 46.3861 351.34 41.9166C385.152 36.3968 407.769 54.5638 406.726 67.1467Z" fill="#FFB7E3"/>
</g>
<mask id="mask24_2001_1593" style="mask-type:luminance" maskUnits="userSpaceOnUse" x="-6" y="0" width="532" height="532">
<path d="M-5.18945 1.05566L524.811 0.8649L525.002 530.866L-4.99869 531.056L-5.18945 1.05566Z" fill="white"/>
</mask>
<g mask="url(#mask24_2001_1593)">
<path d="M386.859 84.5042C393.367 100.705 388.097 116.702 375.839 121.64C363.031 126.8 348.345 119.205 341.062 104.576C333.936 90.2628 339.639 73.7178 352.084 67.4404C364.528 61.163 380.352 68.303 386.859 84.5042Z" fill="#E08E70"/>
</g>
<mask id="mask25_2001_1593" style="mask-type:alpha" maskUnits="userSpaceOnUse" x="337" y="65" width="53" height="59">
<mask id="mask26_2001_1593" style="mask-type:luminance" maskUnits="userSpaceOnUse" x="-6" y="0" width="532" height="532">
<path d="M-5.18945 1.05566L524.811 0.8649L525.002 530.866L-4.99869 531.056L-5.18945 1.05566Z" fill="white"/>
</mask>
<g mask="url(#mask26_2001_1593)">
<path d="M386.859 84.5042C393.367 100.705 388.097 116.702 375.839 121.64C363.031 126.8 348.345 119.205 341.062 104.576C333.936 90.2628 339.639 73.7178 352.084 67.4404C364.528 61.163 380.352 68.303 386.859 84.5042Z" fill="#E08E70"/>
</g>
</mask>
<g mask="url(#mask25_2001_1593)">
<mask id="mask27_2001_1593" style="mask-type:luminance" maskUnits="userSpaceOnUse" x="-130" y="-137" width="688" height="688">
<path d="M64.2793 -136.409L557.471 57.6593L363.403 550.851L-129.789 356.783L64.2793 -136.409Z" fill="white"/>
</mask>
<g mask="url(#mask27_2001_1593)">
<path d="M351.582 90.3926C348.382 89.3323 344.77 89.0814 342.809 90.6073C340.873 92.115 339.928 96.0755 341.457 98.2509C342.427 99.6314 344.308 98.7291 347.352 99.6783C350.076 100.528 352.764 103.35 355.056 102.546C358.296 101.409 359.342 97.6519 356.648 93.9729C355.353 92.2043 353.869 91.1502 351.582 90.3926Z" fill="#F0F2F8"/>
<path d="M367.806 88.4996C365.491 89.3692 362.971 91.0041 361.377 94.6062C360.283 97.0758 361.147 100.91 363.884 101.946C365.621 102.604 368.152 100.079 371.548 99.1958C374.666 98.3849 377.332 99.6029 378.922 97.4551C381.171 94.4184 379.815 90.3253 375.077 88.673C371.991 87.5971 370.289 87.5674 367.806 88.4996Z" fill="#F0F2F8"/>
</g>
</g>
<mask id="mask28_2001_1593" style="mask-type:alpha" maskUnits="userSpaceOnUse" x="340" y="87" width="40" height="16">
<mask id="mask29_2001_1593" style="mask-type:luminance" maskUnits="userSpaceOnUse" x="-130" y="-137" width="688" height="688">
<path d="M64.2793 -136.409L557.471 57.6593L363.403 550.851L-129.789 356.783L64.2793 -136.409Z" fill="white"/>
</mask>
<g mask="url(#mask29_2001_1593)">
<path d="M351.582 90.3926C348.382 89.3323 344.77 89.0814 342.809 90.6073C340.873 92.115 339.928 96.0755 341.457 98.2509C342.427 99.6314 344.308 98.7291 347.352 99.6783C350.076 100.528 352.764 103.35 355.056 102.546C358.296 101.409 359.342 97.6519 356.648 93.9729C355.353 92.2043 353.869 91.1502 351.582 90.3926Z" fill="#F0F2F8"/>
<path d="M367.806 88.4996C365.491 89.3692 362.971 91.0041 361.377 94.6062C360.283 97.0758 361.147 100.91 363.884 101.946C365.621 102.604 368.152 100.079 371.548 99.1958C374.666 98.3849 377.332 99.6029 378.922 97.4551C381.171 94.4184 379.815 90.3253 375.077 88.673C371.991 87.5971 370.289 87.5674 367.806 88.4996Z" fill="#F0F2F8"/>
</g>
</mask>
<g mask="url(#mask28_2001_1593)">
<path d="M364.24 99.1824L364.133 95.7232C364.063 93.4334 365.861 91.5202 368.151 91.4495C370.441 91.3789 372.354 93.1775 372.425 95.4673L372.532 98.9266C372.602 101.216 370.804 103.13 368.514 103.2C366.224 103.271 364.311 101.472 364.24 99.1824Z" fill="#10021B"/>
<path d="M364.229 94.2446L364.191 93.0142C364.166 92.1997 364.805 91.5196 365.62 91.4944C366.434 91.4693 367.115 92.1087 367.14 92.9232L367.178 94.1536C367.203 94.968 366.563 95.6485 365.749 95.6737C364.934 95.6988 364.254 95.0591 364.229 94.2446Z" fill="#F0F2F8"/>
</g>
<mask id="mask30_2001_1593" style="mask-type:alpha" maskUnits="userSpaceOnUse" x="337" y="65" width="53" height="59">
<mask id="mask31_2001_1593" style="mask-type:luminance" maskUnits="userSpaceOnUse" x="-6" y="0" width="532" height="532">
<path d="M-5.18945 1.05566L524.811 0.8649L525.002 530.866L-4.99869 531.056L-5.18945 1.05566Z" fill="white"/>
</mask>
<g mask="url(#mask31_2001_1593)">
<path d="M386.859 84.5042C393.367 100.705 388.097 116.702 375.839 121.64C363.031 126.8 348.345 119.205 341.062 104.576C333.936 90.2628 339.639 73.7178 352.084 67.4404C364.528 61.163 380.352 68.303 386.859 84.5042Z" fill="#E08E70"/>
</g>
</mask>
<g mask="url(#mask30_2001_1593)">
<path d="M377.826 106.34C375.499 105.022 372.206 104.57 368.079 105.863C365.939 106.532 361.293 108.228 360.593 110.907C359.892 113.587 362.27 120.205 362.27 120.205L378.727 120.796C378.727 120.796 380.153 107.657 377.826 106.34Z" fill="#E08E70"/>
<path d="M380.894 87.4041C379.68 85.1333 373.398 82.4392 369.52 83.5141C366.002 84.4892 361.668 87.2721 360.674 90.1882C359.78 92.8096 361.515 73.3991 361.515 73.3991L381.905 72.9395C381.905 72.9395 383.214 91.7455 380.894 87.4041Z" fill="#E08E70"/>
</g>
<mask id="mask32_2001_1593" style="mask-type:alpha" maskUnits="userSpaceOnUse" x="340" y="87" width="40" height="16">
<mask id="mask33_2001_1593" style="mask-type:luminance" maskUnits="userSpaceOnUse" x="-130" y="-137" width="688" height="688">
<path d="M64.2793 -136.409L557.471 57.6593L363.403 550.851L-129.789 356.783L64.2793 -136.409Z" fill="white"/>
</mask>
<g mask="url(#mask33_2001_1593)">
<path d="M351.582 90.3926C348.382 89.3323 344.77 89.0814 342.809 90.6073C340.873 92.115 339.928 96.0755 341.457 98.2509C342.427 99.6314 344.308 98.7291 347.352 99.6783C350.076 100.528 352.764 103.35 355.056 102.546C358.296 101.409 359.342 97.6519 356.648 93.9729C355.353 92.2043 353.869 91.1502 351.582 90.3926Z" fill="#F0F2F8"/>
<path d="M367.806 88.4996C365.491 89.3692 362.971 91.0041 361.377 94.6062C360.283 97.0758 361.147 100.91 363.884 101.946C365.621 102.604 368.152 100.079 371.548 99.1958C374.666 98.3849 377.332 99.6029 378.922 97.4551C381.171 94.4184 379.815 90.3253 375.077 88.673C371.991 87.5971 370.289 87.5674 367.806 88.4996Z" fill="#F0F2F8"/>
</g>
</mask>
<g mask="url(#mask32_2001_1593)">
<path d="M345.319 99.182L345.122 95.7268C344.992 93.4396 346.739 91.48 349.027 91.3494C351.314 91.2188 353.273 92.9667 353.404 95.2539L353.601 98.7092C353.732 100.996 351.984 102.956 349.697 103.087C347.41 103.217 345.45 101.469 345.319 99.182Z" fill="#10021B"/>
<path d="M344.906 93.7141L344.831 92.4041C344.781 91.5365 345.444 90.793 346.312 90.7435C347.18 90.6939 347.923 91.3568 347.972 92.2244L348.047 93.5351C348.097 94.4027 347.434 95.1458 346.566 95.1953C345.699 95.2449 344.955 94.5817 344.906 93.7141Z" fill="#F0F2F8"/>
</g>
<mask id="mask34_2001_1593" style="mask-type:alpha" maskUnits="userSpaceOnUse" x="337" y="65" width="53" height="59">
<mask id="mask35_2001_1593" style="mask-type:luminance" maskUnits="userSpaceOnUse" x="-6" y="0" width="532" height="532">
<path d="M-5.18945 1.05566L524.811 0.8649L525.002 530.866L-4.99869 531.056L-5.18945 1.05566Z" fill="white"/>
</mask>
<g mask="url(#mask35_2001_1593)">
<path d="M386.859 84.5042C393.367 100.705 388.097 116.702 375.839 121.64C363.031 126.8 348.345 119.205 341.062 104.576C333.936 90.2628 339.639 73.7178 352.084 67.4404C364.528 61.163 380.352 68.303 386.859 84.5042Z" fill="#E08E70"/>
</g>
</mask>
<g mask="url(#mask34_2001_1593)">
<path d="M359.589 106.127C357.052 105.278 353.045 105.667 348.759 106.679C346.513 107.21 342.066 108.983 341.751 110.787C341.273 113.515 345.917 122.357 345.917 122.357L362.185 119.797C362.185 119.797 362.125 106.977 359.589 106.127Z" fill="#E08E70"/>
<path d="M357.733 87.1361C355.693 84.8865 351.09 83.6537 346.033 84.9508C342.198 85.9343 339.686 89.8785 339.266 92.9307C338.889 95.6745 336.244 76.5492 336.244 76.5492L356.172 72.2074C356.172 72.2074 361.04 90.7825 357.733 87.1361Z" fill="#E08E70"/>
</g>
<path d="M359.385 99.9364C359.797 100.964 361.199 103.121 361.873 104.737C362.26 105.663 360.838 107.482 359.459 107.495C358.06 107.509 356.541 106.12 356.908 104.994C357.349 103.64 358.903 100.864 359.385 99.9364Z" fill="#9E4D31"/>
<path d="M327.039 76.4379C326.441 78.5282 328.121 85.0424 334.258 87.8972C340.266 90.4022 347.301 90.9896 356.952 88.0536C363.23 86.1436 373.946 78.4574 377.472 70.9857C374.356 68.5007 364.808 63.6676 356.719 65.5747C348.306 67.558 342.192 75.5522 339.945 76.9199C337.97 78.1216 333.653 76.7691 330.986 74.5223C329.424 73.2066 327.429 75.0752 327.039 76.4379Z" fill="#10021B"/>
<path d="M368.92 112.26C372.144 112.129 374.646 110.744 375.125 107.033" stroke="#9E4D31" stroke-width="1.96296" stroke-linecap="round" stroke-linejoin="round"/>
<path d="M324.475 127.435C325.579 125.118 328.879 117.854 330.545 114.855C331.373 113.365 333.373 111.703 335.401 111.103C338.38 110.22 346.682 110.145 352.672 112.096C359.955 114.468 364.369 118.331 367.018 124.291C368.066 126.939 367.237 130.392 366.54 131.709C365.391 133.879 358.931 143.055 358.434 143.772C357.938 144.49 324.475 127.435 324.475 127.435Z" fill="#264AA0"/>
<path d="M353.255 127.928C355.504 126.598 360.245 125.72 363.171 128.997C365.657 131.782 367.081 133.691 368.731 137.542C370.136 140.82 370.721 144.565 369.172 146.551C367.396 148.827 361.495 148.811 358.874 145.744C358.874 145.744 355.628 142.453 353.137 138.915C350.646 135.377 350.622 129.485 353.255 127.928Z" fill="#F09172"/>
<path d="M302.106 134.967C303.927 131.16 306.421 126.806 313.032 126.193C321.125 125.443 331.829 126.149 340.843 130.166C356.798 137.277 363.274 142.303 369.151 151.355C372.12 155.929 371.786 159.646 369.816 164.479C367.46 170.257 325.278 260.61 322.799 265.579C320.056 271.08 317.48 272.851 309.308 272.77C301.17 272.69 289.075 269.334 279.337 264.651C270.615 260.456 260.893 251.104 256.583 246.873C253.195 243.546 253.355 239.481 255.755 234.457C258.372 228.979 302.106 134.967 302.106 134.967Z" fill="#55AFF9"/>
<path d="M320.154 269.309C317.329 275.462 297.021 273.855 279.266 264.676C263.162 256.35 251.551 245.263 254.376 239.109C257.2 232.956 274.216 234.728 292.38 243.067C310.544 251.407 322.979 263.155 320.154 269.309Z" fill="#9CD9FF"/>
<mask id="mask36_2001_1593" style="mask-type:alpha" maskUnits="userSpaceOnUse" x="220" y="243" width="96" height="73">
<path d="M264.635 299.413C261.258 297.617 193.845 283.096 231.874 250.085C243.268 240.193 264.569 244.395 265.432 244.266C274.081 242.978 281.197 245.432 289.847 249.296C298.496 253.161 307.268 260.522 308.74 266.288C308.127 267.883 315.598 277.527 315.672 296.101C315.794 327.017 293.466 314.749 264.635 299.413Z" fill="#F28CED"/>
</mask>
<g mask="url(#mask36_2001_1593)">
<path d="M259.465 256.072L304.261 276.734C304.261 276.734 317.071 250.222 317.882 248.122C318.941 245.381 312.899 237.469 299.194 230.555C287.131 224.468 275.896 224.014 274.276 226.257C272.4 228.854 259.465 256.072 259.465 256.072Z" fill="#264AA0"/>
<path d="M304.216 276.834C300.553 284.546 280.282 278.627 275.023 274.795C267.665 269.433 257.871 258.949 259.318 256.274C260.65 253.815 273.302 255.289 284.871 260.974C300.825 268.813 305.468 274.199 304.216 276.834Z" fill="#088DE3"/>
<path d="M261.439 258.781C261.133 261.94 262.338 264.966 268.231 270.259C274.481 275.874 279.661 276.841 285.631 278.194C278.94 275.375 267.499 268.563 266.004 258.713C264.779 258.68 262.335 258.735 261.439 258.781Z" fill="#C2E2F6"/>
<path d="M284.319 263.711C293.732 268.163 298.076 273.054 299.658 274.856C301.239 276.659 300.184 277.219 299.674 277.677C298.083 279.105 288.769 279.73 284.803 277.872C275.386 273.458 271.861 270.065 269.323 266.387C266.785 262.708 266.054 260.272 266.003 258.712C268.77 258.758 276.152 259.848 284.319 263.711Z" fill="white"/>
</g>
<mask id="mask37_2001_1593" style="mask-type:luminance" maskUnits="userSpaceOnUse" x="-6" y="0" width="531" height="531">
<path d="M-5.15039 0.919922H524.85V530.92H-5.15039V0.919922Z" fill="white"/>
</mask>
<g mask="url(#mask37_2001_1593)">
<mask id="mask38_2001_1593" style="mask-type:luminance" maskUnits="userSpaceOnUse" x="178" y="148" width="202" height="149">
<path d="M379.099 148.633H178.982V296.794H379.099V148.633Z" fill="white"/>
</mask>
<g mask="url(#mask38_2001_1593)">
<path d="M353.423 256.671L365.97 251.951" stroke="#FF86D0" stroke-width="13.2696" stroke-linecap="round" stroke-linejoin="round"/>
<path d="M386.04 159.66C386.03 162.604 384.551 165.129 383.072 167.087C381.593 169.045 361.154 190.075 357.706 193.744C354.258 197.412 352.258 204.97 359.423 212.185C364.027 216.822 369.713 215.71 373.406 212.287C377.098 208.865 395.505 189.628 395.505 189.628C395.505 189.628 386.051 156.715 386.04 159.66Z" fill="#F38DEE"/>
<path d="M357.372 193.793C354.91 196.053 353.764 197.539 353.207 201.607C352.845 204.251 349.022 233.312 349.012 236.011C349.002 238.71 349.729 241.166 352.917 241.546C356.105 241.926 368.616 242.832 371.315 242.965C374.013 243.098 375.739 240.896 375.994 238.443C376.248 235.99 378.439 200.749 378.449 198.05C378.459 195.351 376.193 190.961 372.305 190.835C368.302 190.706 360.196 191.201 357.372 193.793Z" fill="#F38DEE"/>
</g>
</g>
</g>
</g>
</g>
</g>
</g>
<defs>
<clipPath id="clip0_2001_1593">
<rect width="530" height="530" fill="white" transform="translate(-5.15039 0.919922)"/>
</clipPath>
<clipPath id="clip1_2001_1593">
<rect width="530" height="530" fill="white" transform="translate(-5.15039 0.919922)"/>
</clipPath>
</defs>
</svg>
