<svg width="531" height="531" viewBox="0 0 531 531" fill="none" xmlns="http://www.w3.org/2000/svg">
<g clip-path="url(#clip0_2001_2058)">
<g clip-path="url(#clip1_2001_2058)">
<mask id="mask0_2001_2058" style="mask-type:luminance" maskUnits="userSpaceOnUse" x="0" y="0" width="531" height="531">
<path d="M530.85 0.919922H0.849609V530.92H530.85V0.919922Z" fill="white"/>
</mask>
<g mask="url(#mask0_2001_2058)">
<mask id="mask1_2001_2058" style="mask-type:luminance" maskUnits="userSpaceOnUse" x="0" y="0" width="531" height="531">
<path d="M0.849609 0.919922H530.85V530.92H0.849609V0.919922Z" fill="white"/>
</mask>
<g mask="url(#mask1_2001_2058)">
<path d="M196.362 218.837C196.362 218.837 196.13 219.041 193.729 220.594" stroke="#FF8D00" stroke-width="4.41667" stroke-linecap="round" stroke-linejoin="round"/>
<path d="M191.236 211.473C191.236 211.473 190.994 211.664 188.507 213.076" stroke="#FF8D00" stroke-width="4.41667" stroke-linecap="round" stroke-linejoin="round"/>
<path d="M221.45 195.038C221.45 195.038 218.553 190.077 212.629 186.007C206.706 181.937 195.402 184.81 195.402 184.81C194.325 185.558 194.231 187.139 195.215 187.931C199.945 191.74 201.9 192.871 207.069 196.355C212.238 199.839 218.374 201.335 221.53 198.165C222.458 197.233 222.498 195.745 221.45 195.038Z" fill="#58CC02"/>
<path d="M227.41 207.608C227.41 207.608 227.419 207.638 227.437 207.696C227.681 208.482 229.454 214.412 229.215 219.448C228.959 224.854 224.971 230.307 224.971 230.307C224.463 231.451 222.045 231.938 221.596 230.773C219.531 225.411 219.152 223.678 218.391 217.906C217.577 211.732 219.262 206.885 225.169 205.602C226.398 205.335 227.533 206.351 227.41 207.608Z" fill="#3DBE01"/>
<mask id="mask2_2001_2058" style="mask-type:luminance" maskUnits="userSpaceOnUse" x="0" y="0" width="531" height="531">
<path d="M0.849121 0.918213H530.85V530.919H0.849121V0.918213Z" fill="white"/>
</mask>
<g mask="url(#mask2_2001_2058)">
<path d="M212.995 185.852C219.591 181.837 225.291 182.107 228.156 185.425C230.567 188.217 230.689 190.671 230.516 192.273C230.132 195.831 231.56 197.399 233.659 199.036C236.51 201.26 236.918 202.729 237.094 204.824C237.499 209.657 233.638 210.876 229.392 213.221L220.724 217.769C212.969 221.618 202.118 218.059 198.589 209.168C196.271 203.331 197.902 193.875 205.657 190.027L212.995 185.852Z" fill="#58CC02"/>
</g>
</g>
<mask id="mask3_2001_2058" style="mask-type:luminance" maskUnits="userSpaceOnUse" x="3" y="25" width="504" height="505">
<path d="M3.30322 25.9478H506.803V529.448H3.30322V25.9478Z" fill="white"/>
</mask>
<g mask="url(#mask3_2001_2058)">
<mask id="mask4_2001_2058" style="mask-type:luminance" maskUnits="userSpaceOnUse" x="-14" y="29" width="516" height="516">
<path d="M-13.7134 29.4441H501.442V544.599H-13.7134V29.4441Z" fill="white"/>
</mask>
<g mask="url(#mask4_2001_2058)">
<mask id="mask5_2001_2058" style="mask-type:luminance" maskUnits="userSpaceOnUse" x="10" y="53" width="468" height="468">
<path d="M10.063 53.2205H477.665V520.823H10.063V53.2205Z" fill="white"/>
</mask>
<g mask="url(#mask5_2001_2058)">
<path d="M137.861 258.094C135.832 258.829 134.92 260.378 134.426 262.307C133.932 264.235 133.856 266.542 133.502 268.793C133.016 271.879 131.73 277.189 131.16 282.044C130.589 286.9 130.733 291.301 133.106 292.569C134.525 293.327 137.075 293.426 139.878 293.336C142.681 293.246 145.736 292.966 148.164 292.966C154.216 292.966 159.139 293.065 164 293.164C168.862 293.263 173.662 293.362 179.47 293.362C181.573 293.362 184.861 293.582 187.862 293.593C190.862 293.603 193.575 293.405 194.528 292.569C195.67 291.568 196.162 288.517 196.42 285.111C196.677 281.706 196.701 277.946 196.906 275.53C197.096 273.287 197.741 269.757 197.966 266.473C198.192 263.189 197.997 260.15 196.509 258.886C194.96 257.571 187.101 257.697 183.036 257.697C170.481 257.697 164.381 257.697 153.316 257.697C148.718 257.697 140.714 257.059 137.861 258.094Z" fill="#58CC02"/>
<path d="M138.456 258.49C136.429 259.202 135.518 261.1 134.976 263.703C134.433 266.307 134.257 269.616 133.7 273.152C133.237 276.096 132.413 279.533 131.919 282.447C131.425 285.361 131.26 287.753 132.115 288.607C132.744 289.233 135.56 289.422 138.645 289.459C141.729 289.496 145.08 289.381 146.777 289.399C152.991 289.464 157.763 289.464 162.509 289.448C167.256 289.432 171.975 289.399 178.083 289.399C180.666 289.399 183.946 289.657 186.773 289.736C189.6 289.816 191.974 289.717 192.745 289.003C194.569 287.313 194.374 278.347 194.726 274.341C194.997 271.26 197.263 261.358 195.519 259.282C194.397 257.948 185.578 258.49 182.046 258.49C165.984 258.49 151.751 257.147 138.852 258.094C138.46 258.122 138.6 258.439 138.456 258.49Z" fill="white"/>
<path d="M138.456 258.49C136.429 259.202 135.518 261.1 134.976 263.703C134.433 266.307 134.257 269.616 133.7 273.152C133.237 276.096 132.413 279.533 131.919 282.447C131.425 285.361 131.26 287.753 132.115 288.607C132.744 289.233 135.56 289.422 138.645 289.459C141.729 289.496 145.08 289.381 146.777 289.399C152.991 289.464 157.763 289.464 162.509 289.448C167.256 289.432 171.975 289.399 178.083 289.399C180.666 289.399 183.946 289.657 186.773 289.736C189.6 289.816 191.974 289.717 192.745 289.003C194.569 287.313 194.374 278.347 194.726 274.341C194.997 271.26 197.263 261.358 195.519 259.282C194.397 257.948 185.578 258.49 182.046 258.49C165.984 258.49 151.751 257.147 138.852 258.094C138.46 258.122 138.6 258.439 138.456 258.49Z" stroke="#89E219" stroke-width="3.56646" stroke-linejoin="round"/>
<path d="M139.644 262.056C138.775 262.679 138.325 264.612 138.02 266.859C137.715 269.107 137.555 271.669 137.267 273.548C137.181 274.105 136.711 276.887 136.3 279.575C135.888 282.264 135.534 284.859 135.681 285.04C135.759 285.136 136.723 285.368 137.78 285.509C138.838 285.651 139.988 285.702 140.437 285.437C141.155 285.012 141.597 282.504 141.887 279.92C142.176 277.335 142.312 274.674 142.418 273.945C142.924 270.468 146.464 257.175 139.644 262.056Z" fill="#89E219"/>
<path d="M158.666 264.83C155.571 265.397 153.147 266.72 151.421 268.279C149.695 269.84 148.667 271.636 148.362 273.152C147.778 276.066 148.556 278.542 149.983 280.389C151.41 282.237 153.485 283.454 155.495 283.851C158.574 284.459 161.408 283.878 163.889 282.89C166.369 281.903 168.496 280.509 170.157 279.492C170.841 279.074 172.495 278.074 173.993 277.084C175.491 276.094 176.833 275.115 176.894 274.737C177.18 272.977 175.928 272.276 174.537 271.721C173.146 271.166 171.616 270.758 171.346 269.585C171.01 268.122 174.967 267.89 173.328 265.226C172.254 263.483 162.003 264.219 158.666 264.83Z" fill="#FF9600"/>
<path d="M156.684 270.378C155.518 270.634 154.591 271.005 153.905 271.497C153.22 271.988 152.776 272.599 152.577 273.336C152.379 274.073 152.426 274.935 152.722 275.926C153.492 278.506 156.473 278.601 159.257 277.755C162.041 276.91 164.628 275.125 164.61 273.944C164.591 272.752 162.973 271.78 161.178 271.147C159.382 270.514 157.41 270.219 156.684 270.378Z" fill="#FFC800"/>
<path d="M189.971 262.453C189.356 262.775 188.934 263.751 188.63 265.059C188.325 266.367 188.138 268.008 187.99 269.662C187.843 271.316 187.736 272.982 187.593 274.341C187.404 276.151 187.005 278.684 186.953 280.786C186.9 282.888 187.194 284.558 188.386 284.644C189.891 284.752 190.48 283.144 190.744 280.975C191.009 278.806 190.949 276.077 191.16 273.944C191.414 271.373 192.09 267.99 192.216 265.505C192.342 263.019 191.918 261.432 189.971 262.453Z" fill="#E1E1E1"/>
<path d="M189.971 262.453C189.027 262.948 188.62 264.676 188.405 266.753C188.19 268.83 188.167 271.257 187.99 273.152C187.832 274.835 187.615 276.449 187.843 277.431C188.071 278.412 188.743 278.76 190.367 277.907C191.297 277.419 191.778 273.559 191.934 269.769C192.09 265.98 191.922 262.261 191.556 262.056C190.949 261.718 190.17 262.348 189.971 262.453Z" fill="#81DE3A"/>
</g>
<mask id="mask6_2001_2058" style="mask-type:luminance" maskUnits="userSpaceOnUse" x="10" y="53" width="468" height="468">
<path d="M10.063 53.2205H477.665V520.823H10.063V53.2205Z" fill="white"/>
</mask>
<g mask="url(#mask6_2001_2058)">
<path d="M246.044 256.905C243.216 257.27 240.217 258.232 237.245 259.365C234.273 260.498 231.328 261.801 228.608 262.849C211.931 269.272 195.657 275.582 179.305 281.887C162.953 288.191 146.524 294.49 129.54 300.891C126.56 302.014 123.532 303.154 121.178 304.732C118.823 306.309 117.142 308.323 116.859 311.194C116.59 313.915 117.592 317.401 118.903 320.892C120.214 324.382 121.835 327.876 122.803 330.612C125.293 337.649 127.297 343.62 129.311 349.65C131.325 355.681 133.349 361.772 135.88 369.05C137.826 374.645 140.669 382.953 146.183 384.505C151.773 386.078 159.575 381.92 164.808 379.75C200.663 364.882 232.595 352.163 268.631 337.745C278.815 333.67 287.992 332.132 284.879 317.535C283.98 313.323 280.019 307.786 277.349 302.476C272.684 293.196 266.475 282.138 261.498 272.756C257.471 265.162 255.54 255.68 246.044 256.905Z" fill="#58CC02"/>
<path d="M245.053 258.886C244.847 258.924 244.698 259.006 244.576 259.088C244.454 259.17 244.359 259.25 244.26 259.283C227.679 264.765 212.089 270.725 196.502 276.891C180.915 283.057 165.331 289.431 148.759 295.74C145.337 297.042 138.253 298.939 131.9 301.394C125.548 303.85 119.928 306.864 119.434 310.402C118.829 314.741 123.048 323.322 124.586 327.838C128.889 340.476 131.938 348.317 136.474 361.521C138.018 366.017 139.969 375.482 144.003 376.976C149.168 378.887 157.292 373.843 162.232 371.824C197.772 357.3 231.004 343.886 266.452 329.819C271.962 327.633 281.155 325.633 281.906 320.705C282.658 315.779 277.407 308.982 275.17 304.458C269.865 293.73 265.253 284.293 259.715 273.945C256.181 267.341 253.382 257.378 245.053 258.886Z" fill="white"/>
<path d="M245.053 258.886C244.847 258.924 244.698 259.006 244.576 259.088C244.454 259.17 244.359 259.25 244.26 259.283C227.679 264.765 212.089 270.725 196.502 276.891C180.915 283.057 165.331 289.431 148.759 295.74C145.337 297.042 138.253 298.939 131.9 301.394C125.548 303.85 119.928 306.864 119.434 310.402C118.829 314.741 123.048 323.322 124.586 327.838C128.889 340.476 131.938 348.317 136.474 361.521C138.018 366.017 139.969 375.482 144.003 376.976C149.168 378.887 157.292 373.843 162.232 371.824C197.772 357.3 231.004 343.886 266.452 329.819C271.962 327.633 281.155 325.633 281.906 320.705C282.658 315.779 277.407 308.982 275.17 304.458C269.865 293.73 265.253 284.293 259.715 273.945C256.181 267.341 253.382 257.378 245.053 258.886Z" stroke="#89E219" stroke-width="3.56646" stroke-linejoin="round"/>
<path d="M137.663 308.42C135.885 308.571 130.355 310.251 129.738 312.779C128.968 315.93 132.665 322.184 134.097 326.253C137.689 336.457 139.936 342.949 143.607 353.199C145.129 357.448 146.785 364.529 149.551 365.484C150.924 365.957 158.672 364.23 159.854 361.521C160.921 359.077 157.302 351.431 155.892 347.651C152.699 339.094 148.578 328.841 145.589 320.705C144.487 317.708 142.519 308.42 139.248 308.024C138.529 307.937 137.915 308.399 137.663 308.42Z" fill="#89E219"/>
<path d="M205.426 289.796C203.467 290.128 201.239 290.869 198.881 291.752C196.523 292.634 194.036 293.657 191.557 294.551C184.548 297.078 177.351 300.051 171.937 304.423C166.524 308.795 162.895 314.565 163.025 322.686C163.129 329.183 166.037 334.66 170.635 338.498C175.233 342.336 181.522 344.537 188.386 344.481C206.716 344.333 212.918 332.121 219.296 318.724C221.025 315.092 226.471 308.144 225.24 304.062C224.546 301.761 221.483 301.393 218.503 300.891C216.601 300.571 210.608 300.764 209.785 299.306C209.248 298.354 213.349 293.032 210.974 290.192C209.841 288.837 207.098 289.512 205.426 289.796Z" fill="#FF9600"/>
<path d="M185.612 312.383C182.205 312.95 179.274 313.95 177.175 315.596C175.075 317.242 173.807 319.534 173.724 322.686C173.671 324.671 174.295 326.338 175.115 327.616C175.935 328.895 176.952 329.784 177.687 330.215C187.918 336.224 197.24 324.152 201.859 319.12C202.251 318.693 206.799 314.816 205.822 313.176C204.341 310.689 186.281 312.272 185.612 312.383Z" fill="#FFC800"/>
<path d="M243.468 268.001C240.525 268.926 240.66 271.48 241.81 274.358C242.959 277.237 245.124 280.44 246.242 282.663C247.316 284.799 248.195 286.564 249.109 288.398C250.023 290.233 250.972 292.136 252.186 294.551C253.357 296.88 255.406 302.418 257.823 307.379C260.239 312.34 263.022 316.723 265.659 316.742C274.145 316.805 267.133 306.192 264.867 301.684C261.215 294.42 256.817 285.943 253.375 279.096C251.186 274.742 248.423 266.442 243.468 268.001Z" fill="#E1E1E1"/>
<path d="M243.468 268.001C240.86 268.821 240.549 270.421 241.145 272.354C241.741 274.287 243.242 276.551 244.26 278.7C245.529 281.377 247.662 286.79 249.997 291.701C252.331 296.611 254.868 301.019 256.941 301.684C265.322 304.371 261.235 295.256 259.319 291.381C257.767 288.241 256.783 286.34 255.356 283.455C253.001 278.693 249.359 266.148 243.468 268.001Z" fill="#81DE3A"/>
</g>
<mask id="mask7_2001_2058" style="mask-type:luminance" maskUnits="userSpaceOnUse" x="10" y="53" width="468" height="468">
<path d="M10.063 53.2205H477.665V520.823H10.063V53.2205Z" fill="white"/>
</mask>
<g mask="url(#mask7_2001_2058)">
<path d="M306.277 268.001C300.619 268.697 296.822 271.209 293.664 274.52C290.505 277.831 287.985 281.94 284.878 285.833C271.488 302.611 258.438 318.903 245.353 335.239C232.269 351.574 219.15 367.953 205.624 384.901C201.62 389.918 193.996 397.832 193.735 402.733C193.562 405.988 195.51 408.922 196.906 412.244C198.198 415.321 199.097 419.162 200.868 420.962C203.105 423.235 209.103 424.78 213.549 426.51C240.788 437.107 266.475 447.261 292.804 457.419C297.494 459.229 302.206 461.826 306.673 462.174C323.391 463.478 326.231 451.378 332.431 440.776C355.446 401.417 377.421 363.198 399.401 325.064C402.443 319.787 409.491 310.19 410.101 305.25C410.662 300.7 409.458 290.88 408.119 288.607C405.27 283.769 392.894 282.975 384.739 281.474C365.889 278.005 350.706 275.246 333.224 271.963C325 270.419 314.076 267.041 306.277 268.001Z" fill="#58CC02"/>
<path d="M304.494 269.982C300.911 270.701 297.924 273.231 295.345 276.199C292.766 279.166 290.594 282.572 288.643 285.04C275.078 302.199 262.041 318.565 248.958 334.991C235.875 351.416 222.745 367.901 208.992 385.297C204.922 390.446 196.674 398.215 197.896 403.526C198.877 407.785 205.147 408.943 209.784 410.659C237.957 421.082 265.181 431.853 292.606 441.965C297.306 443.697 303.016 446.186 308.06 445.531C316.791 444.398 320.426 434.586 324.704 427.302C348.473 386.828 370.057 350.845 394.051 311.194C396.045 307.9 405.776 295.35 404.751 290.588C403.61 285.289 390.212 284.825 382.956 283.455C365.783 280.214 350.084 277.045 333.818 273.945C325.607 272.379 317.186 270.048 308.853 269.586C306.91 269.478 304.637 269.953 304.494 269.982Z" fill="white"/>
<path d="M304.494 269.982C300.911 270.701 297.924 273.231 295.345 276.199C292.766 279.166 290.594 282.572 288.643 285.04C275.078 302.199 262.041 318.565 248.958 334.991C235.875 351.416 222.745 367.901 208.992 385.297C204.922 390.446 196.674 398.215 197.896 403.526C198.877 407.785 205.147 408.943 209.784 410.659C237.957 421.082 265.181 431.853 292.606 441.965C297.306 443.697 303.016 446.186 308.06 445.531C316.791 444.398 320.426 434.586 324.704 427.302C348.473 386.828 370.057 350.845 394.051 311.194C396.045 307.9 405.776 295.35 404.751 290.588C403.61 285.289 390.212 284.825 382.956 283.455C365.783 280.214 350.084 277.045 333.818 273.945C325.607 272.379 317.186 270.048 308.853 269.586C306.91 269.478 304.637 269.953 304.494 269.982Z" stroke="#89E219" stroke-width="3.56646" stroke-linejoin="round"/>
<path d="M225.636 386.09C223.902 386.33 221.069 388.503 218.749 391.016C216.429 393.528 214.621 396.38 214.936 397.978C215.449 400.575 221.714 401.605 224.843 402.733C243.813 409.574 261.722 416.028 279.925 422.547C284.933 424.341 297.319 430.679 302.513 429.284C305.804 428.4 312.199 419.786 311.231 415.81C310.342 412.163 296.266 409.225 291.021 407.489C275.641 402.398 262.522 397.627 248.223 392.827C241.806 390.672 230.657 385.395 225.636 386.09Z" fill="#89E219"/>
<path d="M323.911 314.761C322.009 315.075 320.119 315.741 318.213 316.541C316.306 317.34 314.384 318.273 312.419 319.12C310.668 319.874 308.537 321.139 306.572 322.177C304.607 323.216 302.808 324.028 301.72 323.875C298.228 323.386 296.527 316.742 291.417 316.742C284.525 316.742 279.342 327.847 276.358 331.8C272.863 336.431 266.005 343.94 263.281 348.84C258.419 357.586 260.011 368.58 265.659 374.994C282.102 393.667 318.793 385.43 333.025 370.635C336.073 367.467 339.893 361.426 340.951 355.973C342.81 346.387 338.651 340.574 336.195 332.593C333.692 324.458 333.637 313.153 323.911 314.761Z" fill="#A6A6A6"/>
<path d="M306.475 341.707C306.236 341.748 306.104 341.816 306 341.889C305.895 341.961 305.817 342.04 305.683 342.104C297.357 346.051 282.001 349.727 279.529 359.54C278.69 362.866 279.661 366.433 281.114 368.258C288.984 378.147 312.882 371.636 314.004 359.54C314.302 356.335 313.194 354.408 312.419 350.425C311.479 345.591 311.98 340.765 306.475 341.707Z" fill="#E1E1E1"/>
<path d="M308.853 277.907C306.761 278.47 304.1 280.152 304.89 282.266C305.975 285.169 317.442 286.054 322.326 287.022C335.067 289.548 347.854 292.273 359.18 294.551C365.061 295.734 372.246 298.564 377.804 298.117C380.643 297.89 383.846 295.583 383.748 293.758C383.561 290.263 372.777 289.211 367.501 288.211C361.427 287.059 354.785 285.689 349.273 284.644C334.244 281.794 323.975 278.429 312.419 277.511C310.6 277.367 309.018 277.863 308.853 277.907Z" fill="#E1E1E1"/>
<path d="M308.853 277.907C307.275 278.332 304.196 279.831 304.494 281.87C304.837 284.224 311.927 285.096 315.589 285.833C325.188 287.764 332.797 289.372 340.555 290.984C345.68 292.05 360.623 295.877 359.576 288.607C359.227 286.184 354.078 285.556 349.273 284.644C336.578 282.236 322.351 278.3 312.419 277.511C310.6 277.367 309.018 277.863 308.853 277.907Z" fill="#81DE3A"/>
</g>
</g>
<mask id="mask8_2001_2058" style="mask-type:luminance" maskUnits="userSpaceOnUse" x="-30" y="13" width="548" height="548">
<path d="M-29.5645 13.5933H517.292V560.45H-29.5645V13.5933Z" fill="white"/>
</mask>
<g mask="url(#mask8_2001_2058)">
<mask id="mask9_2001_2058" style="mask-type:luminance" maskUnits="userSpaceOnUse" x="-35" y="5" width="564" height="564">
<path d="M-34.105 15.7378L518.419 5.63043L528.526 558.154L-23.9976 568.262L-34.105 15.7378Z" fill="white"/>
</mask>
<g mask="url(#mask9_2001_2058)">
<path d="M304.265 290.268C318.836 286.44 327.84 279.828 327.84 279.828" stroke="#FF4B4B" stroke-width="13.7674" stroke-linecap="round"/>
</g>
<path d="M267.397 153.987C267.187 153.205 266.385 152.741 265.603 152.95L157.909 181.754C157.128 181.964 156.663 182.766 156.872 183.548C159.695 194.103 170.54 200.371 181.095 197.548L253.397 178.21C263.952 175.387 270.22 164.542 267.397 153.987Z" fill="#FFB100"/>
<path d="M159.295 134.398C157.245 128.774 158.967 122.102 162.479 118.443C165.991 114.785 169.709 111.81 169.709 111.81C173.828 108.211 178.844 105.557 183.836 103.321C200.577 95.8227 214.602 93.6942 222.837 92.4532C228.376 91.6185 233.595 94.765 236.398 99.6149C251.404 125.581 264.334 168.34 264.334 168.34C264.334 168.34 159.197 213.643 166.397 179.484C174 177.451 164.754 149.378 159.295 134.398Z" fill="#FFB100"/>
<path d="M180.269 115.376C187.35 122.314 198.715 122.199 205.654 115.118C212.593 108.036 212.477 96.6708 205.396 89.7322C198.315 82.7936 186.949 82.9091 180.01 89.9903C173.072 97.0715 173.187 108.437 180.269 115.376Z" fill="#FFB100"/>
<path d="M168.821 107.17C169.006 113.65 173.58 119.501 180.239 121.565C186.898 123.627 193.985 121.388 197.809 116.15C198.605 115.06 198.035 113.513 196.684 113.093C196.684 113.093 178.337 105.211 176.454 105.597C174.57 105.983 172.615 105.716 171.481 105.286C170.346 104.857 168.783 105.822 168.821 107.17Z" fill="#FFB100"/>
<path d="M171.443 107.327L176.788 108.609L178.44 102.603L177.155 102.592C176.546 104.441 175.622 106.477 172.109 105.574C171.814 106.724 171.479 107.186 171.443 107.327Z" fill="#FFB100"/>
<mask id="mask10_2001_2058" style="mask-type:luminance" maskUnits="userSpaceOnUse" x="-30" y="13" width="548" height="548">
<path d="M-29.5649 13.5925H517.293V560.45H-29.5649V13.5925Z" fill="white"/>
</mask>
<g mask="url(#mask10_2001_2058)">
<path d="M242.097 260.412L285.865 247.558L282.787 226.761L246.699 245.913L244.537 251.588C244.537 251.588 243.274 253.898 242.755 255.215C241.539 258.298 242.097 260.412 242.097 260.412Z" fill="#D22121"/>
</g>
<mask id="mask11_2001_2058" style="mask-type:luminance" maskUnits="userSpaceOnUse" x="-30" y="13" width="548" height="548">
<path d="M-29.5649 13.593H517.292V560.45H-29.5649V13.593Z" fill="white"/>
</mask>
<g mask="url(#mask11_2001_2058)">
<path d="M194.035 264.081C190.552 270.761 192.661 277.706 192.661 277.706" stroke="#FF4B4B" stroke-width="5.85297" stroke-linecap="round"/>
</g>
<mask id="mask12_2001_2058" style="mask-type:luminance" maskUnits="userSpaceOnUse" x="-30" y="5" width="547" height="547">
<path d="M-29.5024 12.3079L509.245 5.02956L516.523 543.777L-22.2241 551.055L-29.5024 12.3079Z" fill="white"/>
</mask>
<g mask="url(#mask12_2001_2058)">
<path d="M197.348 264.075C197.822 261.421 198.602 256.973 199.341 252.745C199.899 249.552 200.434 246.486 200.795 244.412C201.076 242.798 201.251 241.785 201.251 241.785C205.846 236.564 221.287 246.447 221.287 246.447C226.509 251.041 238.15 257.9 233.556 263.122C233.556 263.122 228.081 264.95 222.1 266.929C216.194 268.883 209.795 270.984 207.693 271.614C201.082 273.596 196.21 270.442 197.348 264.075Z" fill="#FFC6B7"/>
</g>
<path d="M199.283 253.785C199.823 261.615 206.124 267.997 214.162 268.432C216.406 268.554 218.565 268.2 220.542 267.459L232.187 263.743L242.646 260.405C239.702 257.634 223.877 248.628 221.409 246.456C217.601 243.106 211.137 239.391 206.133 239.648C203.726 241.29 201.79 243.586 200.59 246.295C200.218 248.429 199.753 251.095 199.283 253.785Z" fill="#D22121"/>
<path d="M299.712 172.628C300.459 170.379 307.854 170.36 310.102 171.107C312.35 171.855 313.567 174.282 312.82 176.531L312.82 176.531C312.072 178.779 309.644 179.996 307.396 179.248C306.566 178.973 298.238 176.1 297.736 175.459C296.879 174.365 299.712 172.628 299.712 172.628Z" fill="#FFC6B7"/>
<path d="M248.817 257.545C262.47 252.069 238.935 212.55 224.247 211.755C209.558 210.959 197.006 222.222 196.21 236.911C195.414 251.6 206.932 267.783 221.366 264.947C237.833 261.713 242.32 260.151 248.817 257.545Z" fill="#D22121"/>
<path d="M309.805 164.956C309.873 171.009 305.021 175.972 298.968 176.041L277.742 179.125C270.176 179.21 263.973 173.146 263.887 165.579C263.801 158.013 269.866 151.81 277.433 151.724L298.72 154.12C304.774 154.051 309.736 158.903 309.805 164.956Z" fill="#FF4B4B"/>
<path d="M264.013 201.395C260.939 201.7 257.746 201.111 254.833 199.513C247.152 195.298 244.343 185.655 248.558 177.974C255.464 165.39 266.02 156.409 267.201 155.427C273.936 149.823 283.938 150.741 289.541 157.475C295.145 164.21 294.228 174.212 287.493 179.816C287.468 179.837 280.44 185.823 276.371 193.237C273.755 198.005 269.045 200.897 264.013 201.395Z" fill="#FF4B4B"/>
<path d="M184.931 227.863C179.151 216.074 183.884 201.829 195.569 195.843C195.569 195.843 210.173 189.672 216.869 188.805L255.262 183.836C272.453 181.611 287.121 196.207 284.983 213.408C283.352 229.723 269.757 240.894 261.156 242.888L236.406 247.944C212.717 250.993 197.411 248.53 184.931 227.863Z" fill="#FF4B4B"/>
<g opacity="0.05">
<path d="M237.268 255.444L218.664 258.786L226.809 264.932L233.977 263.628L237.268 255.444Z" fill="#D22121"/>
</g>
<path d="M189.933 184.6C184.407 167.078 177.309 149.185 169.875 138.055L183.161 120.008L237.938 103.892C249.022 122.927 257.075 145.232 262.294 161.78C265.423 171.702 267.824 180.516 269.45 186.871C270.265 190.059 270.892 192.657 271.325 194.498C271.541 195.419 271.71 196.152 271.829 196.678C271.888 196.942 271.934 197.153 271.969 197.31C271.987 197.388 272.001 197.453 272.013 197.504L272.035 197.606C272.036 197.611 272.037 197.615 234.969 205.687C197.9 213.76 197.901 213.764 197.903 213.768L197.895 213.736C197.881 213.675 197.856 213.561 197.819 213.398C197.746 213.073 197.626 212.549 197.461 211.848C197.131 210.443 196.623 208.333 195.942 205.675C194.577 200.337 192.551 192.903 189.933 184.6Z" fill="#FFC6B7"/>
<path d="M170.364 117.813C176.158 115.688 182.577 118.661 184.702 124.455L188.033 133.534C190.158 139.328 187.184 145.746 181.391 147.872C175.597 149.997 169.178 147.024 167.052 141.23L163.722 132.151C161.597 126.357 164.571 119.938 170.364 117.813Z" fill="#FFB100"/>
<path d="M175.485 141.249C179.065 139.979 182.74 141.887 184.105 145.037C185.468 148.18 184.059 152.541 180.64 153.917C177.043 155.363 172.751 152.927 171.555 149.501C170.505 146.493 171.595 142.63 175.485 141.249Z" fill="#FFC6B7"/>
<path d="M158.791 134.013C157.624 135.262 157.192 137.027 157.659 138.671C158.081 140.153 158.623 142.045 159.131 143.769C159.658 145.555 161.885 146.036 163.136 144.656L173.652 133.04C184.649 122.167 188.197 121.762 199.901 117.289C207.891 114.65 217.311 112.423 225.746 110.324C234.081 108.17 238.756 109.262 241.689 110.254C242.701 110.597 243.49 109.641 242.962 108.712C241.551 106.232 239.442 102.536 238.498 100.931C238.349 100.677 237.477 99.8083 237.211 99.6798C235.548 98.8783 231.189 97.5212 223.086 99.636C214.293 101.824 204.59 104.141 196.446 106.832C183.133 111.837 177.817 113.599 167.53 124.663L158.791 134.013Z" fill="#FF4B4B"/>
<path d="M223.031 126.858C221.526 121.776 224.456 116.427 229.576 114.91C234.697 113.392 240.069 116.281 241.574 121.362L243.233 126.959C244.739 132.04 241.809 137.389 236.688 138.906C231.567 140.424 226.195 137.535 224.69 132.454L223.031 126.858Z" fill="white"/>
<path d="M224.241 135.087C224.376 134.967 227.444 136.029 230.625 137.177C233.792 138.318 234.852 142.407 232.534 144.458C230.217 146.509 226.287 144.96 225.539 141.678C224.787 138.38 224.106 135.206 224.241 135.087Z" fill="#EE9583"/>
<path d="M226.765 125.795C228.623 125.244 229.71 123.383 229.192 121.638C229.129 121.423 229.044 121.221 228.94 121.031C231.193 120.605 233.41 121.84 234.036 123.952L235.494 128.87C236.164 131.133 234.754 133.547 232.345 134.261C229.935 134.975 227.438 133.719 226.767 131.456L225.31 126.538C225.248 126.33 225.204 126.12 225.177 125.911C225.688 125.987 226.229 125.954 226.765 125.795Z" fill="#3D3D3D"/>
<path d="M207.708 121.311C202.602 122.83 199.696 128.202 201.216 133.309L202.89 138.934C203.246 140.129 203.812 141.203 204.536 142.128C206.038 141.302 207.827 140.959 209.674 141.293L213.569 141.996C215.436 142.334 217.316 142.586 219.201 142.753C221.445 140.333 222.388 136.824 221.379 133.431L219.705 127.806C218.185 122.699 212.813 119.791 207.708 121.311Z" fill="white"/>
<path d="M210.403 130.644C212.261 130.093 213.348 128.232 212.831 126.487C212.768 126.272 212.682 126.069 212.579 125.88C214.831 125.454 217.049 126.688 217.674 128.801L219.132 133.719C219.802 135.982 218.393 138.396 215.983 139.11C213.573 139.824 211.076 138.568 210.406 136.305L208.948 131.387C208.886 131.178 208.842 130.969 208.815 130.759C209.327 130.835 209.868 130.802 210.403 130.644Z" fill="#3D3D3D"/>
<path d="M197.814 214.18C197.85 214.343 272.415 197.784 272.415 197.779C272.415 197.779 270.383 189.774 269.568 186.586C268.155 181.063 266.275 174.1 263.485 165.616C263.063 166.804 258.321 178.794 236.92 184.246C207.615 191.712 188.524 179.842 188.524 179.842C188.524 179.842 192.593 193.368 193.672 197.595C194.95 202.605 197.741 213.855 197.814 214.18Z" fill="#FF4B4B"/>
<path d="M188.185 186.81C179.404 186.921 145.863 193.559 139.288 195.35C133.264 196.991 137.992 214.136 142.357 216.131C146.721 218.126 154.318 217.666 154.318 217.666L191.68 210.631C191.68 210.631 194.623 186.728 188.185 186.81Z" fill="#FF4B4B"/>
<path d="M167.278 207.65L167.097 201.277C166.82 191.566 174.469 183.469 184.18 183.192L190.554 183.01C200.265 182.734 208.363 190.382 208.639 200.094L208.82 206.467C209.097 216.179 201.448 224.276 191.737 224.553L185.364 224.734C175.652 225.01 167.555 217.362 167.278 207.65Z" fill="#FFC6B7"/>
<path d="M180.92 177.05C185.01 175.828 189.316 178.154 190.538 182.244C191.76 186.334 189.435 190.641 185.344 191.862C181.254 193.084 176.947 190.759 175.725 186.668C174.504 182.578 176.829 178.271 180.92 177.05Z" fill="#FFC6B7"/>
<path d="M167.4 198.278L167.585 210.181C168.281 215.825 175.145 223.848 181.582 224.533L144.152 231.603C133.163 233.355 122.834 225.866 121.083 214.876C119.332 203.887 126.821 193.559 137.81 191.807L179.619 183.844C172.838 185.865 167.494 191.536 167.4 198.278Z" fill="#FF4B4B"/>
<path d="M180.92 177.05C185.01 175.828 189.316 178.154 190.538 182.244C191.76 186.334 189.435 190.641 185.344 191.862C181.254 193.084 176.947 190.759 175.725 186.668C174.504 182.578 176.829 178.271 180.92 177.05Z" fill="#FFC6B7"/>
<path d="M303.885 153.985L307.418 154.194C312.8 154.512 316.905 159.133 316.586 164.516L316.377 168.048C316.059 173.43 311.438 177.535 306.055 177.217L302.524 177.007C297.141 176.689 293.036 172.068 293.355 166.686L293.564 163.154C293.882 157.772 298.503 153.667 303.885 153.985Z" fill="#FFC6B7"/>
<path d="M235.993 188.397C235.312 187.871 235.09 186.943 235.458 186.166L237.505 181.838C237.864 181.077 238.697 180.658 239.522 180.825L253.212 183.582C254.379 183.817 255.015 185.085 254.507 186.162L249.747 196.225C249.247 197.283 247.896 197.607 246.971 196.891L235.993 188.397Z" fill="#EBE3E3"/>
<path d="M238.503 186.005C238.503 186.005 251.199 198.998 252.131 209.579C253.062 220.16 244.355 247.213 244.355 247.213" stroke="#EBE3E3" stroke-width="3.79234"/>
<mask id="mask13_2001_2058" style="mask-type:luminance" maskUnits="userSpaceOnUse" x="-30" y="13" width="548" height="548">
<path d="M-29.5649 13.5925H517.293V560.45H-29.5649V13.5925Z" fill="white"/>
</mask>
<g mask="url(#mask13_2001_2058)">
<path d="M242.097 260.412L285.865 247.558L282.787 226.761L246.699 245.913L244.537 251.588C244.537 251.588 243.274 253.898 242.755 255.215C241.539 258.298 242.097 260.412 242.097 260.412Z" fill="#D22121"/>
</g>
<mask id="mask14_2001_2058" style="mask-type:luminance" maskUnits="userSpaceOnUse" x="-30" y="13" width="548" height="548">
<path d="M-29.5649 13.5925H517.293V560.45H-29.5649V13.5925Z" fill="white"/>
</mask>
<g mask="url(#mask14_2001_2058)">
<path d="M311.731 218.588C307.496 215.623 301.593 216.378 298.584 217.918C295.574 219.458 277.805 229.205 277.805 229.205C272.966 231.953 271.957 238.191 274.018 242.941C275.877 247.226 282.915 249.475 287.753 246.728L292.178 245.237C292.178 245.237 291.848 255.611 291.853 259.128C291.858 262.646 292.705 272.265 303.988 273.169C315.899 274.124 316.734 263.309 316.871 260.776C317.008 258.244 317.454 234.833 317.346 228.563C317.299 225.826 315.377 221.14 311.731 218.588Z" fill="#FFC6B7"/>
</g>
</g>
<mask id="mask15_2001_2058" style="mask-type:luminance" maskUnits="userSpaceOnUse" x="-35" y="10" width="560" height="560">
<path d="M-34.9229 10.4624H524.087V569.472H-34.9229V10.4624Z" fill="white"/>
</mask>
<g mask="url(#mask15_2001_2058)">
<mask id="mask16_2001_2058" style="mask-type:luminance" maskUnits="userSpaceOnUse" x="-35" y="10" width="560" height="560">
<path d="M-34.9229 10.4624H524.087V569.472H-34.9229V10.4624Z" fill="white"/>
</mask>
<g mask="url(#mask16_2001_2058)">
<path d="M204.904 147.257C208.009 143.378 213.639 142.848 217.48 146.074C218.685 147.086 219.653 147.735 220.721 148.137C221.705 148.508 223.197 148.827 225.579 148.477C230.457 147.761 235.036 151.23 235.804 156.224C236.572 161.218 233.241 165.847 228.362 166.563C217.347 168.18 210.432 163.646 206.236 160.121C202.395 156.896 201.799 151.136 204.904 147.257Z" fill="#A41414"/>
</g>
<mask id="mask17_2001_2058" style="mask-type:alpha" maskUnits="userSpaceOnUse" x="202" y="143" width="34" height="24">
<mask id="mask18_2001_2058" style="mask-type:luminance" maskUnits="userSpaceOnUse" x="-35" y="10" width="560" height="560">
<path d="M-34.9229 10.4624H524.087V569.472H-34.9229V10.4624Z" fill="white"/>
</mask>
<g mask="url(#mask18_2001_2058)">
<path d="M204.904 147.257C208.009 143.378 213.639 142.848 217.48 146.074C218.685 147.086 219.653 147.735 220.721 148.137C221.705 148.508 223.197 148.827 225.579 148.477C230.457 147.761 235.036 151.23 235.804 156.224C236.572 161.218 233.241 165.847 228.362 166.563C217.347 168.18 210.432 163.646 206.236 160.121C202.395 156.896 201.799 151.136 204.904 147.257Z" fill="#A41414"/>
</g>
</mask>
<g mask="url(#mask17_2001_2058)">
<path d="M223.416 147.126C223.394 147.129 223.373 147.132 223.351 147.135C221.195 147.452 219.843 147.162 218.953 146.827C217.985 146.463 217.109 145.875 216.018 144.959C212.541 142.038 207.443 142.517 204.631 146.03C203.241 147.766 202.67 149.919 202.869 152.005C203.766 153.147 205.237 153.699 206.638 153.284L211.144 151.949C212.33 151.597 213.181 150.637 213.492 149.472C214.388 150.279 215.625 150.621 216.811 150.269L221.316 148.934C222.267 148.653 223.001 147.981 223.416 147.126Z" fill="white"/>
</g>
<mask id="mask19_2001_2058" style="mask-type:alpha" maskUnits="userSpaceOnUse" x="202" y="143" width="34" height="24">
<mask id="mask20_2001_2058" style="mask-type:luminance" maskUnits="userSpaceOnUse" x="-35" y="10" width="560" height="560">
<path d="M-34.9229 10.4624H524.087V569.472H-34.9229V10.4624Z" fill="white"/>
</mask>
<g mask="url(#mask20_2001_2058)">
<path d="M204.904 147.257C208.009 143.378 213.639 142.848 217.48 146.074C218.685 147.086 219.653 147.735 220.721 148.137C221.705 148.508 223.197 148.827 225.579 148.477C230.457 147.761 235.036 151.23 235.804 156.224C236.572 161.218 233.241 165.847 228.362 166.563C217.347 168.18 210.432 163.646 206.236 160.121C202.395 156.896 201.799 151.136 204.904 147.257Z" fill="#A41414"/>
</g>
</mask>
<g mask="url(#mask19_2001_2058)">
<path d="M235.843 157.292C235.849 157.328 235.855 157.364 235.86 157.4C236.556 161.923 233.539 166.113 229.122 166.762C227.045 167.067 225.128 167.13 223.362 167.01C224.727 162.694 228.016 159.169 232.518 157.835C233.622 157.507 234.738 157.33 235.843 157.292Z" fill="#E64340"/>
</g>
</g>
</g>
</g>
</g>
</g>
<defs>
<clipPath id="clip0_2001_2058">
<rect width="530" height="530" fill="white" transform="translate(0.849609 0.919922)"/>
</clipPath>
<clipPath id="clip1_2001_2058">
<rect width="530" height="530" fill="white" transform="translate(0.849609 0.919922)"/>
</clipPath>
</defs>
</svg>
