<svg width="1441" height="854" viewBox="0 0 1441 854" fill="none" xmlns="http://www.w3.org/2000/svg">
<g clip-path="url(#clip0_2001_7378)">
<path d="M486.032 57.3144V103.86H476.351V57.3144H486.032ZM508.417 104.542C504.826 104.542 501.735 103.814 499.145 102.36C496.569 100.89 494.584 98.8144 493.19 96.1326C491.796 93.4356 491.099 90.2462 491.099 86.5644C491.099 82.9735 491.796 79.822 493.19 77.1099C494.584 74.3977 496.546 72.2841 499.076 70.769C501.622 69.2538 504.607 68.4962 508.031 68.4962C510.334 68.4962 512.478 68.8674 514.463 69.6099C516.463 70.3371 518.205 71.4356 519.69 72.9053C521.19 74.375 522.357 76.2235 523.19 78.4508C524.023 80.6629 524.44 83.2538 524.44 86.2235V88.8826H494.963V82.8826H515.326C515.326 81.4887 515.023 80.2538 514.417 79.178C513.811 78.1023 512.97 77.2614 511.895 76.6553C510.834 76.0341 509.599 75.7235 508.19 75.7235C506.72 75.7235 505.417 76.0644 504.281 76.7462C503.16 77.4129 502.281 78.3144 501.645 79.4508C501.008 80.572 500.682 81.822 500.667 83.2008V88.9053C500.667 90.6326 500.985 92.125 501.622 93.3826C502.273 94.6402 503.19 95.6099 504.372 96.2917C505.554 96.9735 506.955 97.3144 508.576 97.3144C509.652 97.3144 510.637 97.1629 511.531 96.8599C512.425 96.5568 513.19 96.1023 513.826 95.4962C514.463 94.8902 514.948 94.1477 515.281 93.269L524.235 93.8599C523.781 96.0114 522.849 97.8902 521.44 99.4962C520.046 101.087 518.243 102.33 516.031 103.223C513.834 104.102 511.296 104.542 508.417 104.542ZM539.433 104.519C537.205 104.519 535.221 104.133 533.478 103.36C531.736 102.572 530.357 101.413 529.342 99.8826C528.342 98.3371 527.842 96.4129 527.842 94.1099C527.842 92.1705 528.198 90.5417 528.91 89.2235C529.622 87.9053 530.592 86.8447 531.819 86.0417C533.046 85.2387 534.44 84.6326 536.001 84.2235C537.577 83.8144 539.228 83.5265 540.955 83.3599C542.986 83.1477 544.622 82.9508 545.865 82.769C547.107 82.572 548.008 82.2841 548.569 81.9053C549.13 81.5265 549.41 80.9659 549.41 80.2235V80.0871C549.41 78.6477 548.955 77.5341 548.046 76.7462C547.152 75.9583 545.88 75.5644 544.228 75.5644C542.486 75.5644 541.099 75.9508 540.069 76.7235C539.039 77.4811 538.357 78.4356 538.024 79.5871L529.069 78.8599C529.524 76.7387 530.418 74.9053 531.751 73.3599C533.084 71.7993 534.804 70.6023 536.91 69.769C539.031 68.9205 541.486 68.4962 544.274 68.4962C546.213 68.4962 548.069 68.7235 549.842 69.178C551.63 69.6326 553.213 70.3371 554.592 71.2917C555.986 72.2462 557.084 73.4735 557.887 74.9735C558.69 76.4583 559.092 78.2387 559.092 80.3144V103.86H549.91V99.019H549.637C549.077 100.11 548.327 101.072 547.387 101.905C546.448 102.723 545.319 103.367 544.001 103.837C542.683 104.292 541.16 104.519 539.433 104.519ZM542.205 97.8371C543.63 97.8371 544.887 97.5568 545.978 96.9962C547.069 96.4205 547.925 95.6477 548.546 94.678C549.168 93.7083 549.478 92.6099 549.478 91.3826V87.678C549.175 87.875 548.758 88.0568 548.228 88.2235C547.713 88.375 547.13 88.519 546.478 88.6553C545.827 88.7765 545.175 88.8902 544.524 88.9962C543.872 89.0871 543.281 89.1705 542.751 89.2462C541.615 89.4129 540.622 89.678 539.774 90.0417C538.925 90.4053 538.266 90.8977 537.796 91.519C537.327 92.125 537.092 92.8826 537.092 93.7917C537.092 95.1099 537.569 96.1174 538.524 96.8144C539.493 97.4962 540.721 97.8371 542.205 97.8371ZM565.323 103.86V68.9508H574.71V75.0417H575.073C575.71 72.875 576.778 71.2387 578.278 70.1326C579.778 69.0114 581.505 68.4508 583.46 68.4508C583.944 68.4508 584.467 68.4811 585.028 68.5417C585.588 68.6023 586.081 68.6856 586.505 68.7917V77.3826C586.05 77.2462 585.422 77.125 584.619 77.019C583.816 76.9129 583.081 76.8599 582.414 76.8599C580.99 76.8599 579.717 77.1705 578.596 77.7917C577.49 78.3977 576.611 79.2462 575.96 80.3371C575.323 81.428 575.005 82.6856 575.005 84.1099V103.86H565.323ZM599.912 83.678V103.86H590.231V68.9508H599.458V75.1099H599.867C600.64 73.0796 601.935 71.4735 603.753 70.2917C605.572 69.0947 607.776 68.4962 610.367 68.4962C612.791 68.4962 614.905 69.0265 616.708 70.0871C618.511 71.1477 619.912 72.6629 620.912 74.6326C621.912 76.5871 622.412 78.9205 622.412 81.6326V103.86H612.731V83.3599C612.746 81.2235 612.2 79.5568 611.094 78.3599C609.988 77.1477 608.466 76.5417 606.526 76.5417C605.223 76.5417 604.072 76.822 603.072 77.3826C602.087 77.9432 601.314 78.7614 600.753 79.8371C600.208 80.8977 599.928 82.178 599.912 83.678ZM652.25 104.519C650.023 104.519 648.038 104.133 646.296 103.36C644.553 102.572 643.174 101.413 642.159 99.8826C641.159 98.3371 640.659 96.4129 640.659 94.1099C640.659 92.1705 641.015 90.5417 641.727 89.2235C642.44 87.9053 643.409 86.8447 644.637 86.0417C645.864 85.2387 647.258 84.6326 648.818 84.2235C650.394 83.8144 652.046 83.5265 653.773 83.3599C655.803 83.1477 657.44 82.9508 658.682 82.769C659.924 82.572 660.826 82.2841 661.387 81.9053C661.947 81.5265 662.227 80.9659 662.227 80.2235V80.0871C662.227 78.6477 661.773 77.5341 660.864 76.7462C659.97 75.9583 658.697 75.5644 657.046 75.5644C655.303 75.5644 653.917 75.9508 652.887 76.7235C651.856 77.4811 651.174 78.4356 650.841 79.5871L641.887 78.8599C642.341 76.7387 643.235 74.9053 644.568 73.3599C645.902 71.7993 647.621 70.6023 649.727 69.769C651.849 68.9205 654.303 68.4962 657.091 68.4962C659.031 68.4962 660.887 68.7235 662.659 69.178C664.447 69.6326 666.031 70.3371 667.409 71.2917C668.803 72.2462 669.902 73.4735 670.705 74.9735C671.508 76.4583 671.909 78.2387 671.909 80.3144V103.86H662.727V99.019H662.455C661.894 100.11 661.144 101.072 660.205 101.905C659.265 102.723 658.137 103.367 656.818 103.837C655.5 104.292 653.977 104.519 652.25 104.519ZM655.023 97.8371C656.447 97.8371 657.705 97.5568 658.796 96.9962C659.887 96.4205 660.743 95.6477 661.364 94.678C661.985 93.7083 662.296 92.6099 662.296 91.3826V87.678C661.993 87.875 661.576 88.0568 661.046 88.2235C660.531 88.375 659.947 88.519 659.296 88.6553C658.644 88.7765 657.993 88.8902 657.341 88.9962C656.69 89.0871 656.099 89.1705 655.568 89.2462C654.432 89.4129 653.44 89.678 652.591 90.0417C651.743 90.4053 651.084 90.8977 650.614 91.519C650.144 92.125 649.909 92.8826 649.909 93.7917C649.909 95.1099 650.387 96.1174 651.341 96.8144C652.311 97.4962 653.538 97.8371 655.023 97.8371ZM701.355 57.3144V103.86H691.673V57.3144H701.355ZM717.785 104.519C715.558 104.519 713.573 104.133 711.831 103.36C710.088 102.572 708.709 101.413 707.694 99.8826C706.694 98.3371 706.194 96.4129 706.194 94.1099C706.194 92.1705 706.55 90.5417 707.262 89.2235C707.975 87.9053 708.944 86.8447 710.172 86.0417C711.399 85.2387 712.793 84.6326 714.353 84.2235C715.929 83.8144 717.581 83.5265 719.308 83.3599C721.338 83.1477 722.975 82.9508 724.217 82.769C725.459 82.572 726.361 82.2841 726.922 81.9053C727.482 81.5265 727.762 80.9659 727.762 80.2235V80.0871C727.762 78.6477 727.308 77.5341 726.399 76.7462C725.505 75.9583 724.232 75.5644 722.581 75.5644C720.838 75.5644 719.452 75.9508 718.422 76.7235C717.391 77.4811 716.709 78.4356 716.376 79.5871L707.422 78.8599C707.876 76.7387 708.77 74.9053 710.103 73.3599C711.437 71.7993 713.156 70.6023 715.262 69.769C717.384 68.9205 719.838 68.4962 722.626 68.4962C724.566 68.4962 726.422 68.7235 728.194 69.178C729.982 69.6326 731.566 70.3371 732.944 71.2917C734.338 72.2462 735.437 73.4735 736.24 74.9735C737.043 76.4583 737.444 78.2387 737.444 80.3144V103.86H728.262V99.019H727.99C727.429 100.11 726.679 101.072 725.74 101.905C724.8 102.723 723.672 103.367 722.353 103.837C721.035 104.292 719.512 104.519 717.785 104.519ZM720.558 97.8371C721.982 97.8371 723.24 97.5568 724.331 96.9962C725.422 96.4205 726.278 95.6477 726.899 94.678C727.52 93.7083 727.831 92.6099 727.831 91.3826V87.678C727.528 87.875 727.111 88.0568 726.581 88.2235C726.066 88.375 725.482 88.519 724.831 88.6553C724.179 88.7765 723.528 88.8902 722.876 88.9962C722.225 89.0871 721.634 89.1705 721.103 89.2462C719.967 89.4129 718.975 89.678 718.126 90.0417C717.278 90.4053 716.619 90.8977 716.149 91.519C715.679 92.125 715.444 92.8826 715.444 93.7917C715.444 95.1099 715.922 96.1174 716.876 96.8144C717.846 97.4962 719.073 97.8371 720.558 97.8371ZM753.357 83.678V103.86H743.676V68.9508H752.903V75.1099H753.312C754.085 73.0796 755.38 71.4735 757.198 70.2917C759.017 69.0947 761.221 68.4962 763.812 68.4962C766.236 68.4962 768.35 69.0265 770.153 70.0871C771.956 71.1477 773.357 72.6629 774.357 74.6326C775.357 76.5871 775.857 78.9205 775.857 81.6326V103.86H766.176V83.3599C766.191 81.2235 765.645 79.5568 764.539 78.3599C763.433 77.1477 761.911 76.5417 759.971 76.5417C758.668 76.5417 757.517 76.822 756.517 77.3826C755.532 77.9432 754.759 78.7614 754.198 79.8371C753.653 80.8977 753.373 82.178 753.357 83.678ZM797.935 117.678C794.799 117.678 792.11 117.246 789.867 116.383C787.64 115.534 785.867 114.375 784.549 112.905C783.231 111.436 782.375 109.784 781.981 107.951L790.935 106.746C791.208 107.443 791.64 108.095 792.231 108.701C792.822 109.307 793.602 109.792 794.572 110.155C795.557 110.534 796.754 110.723 798.163 110.723C800.269 110.723 802.004 110.208 803.367 109.178C804.746 108.163 805.435 106.458 805.435 104.064V97.678H805.026C804.602 98.6477 803.966 99.5644 803.117 100.428C802.269 101.292 801.178 101.996 799.845 102.542C798.511 103.087 796.92 103.36 795.072 103.36C792.451 103.36 790.064 102.754 787.913 101.542C785.776 100.314 784.072 98.4432 782.799 95.928C781.542 93.3977 780.913 90.2008 780.913 86.3371C780.913 82.3826 781.557 79.0796 782.845 76.428C784.132 73.7765 785.845 71.7917 787.981 70.4735C790.132 69.1553 792.488 68.4962 795.049 68.4962C797.004 68.4962 798.64 68.8296 799.958 69.4962C801.276 70.1477 802.337 70.9659 803.14 71.9508C803.958 72.9205 804.587 73.875 805.026 74.8144H805.39V68.9508H815.004V104.201C815.004 107.17 814.276 109.655 812.822 111.655C811.367 113.655 809.352 115.155 806.776 116.155C804.216 117.17 801.269 117.678 797.935 117.678ZM798.14 96.0871C799.701 96.0871 801.019 95.7008 802.095 94.928C803.185 94.1402 804.019 93.019 804.595 91.5644C805.185 90.0947 805.481 88.3371 805.481 86.2917C805.481 84.2462 805.193 82.4735 804.617 80.9735C804.042 79.4583 803.208 78.2841 802.117 77.4508C801.026 76.6174 799.701 76.2008 798.14 76.2008C796.549 76.2008 795.208 76.6326 794.117 77.4962C793.026 78.3447 792.201 79.5265 791.64 81.0417C791.079 82.5568 790.799 84.3068 790.799 86.2917C790.799 88.3068 791.079 90.0493 791.64 91.519C792.216 92.9735 793.042 94.1023 794.117 94.9053C795.208 95.6932 796.549 96.0871 798.14 96.0871ZM843.815 88.9962V68.9508H853.496V103.86H844.201V97.519H843.837C843.049 99.5644 841.739 101.208 839.905 102.451C838.087 103.693 835.868 104.314 833.246 104.314C830.913 104.314 828.86 103.784 827.087 102.723C825.315 101.663 823.928 100.155 822.928 98.2008C821.943 96.2462 821.443 93.9053 821.428 91.178V68.9508H831.11V89.4508C831.125 91.5114 831.678 93.1402 832.769 94.3371C833.86 95.5341 835.322 96.1326 837.155 96.1326C838.322 96.1326 839.413 95.8674 840.428 95.3371C841.443 94.7917 842.262 93.9887 842.883 92.928C843.519 91.8674 843.83 90.5568 843.815 88.9962ZM869.915 104.519C867.688 104.519 865.703 104.133 863.961 103.36C862.218 102.572 860.839 101.413 859.824 99.8826C858.824 98.3371 858.324 96.4129 858.324 94.1099C858.324 92.1705 858.68 90.5417 859.392 89.2235C860.105 87.9053 861.074 86.8447 862.302 86.0417C863.529 85.2387 864.923 84.6326 866.483 84.2235C868.059 83.8144 869.711 83.5265 871.438 83.3599C873.468 83.1477 875.105 82.9508 876.347 82.769C877.589 82.572 878.491 82.2841 879.052 81.9053C879.612 81.5265 879.892 80.9659 879.892 80.2235V80.0871C879.892 78.6477 879.438 77.5341 878.529 76.7462C877.635 75.9583 876.362 75.5644 874.711 75.5644C872.968 75.5644 871.582 75.9508 870.552 76.7235C869.521 77.4811 868.839 78.4356 868.506 79.5871L859.552 78.8599C860.006 76.7387 860.9 74.9053 862.233 73.3599C863.567 71.7993 865.286 70.6023 867.392 69.769C869.514 68.9205 871.968 68.4962 874.756 68.4962C876.696 68.4962 878.552 68.7235 880.324 69.178C882.112 69.6326 883.696 70.3371 885.074 71.2917C886.468 72.2462 887.567 73.4735 888.37 74.9735C889.173 76.4583 889.574 78.2387 889.574 80.3144V103.86H880.392V99.019H880.12C879.559 100.11 878.809 101.072 877.87 101.905C876.93 102.723 875.802 103.367 874.483 103.837C873.165 104.292 871.642 104.519 869.915 104.519ZM872.688 97.8371C874.112 97.8371 875.37 97.5568 876.461 96.9962C877.552 96.4205 878.408 95.6477 879.029 94.678C879.65 93.7083 879.961 92.6099 879.961 91.3826V87.678C879.658 87.875 879.241 88.0568 878.711 88.2235C878.196 88.375 877.612 88.519 876.961 88.6553C876.309 88.7765 875.658 88.8902 875.006 88.9962C874.355 89.0871 873.764 89.1705 873.233 89.2462C872.097 89.4129 871.105 89.678 870.256 90.0417C869.408 90.4053 868.749 90.8977 868.279 91.519C867.809 92.125 867.574 92.8826 867.574 93.7917C867.574 95.1099 868.052 96.1174 869.006 96.8144C869.976 97.4962 871.203 97.8371 872.688 97.8371ZM911.533 117.678C908.397 117.678 905.707 117.246 903.465 116.383C901.237 115.534 899.465 114.375 898.147 112.905C896.828 111.436 895.972 109.784 895.578 107.951L904.533 106.746C904.806 107.443 905.237 108.095 905.828 108.701C906.419 109.307 907.2 109.792 908.169 110.155C909.154 110.534 910.351 110.723 911.76 110.723C913.866 110.723 915.601 110.208 916.965 109.178C918.344 108.163 919.033 106.458 919.033 104.064V97.678H918.624C918.2 98.6477 917.563 99.5644 916.715 100.428C915.866 101.292 914.775 101.996 913.442 102.542C912.109 103.087 910.518 103.36 908.669 103.36C906.048 103.36 903.662 102.754 901.51 101.542C899.374 100.314 897.669 98.4432 896.397 95.928C895.139 93.3977 894.51 90.2008 894.51 86.3371C894.51 82.3826 895.154 79.0796 896.442 76.428C897.73 73.7765 899.442 71.7917 901.578 70.4735C903.73 69.1553 906.086 68.4962 908.647 68.4962C910.601 68.4962 912.237 68.8296 913.556 69.4962C914.874 70.1477 915.934 70.9659 916.737 71.9508C917.556 72.9205 918.184 73.875 918.624 74.8144H918.987V68.9508H928.601V104.201C928.601 107.17 927.874 109.655 926.419 111.655C924.965 113.655 922.95 115.155 920.374 116.155C917.813 117.17 914.866 117.678 911.533 117.678ZM911.737 96.0871C913.298 96.0871 914.616 95.7008 915.692 94.928C916.783 94.1402 917.616 93.019 918.192 91.5644C918.783 90.0947 919.078 88.3371 919.078 86.2917C919.078 84.2462 918.791 82.4735 918.215 80.9735C917.639 79.4583 916.806 78.2841 915.715 77.4508C914.624 76.6174 913.298 76.2008 911.737 76.2008C910.147 76.2008 908.806 76.6326 907.715 77.4962C906.624 78.3447 905.798 79.5265 905.237 81.0417C904.677 82.5568 904.397 84.3068 904.397 86.2917C904.397 88.3068 904.677 90.0493 905.237 91.519C905.813 92.9735 906.639 94.1023 907.715 94.9053C908.806 95.6932 910.147 96.0871 911.737 96.0871ZM950.935 104.542C947.344 104.542 944.253 103.814 941.662 102.36C939.086 100.89 937.101 98.8144 935.707 96.1326C934.314 93.4356 933.617 90.2462 933.617 86.5644C933.617 82.9735 934.314 79.822 935.707 77.1099C937.101 74.3977 939.064 72.2841 941.594 70.769C944.139 69.2538 947.124 68.4962 950.548 68.4962C952.851 68.4962 954.995 68.8674 956.98 69.6099C958.98 70.3371 960.723 71.4356 962.207 72.9053C963.707 74.375 964.874 76.2235 965.707 78.4508C966.541 80.6629 966.957 83.2538 966.957 86.2235V88.8826H937.48V82.8826H957.844C957.844 81.4887 957.541 80.2538 956.935 79.178C956.329 78.1023 955.488 77.2614 954.412 76.6553C953.351 76.0341 952.117 75.7235 950.707 75.7235C949.238 75.7235 947.935 76.0644 946.798 76.7462C945.677 77.4129 944.798 78.3144 944.162 79.4508C943.526 80.572 943.2 81.822 943.185 83.2008V88.9053C943.185 90.6326 943.503 92.125 944.139 93.3826C944.791 94.6402 945.707 95.6099 946.889 96.2917C948.071 96.9735 949.473 97.3144 951.094 97.3144C952.17 97.3144 953.154 97.1629 954.048 96.8599C954.942 96.5568 955.707 96.1023 956.344 95.4962C956.98 94.8902 957.465 94.1477 957.798 93.269L966.753 93.8599C966.298 96.0114 965.367 97.8902 963.957 99.4962C962.564 101.087 960.761 102.33 958.548 103.223C956.351 104.102 953.814 104.542 950.935 104.542Z" fill="#58CC02"/>
<path d="M526.161 183.86L516.661 148.951H526.456L531.865 172.405H532.184L537.82 148.951H547.434L553.161 172.269H553.456L558.775 148.951H568.547L559.07 183.86H548.82L542.82 161.905H542.388L536.388 183.86H526.161ZM572.432 183.86V148.951H582.114V183.86H572.432ZM577.296 144.451C575.856 144.451 574.621 143.973 573.591 143.019C572.576 142.049 572.068 140.89 572.068 139.542C572.068 138.208 572.576 137.064 573.591 136.11C574.621 135.14 575.856 134.655 577.296 134.655C578.735 134.655 579.962 135.14 580.977 136.11C582.008 137.064 582.523 138.208 582.523 139.542C582.523 140.89 582.008 142.049 580.977 143.019C579.962 143.973 578.735 144.451 577.296 144.451ZM607.158 148.951V156.223H586.135V148.951H607.158ZM590.908 140.587H600.59V173.133C600.59 174.027 600.726 174.723 600.999 175.223C601.271 175.708 601.65 176.049 602.135 176.246C602.635 176.443 603.211 176.542 603.862 176.542C604.317 176.542 604.771 176.504 605.226 176.428C605.68 176.337 606.029 176.269 606.271 176.223L607.794 183.428C607.309 183.58 606.627 183.754 605.749 183.951C604.87 184.163 603.802 184.292 602.544 184.337C600.211 184.428 598.165 184.117 596.408 183.405C594.665 182.693 593.309 181.587 592.34 180.087C591.37 178.587 590.893 176.693 590.908 174.405V140.587ZM622.616 163.678V183.86H612.935V137.314H622.344V155.11H622.753C623.541 153.049 624.813 151.436 626.571 150.269C628.328 149.087 630.533 148.496 633.185 148.496C635.609 148.496 637.722 149.027 639.525 150.087C641.344 151.133 642.753 152.64 643.753 154.61C644.768 156.564 645.268 158.905 645.253 161.633V183.86H635.571V163.36C635.586 161.208 635.041 159.534 633.935 158.337C632.844 157.14 631.313 156.542 629.344 156.542C628.025 156.542 626.859 156.822 625.844 157.383C624.844 157.943 624.056 158.761 623.48 159.837C622.919 160.898 622.632 162.178 622.616 163.678ZM677.988 184.428C675.337 184.428 672.935 183.746 670.784 182.383C668.647 181.004 666.95 178.981 665.693 176.314C664.45 173.633 663.829 170.345 663.829 166.451C663.829 162.451 664.473 159.125 665.761 156.473C667.049 153.807 668.761 151.814 670.897 150.496C673.049 149.163 675.405 148.496 677.965 148.496C679.92 148.496 681.549 148.83 682.852 149.496C684.17 150.148 685.231 150.966 686.034 151.951C686.852 152.92 687.473 153.875 687.897 154.814H688.193V137.314H697.852V183.86H688.306V178.269H687.897C687.443 179.239 686.799 180.201 685.965 181.155C685.147 182.095 684.079 182.875 682.761 183.496C681.458 184.117 679.867 184.428 677.988 184.428ZM681.056 176.723C682.617 176.723 683.935 176.299 685.011 175.451C686.102 174.587 686.935 173.383 687.511 171.837C688.102 170.292 688.397 168.481 688.397 166.405C688.397 164.33 688.109 162.527 687.534 160.996C686.958 159.466 686.125 158.284 685.034 157.451C683.943 156.617 682.617 156.201 681.056 156.201C679.465 156.201 678.125 156.633 677.034 157.496C675.943 158.36 675.117 159.557 674.556 161.087C673.996 162.617 673.715 164.39 673.715 166.405C673.715 168.436 673.996 170.231 674.556 171.792C675.132 173.337 675.958 174.549 677.034 175.428C678.125 176.292 679.465 176.723 681.056 176.723ZM726.918 168.996V148.951H736.6V183.86H727.305V177.519H726.941C726.153 179.564 724.843 181.208 723.009 182.451C721.191 183.693 718.971 184.314 716.35 184.314C714.017 184.314 711.964 183.784 710.191 182.723C708.418 181.663 707.032 180.155 706.032 178.201C705.047 176.246 704.547 173.905 704.532 171.178V148.951H714.214V169.451C714.229 171.511 714.782 173.14 715.873 174.337C716.964 175.534 718.426 176.133 720.259 176.133C721.426 176.133 722.517 175.867 723.532 175.337C724.547 174.792 725.365 173.989 725.987 172.928C726.623 171.867 726.934 170.557 726.918 168.996ZM758.837 184.542C755.307 184.542 752.254 183.792 749.678 182.292C747.118 180.777 745.14 178.67 743.746 175.973C742.352 173.261 741.655 170.117 741.655 166.542C741.655 162.936 742.352 159.784 743.746 157.087C745.14 154.375 747.118 152.269 749.678 150.769C752.254 149.254 755.307 148.496 758.837 148.496C762.368 148.496 765.413 149.254 767.974 150.769C770.549 152.269 772.534 154.375 773.928 157.087C775.322 159.784 776.019 162.936 776.019 166.542C776.019 170.117 775.322 173.261 773.928 175.973C772.534 178.67 770.549 180.777 767.974 182.292C765.413 183.792 762.368 184.542 758.837 184.542ZM758.883 177.042C760.489 177.042 761.83 176.587 762.905 175.678C763.981 174.754 764.792 173.496 765.337 171.905C765.898 170.314 766.178 168.504 766.178 166.473C766.178 164.443 765.898 162.633 765.337 161.042C764.792 159.451 763.981 158.193 762.905 157.269C761.83 156.345 760.489 155.883 758.883 155.883C757.262 155.883 755.898 156.345 754.792 157.269C753.701 158.193 752.875 159.451 752.315 161.042C751.769 162.633 751.496 164.443 751.496 166.473C751.496 168.504 751.769 170.314 752.315 171.905C752.875 173.496 753.701 174.754 754.792 175.678C755.898 176.587 757.262 177.042 758.883 177.042ZM790.716 137.314V183.86H781.035V137.314H790.716ZM797.192 183.86V148.951H806.874V183.86H797.192ZM802.056 144.451C800.616 144.451 799.381 143.973 798.351 143.019C797.336 142.049 796.828 140.89 796.828 139.542C796.828 138.208 797.336 137.064 798.351 136.11C799.381 135.14 800.616 134.655 802.056 134.655C803.495 134.655 804.722 135.14 805.738 136.11C806.768 137.064 807.283 138.208 807.283 139.542C807.283 140.89 806.768 142.049 805.738 143.019C804.722 143.973 803.495 144.451 802.056 144.451ZM823.031 163.678V183.86H813.35V148.951H822.577V155.11H822.986C823.759 153.08 825.054 151.473 826.872 150.292C828.69 149.095 830.895 148.496 833.486 148.496C835.91 148.496 838.024 149.027 839.827 150.087C841.63 151.148 843.031 152.663 844.031 154.633C845.031 156.587 845.531 158.92 845.531 161.633V183.86H835.85V163.36C835.865 161.223 835.319 159.557 834.213 158.36C833.107 157.148 831.584 156.542 829.645 156.542C828.342 156.542 827.19 156.822 826.19 157.383C825.206 157.943 824.433 158.761 823.872 159.837C823.327 160.898 823.047 162.178 823.031 163.678ZM867.609 197.678C864.473 197.678 861.784 197.246 859.541 196.383C857.314 195.534 855.541 194.375 854.223 192.905C852.905 191.436 852.049 189.784 851.655 187.951L860.609 186.746C860.882 187.443 861.314 188.095 861.905 188.701C862.496 189.307 863.276 189.792 864.246 190.155C865.231 190.534 866.428 190.723 867.837 190.723C869.943 190.723 871.678 190.208 873.041 189.178C874.42 188.163 875.109 186.458 875.109 184.064V177.678H874.7C874.276 178.648 873.64 179.564 872.791 180.428C871.943 181.292 870.852 181.996 869.518 182.542C868.185 183.087 866.594 183.36 864.746 183.36C862.124 183.36 859.738 182.754 857.587 181.542C855.45 180.314 853.746 178.443 852.473 175.928C851.215 173.398 850.587 170.201 850.587 166.337C850.587 162.383 851.231 159.08 852.518 156.428C853.806 153.777 855.518 151.792 857.655 150.473C859.806 149.155 862.162 148.496 864.723 148.496C866.678 148.496 868.314 148.83 869.632 149.496C870.95 150.148 872.011 150.966 872.814 151.951C873.632 152.92 874.261 153.875 874.7 154.814H875.064V148.951H884.678V184.201C884.678 187.17 883.95 189.655 882.496 191.655C881.041 193.655 879.026 195.155 876.45 196.155C873.89 197.17 870.943 197.678 867.609 197.678ZM867.814 176.087C869.374 176.087 870.693 175.701 871.768 174.928C872.859 174.14 873.693 173.019 874.268 171.564C874.859 170.095 875.155 168.337 875.155 166.292C875.155 164.246 874.867 162.473 874.291 160.973C873.715 159.458 872.882 158.284 871.791 157.451C870.7 156.617 869.374 156.201 867.814 156.201C866.223 156.201 864.882 156.633 863.791 157.496C862.7 158.345 861.874 159.527 861.314 161.042C860.753 162.557 860.473 164.307 860.473 166.292C860.473 168.307 860.753 170.049 861.314 171.519C861.89 172.973 862.715 174.102 863.791 174.905C864.882 175.693 866.223 176.087 867.814 176.087ZM906.875 184.542C903.344 184.542 900.291 183.792 897.716 182.292C895.155 180.777 893.178 178.67 891.784 175.973C890.39 173.261 889.693 170.117 889.693 166.542C889.693 162.936 890.39 159.784 891.784 157.087C893.178 154.375 895.155 152.269 897.716 150.769C900.291 149.254 903.344 148.496 906.875 148.496C910.405 148.496 913.451 149.254 916.011 150.769C918.587 152.269 920.572 154.375 921.966 157.087C923.36 159.784 924.057 162.936 924.057 166.542C924.057 170.117 923.36 173.261 921.966 175.973C920.572 178.67 918.587 180.777 916.011 182.292C913.451 183.792 910.405 184.542 906.875 184.542ZM906.92 177.042C908.526 177.042 909.867 176.587 910.943 175.678C912.019 174.754 912.829 173.496 913.375 171.905C913.935 170.314 914.216 168.504 914.216 166.473C914.216 164.443 913.935 162.633 913.375 161.042C912.829 159.451 912.019 158.193 910.943 157.269C909.867 156.345 908.526 155.883 906.92 155.883C905.299 155.883 903.935 156.345 902.829 157.269C901.738 158.193 900.913 159.451 900.352 161.042C899.807 162.633 899.534 164.443 899.534 166.473C899.534 168.504 899.807 170.314 900.352 171.905C900.913 173.496 901.738 174.754 902.829 175.678C903.935 176.587 905.299 177.042 906.92 177.042Z" fill="#58CC02"/>
<g filter="url(#filter0_d_2001_7378)">
<rect x="555.85" y="248.86" width="330" height="46" rx="12" fill="#58CC02"/>
</g>
<g clip-path="url(#clip1_2001_7378)">
<path d="M678.243 269.842C678.177 269.613 678.084 269.411 677.965 269.236C677.846 269.057 677.7 268.906 677.528 268.784C677.358 268.659 677.164 268.563 676.945 268.497C676.728 268.431 676.489 268.399 676.225 268.399C675.733 268.399 675.3 268.521 674.927 268.765C674.557 269.01 674.269 269.366 674.062 269.833C673.855 270.297 673.752 270.864 673.752 271.535C673.752 272.206 673.854 272.777 674.057 273.247C674.261 273.717 674.55 274.076 674.923 274.324C675.296 274.568 675.736 274.69 676.244 274.69C676.705 274.69 677.098 274.609 677.424 274.446C677.753 274.28 678.004 274.046 678.177 273.745C678.352 273.444 678.44 273.089 678.44 272.678L678.854 272.739H676.371V271.206H680.401V272.419C680.401 273.266 680.222 273.993 679.865 274.601C679.508 275.206 679.015 275.673 678.388 276.002C677.761 276.329 677.043 276.492 676.235 276.492C675.332 276.492 674.539 276.292 673.855 275.894C673.172 275.493 672.639 274.924 672.256 274.187C671.877 273.447 671.687 272.57 671.687 271.554C671.687 270.773 671.8 270.077 672.026 269.466C672.255 268.852 672.574 268.331 672.985 267.905C673.396 267.478 673.874 267.154 674.419 266.931C674.965 266.709 675.556 266.598 676.192 266.598C676.738 266.598 677.246 266.677 677.716 266.837C678.186 266.994 678.603 267.217 678.967 267.505C679.334 267.794 679.633 268.137 679.865 268.535C680.097 268.93 680.246 269.366 680.312 269.842H678.243ZM682.73 276.36V266.729H689.22V268.408H684.767V270.703H688.886V272.382H684.767V274.681H689.239V276.36H682.73ZM691.272 268.408V266.729H699.181V268.408H696.233V276.36H694.22V268.408H691.272ZM710.373 269.499C710.336 269.12 710.174 268.825 709.889 268.615C709.604 268.405 709.217 268.3 708.728 268.3C708.395 268.3 708.115 268.347 707.886 268.441C707.657 268.532 707.481 268.659 707.359 268.822C707.24 268.985 707.18 269.17 707.18 269.377C707.174 269.549 707.21 269.7 707.289 269.828C707.37 269.957 707.481 270.068 707.622 270.162C707.764 270.253 707.927 270.333 708.111 270.402C708.296 270.468 708.494 270.524 708.704 270.571L709.569 270.778C709.989 270.872 710.375 270.997 710.726 271.154C711.077 271.311 711.381 271.504 711.638 271.733C711.895 271.961 712.094 272.231 712.236 272.541C712.38 272.852 712.453 273.208 712.457 273.609C712.453 274.198 712.303 274.709 712.005 275.142C711.71 275.571 711.284 275.905 710.726 276.144C710.171 276.379 709.502 276.496 708.718 276.496C707.941 276.496 707.263 276.377 706.687 276.139C706.113 275.901 705.665 275.548 705.342 275.081C705.022 274.611 704.854 274.029 704.839 273.336H706.809C706.831 273.659 706.923 273.929 707.086 274.145C707.253 274.358 707.474 274.52 707.749 274.629C708.028 274.736 708.343 274.789 708.695 274.789C709.039 274.789 709.339 274.739 709.593 274.639C709.85 274.538 710.049 274.399 710.19 274.22C710.331 274.042 710.402 273.836 710.402 273.604C710.402 273.388 710.337 273.206 710.209 273.059C710.083 272.911 709.898 272.786 709.654 272.683C709.413 272.579 709.116 272.485 708.765 272.4L707.716 272.137C706.905 271.94 706.263 271.631 705.793 271.211C705.323 270.791 705.089 270.225 705.092 269.513C705.089 268.93 705.245 268.421 705.558 267.985C705.875 267.549 706.309 267.209 706.861 266.964C707.412 266.72 708.039 266.598 708.742 266.598C709.456 266.598 710.08 266.72 710.613 266.964C711.149 267.209 711.566 267.549 711.864 267.985C712.162 268.421 712.316 268.925 712.325 269.499H710.373ZM714.259 268.408V266.729H722.169V268.408H719.221V276.36H717.208V268.408H714.259ZM724.755 276.36H722.573L725.897 266.729H728.521L731.841 276.36H729.659L727.247 268.93H727.172L724.755 276.36ZM724.618 272.574H729.772V274.164H724.618V272.574ZM733.801 276.36V266.729H737.6C738.327 266.729 738.948 266.859 739.462 267.119C739.98 267.377 740.373 267.742 740.643 268.215C740.915 268.685 741.052 269.239 741.052 269.875C741.052 270.515 740.914 271.065 740.638 271.526C740.362 271.983 739.962 272.335 739.439 272.579C738.918 272.824 738.288 272.946 737.548 272.946H735.004V271.309H737.219C737.608 271.309 737.931 271.256 738.188 271.15C738.445 271.043 738.636 270.883 738.762 270.67C738.89 270.457 738.954 270.192 738.954 269.875C738.954 269.555 738.89 269.286 738.762 269.066C738.636 268.847 738.443 268.681 738.183 268.568C737.926 268.452 737.602 268.394 737.21 268.394H735.837V276.36H733.801ZM739.001 271.977L741.395 276.36H739.147L736.805 271.977H739.001ZM742.924 268.408V266.729H750.833V268.408H747.885V276.36H745.872V268.408H742.924ZM752.936 276.36V266.729H759.426V268.408H754.972V270.703H759.092V272.382H754.972V274.681H759.444V276.36H752.936ZM765.258 276.36H761.844V266.729H765.287C766.255 266.729 767.089 266.922 767.788 267.308C768.487 267.69 769.025 268.24 769.401 268.958C769.781 269.676 769.97 270.535 769.97 271.535C769.97 272.538 769.781 273.4 769.401 274.121C769.025 274.843 768.484 275.396 767.779 275.781C767.077 276.167 766.236 276.36 765.258 276.36ZM763.881 274.615H765.174C765.776 274.615 766.282 274.509 766.693 274.295C767.106 274.079 767.417 273.745 767.624 273.294C767.834 272.839 767.939 272.253 767.939 271.535C767.939 270.823 767.834 270.242 767.624 269.79C767.417 269.339 767.108 269.007 766.697 268.794C766.287 268.58 765.78 268.474 765.178 268.474H763.881V274.615Z" fill="white"/>
</g>
<g clip-path="url(#clip2_2001_7378)">
<g clip-path="url(#clip3_2001_7378)">
<g clip-path="url(#clip4_2001_7378)">
<mask id="mask0_2001_7378" style="mask-type:luminance" maskUnits="userSpaceOnUse" x="0" y="-19" width="1441" height="796">
<path d="M1440.85 -18.0798H0.849609V776.92H1440.85V-18.0798Z" fill="white"/>
</mask>
<g mask="url(#mask0_2001_7378)">
<path d="M539.829 655.678C525.697 638.836 512.221 622.774 489.519 612.271C455.484 596.523 430.214 594.997 407.192 593.608C383.337 592.167 361.894 590.873 335.611 574.052C306.561 555.46 294.831 537.848 282.775 519.745C273.398 505.665 263.823 491.288 245.746 475.923C212.31 447.502 177.574 437.705 136.256 437.705H-1.12402V776.507H1440.85V437.705H1303.47C1262.15 437.705 1227.42 447.502 1193.98 475.923C1175.9 491.288 1166.33 505.665 1156.95 519.745C1144.89 537.847 1133.16 555.46 1104.11 574.052C1077.83 590.873 1056.39 592.167 1032.53 593.608C1009.51 594.997 984.241 596.523 950.206 612.271C927.504 622.774 914.028 638.836 899.896 655.678C870.946 690.18 839.247 727.959 719.862 727.959C600.478 727.959 568.779 690.18 539.829 655.678Z" fill="#58CC02"/>
<path d="M261.975 576.853L297.77 589.63C299.4 590.212 301.163 590.312 302.848 589.917L310.703 588.078C312.748 587.599 313.68 585.222 312.506 583.48L307.02 575.341C306.542 574.632 305.85 574.095 305.044 573.808L269.831 561.281C269.316 561.097 268.769 561.022 268.223 561.058L257.219 561.796C255.247 561.928 253.938 563.895 254.582 565.764L256.492 571.308C257.382 573.894 259.4 575.934 261.975 576.853Z" fill="#50A463"/>
<path d="M607.93 604.915L618.696 625.517C623.352 634.427 632.573 640.012 642.626 640.012H799.104C809.157 640.012 818.378 634.427 823.034 625.517L833.8 604.915L724.719 601.827V601.609L720.865 601.718L717.011 601.609V601.827L607.93 604.915Z" fill="#5DAD00"/>
<path d="M640.102 624.796H801.598C823.523 624.796 840.356 605.362 837.229 583.661L806.341 369.327C804.427 356.041 793.041 346.179 779.617 346.179H662.083C648.659 346.179 637.273 356.041 635.359 369.327L604.47 583.661C601.343 605.362 618.177 624.796 640.102 624.796Z" fill="#78C800"/>
<path d="M832.776 584.302C835.512 603.291 820.783 620.296 801.598 620.296H640.102C620.917 620.296 606.188 603.291 608.924 584.302L639.813 369.969C641.408 358.897 650.896 350.679 662.083 350.679H779.617C790.804 350.679 800.292 358.897 801.887 369.969L832.776 584.302Z" fill="white"/>
<path d="M801.945 370.366H639.755L639.813 369.969C641.408 358.897 650.896 350.678 662.083 350.678H779.617C790.804 350.678 800.292 358.897 801.887 369.969L801.945 370.366Z" fill="#A4F34F"/>
<path d="M936.701 329.208L957.217 314.088C960.513 311.658 965.197 313.771 965.558 317.85L965.625 318.597L980.878 308.978C983.924 307.057 987.956 308.705 988.785 312.209L998.149 351.768C1000.3 360.434 999.543 369.874 995.337 378.533C985.804 398.16 962.165 406.343 942.537 396.81C922.911 387.276 914.729 363.637 924.262 344.01C927.226 337.906 931.554 332.91 936.701 329.208Z" fill="#FF9600"/>
<path d="M975.958 348.195C977.452 346.859 979.831 347.623 980.268 349.578L983.803 365.365C984.371 368.831 984.213 373.438 982.642 377.274C978.994 386.185 970.77 390.128 963.986 387.35C957.202 384.573 954.355 376.259 958.003 367.348C959.521 363.642 962.703 359.688 965.418 357.619L975.958 348.195Z" fill="#FFC700"/>
<path d="M1100.59 555.345C1150.11 551.135 1189.4 537.374 1188.57 524.565C1188.56 524.525 1188.56 524.485 1188.56 524.445L1187.22 508.778L1163.75 510.774C1146.91 507.51 1122.97 506.598 1096.64 508.837C1070.31 511.075 1046.87 516.014 1030.82 522.074L1007.35 524.07L1008.69 539.857C1010.03 552.623 1051.08 559.554 1100.59 555.345Z" fill="#01A98A"/>
<path d="M1187.22 508.741C1188.31 521.584 1148.93 535.418 1099.26 539.641C1049.59 543.864 1008.44 536.876 1007.34 524.033C1006.25 511.19 1045.63 497.356 1095.31 493.133C1144.98 488.91 1186.13 495.898 1187.22 508.741Z" fill="#00D3AC"/>
<path d="M1070.71 515.382L1094.64 521.792L1131.23 504.98" stroke="white" stroke-width="6.39998" stroke-linecap="round" stroke-linejoin="round"/>
<path d="M923.894 509.835C966.605 499.318 999.057 481.86 996.557 470.776C996.55 470.742 996.541 470.707 996.533 470.673L993.205 457.158L972.956 462.146C957.779 461.618 936.725 464.127 914.015 469.719C891.304 475.312 871.492 482.866 858.295 490.382L838.048 495.369L841.402 508.986C844.335 519.963 881.182 520.354 923.894 509.835Z" fill="#E49E00"/>
<path d="M993.197 457.127C995.926 468.205 963.404 485.74 920.558 496.291C877.713 506.843 840.769 506.416 838.041 495.337C835.312 484.259 867.834 466.725 910.68 456.174C953.525 445.622 990.469 446.049 993.197 457.127Z" fill="#FFC700"/>
<path d="M791.415 461.55C789.759 471.385 757.589 474.772 719.395 469.109C681.2 463.445 651.398 450.87 652.667 440.978L654.472 428.801L672.579 431.485C685.799 429.77 704.405 430.222 724.714 433.234C745.024 436.245 762.959 441.211 775.113 446.688L793.22 449.373L791.428 461.458C791.424 461.488 791.42 461.52 791.415 461.55Z" fill="#E49E00"/>
<path d="M726.51 421.122C764.797 426.799 794.692 439.445 793.224 449.345C791.756 459.244 759.478 462.672 721.19 456.995C682.903 451.318 653.008 438.672 654.476 428.772C655.944 418.873 688.222 415.444 726.51 421.122Z" fill="#FFC700"/>
<path d="M692.845 445.246C687.911 443.875 683.365 442.403 679.3 440.876L723.639 425.201C724.376 425.304 725.115 425.409 725.857 425.519C730.919 426.27 735.818 427.143 740.502 428.112L692.845 445.246ZM677.305 423.527C686.375 422.564 697.92 422.575 710.779 423.724L670.001 436.867C666.659 435.191 664.065 433.553 662.244 432.032C660.025 430.179 659.841 429.381 659.907 428.935C660 428.308 660.381 427.778 663.042 426.648C666.213 425.302 671.018 424.195 677.305 423.527Z" fill="#FFE700"/>
<path d="M892.208 468.246C892.874 467.685 892.293 466.627 891.464 466.897C878.996 470.945 868.166 475.466 859.844 479.952C853.504 483.371 848.914 486.612 846.153 489.399C843.836 491.739 843.664 492.464 843.836 493.163C843.959 493.663 844.498 494.425 847.637 495.421C850.012 496.174 853.122 496.748 856.922 497.087C857.549 497.144 858.171 496.942 858.653 496.536L892.208 468.246Z" fill="#FFE700"/>
<path d="M871.074 495.92C870.518 496.417 870.884 497.334 871.63 497.301C875.75 497.121 880.175 496.763 884.845 496.228C885.339 496.172 885.802 495.961 886.171 495.629L926.341 459.406C926.941 458.865 926.454 457.883 925.662 458.039C921.178 458.921 916.575 459.939 911.891 461.092C911.251 461.25 910.615 461.409 909.982 461.569C909.609 461.663 909.266 461.848 908.978 462.103L871.074 495.92Z" fill="#FFE700"/>
<path d="M461.943 320.435C480.441 323.764 496.144 322.6 497.097 317.84C497.1 317.825 497.102 317.81 497.105 317.795L498.158 311.943L489.389 310.364C483.558 307.516 474.906 304.831 465.069 303.061C455.234 301.29 446.188 300.79 439.731 301.426L430.961 299.848L429.899 305.745C429.133 310.539 443.445 317.106 461.943 320.435Z" fill="#E49E00"/>
<path d="M498.161 311.929C497.297 316.727 481.554 317.908 462.998 314.569C444.442 311.229 430.1 304.632 430.963 299.834C431.827 295.036 447.569 293.854 466.126 297.194C484.681 300.535 499.024 307.131 498.161 311.929Z" fill="#FFC700"/>
<path d="M455.028 299.206C455.781 298.989 455.69 297.923 454.908 297.853C450.078 297.422 445.726 297.356 442.149 297.625C439.08 297.856 436.726 298.322 435.162 298.929C433.851 299.439 433.657 299.691 433.603 299.995C433.564 300.211 433.641 300.602 434.693 301.537C435.413 302.176 436.391 302.863 437.623 303.574C438.114 303.858 438.7 303.918 439.244 303.76L455.028 299.206Z" fill="#FFE700"/>
<path d="M444.741 305.496C444.101 305.7 444.069 306.583 444.696 306.819C445.963 307.298 447.309 307.766 448.727 308.219C449.153 308.355 449.613 308.351 450.038 308.213L470.397 301.596C471.088 301.371 471.047 300.392 470.337 300.237C468.843 299.912 467.309 299.607 465.742 299.325C465.557 299.291 465.372 299.259 465.187 299.226C464.846 299.166 464.495 299.191 464.165 299.296L444.741 305.496Z" fill="#FFE700"/>
<path d="M437.736 385.049C464.068 389.362 486.332 387.361 487.579 380.583C487.583 380.561 487.586 380.539 487.589 380.519L488.955 372.187L476.471 370.142C468.131 366.23 455.79 362.611 441.788 360.317C427.787 358.023 414.936 357.515 405.783 358.561L393.301 356.517L391.925 364.911C390.944 371.734 411.405 380.735 437.736 385.049Z" fill="#E49E00"/>
<path d="M488.957 372.168C487.838 378.997 465.519 381.026 439.105 376.699C412.691 372.371 392.184 363.326 393.303 356.497C394.422 349.668 416.743 347.639 443.157 351.967C469.571 356.294 490.076 365.338 488.957 372.168Z" fill="#FFC700"/>
<path d="M428.494 354.75C429.328 354.495 429.207 353.306 428.338 353.236C421.036 352.648 414.47 352.627 409.133 353.112C404.781 353.507 401.45 354.223 399.245 355.12C397.394 355.873 397.125 356.235 397.054 356.666C397.003 356.974 397.122 357.528 398.636 358.831C399.717 359.762 401.202 360.761 403.079 361.791C403.631 362.093 404.282 362.15 404.885 361.966L428.494 354.75Z" fill="#FFE700"/>
<path d="M412.408 364.421C411.701 364.66 411.679 365.644 412.38 365.9C414.413 366.646 416.596 367.37 418.91 368.066C419.386 368.209 419.895 368.197 420.365 368.035L450.065 357.864C450.829 357.602 450.766 356.512 449.975 356.349C447.604 355.861 445.16 355.409 442.659 354.999C442.342 354.947 442.026 354.896 441.709 354.846C441.329 354.786 440.94 354.82 440.575 354.943L412.408 364.421Z" fill="#FFE700"/>
<path d="M529.206 459.2C562.866 447.289 587.685 430.593 584.779 421.84C584.77 421.812 584.76 421.785 584.75 421.758L580.981 411.108L565.024 416.755C552.722 417.542 535.916 421.251 518.018 427.585C500.12 433.918 484.722 441.605 474.662 448.73L458.706 454.377L462.503 465.108C465.75 473.741 495.546 471.111 529.206 459.2Z" fill="#E49E00"/>
<path d="M580.973 411.083C584.063 419.813 559.195 436.576 525.429 448.525C491.663 460.473 461.786 463.083 458.697 454.352C455.607 445.622 480.476 428.858 514.241 416.91C548.007 404.962 577.884 402.352 580.973 411.083Z" fill="#FFC700"/>
<path d="M500.044 428.387C500.591 427.825 499.977 426.931 499.259 427.247C489.646 431.473 481.374 435.938 475.08 440.181C470.231 443.449 466.784 446.435 464.777 448.908C463.092 450.983 463.01 451.582 463.205 452.133C463.344 452.526 463.841 453.099 466.456 453.652C468.416 454.068 470.947 454.282 474.003 454.258C474.57 454.253 475.109 454.016 475.504 453.611L500.044 428.387Z" fill="#FFE700"/>
<path d="M485.559 452.039C485.104 452.534 485.513 453.321 486.179 453.226C489.416 452.756 492.875 452.129 496.508 451.344C496.946 451.25 497.343 451.02 497.644 450.69L526.981 418.454C527.47 417.916 526.947 417.08 526.251 417.291C522.777 418.344 519.221 419.51 515.613 420.786C515.126 420.958 514.64 421.132 514.157 421.307C513.832 421.423 513.54 421.619 513.306 421.874L485.559 452.039Z" fill="#FFE700"/>
<path d="M561.701 323.015C557.469 320.452 552.284 319.444 547.068 320.584C536.268 322.941 529.426 333.608 531.783 344.407C533.134 350.592 537.209 355.479 542.474 358.084L568.687 371.83C571.096 373.093 574.063 372.444 575.725 370.292L594.261 346.28C597.633 341.787 599.105 335.909 597.812 329.99C595.454 319.191 584.787 312.347 573.989 314.706C568.773 315.844 564.48 318.921 561.701 323.015Z" fill="#FF4B4B"/>
<path d="M555.88 336.406C556.771 340.486 554.185 344.517 550.104 345.409C546.023 346.3 541.992 343.713 541.101 339.633C540.209 335.551 542.796 331.521 546.877 330.63C550.958 329.738 554.988 332.324 555.88 336.406Z" fill="#FFB2B2"/>
<path d="M335.815 424.461C336.139 423.184 335.566 421.847 334.417 421.201L261.718 380.344C260.045 379.404 257.936 380.308 257.463 382.167L246.605 424.867C246.281 426.145 246.853 427.482 248.003 428.128L320.701 468.985C322.375 469.925 324.483 469.022 324.957 467.163L335.815 424.461Z" fill="#8E5501"/>
<path d="M332.347 424.305L292.293 438.895L253.34 417.163L251.182 425.654L322.254 463.995L332.347 424.305Z" fill="#724400"/>
<path d="M231.027 389.544L257.821 380.766L246.055 427.033L219.166 436.189L231.027 389.544Z" fill="#CE7D03"/>
<path d="M295.095 478.75L219.159 436.194L246.055 427.033L321.991 469.589L295.095 478.75Z" fill="#CE7D03"/>
<path d="M307.932 473.849L232.619 431.57L243.456 388.962" stroke="#B46C00" stroke-width="2.91599"/>
<path d="M295.839 479.498C295.04 479.794 294.151 479.725 293.407 479.31L279.646 471.633C278.544 471.019 278.69 469.39 279.883 468.981L305.123 460.315L323.716 466.759L323.392 469.308L295.839 479.498Z" fill="#EEAB00"/>
<path d="M228.105 402.964C227.01 403.33 225.944 402.341 226.228 401.221L228.66 391.658C228.905 390.699 229.618 389.929 230.556 389.614L259.428 379.887L261.336 382.25L254.577 394.09L228.105 402.964Z" fill="#EEAB00"/>
<path d="M322.22 465.528L332.707 423.917L260.762 383.988L250.276 425.223L322.22 465.528Z" stroke="#FEC700" stroke-width="7.28998" stroke-linejoin="round"/>
<path d="M285.108 331.672C285.003 332.509 370.845 379.119 370.516 378.941C355.216 370.661 339.669 361.987 326.108 354.361C302.679 341.186 285.174 331.142 285.108 331.672Z" fill="#CE7D03"/>
<path d="M220.439 424.866C220.656 424.016 221.285 423.333 222.114 423.05L249.491 413.6L246.769 424.306C246.36 425.915 247.09 427.597 248.545 428.398L263.892 436.84L236.271 446.372C235.58 446.608 234.82 446.543 234.179 446.19L219.839 438.302C218.384 437.501 217.654 435.819 218.063 434.21L220.439 424.866Z" fill="#EEAB00"/>
<path d="M294.267 331.783C277.554 327.533 260.561 337.636 256.31 354.349C252.061 371.061 263.289 385.805 280.002 390.055C296.714 394.306 312.583 386.451 316.833 369.739C321.083 353.026 310.98 336.032 294.267 331.783Z" fill="#B46C00"/>
<path d="M259.136 355.068C255.284 370.219 264.444 385.627 279.595 389.48C294.747 393.332 310.154 384.173 314.008 369.021C317.86 353.869 308.7 338.462 293.549 334.61C278.397 330.756 262.99 339.916 259.136 355.068Z" stroke="#FCC90E" stroke-width="5.83199"/>
<path d="M338.051 417.333L260.088 373.517L293.759 336.55L371.723 380.366L338.051 417.333Z" fill="#8E5501"/>
<path d="M334.454 418.603C330.365 412.202 328.826 404.182 330.845 396.239C334.722 380.993 350.223 371.777 365.469 375.655C367.887 376.27 370.154 377.179 372.24 378.331L334.454 418.603Z" fill="#724400"/>
<path d="M339.781 414.798C337.487 417.246 333.818 417.81 330.893 416.167L266.019 379.707C261.894 377.389 261.036 371.815 264.274 368.364L291.786 339.033C294.081 336.586 297.749 336.021 300.674 337.665L365.549 374.125C369.674 376.442 370.532 382.015 367.294 385.467L339.781 414.798Z" stroke="#FCC90E" stroke-width="7.28998" stroke-linejoin="round"/>
<mask id="mask1_2001_7378" style="mask-type:alpha" maskUnits="userSpaceOnUse" x="258" y="333" width="115" height="88">
<path d="M339.781 414.798C337.487 417.246 333.818 417.81 330.893 416.167L266.019 379.707C261.894 377.389 261.036 371.816 264.274 368.365L291.786 339.033C294.081 336.586 297.749 336.021 300.674 337.665L365.549 374.125C369.674 376.443 370.532 382.016 367.294 385.467L339.781 414.798Z" stroke="#FCC90E" stroke-width="7.28998" stroke-linejoin="round"/>
</mask>
<g mask="url(#mask1_2001_7378)">
<path d="M330.056 349.48L348.422 393.934L365.173 430.1L407.504 388.912L330.056 349.48Z" fill="#FFE700"/>
</g>
<path d="M339.915 409.938L343.193 416.322C343.193 416.322 342.007 418.045 339.696 419.657C339.569 419.452 336.655 413.414 336.655 413.414L339.915 409.938Z" fill="#FEF400"/>
<path d="M327.425 356.421L322.769 345.88L315.153 341.6L319.957 352.224L327.425 356.421Z" fill="#FEF400"/>
<path d="M331.78 432.088C329.939 431.318 327.829 431.574 326.223 432.761L314.021 441.783C312.441 442.951 311.579 444.854 311.741 446.811L312.669 458.016C312.846 460.158 314.221 462.017 316.216 462.815L326.658 466.985C328.483 467.714 330.554 467.445 332.133 466.278L344.336 457.254C345.941 456.068 346.804 454.124 346.608 452.137L345.513 441.054C345.308 438.979 343.98 437.186 342.056 436.381L331.78 432.088Z" fill="#1CB0F6"/>
<path d="M339.48 438.664L330.8 435.306C329.777 434.909 328.664 435.624 328.599 436.72L328.32 441.41C328.277 442.135 328.721 442.801 329.409 443.037L334.292 444.72C334.796 444.894 335.354 444.81 335.783 444.492L339.859 441.478C340.885 440.718 340.671 439.125 339.48 438.664Z" fill="#DDF4FF"/>
<path d="M355.606 461.516C353.634 461.823 351.97 463.146 351.223 464.997L342.951 485.514C342.216 487.336 342.477 489.407 343.64 490.989L353.711 504.703C354.984 506.436 357.126 507.299 359.245 506.934L376.011 504.042C377.947 503.708 379.572 502.396 380.306 500.576L388.578 480.059C389.324 478.208 389.042 476.1 387.835 474.51L377.647 461.086C376.386 459.426 374.316 458.591 372.255 458.913L355.606 461.516Z" fill="#1CB0F6"/>
<path d="M370.789 463.267L357.049 465.789C355.969 465.987 355.395 467.18 355.914 468.148L359.369 474.604C359.713 475.245 360.44 475.58 361.15 475.422L368.47 473.791C368.99 473.676 369.421 473.311 369.62 472.816L372.583 465.466C373.06 464.283 372.045 463.037 370.789 463.267Z" fill="#DDF4FF"/>
<path d="M259.244 524.56C258.245 526.287 258.227 528.413 259.199 530.157L274.07 556.86C275.026 558.576 276.801 559.676 278.763 559.766L302.769 560.868C304.916 560.967 306.935 559.844 307.982 557.966L319.683 536.977C320.639 535.261 320.64 533.172 319.684 531.456L304.812 504.753C303.841 503.01 302.025 501.906 300.029 501.846L276.239 501.128C274.155 501.065 272.204 502.151 271.16 503.956L259.244 524.56Z" fill="#1CB0F6"/>
<path d="M274.27 509.084L264.892 526.337C264.367 527.301 264.934 528.497 266.012 528.702L276.342 530.668C277.056 530.804 277.774 530.447 278.096 529.796L282.69 520.534C282.927 520.056 282.913 519.492 282.654 519.026L277.109 509.069C276.487 507.954 274.88 507.962 274.27 509.084Z" fill="#DDF4FF"/>
<path d="M1107.66 310.691C1099.19 318.18 1089.62 321.563 1084.87 319.088C1081.37 317.29 1077.57 313.398 1076.53 309.598C1074.74 304.558 1079.27 295.544 1087.7 288.094C1096.24 280.549 1105.88 277.172 1110.61 279.75C1114.01 281.253 1117.17 285.117 1118.6 288.627C1120.97 293.537 1116.42 302.957 1107.66 310.691Z" fill="#1CB0F6"/>
<path d="M1112.8 318.492C1102.32 327.762 1091.06 332.604 1085.94 330.407C1082.17 328.814 1078.3 324.936 1077.54 320.845C1076.08 315.464 1082.27 304.957 1092.71 295.737C1103.27 286.401 1114.61 281.556 1119.68 283.871C1123.39 285.147 1126.54 289.067 1127.76 292.793C1129.89 297.963 1123.64 308.922 1112.8 318.492Z" fill="#1CB0F6"/>
<path d="M1117.28 324.836L1104.74 309.533" stroke="#C9C7C7" stroke-width="6.81598" stroke-linecap="round"/>
<path d="M1132.09 344.671C1121.59 353.941 1110.34 358.782 1105.22 356.585C1101.44 354.993 1097.58 351.114 1096.83 347.023C1095.37 341.643 1101.54 331.135 1111.98 321.916C1122.55 312.579 1133.9 307.734 1138.96 310.051C1142.66 311.326 1145.81 315.246 1147.05 318.971C1149.17 324.141 1142.92 335.1 1132.09 344.671Z" fill="#1CB0F6"/>
<path d="M1138.32 352.692C1129.84 360.183 1120.29 363.566 1115.53 361.091C1112.02 359.293 1108.23 355.401 1107.19 351.601C1105.4 346.561 1109.93 337.547 1118.36 330.097C1126.9 322.552 1136.54 319.175 1141.26 321.753C1144.67 323.256 1147.83 327.12 1149.26 330.63C1151.63 335.539 1147.08 344.96 1138.32 352.692Z" fill="#1CB0F6"/>
<path d="M1122.32 345.618C1119.75 347.768 1117.59 351.728 1117.18 353.455M1107.73 337.567C1105.17 339.717 1103 343.676 1102.59 345.404M1088.52 311.772C1085.97 313.921 1083.8 317.88 1083.38 319.608" stroke="#60C8F9" stroke-width="6.81598" stroke-linecap="round"/>
<path d="M1063.67 590.521C1070.16 591.484 1089.95 592.028 1096.35 592.123C1149.08 592.901 1178.47 584.48 1178.63 573.313C1178.74 565.694 1158.94 558.764 1129.59 554.884C1122.54 561.201 1114.24 567.575 1104.11 574.052C1089.85 583.182 1076.35 587.425 1063.67 590.521Z" fill="#50A463"/>
<path d="M448.281 551.737L459.004 542.095C460.318 540.913 462.341 541.021 463.523 542.335L473.165 553.058C474.347 554.372 474.24 556.395 472.925 557.577L462.203 567.219C460.888 568.401 458.865 568.293 457.683 566.979L448.041 556.256C446.859 554.942 446.967 552.919 448.281 551.737Z" fill="#BFFF79"/>
<path d="M1099.58 415.944L1118.53 407.528C1120.15 406.811 1122.04 407.539 1122.75 409.154L1131.17 428.1C1131.89 429.715 1131.16 431.606 1129.54 432.323L1110.6 440.739C1108.98 441.456 1107.09 440.729 1106.37 439.113L1097.96 420.168C1097.24 418.552 1097.97 416.661 1099.58 415.944Z" fill="#BFFF79"/>
</g>
</g>
</g>
</g>
<mask id="mask2_2001_7378" style="mask-type:luminance" maskUnits="userSpaceOnUse" x="0" y="-19" width="1441" height="796">
<path d="M1440.85 -18.0806H0.849609V776.919H1440.85V-18.0806Z" fill="white"/>
</mask>
<g mask="url(#mask2_2001_7378)">
<mask id="mask3_2001_7378" style="mask-type:alpha" maskUnits="userSpaceOnUse" x="459" y="317" width="534" height="304">
<path d="M992.56 317.762V620.919H459.849V317.762H992.56Z" fill="#81EA5F"/>
</mask>
<g mask="url(#mask3_2001_7378)">
<mask id="mask4_2001_7378" style="mask-type:luminance" maskUnits="userSpaceOnUse" x="0" y="-95" width="1441" height="796">
<path d="M0.849609 -94.5806H1440.85V700.419H0.849609V-94.5806Z" fill="white"/>
</mask>
<g mask="url(#mask4_2001_7378)">
<path d="M642.232 647.519C642.232 629.229 661.603 617.233 678.464 624.319C694.187 630.926 711.018 636.976 719.938 636.976C728.858 636.976 745.69 630.926 761.413 624.319C778.274 617.233 797.645 629.229 797.645 647.519V729.139C797.645 772.056 762.854 806.846 719.938 806.846C677.022 806.846 642.232 772.056 642.232 729.139V647.519Z" fill="#58CC02"/>
</g>
</g>
</g>
<rect x="0.849609" y="774.23" width="1440" height="79.55" fill="#58CC02"/>
</g>
<defs>
<filter id="filter0_d_2001_7378" x="555.85" y="248.86" width="330" height="50" filterUnits="userSpaceOnUse" color-interpolation-filters="sRGB">
<feFlood flood-opacity="0" result="BackgroundImageFix"/>
<feColorMatrix in="SourceAlpha" type="matrix" values="0 0 0 0 0 0 0 0 0 0 0 0 0 0 0 0 0 0 127 0" result="hardAlpha"/>
<feOffset dy="4"/>
<feComposite in2="hardAlpha" operator="out"/>
<feColorMatrix type="matrix" values="0 0 0 0 0.345098 0 0 0 0 0.654902 0 0 0 0 0 0 0 0 1 0"/>
<feBlend mode="normal" in2="BackgroundImageFix" result="effect1_dropShadow_2001_7378"/>
<feBlend mode="normal" in="SourceGraphic" in2="effect1_dropShadow_2001_7378" result="shape"/>
</filter>
<clipPath id="clip0_2001_7378">
<rect width="1440" height="852.92" fill="white" transform="translate(0.849609 0.859863)"/>
</clipPath>
<clipPath id="clip1_2001_7378">
<rect width="99.66" height="21" fill="white" transform="translate(671.02 261.36)"/>
</clipPath>
<clipPath id="clip2_2001_7378">
<rect width="1440" height="948.72" fill="white" transform="translate(0.849609 -94.9399)"/>
</clipPath>
<clipPath id="clip3_2001_7378">
<rect width="1440" height="948.72" fill="white" transform="translate(0.849609 -94.9399)"/>
</clipPath>
<clipPath id="clip4_2001_7378">
<rect width="1440" height="795" fill="white" transform="translate(0.849609 -18.0798)"/>
</clipPath>
</defs>
</svg>
