<svg width="1441" height="1123" viewBox="0 0 1441 1123" fill="none" xmlns="http://www.w3.org/2000/svg">
<g clip-path="url(#clip0_2001_3895)">
<g clip-path="url(#clip1_2001_3895)">
<g clip-path="url(#clip2_2001_3895)">
<mask id="mask0_2001_3895" style="mask-type:luminance" maskUnits="userSpaceOnUse" x="-220" y="0" width="2001" height="1123">
<path d="M1780.84 0.919922H-219.141V1122.86H1780.84V0.919922Z" fill="white"/>
</mask>
<g mask="url(#mask0_2001_3895)">
<path d="M128.173 90.0804C127.197 90.5682 124.392 91.7877 123.539 92.2755C122.685 92.7633 122.075 93.495 121.709 94.5925C121.343 95.6901 120.612 99.4705 120.368 100.934C120.124 102.397 120.368 103.739 121.1 104.592C121.831 105.446 124.026 107.031 125.002 107.885C125.978 108.739 127.319 108.617 128.538 108.129C129.758 107.641 132.807 106.178 133.782 105.446C134.758 104.714 135.368 103.861 135.49 103.129C135.612 102.397 136.465 97.2754 136.587 96.1779C136.738 94.8228 136.709 93.6169 135.855 93.0072C135.002 92.3974 133.465 91.1262 132.563 90.3243C131.465 89.3487 129.88 89.2267 128.173 90.0804Z" fill="#C2C1EF"/>
<path d="M39.8645 769.528L119.533 775.555L134.648 708.02L125.286 696.464L29.9863 756.851L39.8645 769.528Z" fill="#6BCCF9"/>
<path d="M39.8645 769.528L119.533 775.555L134.648 708.02L125.286 696.464L29.9863 756.851L39.8645 769.528Z" stroke="#6BCCF9" stroke-width="15.6096" stroke-linecap="round" stroke-linejoin="round"/>
<path d="M29.7676 756.517L109.971 762.767L125.526 696.535L45.5056 692.854L29.7676 756.517Z" fill="#3DBCF8"/>
<path d="M29.7676 756.517L109.971 762.767L125.526 696.535L45.5056 692.854L29.7676 756.517Z" stroke="#3DBCF8" stroke-width="15.6096" stroke-linecap="round" stroke-linejoin="round"/>
<path d="M1358.25 979.364L1343.98 974.995L1329.77 952.08L1333.17 936.816L1347.21 946.444L1358.92 966.973L1358.25 979.364Z" fill="#1CB0F6"/>
<path d="M1333.26 936.809L1342.48 945.18L1349.78 949.193L1347.26 946.38L1333.26 936.809Z" fill="white"/>
<path d="M1359.06 967.078L1357.67 962.92L1349.77 949.193L1347.26 946.38L1359.06 967.078Z" fill="#70CDF9"/>
<path d="M1359.06 967.078L1357.67 962.92L1356.81 969.737L1358.36 979.601L1359.06 967.078Z" fill="#21A6E5"/>
<path d="M1343.91 974.864L1350.24 966.45L1356.81 969.737L1358.36 979.601L1343.91 974.864Z" fill="#1C9FDD"/>
<path d="M1343.91 974.864L1350.24 966.45L1341.63 951.896L1329.76 952.115L1343.91 974.864Z" fill="#2DBCFF"/>
<path d="M1333.17 936.718L1342.48 945.18L1341.63 951.896L1329.76 952.115L1333.17 936.718Z" fill="#70CDF9"/>
<path d="M1356.96 969.972L1350.27 966.551L1341.55 951.813L1342.39 945.04L1349.84 949.087L1357.81 963.106L1356.96 969.972Z" fill="#1CB0F6"/>
<path d="M772.935 474.518C771.729 475.09 769.111 476.406 768.057 476.975C767.002 477.544 766.256 478.385 765.821 479.634C765.386 480.883 764.911 484.32 764.635 485.981C764.359 487.641 764.688 489.154 765.616 490.104C766.544 491.054 769.553 493.412 770.784 494.357C772.016 495.302 773.685 495.136 775.195 494.559C776.706 493.982 779.866 492.507 781.068 491.659C782.27 490.812 783.014 489.833 783.152 489.003C783.29 488.173 784.257 483.093 784.388 481.849C784.55 480.313 784.491 478.95 783.416 478.278C782.341 477.606 779.549 475.591 778.41 474.703C777.024 473.622 775.046 473.517 772.935 474.518Z" fill="#C2C1EF"/>
<path d="M1364.45 898.467L1420.49 895.32L1443.24 841.419L1431.79 824.294L1350.05 885.408L1364.45 898.467Z" fill="#00C6A0"/>
<path d="M1364.45 898.467L1420.49 895.32L1443.24 841.419L1431.79 824.294L1350.05 885.408L1364.45 898.467Z" stroke="#00C6A0" stroke-width="29.268" stroke-linecap="round" stroke-linejoin="round"/>
<path d="M1344.62 885.285L1406.31 879.095L1431.66 819.164L1370.62 826.762L1344.62 885.285Z" fill="#2BE69C"/>
<path d="M1344.62 885.285L1406.31 879.095L1431.66 819.164L1370.62 826.762L1344.62 885.285Z" stroke="#2BE69C" stroke-width="19.512" stroke-linecap="round" stroke-linejoin="round"/>
<path d="M1370.54 867.279L1376.82 850.839C1376.82 850.839 1389.84 856.559 1396.74 866.799" stroke="white" stroke-width="4.3902" stroke-linecap="round" stroke-linejoin="round"/>
<path d="M1374.26 840.065L1409.73 839.302" stroke="white" stroke-width="4.3902" stroke-linecap="round" stroke-linejoin="round"/>
<path d="M1395.56 830.865L1392.65 839.726" stroke="white" stroke-width="4.3902" stroke-linecap="round" stroke-linejoin="round"/>
<path d="M695.952 441.732L679.974 451.575L650.839 442.592L643.218 422.95L662.196 417.499L687.278 427.036L695.952 441.732Z" fill="#1CB0F6"/>
<path d="M643.305 422.799L656.869 424.066L665.106 420.989L662.182 417.42L643.305 422.799Z" fill="white"/>
<path d="M687.468 427.037L681.645 427.7L665.106 420.989L662.182 417.42L687.468 427.037Z" fill="#70CDF9"/>
<path d="M687.468 427.037L681.645 427.7L686.601 435.857L696.22 441.878L687.468 427.037Z" fill="#21A6E5"/>
<path d="M679.824 451.496L679.446 438.982L686.601 435.857L696.22 441.878L679.824 451.496Z" fill="#1C9FDD"/>
<path d="M679.824 451.496L679.446 438.982L661.749 432.106L650.854 442.65L679.824 451.496Z" fill="#2DBCFF"/>
<path d="M643.149 422.825L656.869 424.066L661.749 432.106L650.854 442.65L643.149 422.825Z" fill="#70CDF9"/>
<path d="M686.893 435.958L679.551 439.055L661.627 432.098L656.692 424.009L665.062 420.813L681.892 427.757L686.893 435.958Z" fill="#1CB0F6"/>
<path d="M775.212 436.582L803.445 402.372L791.021 377.905L772.942 365.113L758.852 425.465L775.212 436.582Z" fill="#4CE1D3"/>
<path d="M775.212 436.582L803.445 402.372L791.021 377.905L772.942 365.113L758.852 425.465L775.212 436.582Z" stroke="#4CE1D3" stroke-width="9.756" stroke-linecap="round" stroke-linejoin="round"/>
<path d="M757.311 424.004L783.853 391.332L770.376 364.322L743.587 397.326L757.311 424.004Z" fill="#3CD598"/>
<path d="M757.311 424.004L783.853 391.332L770.376 364.322L743.587 397.326L757.311 424.004Z" stroke="#3CD598" stroke-width="8.16245" stroke-linecap="round" stroke-linejoin="round"/>
<path d="M771.995 382.428C770.582 384.112 770.259 384.554 769.366 385.595C764.028 379.206 751.746 390.391 757.163 400.668C756.301 401.695 755.596 402.536 754.733 403.564C753.322 405.245 754.683 407.342 756.094 405.661C756.878 404.726 757.583 403.886 758.446 402.858C764.699 410.811 776.693 397.314 770.661 387.637C771.053 387.17 771.895 386.123 773.025 384.686C774.685 382.576 773.408 380.744 771.995 382.428Z" fill="white"/>
<path d="M768.362 390.642L760.396 400.435C760.396 400.435 763.833 404.672 767.125 400.748C771.593 395.423 768.362 390.642 768.362 390.642Z" fill="#3CD598"/>
<path d="M767.223 388.414C767.223 388.414 764.058 384.484 760.687 388.501C757.551 392.237 759.345 398.001 759.345 398.001L767.223 388.414Z" fill="#3CD598"/>
<path d="M128.416 565.548C125.241 569.517 117.319 579.45 113.173 585.06C109.026 590.67 107.923 599.524 108.051 606.889C108.295 620.913 122.732 633.987 140.977 630.669C152.863 628.508 159.837 619.352 161.942 610.301C163.875 601.987 163.17 595.601 158.294 589.572C151.587 581.279 142.441 569.938 138.904 565.67C135.368 561.402 131.592 561.579 128.416 565.548Z" fill="url(#paint0_linear_2001_3895)"/>
<path d="M106.242 577.796C106.3 580.388 107.338 599.448 108.009 606.761C108.905 616.523 128.783 620.913 137.111 610.375C140.933 605.54 144.514 590.426 127.502 581.191C122.933 578.711 117.044 575.582 114.53 574.288C109.637 571.767 106.184 575.204 106.242 577.796Z" fill="url(#paint1_radial_2001_3895)"/>
<path d="M135.221 593.586C134.745 596.134 133.416 602.928 133.089 610.265C132.685 619.328 138.295 622.742 145.664 621.785C153.027 620.829 160.002 611.437 153.647 601.921C150.124 596.645 148.344 594.08 146.644 591.821C142.563 586.401 136.222 588.231 135.221 593.586Z" fill="#FFC800"/>
<path d="M377.352 327.111L410.737 311.293L404.353 281.028L370.906 297.273L377.352 327.111Z" fill="#60D0FD"/>
<path d="M377.352 327.111L410.737 311.293L404.353 281.028L370.906 297.273L377.352 327.111Z" stroke="#60D0FD" stroke-width="14.634" stroke-linecap="round" stroke-linejoin="round"/>
<path d="M-7.86616 211.778L16.5394 210.186L31.9549 190.235L28.7437 182.496L-12.252 204.538L-7.86616 211.778Z" fill="#5EC4EB"/>
<path d="M-7.86616 211.778L16.5394 210.186L31.9549 190.235L28.7437 182.496L-12.252 204.538L-7.86616 211.778Z" stroke="#5EC4EB" stroke-width="5.8536" stroke-linecap="round" stroke-linejoin="round"/>
<path d="M-12.1562 202.965L11.2289 200.806L27.2843 182.248L2.86164 185.078L-12.1562 202.965Z" fill="#60D0FD"/>
<path d="M-12.1562 202.965L11.2289 200.806L27.2843 182.248L2.86164 185.078L-12.1562 202.965Z" stroke="#60D0FD" stroke-width="5.8536" stroke-linecap="round" stroke-linejoin="round"/>
<path d="M14.7596 183.6C7.07673 184.454 2.32068 187.137 0.24753 189.942C0.85728 190.064 3.29628 189.942 3.29628 189.942C3.29628 189.942 7.53672 186.103 12.5645 185.795C18.54 185.43 13.784 189.454 13.784 189.454C13.784 189.454 -1.93441 191.513 -5.84997 196.283C-12.5572 204.454 7.44258 197.868 7.44258 197.868L6.58893 199.576L10.7352 199.454C10.7352 199.454 11.345 197.747 12.9303 195.673C14.5157 193.6 18.54 188.6 19.5156 187.381C20.4912 186.161 22.4424 182.747 14.7596 183.6Z" fill="#FDFDFF"/>
<path d="M11.7108 191.771C11.7108 191.771 4.51579 192.381 0.735337 194.21C-2.56708 195.808 -5.24021 199.454 0.979237 198.356C8.16601 197.088 11.7108 191.771 11.7108 191.771Z" fill="#60CFFB"/>
<path d="M6.23556 65.3654L-33.4921 78.3587L-38.4688 120.768L-26.6351 131.024L20.4341 72.0431L6.23556 65.3654Z" fill="#22A782"/>
<path d="M6.23557 65.3654L-33.4921 78.3587L-38.4688 120.768L-26.6351 131.024L20.4341 72.0431L6.23557 65.3654Z" stroke="#22A882" stroke-width="14.634" stroke-linecap="round" stroke-linejoin="round"/>
<path d="M21.3662 72.7351L-20.5686 86.4289L-25.4328 131.325L14.3519 116.774L21.3662 72.7351Z" fill="#22CE9B"/>
<path d="M21.3662 72.7351L-20.5686 86.4289L-25.4328 131.325L14.3519 116.774L21.3662 72.7351Z" stroke="#22CE9B" stroke-width="14.634" stroke-linecap="round" stroke-linejoin="round"/>
<path d="M387.15 794.774L350.207 756.861L287.698 791.091L287.082 820.165L390.739 822.612L387.15 794.774Z" fill="#FF878D"/>
<path d="M387.15 794.774L350.207 756.861L287.698 791.091L287.082 820.165L390.739 822.612L387.15 794.774Z" stroke="#FF878D" stroke-width="24.39" stroke-linecap="round" stroke-linejoin="round"/>
<path d="M390.479 828.258L350.098 792.614L288.597 822.736L330.329 858.23L390.479 828.258Z" fill="#D947AC"/>
<path d="M390.479 828.258L350.098 792.614L288.597 822.736L330.329 858.23L390.479 828.258Z" stroke="#D947AC" stroke-width="19.2619" stroke-linecap="round" stroke-linejoin="round"/>
<path d="M317.967 812.674L320.708 814.739L325.939 819.506L300.317 831.736L316.284 845.978L317.936 848.572L323.947 845.299L321.554 843.033L341.173 833.283L352.953 844.028L354.423 846.038C354.423 846.038 358.273 845.195 360.592 842.772C360.037 841.811 357.704 840.989 357.704 840.989L346.456 830.628L366.857 820.623L369.451 822.97L375.082 820.113L357.18 804.13L331.148 816.992L325.734 811.64L323.904 809.542L317.967 812.674Z" fill="white"/>
<path d="M334.133 819.211L343.489 827.905L363.848 817.826L354.534 809.206L334.133 819.211Z" fill="#D947AC"/>
<path d="M308.944 831.388L318.673 840.458L338.083 830.681L328.416 821.92L308.944 831.388Z" fill="#D947AC"/>
<path d="M246.059 669.72L305.076 683.67L332.481 637.316L331.564 619.242L241.442 654.754L246.059 669.72Z" fill="#9A75D9"/>
<path d="M246.059 669.72L305.076 683.67L332.481 637.316L331.564 619.242L241.442 654.754L246.059 669.72Z" stroke="#9A75D9" stroke-width="14.634" stroke-linecap="round" stroke-linejoin="round"/>
<path d="M242.514 650.063L301.922 662.88L330.011 618.554L269.883 606.887L242.514 650.063Z" fill="#C29EFF"/>
<path d="M242.514 650.063L301.922 662.88L330.011 618.554L269.883 606.887L242.514 650.063Z" stroke="#C29EFF" stroke-width="14.634" stroke-linecap="round" stroke-linejoin="round"/>
<path d="M305.59 619.826C300.216 622.031 296.591 619.559 293.016 617.213C289.442 614.868 286.037 615.155 281.6 616.255C277.164 617.355 278.702 621.763 282.533 620.736C285.117 620.044 287.467 618.827 289.854 620.739C296.788 626.291 302.715 626.34 307.445 624.417C311.309 622.846 308.727 618.539 305.59 619.826Z" fill="white"/>
<path d="M295.227 630.459C288.066 625.787 280.926 628.398 278.655 628.918C281.35 624.982 276.061 623.899 273.898 627.157C271.87 630.212 264.85 641.366 263.265 644.111C261.252 647.597 267.529 647.7 269.115 644.954C269.907 643.581 273.444 637.456 274.603 635.449C276.127 632.809 280.251 630.543 286.918 631.435C292.765 632.217 294.123 637.003 292.965 639.01C291.806 641.017 288.476 646.663 287.013 649.198C284.879 652.894 290.738 653.355 292.445 650.398C293.543 648.497 296.226 643.85 297.811 641.104C299.093 638.884 300.852 634.129 295.227 630.459Z" fill="white"/>
<mask id="mask1_2001_3895" style="mask-type:luminance" maskUnits="userSpaceOnUse" x="-442" y="-584" width="2267" height="3071">
<path d="M882.986 -583.437L1824.95 2004.59L500.226 2486.75L-441.738 -101.277L882.986 -583.437Z" fill="white"/>
</mask>
<g mask="url(#mask1_2001_3895)">
<mask id="mask2_2001_3895" style="mask-type:alpha" maskUnits="userSpaceOnUse" x="847" y="490" width="120" height="104">
<path d="M966.644 527.109L914.299 490.616C914.299 490.616 870.641 517.927 860.242 524.364C849.842 530.801 843.894 547.128 850.422 565.776C858.682 589.375 871.385 594.465 883.563 593.351C895.741 592.237 942.885 586.629 942.885 586.629L966.644 527.109Z" fill="#FFC800"/>
</mask>
<g mask="url(#mask2_2001_3895)">
<path d="M888.246 507.107C892.997 504.295 892.119 504.636 886.308 508.201C875.912 514.581 852.859 529.33 852.859 529.33L852.672 529.528C852.672 529.528 881.412 511.151 888.246 507.107Z" fill="#D49800"/>
<path d="M908.139 582.19C913.094 580.739 912.48 575.227 907.539 573.864C894.375 570.171 836.866 555.245 836.866 555.245L852.206 598.879C852.206 598.879 900.24 584.383 908.139 582.19Z" fill="#D49800"/>
<path d="M896.206 555.11C899.114 551.868 897.926 547.923 893.221 547.008C883.028 545.024 834.283 533.79 834.283 533.79L849.918 605.258C849.918 605.258 891.994 559.804 896.206 555.11Z" fill="#D49800"/>
<path d="M888.789 524.76C892.445 521.034 890.171 516 885.338 517.977C874.649 522.391 832.277 540.14 832.277 540.14L837.959 579.456C837.959 579.456 885.254 528.404 888.789 524.76Z" fill="#D49800"/>
<path d="M877.537 513.341C886.454 503.864 834.741 528.398 834.741 528.398L854.81 607.784C854.81 607.784 919.186 591.949 905.128 591.287C864.723 589.381 853.394 538.999 877.537 513.341Z" fill="#D49800"/>
</g>
<mask id="mask3_2001_3895" style="mask-type:alpha" maskUnits="userSpaceOnUse" x="860" y="490" width="107" height="104">
<path d="M966.644 527.109L914.299 490.616C914.299 490.616 870.256 517.937 860.242 524.364C870.934 520.156 888.578 525.245 896.177 551.718C903.312 576.571 893.508 588.751 883.563 593.351C895.127 592.331 942.885 586.629 942.885 586.629L966.644 527.109Z" fill="#FFC800"/>
</mask>
<g mask="url(#mask3_2001_3895)">
<path d="M918.927 589.604C924.418 589.022 924.137 588.991 918.926 589.58C902.086 591.485 853.21 596.732 853.21 596.732L852.968 596.753C852.968 596.753 909.598 590.592 918.927 589.604Z" fill="#FFC800"/>
<path d="M907.848 514.921C910.747 510.232 907.575 505.8 901.58 507.972C890.204 511.844 849.029 525.754 849.029 525.754L881.39 557.391C881.39 557.391 904.362 520.318 907.848 514.921Z" fill="#FFC800"/>
<path d="M930.735 546.842C934.395 542.748 933.161 539.231 927.518 538.339C914.831 536.159 849.315 525.431 849.315 525.431L879.802 601.318C879.802 601.318 924.516 553.798 930.735 546.842Z" fill="#FFC800"/>
<path d="M928.295 582.599C933.259 580.842 933.398 576.24 928.441 574.529C915.968 570.221 864.572 550.103 864.572 550.103L862.845 603.17C862.845 603.17 919.861 585.582 928.295 582.599Z" fill="#FFC800"/>
</g>
</g>
<path d="M1245 455.175L1231.66 394.766L1218.65 392.427L1155.71 411.373L1166.86 470.102L1176.34 474.843L1245 455.175Z" fill="#5C6CFC"/>
<path d="M1245 455.175L1231.66 394.766L1218.65 392.427L1155.71 411.373L1166.86 470.102L1176.34 474.843L1245 455.175Z" stroke="#5C6CFC" stroke-width="24.5851" stroke-linecap="round" stroke-linejoin="round"/>
<path d="M1204.33 441.302C1203.95 442.092 1202.21 444.814 1201.63 445.78C1201.05 446.746 1201.72 447.009 1202.3 446.922C1202.88 446.834 1204.62 446.57 1205.3 446.395C1205.97 446.219 1206.46 445.517 1206.36 444.814C1206.26 444.112 1205.88 442.356 1205.59 441.478C1205.3 440.6 1204.72 440.512 1204.33 441.302Z" fill="#D7D9FE"/>
<path d="M1231.96 395.117L1167.05 415.488L1179.03 475.546L1243.93 456.229L1231.96 395.117Z" fill="#8C87F1"/>
<path d="M1231.96 395.117L1167.05 415.488L1179.03 475.546L1243.93 456.229L1231.96 395.117Z" stroke="#8C87F1" stroke-width="25.7851" stroke-linecap="round" stroke-linejoin="round"/>
<path d="M1197.96 401.527C1188.01 404.073 1189.84 415.576 1189.84 415.576C1189.84 415.576 1171.98 417.595 1172.36 435.771C1169.95 438.053 1168.31 442.883 1170.72 447.624C1172.12 450.368 1179.51 463.868 1181.63 467.731C1183.76 471.595 1187.53 473.878 1192.45 472.473C1197.38 471.068 1222.97 463.78 1228.86 462.112C1234.76 460.443 1236.59 455.175 1236.98 452.366C1237.36 449.556 1239.01 436.034 1239.49 429.361C1239.97 422.688 1237.27 419.176 1233.21 417.859C1227.8 401.878 1210.51 409.517 1210.51 409.517C1210.51 409.517 1208.25 398.892 1197.96 401.527Z" fill="#948FF5"/>
<path d="M1198.57 403.774C1192 405.576 1190.52 412.063 1193.01 417.212C1183.47 419.527 1174.49 421.722 1174.86 436.271C1172.68 438.326 1170.82 442.498 1172.99 446.767C1174.25 449.237 1181.39 462.795 1183.3 466.273C1185.21 469.751 1188.22 471.28 1192.65 470.015C1197.09 468.75 1223.03 461.311 1228.33 459.81C1233.63 458.308 1234.51 453.565 1234.86 451.035C1235.21 448.506 1236.59 435.63 1237.03 429.623C1237.46 423.615 1235.22 421.068 1231.57 419.882C1227.03 405.303 1214.57 410.659 1208.62 412.548C1208.87 407.673 1205.49 401.878 1198.57 403.774Z" fill="#FFFEFE"/>
<path d="M1199.31 407.937C1196.7 408.551 1195.35 411.098 1195.74 413.644C1196.02 415.522 1197.76 417.946 1200.95 417.068C1204.14 416.19 1204.81 413.293 1204.43 411.361C1204.04 409.429 1201.92 407.322 1199.31 407.937Z" fill="#A7A0FF"/>
<path d="M1217.37 414.522C1211.29 416.015 1195.11 420.981 1186.95 423.215C1177.96 425.673 1176.9 434.541 1180.86 442.005C1183.85 447.644 1199.31 444.463 1205.97 443.234C1212.64 442.005 1228.09 434.454 1228.48 426.2C1228.86 417.946 1223.46 413.029 1217.37 414.522Z" fill="#5C6CFC"/>
<path d="M1206.07 423.917C1203.75 422.161 1201.24 422.424 1199.6 425.234C1197.96 428.044 1189.65 442.268 1189.65 442.268C1189.65 442.268 1184.34 440.249 1181.15 438.931C1177.96 437.614 1174.58 440.775 1176.32 444.375C1177.89 447.616 1185.15 460.782 1186.27 463.165C1187.43 465.624 1188.88 466.853 1192.74 465.799C1196.6 464.746 1223.07 457.019 1226.64 455.965C1230.22 454.912 1230.6 453.244 1230.99 450.873C1231.38 448.502 1232.92 431.644 1233.11 427.605C1233.31 423.566 1228.96 423.039 1227.13 425.41C1226.01 426.846 1220.46 433.4 1220.46 433.4C1220.46 433.4 1207.98 425.368 1206.07 423.917Z" fill="#A7A0FF"/>
<path d="M1196.03 438.844C1194.67 441.039 1192.64 444.112 1190.91 446.922C1187.53 444.99 1185.11 446.658 1186.37 449.468C1187.18 451.296 1190.91 459.039 1191.29 459.917C1191.68 460.795 1192.16 461.761 1193.8 461.322C1195.45 460.882 1197.76 460.18 1200.47 459.39C1201.9 458.973 1202.21 458.073 1202.01 456.404C1201.82 454.736 1199.89 441.478 1199.6 439.458C1199.31 437.439 1197.38 436.649 1196.03 438.844Z" fill="#BFAFFF"/>
<path d="M1226.93 432.61C1225.1 434.541 1224.04 435.683 1223.84 438.844C1223.65 442.005 1223.17 448.853 1223.07 450.434C1222.97 452.014 1223.65 452.541 1225.87 452.014C1228.09 451.488 1228.48 451.048 1228.57 449.292C1228.72 446.656 1229.73 435.507 1229.93 433.312C1230.12 431.117 1228.77 430.678 1226.93 432.61Z" fill="#AFB5FF"/>
<path d="M1207.13 438.492C1205.49 437.614 1204.91 437.702 1203.95 439.019C1202.98 440.336 1200.66 444.375 1199.7 445.868C1198.73 447.361 1199.41 448.414 1200.57 449.205C1201.72 449.995 1204.62 451.926 1205.97 452.805C1207.33 453.683 1208.68 453.507 1209.45 452.366C1210.22 451.224 1212.93 446.395 1213.51 445.341C1214.09 444.288 1213.8 443.058 1212.93 442.444C1212.06 441.829 1208.77 439.371 1207.13 438.492Z" fill="#5C6CFC"/>
</g>
</g>
</g>
</g>
<g clip-path="url(#clip3_2001_3895)">
<mask id="mask4_2001_3895" style="mask-type:luminance" maskUnits="userSpaceOnUse" x="-220" y="0" width="2001" height="1123">
<path d="M1780.84 0.919922H-219.141V1122.86H1780.84V0.919922Z" fill="white"/>
</mask>
<g mask="url(#mask4_2001_3895)">
<mask id="mask5_2001_3895" style="mask-type:luminance" maskUnits="userSpaceOnUse" x="-325" y="25" width="2755" height="1411">
<path d="M-324.993 25.7977H2429.13V1435.54H-324.993V25.7977Z" fill="white"/>
</mask>
<g mask="url(#mask5_2001_3895)">
<mask id="mask6_2001_3895" style="mask-type:luminance" maskUnits="userSpaceOnUse" x="-325" y="144" width="816" height="519">
<path d="M-324.451 144.411H490.175V662.942H-324.451V144.411Z" fill="white"/>
</mask>
<g mask="url(#mask6_2001_3895)">
<path d="M-175.062 292.58C-176.404 293.799 -184.466 300.735 -186.038 302.092C-188.721 304.409 -189.94 306.238 -187.867 311.726C-184.153 321.556 -119.453 487.822 -116.16 496.115C-112.868 504.407 -109.087 512.944 -100.673 518.797C-92.2581 524.651 -8.40236 584.291 -1.89316 588.675C4.08238 592.699 6.27748 592.089 9.44818 589.162C11.3535 587.404 16.7652 582.699 18.9603 580.26C21.1554 577.821 24.6919 574.772 21.1554 567.089C16.753 557.526 -66.5267 384.774 -70.9169 375.262C-75.3071 365.75 -78.9656 360.384 -84.9411 355.994C-90.9167 351.604 -162.745 296.604 -166.77 293.19C-170.794 289.775 -173.721 291.36 -175.062 292.58Z" fill="#231D24"/>
<path d="M-172.501 295.873C-169.086 304.775 -97.5188 477.269 -94.0871 485.505C-90.4286 494.285 -86.4043 500.383 -77.9897 506.236C-69.5752 512.09 12.5396 571.294 15.302 573.065C20.0581 576.114 24.6922 574.772 21.1556 567.089C16.7533 557.526 -66.5264 384.774 -70.9166 375.262C-75.3068 365.75 -78.9653 360.384 -84.9409 355.994C-90.9164 351.604 -162.745 296.604 -166.769 293.19C-170.794 289.775 -174.173 291.515 -172.501 295.873Z" fill="#39517A"/>
<path d="M-164.254 306.461C-161.106 314.668 -95.5962 472.141 -92.3322 479.691C-87.8684 490.017 -81.591 497.187 -73.8339 502.583C-66.0769 507.979 -5.55217 551.48 8.14375 561.507C12.9106 564.997 16.1906 564.178 12.9305 557.096C8.87259 548.28 -67.1691 389.025 -71.2164 380.257C-75.2636 371.488 -80.4651 364.712 -85.9738 360.665C-91.4825 356.618 -153.965 308.434 -159.579 304.109C-163.434 301.14 -165.794 302.443 -164.254 306.461Z" fill="white"/>
<path d="M220.935 205.954C223.837 205.142 236.013 203.84 238.08 203.744C242.129 203.556 246.486 203.726 250.001 208.417C256.298 216.818 370.883 367.449 376.438 374.422C389.445 390.75 390.445 397.333 390.434 411.311C390.421 427.822 388.957 489.529 388.408 507.745C388.192 514.914 386.913 516.424 382.75 517.503C380.249 518.15 368.511 520.148 365.281 520.673C362.052 521.197 357.59 522.516 353.009 515.418C347.307 506.582 231.119 343.17 225.032 334.658C218.946 326.145 217.657 322.102 217.155 314.734C216.653 307.367 215.847 219.41 216.075 214.157C216.303 208.903 219.195 206.442 220.935 205.954Z" fill="#231D24"/>
<path d="M222.228 210.835C228.471 218.556 347.657 377.197 352.76 384.506C358.201 392.297 361.518 401.237 361.493 412.806C361.47 423.013 360.2 502.542 360.2 505.808C360.2 516.968 355.786 517.212 353.009 515.418C347.306 506.582 231.119 343.17 225.032 334.658C218.945 326.145 217.535 322.345 217.033 314.978C216.531 307.611 215.846 219.41 216.075 214.157C216.303 208.903 219.296 207.209 222.228 210.835Z" fill="#3A5179"/>
<path d="M225.297 219.912C230.299 226.605 342.306 376.046 346.921 382.844C353.233 392.143 356.478 401.251 356.556 410.66C356.64 420.749 354.688 480.505 354.291 496.762C354.059 506.234 349.201 505.017 345.94 500.589C340.191 492.782 231.086 339.763 225.741 331.732C220.543 323.921 219.056 318.665 218.593 311.873C218.131 305.082 218.104 229.41 218.094 220.853C218.088 216.007 222.723 216.468 225.297 219.912Z" fill="white"/>
<path d="M267.616 245.263C263.575 239.606 254.985 244.21 258.592 249.897C261.763 254.897 268.11 263.459 271.885 268.556C276.763 275.141 285.055 270.141 281.519 264.775C278.912 260.821 271.275 250.385 267.616 245.263Z" fill="#395179"/>
<mask id="mask7_2001_3895" style="mask-type:alpha" maskUnits="userSpaceOnUse" x="218" y="217" width="139" height="287">
<path d="M225.297 219.912C230.299 226.605 342.306 376.046 346.921 382.844C353.233 392.143 356.478 401.252 356.556 410.66C356.64 420.749 354.688 480.505 354.291 496.762C354.059 506.234 349.201 505.017 345.94 500.589C340.191 492.782 231.086 339.763 225.741 331.732C220.543 323.921 219.056 318.665 218.593 311.873C218.131 305.082 218.104 229.41 218.094 220.853C218.088 216.007 222.723 216.469 225.297 219.912Z" fill="white"/>
</mask>
<g mask="url(#mask7_2001_3895)">
<path d="M231.641 250.019C231.641 254.41 231.641 317.092 231.641 320.141C231.641 326.482 237.007 333.189 237.007 328.067C237.007 326.116 237.007 264.044 237.007 258.8C237.007 252.458 231.641 245.629 231.641 250.019Z" fill="#D9D9D9"/>
<path d="M231.641 293.19C231.641 297.58 231.641 317.092 231.641 320.141C231.641 326.482 237.007 333.189 237.007 328.067C237.007 326.116 237.007 307.214 237.007 301.97C237.007 295.629 231.641 288.799 231.641 293.19Z" fill="#79C800"/>
</g>
<mask id="mask8_2001_3895" style="mask-type:alpha" maskUnits="userSpaceOnUse" x="218" y="217" width="139" height="287">
<path d="M225.297 219.912C230.299 226.605 342.306 376.046 346.921 382.844C353.233 392.143 356.478 401.252 356.556 410.66C356.64 420.749 354.688 480.505 354.291 496.762C354.059 506.234 349.201 505.017 345.94 500.589C340.191 492.782 231.086 339.763 225.741 331.732C220.543 323.921 219.056 318.665 218.593 311.873C218.131 305.082 218.104 229.41 218.094 220.853C218.088 216.007 222.723 216.469 225.297 219.912Z" fill="white"/>
</mask>
<g mask="url(#mask8_2001_3895)">
<path d="M269.445 312.458C266.762 309.043 263.592 309.287 263.592 316.848C263.592 324.409 263.592 340.872 263.714 346.848C263.836 352.823 267.86 361.726 270.665 365.75C273.47 369.774 290.587 393.316 292.86 396.725C295.543 400.75 299.567 400.262 299.567 394.896C299.567 389.53 299.933 375.263 299.933 368.067C299.933 360.262 297.982 350.262 291.152 341.726C284.323 333.189 272.128 315.872 269.445 312.458Z" fill="#1CB0F6"/>
<path d="M274.567 339.043C272.128 335.75 270.909 337.458 270.909 341.116C270.909 344.775 272.738 348.799 274.201 350.872C275.665 352.945 279.323 358.189 281.031 360.384C282.738 362.579 284.201 362.457 284.201 359.165C284.201 355.872 282.86 350.384 281.152 348.067C279.445 345.75 277.006 342.336 274.567 339.043Z" fill="white"/>
<path d="M281.518 343.921C280.543 342.214 280.189 344.103 281.031 345.506C283.043 348.86 285.543 352.092 285.543 362.213C285.543 367.518 283.226 366.055 281.335 363.067C280.755 362.15 280.332 363.622 280.726 364.409C281.213 365.384 282.616 368.189 284.872 368.372C287.128 368.555 287.25 364.043 287.25 364.043L289.567 367.031C289.567 367.031 289.567 368.372 289.567 369.043C289.567 370.628 291.152 371.909 291.152 370.018C291.152 368.575 291.152 365.689 291.152 365.689C291.152 365.689 291.274 363.982 290.36 363.128C289.445 362.274 289.628 364.713 289.628 364.713C289.628 364.713 287.86 362.335 287.372 361.726C287.372 353.311 282.494 345.628 281.518 343.921Z" fill="white"/>
</g>
<mask id="mask9_2001_3895" style="mask-type:alpha" maskUnits="userSpaceOnUse" x="-174" y="156" width="531" height="475">
<path d="M-164.253 306.461C-161.105 314.668 -95.5575 472.125 -92.3317 479.691C-89.6972 485.871 -84.4533 495.383 -76.4695 500.772C-64.392 508.923 -19.5759 541.48 9.77606 562.868C35.1801 581.38 161.314 630.775 161.314 630.775L352.44 566.974C352.44 566.974 355.42 474.529 356.809 415.866C357.152 401.362 354.274 392.594 345.376 380.661C289.681 305.974 178.294 156.6 178.294 156.6L-24.5105 198.716L-173.237 200.696C-173.237 200.696 -165.794 302.443 -164.253 306.461Z" fill="white"/>
</mask>
<g mask="url(#mask9_2001_3895)">
<mask id="mask10_2001_3895" style="mask-type:luminance" maskUnits="userSpaceOnUse" x="-95" y="-166" width="958" height="815">
<path d="M-94.6074 178.798L643.695 -165.477L862.835 304.472L124.533 648.747L-94.6074 178.798Z" fill="white"/>
</mask>
<g mask="url(#mask10_2001_3895)">
<path d="M381.559 175.279C378.435 179.832 371.687 187.286 372.397 203.236C373.107 219.186 376.926 233.146 381.035 240.514C385.262 248.095 404.208 237.652 401.724 232.078C398.559 224.978 398.377 216.581 399.75 208.926C400.919 202.409 403.218 196.426 405.758 192.248C407.585 189.242 408.367 186.59 404.411 183.591C400.455 180.593 393.671 175.28 391.218 173.195C388.764 171.11 384.683 170.727 381.559 175.279Z" fill="#00C1DE"/>
<path d="M427.224 205.386C412.706 221.575 402.334 232.432 390.081 240.045C370.308 252.332 351.255 255.293 329.119 261.628C312.306 266.44 310.246 276.489 309.647 287.394C308.996 299.269 312.085 313.976 315.751 323.569C318.81 331.573 325.927 342.506 330.273 347.207C334.618 351.909 338.139 354.842 344.577 358.837C354.244 364.836 362.505 369.583 373.999 368.26C397.532 365.552 424.396 356.869 456.98 330.373C489.565 303.875 503.117 265.129 506.222 255.338C509.326 245.548 511.524 239.007 507.343 228.309C504.762 221.706 502.44 216.064 498.848 207.782C495.255 199.5 486.962 195.563 478.357 195C470.082 194.459 454.681 194.299 450.759 194.681C442.007 195.532 437.146 194.322 427.224 205.386Z" fill="#AF623C"/>
<path d="M342.144 318.126C342.925 321.408 343.395 324.271 345.566 330.659C347.737 337.046 358.192 333.786 357.413 328.364C356.634 322.942 355.543 318.925 354.257 314.093C351.932 305.355 340.04 309.285 342.144 318.126Z" stroke="#874627" stroke-width="4.878"/>
<path d="M280.399 283.288C281.468 286.403 284.884 293.152 290.575 297.567C295.906 301.702 303.283 294.787 300.185 290.269C297.088 285.75 294.154 281.7 292.01 277.183C288.132 269.014 277.449 274.693 280.399 283.288ZM342.144 318.126C342.925 321.408 343.395 324.271 345.566 330.659C347.737 337.046 358.192 333.786 357.413 328.364C356.634 322.941 355.543 318.925 354.257 314.093C351.932 305.355 340.04 309.285 342.144 318.126Z" fill="#AF623C"/>
<path d="M346.767 247.917C347.821 271.308 356.899 275.769 366.327 283.959C374.445 291.009 397.507 254.496 395.397 237.189C393.697 233.084 392.532 226.094 394.42 221.491C395.863 217.976 391.291 214.415 388.11 217.342C377.384 205.719 353.483 208.322 350.773 218.981C348.659 227.299 346.17 234.689 346.767 247.917Z" fill="#AF623C"/>
<path d="M379.615 195.849C365.081 194.01 352.58 208.036 350.625 219.53C348.671 231.024 374.618 237.253 383.406 225.754C390.366 216.649 396.608 198.001 379.615 195.849Z" fill="#AF623C"/>
<path d="M324.045 257.671L333.209 261.74L332.375 266.3L341.2 268.779L340.698 273.184L349 274.83L348.697 279.95L357.699 281.942L360.106 289.701L374.849 283.229L339.017 252.842L324.045 257.671Z" fill="#FFAC01"/>
<path d="M346.107 242.943C336.44 247.316 333.712 253.297 333.925 255.485C338.27 262.206 346.954 271.882 365.641 282.814C370.841 285.856 374.93 286.287 382.276 282.996C387.285 280.752 402.686 272.806 411.477 268.572C420.267 264.339 428.918 259.228 430.577 254.418C432.236 249.607 431.553 240.641 424.902 234.458C418.251 228.274 406.937 227.092 404.388 226.531C401.838 225.97 395.922 224.827 389.475 227.16C383.028 229.494 357.238 237.908 346.107 242.943Z" fill="#FFCA59"/>
<path d="M379.615 195.849C365.08 194.01 352.579 208.036 350.625 219.53C348.671 231.024 374.617 237.253 383.406 225.754C390.365 216.649 396.608 198.001 379.615 195.849Z" fill="#AF623C"/>
</g>
</g>
<mask id="mask11_2001_3895" style="mask-type:alpha" maskUnits="userSpaceOnUse" x="218" y="217" width="139" height="287">
<path d="M225.297 219.912C230.299 226.605 342.306 376.046 346.921 382.844C353.233 392.143 356.478 401.252 356.556 410.66C356.64 420.749 354.688 480.505 354.291 496.762C354.059 506.234 349.201 505.017 345.94 500.589C340.191 492.782 231.086 339.763 225.741 331.732C220.543 323.921 219.056 318.665 218.593 311.873C218.131 305.082 218.104 229.41 218.094 220.853C218.088 216.007 222.723 216.469 225.297 219.912Z" fill="white"/>
</mask>
<g mask="url(#mask11_2001_3895)">
<path d="M331.152 373.311C328.892 370.932 327.616 372.823 327.616 376.482C327.616 380.14 326.152 449.286 326.152 455.505C326.152 461.725 326.884 465.017 328.225 467.212C329.567 469.407 332.982 474.895 334.567 477.09C336.152 479.285 338.957 480.749 339.079 474.529C339.201 468.31 341.274 400.872 341.274 394.652C341.274 388.433 339.412 383.686 337.981 381.847C336.274 379.652 333.469 375.75 331.152 373.311Z" fill="#E5E5E5"/>
</g>
</g>
<mask id="mask12_2001_3895" style="mask-type:luminance" maskUnits="userSpaceOnUse" x="429" y="470" width="627" height="529">
<path d="M429.877 470.183H1055.72V998.959H429.877V470.183Z" fill="white"/>
</mask>
<g mask="url(#mask12_2001_3895)">
<path d="M656.952 927.957C657.07 931.52 657.306 937.956 657.381 940.031C657.509 943.574 658.778 947.74 665.702 948.95C676.053 950.76 874.204 981.775 882.906 983.091C891.609 984.406 911.52 985.056 921.104 982.629C930.689 980.202 1014.49 957.149 1022.1 955.249C1029.09 953.504 1030.11 951.465 1030.06 947.15C1030.03 944.558 1030.48 938.593 1030.59 935.154C1030.69 931.874 1032.34 927.563 1024.23 925.168C1014.13 922.187 805.19 893.64 794.861 892.888C784.532 892.136 778.038 892.13 771.039 893.181C764.04 894.232 667.304 916.933 662.251 918.456C657.197 919.978 656.814 923.823 656.952 927.957Z" fill="#090709"/>
<path d="M661.244 927.288C671.46 930.301 879.843 962.902 888.577 964.119C897.889 965.417 906.779 965.501 916.363 963.074C925.947 960.646 1020.2 936.609 1023.41 935.919C1028.93 934.731 1032.34 927.563 1024.23 925.168C1014.13 922.187 805.19 893.64 794.861 892.888C784.532 892.136 778.038 892.13 771.039 893.181C764.04 894.232 667.304 916.933 662.251 918.456C657.197 919.978 656.767 925.968 661.244 927.288Z" fill="#2B7EB4"/>
<path d="M673.933 925.163C682.304 927.844 878.284 957.712 886.358 958.763C897.4 960.2 906.862 959.447 915.697 957.209C924.533 954.972 996.579 937.374 1013.11 933.614C1018.87 932.304 1020.98 928.955 1013.28 927.721C1001.21 925.789 808.532 898.716 798.325 897.619C788.833 896.599 780.241 896.923 773.822 898.093C765.728 899.569 682.886 918.495 675.999 920.168C671.272 921.317 669.835 923.851 673.933 925.163Z" fill="white"/>
<mask id="mask13_2001_3895" style="mask-type:alpha" maskUnits="userSpaceOnUse" x="656" y="919" width="269" height="66">
<path d="M656.952 927.957C656.952 931.522 657.306 937.956 657.381 940.031C657.509 943.574 658.777 947.74 665.702 948.95C676.053 950.76 874.204 981.775 882.906 983.091C891.609 984.406 911.52 985.056 921.104 982.629C930.689 980.202 914.737 964.306 903.568 964.883C895.482 965.301 890.726 964.691 884.694 963.736C878.662 962.781 681.632 930.674 666.871 928.264C654.326 926.216 659.143 920.667 660.211 919.368C656.399 920.911 656.952 924.996 656.952 927.957Z" fill="#090709"/>
</mask>
<g mask="url(#mask13_2001_3895)">
<path d="M644.509 890.667L648.899 955.545L895.726 992.373V951.398L890.117 944.569V989.447L870.361 985.056V942.374L644.509 890.667Z" fill="#1D2F5D"/>
</g>
<path d="M456.388 734.652C454.633 732.498 448.645 725.014 447.45 723.324C445.109 720.015 442.904 716.254 444.959 710.764C448.641 700.932 521.828 512.012 524.961 503.359C532.069 483.731 537.315 481.647 554.352 481.563C570.863 481.482 628.435 482.001 646.659 482.001C657.314 482.001 659.725 485.443 662.333 488.862C665.851 493.476 668.29 496.891 671.163 500.942C673.056 503.61 676.094 505.183 673.54 512.38C670.022 522.29 594.032 715.071 590.125 725.736C586.217 736.4 577.317 740.984 567.821 741.064C558.326 741.143 470.506 739.797 465.256 739.499C460.007 739.201 457.529 736.052 456.388 734.652Z" fill="#231D24"/>
<path d="M459.335 724.399C462.843 715.111 535.383 527.468 538.51 519.12C541.218 511.89 547.313 500.741 561.193 500.765C577.071 500.793 655.79 501.038 659.057 501.038C667.68 501.037 674.631 504.817 673.54 512.38C670.216 522.357 594.032 715.071 590.125 725.736C586.217 736.4 577.621 741.16 568.125 741.239C558.63 741.319 470.506 739.797 465.256 739.499C460.007 739.201 456.828 731.034 459.335 724.399Z" fill="#2B6087"/>
<path d="M466.257 720.841C469.167 713.009 540.12 530.305 543.234 522.985C547.634 512.643 556.401 509.162 565.81 509.209C575.899 509.26 636.461 509.573 653.144 509.154C660.489 508.969 668.29 512.134 664.067 523.736C660.752 532.846 590.608 710.791 586.608 720.545C583.098 729.105 575.608 733.961 564.705 733.77C557.899 733.65 481.267 732.794 472.711 732.691C467.865 732.632 464.145 726.522 466.257 720.841Z" fill="white"/>
<mask id="mask14_2001_3895" style="mask-type:alpha" maskUnits="userSpaceOnUse" x="465" y="509" width="201" height="225">
<path d="M466.257 720.841C469.167 713.009 540.12 530.305 543.234 522.985C547.634 512.643 556.401 509.162 565.81 509.209C575.899 509.26 636.461 509.573 653.144 509.154C660.489 508.969 668.29 512.134 664.067 523.736C660.752 532.846 590.608 710.791 586.608 720.545C583.098 729.105 575.608 733.961 564.705 733.77C557.899 733.65 481.267 732.794 472.711 732.691C467.865 732.632 464.145 726.522 466.257 720.841Z" fill="white"/>
</mask>
<g mask="url(#mask14_2001_3895)">
<path d="M539.145 505.305L453.536 731.644L479.633 735.547C479.633 735.547 495.243 692.62 497.194 687.011C499.145 681.401 504.755 679.694 508.657 685.059C512.559 690.425 551.583 746.278 551.583 746.278L593.29 743.351L681.582 506.281L539.145 505.305Z" fill="#C4F3FF"/>
</g>
<mask id="mask15_2001_3895" style="mask-type:alpha" maskUnits="userSpaceOnUse" x="671" y="897" width="348" height="63">
<path d="M673.933 925.163C682.304 927.844 878.284 957.712 886.358 958.763C897.4 960.2 906.862 959.447 915.697 957.209C924.533 954.972 996.579 937.374 1013.11 933.614C1018.87 932.304 1020.98 928.955 1013.28 927.721C1001.21 925.789 808.532 898.716 798.325 897.619C788.833 896.599 780.241 896.923 773.822 898.093C765.728 899.569 682.886 918.495 675.999 920.168C671.272 921.317 669.835 923.851 673.933 925.163Z" fill="white"/>
</mask>
<g mask="url(#mask15_2001_3895)">
<path d="M783.898 908.716L775.972 908.777L776.825 910.118L784.935 909.996L783.898 908.716Z" fill="#FEDC28"/>
<path d="M827.252 910.606L823.532 910.667L824.386 911.642L828.471 911.581L827.252 910.606Z" fill="#FED101"/>
<path d="M770.728 929.02C769.935 928.959 764.325 928.776 763.837 929.203C763.35 929.63 764.203 930.179 764.874 930.24C765.72 930.317 768.898 930.484 771.276 930.301C773.654 930.118 771.52 929.081 770.728 929.02Z" fill="#FED101"/>
<path d="M795.118 917.13C793.471 917.13 779.386 917.313 777.618 917.313C775.85 917.313 774.63 917.557 775.484 918.716C776.156 919.629 777.374 921.703 778.472 921.642C780.059 921.554 783.837 920.911 784.447 920.789C785.057 920.667 792.314 921.879 793.532 922.069C795.484 922.374 804.691 920.057 802.74 919.813C800.788 919.569 795.545 918.716 795.545 918.716C795.545 918.716 799.325 917.74 798.654 917.496C797.984 917.252 796.764 917.13 795.118 917.13Z" fill="#FED101"/>
<path d="M782.374 912.313C779.935 912.435 780.057 913.533 782.618 913.472C785.179 913.411 819.568 913.35 821.154 919.203C822.339 923.578 800.3 924.874 798.532 924.935C796.764 924.996 797.556 926.337 799.752 926.276C801.581 926.226 829.69 923.898 827.495 919.142C824.316 912.254 784.813 912.191 782.374 912.313Z" fill="#FED101"/>
<path d="M776.886 912.679C768.533 912.679 746.739 914.92 748.228 919.386C750.606 926.52 790.118 926.581 792.496 926.52C794.874 926.459 793.106 925.24 791.154 925.24C789.203 925.24 755.484 925.423 754.021 919.264C753.097 915.378 771.947 913.838 777.374 913.716C779.511 913.668 778.777 912.679 776.886 912.679Z" fill="#1EB0F8"/>
<path d="M778.472 918.594C777.13 918.411 778.045 919.63 778.411 920.057C778.776 920.484 779.081 920.972 779.874 920.667C780.667 920.362 783.35 919.569 782.801 919.325C782.252 919.081 779.645 918.754 778.472 918.594Z" fill="#FFE877"/>
</g>
<mask id="mask16_2001_3895" style="mask-type:alpha" maskUnits="userSpaceOnUse" x="465" y="509" width="201" height="225">
<path d="M466.257 720.841C469.167 713.009 540.12 530.305 543.234 522.985C547.634 512.643 556.401 509.162 565.81 509.209C575.899 509.26 636.461 509.573 653.144 509.154C660.489 508.969 668.29 512.134 664.067 523.736C660.752 532.846 590.608 710.791 586.608 720.545C583.098 729.105 575.608 733.961 564.705 733.77C557.899 733.65 481.267 732.794 472.711 732.691C467.865 732.632 464.145 726.522 466.257 720.841Z" fill="white"/>
</mask>
<g mask="url(#mask16_2001_3895)">
<mask id="mask17_2001_3895" style="mask-type:luminance" maskUnits="userSpaceOnUse" x="429" y="470" width="627" height="529">
<path d="M429.877 470.183H1055.72V998.959H429.877V470.183Z" fill="white"/>
</mask>
<g mask="url(#mask17_2001_3895)">
<path d="M604.754 626.523C599.51 626.523 582.437 626.523 574.754 626.523C567.071 626.523 563.169 631.767 561.218 636.645C559.182 641.734 551.706 660.791 549.145 666.767C546.584 672.742 547.559 678.718 553.779 678.718C559.266 678.718 580.73 678.718 585.852 678.718C591.461 678.718 596.461 673.23 598.168 668.962C599.876 664.694 609.388 640.791 611.095 636.279C612.802 631.767 611.583 626.523 604.754 626.523Z" stroke="#66E1FF" stroke-width="2.439"/>
<path d="M584.571 638.292C583.042 639.566 577.254 644.084 577.254 644.084C577.254 644.084 576.644 643.657 575.303 642.194C573.961 640.731 571.888 641.279 570.974 643.23C570.29 644.688 567.498 650.365 564.998 655.852C562.498 661.34 560.852 671.828 572.315 671.828C582.864 671.828 594.144 661.157 591.4 649.145C590.569 645.508 589.51 642.133 588.839 639.389C588.22 636.856 586.766 636.462 584.571 638.292Z" fill="#66E1FF"/>
<path d="M627.803 568.109C622.559 568.109 605.486 568.109 597.803 568.109C590.12 568.109 586.218 573.353 584.266 578.231C582.231 583.32 574.754 602.377 572.193 608.353C569.632 614.328 570.608 620.304 576.828 620.304C582.315 620.304 603.778 620.304 608.9 620.304C614.51 620.304 619.51 614.816 621.217 610.548C622.925 606.28 632.437 582.377 634.144 577.865C635.851 573.353 634.632 568.109 627.803 568.109Z" stroke="#66E1FF" stroke-width="2.439"/>
<path d="M622.315 573.231C614.266 575.792 611.461 579.694 609.876 582.499C613.047 583.109 620.851 580.914 622.315 573.231Z" fill="#66E1FF"/>
<path d="M608.9 578.658C605.913 578.658 605.242 586.402 605.242 586.402C605.242 586.402 604.205 582.926 599.327 582.926C594.449 582.926 586.888 586.768 586.157 595.365C585.433 603.871 585.852 611.097 591.888 611.097C594.632 611.097 594.964 610.304 596.462 610.304C597.822 610.304 597.315 611.097 600.12 611.097C606.583 611.097 611.827 603.78 618.108 596.036C624.388 588.292 620.059 583.353 615.486 582.926C610.913 582.499 606.766 586.219 606.766 586.219C606.766 586.219 611.888 578.658 608.9 578.658Z" fill="#66E1FF"/>
<path d="M579.51 692.986C570.608 692.986 505.487 692.498 493.292 692.498C480.487 692.498 472.194 713.23 485.487 713.23C491.584 713.23 557.559 714.205 570.974 714.205C583.169 714.205 592.681 692.986 579.51 692.986Z" fill="#66E1FF"/>
</g>
</g>
<mask id="mask18_2001_3895" style="mask-type:alpha" maskUnits="userSpaceOnUse" x="465" y="509" width="201" height="225">
<path d="M466.257 720.841C469.167 713.009 540.12 530.305 543.234 522.985C547.634 512.643 556.401 509.162 565.81 509.209C575.899 509.26 636.461 509.573 653.144 509.154C660.489 508.969 668.29 512.134 664.067 523.736C660.752 532.846 590.608 710.791 586.608 720.545C583.098 729.105 575.608 733.961 564.705 733.77C557.899 733.65 481.267 732.794 472.711 732.691C467.865 732.632 464.145 726.522 466.257 720.841Z" fill="white"/>
</mask>
<g mask="url(#mask18_2001_3895)">
<mask id="mask19_2001_3895" style="mask-type:luminance" maskUnits="userSpaceOnUse" x="429" y="470" width="627" height="529">
<path d="M429.877 470.183H1055.72V998.959H429.877V470.183Z" fill="white"/>
</mask>
<g mask="url(#mask19_2001_3895)">
<mask id="mask20_2001_3895" style="mask-type:alpha" maskUnits="userSpaceOnUse" x="453" y="505" width="229" height="242">
<path d="M539.145 505.305L453.536 731.644L479.633 735.547C479.633 735.547 495.243 692.62 497.194 687.011C499.145 681.401 504.755 679.694 508.657 685.059C512.559 690.425 551.583 746.278 551.583 746.278L593.29 743.351L681.582 506.281L539.145 505.305Z" fill="#C4F3FF"/>
</mask>
<g mask="url(#mask20_2001_3895)">
<path d="M579.51 692.986C570.608 692.986 505.487 692.498 493.292 692.498C480.487 692.498 472.194 713.23 485.487 713.23C491.584 713.23 557.559 714.205 570.974 714.205C583.169 714.205 592.681 692.986 579.51 692.986Z" fill="#E5E5E5"/>
</g>
</g>
</g>
<mask id="mask21_2001_3895" style="mask-type:alpha" maskUnits="userSpaceOnUse" x="466" y="509" width="548" height="451">
<path d="M466.256 720.841C469.167 713.009 540.12 530.305 543.234 522.985C547.634 512.643 556.401 509.162 565.81 509.209C575.899 509.26 636.461 509.573 653.143 509.154C660.489 508.969 1002.55 534.573 1013.33 933.488C1003.29 936.032 936.912 952.001 922.214 955.909C905.238 960.422 891.58 960.179 876.165 957.67C869.446 956.576 689.875 928.228 674.416 925.615C669.638 924.808 464.145 726.522 466.256 720.841Z" fill="white"/>
</mask>
<g mask="url(#mask21_2001_3895)">
<mask id="mask22_2001_3895" style="mask-type:luminance" maskUnits="userSpaceOnUse" x="615" y="837" width="645" height="552">
<path d="M633.83 837.9L1259.3 859.742L1240.84 1388.2L615.376 1366.35L633.83 837.9Z" fill="white"/>
</mask>
<g mask="url(#mask22_2001_3895)">
<path d="M869.078 965.484C867.95 968.466 867.578 972.114 867.953 976.251" stroke="#FF8E00" stroke-width="11.7072" stroke-linecap="round" stroke-linejoin="round"/>
</g>
</g>
<mask id="mask23_2001_3895" style="mask-type:alpha" maskUnits="userSpaceOnUse" x="465" y="509" width="201" height="225">
<path d="M466.257 720.841C469.167 713.009 540.12 530.305 543.234 522.985C547.634 512.643 556.401 509.162 565.81 509.209C575.899 509.26 636.461 509.573 653.144 509.154C660.489 508.969 668.29 512.134 664.067 523.736C660.752 532.846 590.608 710.791 586.608 720.545C583.098 729.105 575.608 733.961 564.705 733.77C557.899 733.65 481.267 732.794 472.711 732.691C467.865 732.632 464.145 726.522 466.257 720.841Z" fill="white"/>
</mask>
<g mask="url(#mask23_2001_3895)">
<mask id="mask24_2001_3895" style="mask-type:luminance" maskUnits="userSpaceOnUse" x="429" y="470" width="627" height="529">
<path d="M429.877 470.183H1055.72V998.959H429.877V470.183Z" fill="white"/>
</mask>
<g mask="url(#mask24_2001_3895)">
<path d="M549.389 626.523C544.145 626.523 527.072 626.523 519.389 626.523C511.706 626.523 507.804 631.767 505.852 636.645C503.817 641.734 496.34 660.791 493.779 666.767C491.218 672.742 492.194 678.718 498.413 678.718C503.901 678.718 525.364 678.718 530.486 678.718C536.096 678.718 541.096 673.23 542.803 668.962C544.511 664.694 554.023 640.791 555.73 636.279C557.437 631.767 556.218 626.523 549.389 626.523Z" fill="#C4F3FF"/>
<path d="M549.389 626.523C544.145 626.523 527.072 626.523 519.389 626.523C511.706 626.523 507.804 631.767 505.852 636.645C503.817 641.734 496.34 660.791 493.779 666.767C491.218 672.742 492.194 678.718 498.413 678.718C503.901 678.718 525.364 678.718 530.486 678.718C536.096 678.718 541.096 673.23 542.803 668.962C544.511 664.694 554.023 640.791 555.73 636.279C557.437 631.767 556.218 626.523 549.389 626.523Z" stroke="#66E1FF" stroke-width="2.439"/>
<path d="M531.706 636.34C523.657 636.34 516.34 641.34 511.523 649.572C507.275 656.83 508.413 667.455 517.804 667.455C528.535 667.455 535.773 660.081 539.449 652.804C542.437 646.889 540.974 636.34 531.706 636.34Z" fill="#66E1FF"/>
<path d="M572.437 568.109C567.194 568.109 550.121 568.109 542.438 568.109C534.755 568.109 530.852 573.353 528.901 578.231C526.866 583.32 519.389 602.377 516.828 608.353C514.267 614.328 515.243 620.304 521.462 620.304C526.95 620.304 548.413 620.304 553.535 620.304C559.145 620.304 564.145 614.816 565.852 610.548C567.559 606.28 577.071 582.377 578.779 577.865C580.486 573.353 579.267 568.109 572.437 568.109Z" fill="#C4F3FF"/>
<path d="M572.437 568.109C567.194 568.109 550.121 568.109 542.438 568.109C534.755 568.109 530.852 573.353 528.901 578.231C526.866 583.32 519.389 602.377 516.828 608.353C514.267 614.328 515.243 620.304 521.462 620.304C526.95 620.304 548.413 620.304 553.535 620.304C559.145 620.304 564.145 614.816 565.852 610.548C567.559 606.28 577.071 582.377 578.779 577.865C580.486 573.353 579.267 568.109 572.437 568.109Z" stroke="#66E1FF" stroke-width="2.439"/>
<path d="M566.096 581.402C565.777 581.402 564.929 581.402 563.718 581.402C565.669 573.963 557.133 574.268 554.023 578.17C552.987 573.414 544.877 574.39 541.828 581.402C540.291 581.402 539.19 581.402 538.779 581.402C536.523 581.402 536.279 582.134 535.67 583.414C535.06 584.694 533.17 589.146 532.743 590.365C532.316 591.585 531.889 593.109 534.694 593.109C533.596 595.609 529.328 606.584 528.718 608.17C528.109 609.755 528.658 611.28 530.121 611.28C531.584 611.28 548.779 611.28 551.035 611.28C553.291 611.28 554.511 611.158 555.608 608.353C556.706 605.548 560.974 593.475 560.974 593.475C560.974 593.475 563.565 594.011 564.816 590.975C565.669 588.902 566.637 586.807 567.133 585.365C567.803 583.414 568.108 581.402 566.096 581.402Z" fill="#66E1FF"/>
<path d="M641.834 528.944C637.635 528.944 567.408 529.085 561.656 529.085C555.617 529.085 551.706 538.864 557.975 538.864C560.851 538.864 631.48 538.952 637.808 538.952C643.56 538.952 648.046 528.944 641.834 528.944Z" fill="#66E1FF"/>
</g>
</g>
<mask id="mask25_2001_3895" style="mask-type:alpha" maskUnits="userSpaceOnUse" x="671" y="897" width="348" height="63">
<path d="M673.933 925.163C682.304 927.844 878.284 957.712 886.358 958.763C897.4 960.2 906.862 959.447 915.697 957.209C924.533 954.972 996.579 937.374 1013.11 933.614C1018.87 932.304 1020.98 928.955 1013.28 927.721C1001.21 925.789 808.532 898.716 798.325 897.619C788.833 896.599 780.241 896.923 773.822 898.093C765.728 899.569 682.886 918.495 675.999 920.168C671.272 921.317 669.835 923.851 673.933 925.163Z" fill="white"/>
</mask>
<g mask="url(#mask25_2001_3895)">
<path d="M958.287 923.106C953.896 922.618 950.97 922.13 944.628 923.594C938.287 925.057 865.49 943.266 853.532 945.545C848.41 946.52 849.995 947.374 852.556 947.862C855.117 948.349 865.239 949.935 871.702 950.91C878.165 951.886 881.824 951.276 888.287 949.935C894.751 948.593 974.506 928.715 979.018 927.862C983.53 927.008 981.457 926.276 978.53 925.911C975.604 925.545 962.677 923.594 958.287 923.106Z" fill="#00ABFD"/>
</g>
</g>
<mask id="mask26_2001_3895" style="mask-type:luminance" maskUnits="userSpaceOnUse" x="1012" y="507" width="672" height="393">
<path d="M1012.55 507.744H1683.77V899.935H1012.55V507.744Z" fill="white"/>
</mask>
<g mask="url(#mask26_2001_3895)">
<path d="M1485.4 523.653C1490.48 524.329 1495.67 525.208 1499.14 526.087C1503.28 527.134 1507.92 529.207 1512.62 533.635C1520.26 540.834 1654.99 661.957 1661.96 667.957C1674.62 678.84 1673.16 687.986 1667.54 696.129C1658.15 709.716 1631.08 751.034 1620.5 766.788C1614.55 775.631 1611.82 776.644 1607.32 777.854C1601.72 779.363 1600.35 779.936 1597.11 780.481C1593.88 781.022 1588.22 783.397 1581.95 779.046C1573.3 773.054 1436.47 637.428 1428.93 628.931C1421.4 620.433 1422.57 611.458 1426.67 602.893C1430.77 594.328 1470.31 531.88 1472.89 527.295C1475.46 522.71 1483.61 523.414 1485.4 523.653Z" fill="#242F62"/>
<path d="M1493.32 529.34C1501.82 536.402 1638.37 663.237 1644.9 669.302C1652.55 676.401 1657.63 684.982 1648.62 698.84C1639.74 712.498 1605.23 765.424 1600.14 773.099C1595.88 779.525 1588.96 782.081 1581.95 779.046C1573.19 773.224 1436.47 637.428 1428.93 628.931C1421.4 620.433 1422.28 611.654 1426.38 603.089C1430.48 594.524 1470.31 531.88 1472.89 527.295C1475.46 522.71 1484.82 522.278 1493.32 529.34Z" fill="#026CB2"/>
<path d="M1423.49 612.058C1423.92 609.056 1424.96 606.06 1426.38 603.089C1430.48 594.524 1470.31 531.88 1472.89 527.295C1474.69 524.077 1479.84 522.904 1485.69 524.933C1486.33 527.744 1489.35 540.114 1489.35 540.114L1431.44 612.491C1431.44 612.491 1426.21 612.255 1423.49 612.058Z" fill="#252F62"/>
<path d="M1489.82 533.463C1496.04 539.034 1635.06 666.367 1640.45 672.214C1649.38 681.889 1647.86 689.294 1641.81 697.937C1635.72 706.644 1602.43 754.815 1593.01 768.124C1588.77 774.122 1583.44 775.544 1574.87 766.654C1568.14 759.674 1441.17 634.71 1434.17 626.832C1428.02 619.919 1426.95 614.471 1431.91 604.761C1435 598.699 1471.45 541.158 1476.58 533.202C1479.21 529.129 1484.38 528.597 1489.82 533.463Z" fill="white"/>
<path d="M1199.82 888.254C1197.12 888.897 1190.36 890.298 1186.2 891.384C1181.94 892.496 1174.68 891.237 1170.66 886.967C1163.47 879.316 1043.16 735.912 1031.11 722.032C1019.07 708.165 1022.8 700.791 1026.39 689.692C1031.47 673.983 1046.58 624.206 1051.26 608.679C1053.9 599.938 1058.29 599.816 1063.49 598.875C1069.2 597.843 1073.33 597.082 1078.23 596.296C1081.46 595.778 1084.51 593.353 1089.99 599.91C1096.74 607.976 1212.79 758.371 1219.5 767.532C1226.22 776.693 1225.97 780.079 1224.42 789.447C1222.87 798.815 1211.78 878.354 1209.19 882.931C1206.6 887.508 1203.53 887.374 1199.82 888.254Z" fill="#304974"/>
<path d="M1096.47 799.434C1096.47 799.434 1036.75 728.528 1031.11 722.032C1019.07 708.165 1022.8 700.791 1026.39 689.692C1031.47 673.983 1046.58 624.206 1051.26 608.679C1053.9 599.938 1058.29 599.816 1063.49 598.875C1069.2 597.843 1073.33 597.082 1078.23 596.296C1081.46 595.778 1084.51 593.353 1089.99 599.91C1096.74 607.976 1128.79 798.018 1128.79 798.018L1096.47 799.434Z" fill="#231D24"/>
<path d="M1194.13 881.2C1187.4 873.901 1064.02 725.425 1057.09 716.606C1050.06 707.651 1048.9 699.571 1052 689.365C1056.63 674.174 1075.57 609.212 1077.48 601.831C1079.38 594.45 1084.63 593.841 1089.99 599.91C1096.85 607.88 1212.79 758.371 1219.5 767.532C1226.22 776.693 1226.2 779.81 1224.65 789.178C1223.1 798.546 1211.78 878.354 1209.19 882.931C1206.6 887.507 1199.26 886.765 1194.13 881.2Z" fill="#598EC0"/>
<path d="M1124.75 798.35C1124.75 798.35 1060.52 720.974 1057.09 716.606C1050.06 707.651 1048.9 699.571 1052 689.365C1056.63 674.174 1075.57 609.212 1077.48 601.831C1079.38 594.45 1084.63 593.841 1089.99 599.91C1096.85 607.88 1212.79 758.371 1219.5 767.532C1220.86 769.378 1221.94 770.978 1222.78 772.433C1221.75 772.631 1216.06 773.446 1216.06 773.446L1140.92 797.742L1124.75 798.35Z" fill="#2F4A75"/>
<path d="M1192.41 871.589C1186.87 865.338 1067.68 722.864 1061.92 715.541C1054.97 706.706 1054.87 697.132 1056.62 690.786C1059.3 681.059 1075.72 622.133 1080.19 606.943C1082.26 599.894 1087.92 601.767 1091.63 606.642C1095.35 611.518 1207.19 757.01 1213.9 766.074C1219.88 774.143 1219.99 779.397 1218.69 790.223C1217.87 796.981 1206.88 862.287 1204.67 873.112C1203.28 879.935 1199.38 879.448 1192.41 871.589Z" fill="white"/>
<path d="M1063.53 737.864C1057.8 732.01 1049.99 738.107 1054.99 744.205C1058 747.878 1072.47 763.318 1075.48 766.4C1081.09 772.132 1088.16 764.327 1084.02 759.937C1080.64 756.362 1066.79 741.191 1063.53 737.864Z" fill="#283C60"/>
<path d="M1058.9 605.792C1050.24 609.572 1058.65 615.792 1058.65 615.792C1058.65 615.792 1057.55 611.28 1061.94 609.45C1066.33 607.621 1069.63 611.158 1069.63 611.158C1069.63 611.158 1070.12 600.889 1058.9 605.792Z" fill="#332E3B"/>
<mask id="mask27_2001_3895" style="mask-type:alpha" maskUnits="userSpaceOnUse" x="1055" y="602" width="165" height="276">
<path d="M1192.41 871.589C1186.87 865.338 1067.68 722.864 1061.92 715.541C1054.97 706.706 1054.87 697.132 1056.62 690.786C1059.3 681.059 1075.72 622.133 1080.19 606.944C1082.26 599.894 1087.92 601.767 1091.63 606.643C1095.35 611.518 1207.19 757.01 1213.9 766.074C1219.88 774.143 1219.99 779.397 1218.69 790.223C1217.87 796.981 1206.88 862.287 1204.67 873.113C1203.28 879.935 1199.38 879.448 1192.41 871.589Z" fill="white"/>
</mask>
<g mask="url(#mask27_2001_3895)">
<path d="M1080.85 586.768L1038.9 708.23L1129.14 799.448L1224.75 771.156L1080.85 586.768Z" fill="#9DEBFF"/>
</g>
<mask id="mask28_2001_3895" style="mask-type:alpha" maskUnits="userSpaceOnUse" x="1055" y="602" width="165" height="276">
<path d="M1192.41 871.589C1186.87 865.338 1067.68 722.864 1061.92 715.541C1054.97 706.706 1054.87 697.132 1056.62 690.786C1059.3 681.059 1075.72 622.133 1080.19 606.944C1082.26 599.894 1087.92 601.767 1091.63 606.643C1095.35 611.518 1207.19 757.01 1213.9 766.074C1219.88 774.143 1219.99 779.397 1218.69 790.223C1217.87 796.981 1206.88 862.287 1204.67 873.113C1203.28 879.935 1199.38 879.448 1192.41 871.589Z" fill="white"/>
</mask>
<g mask="url(#mask28_2001_3895)">
<path d="M1200.72 759.815C1199 757.656 1196.7 757.985 1196.09 761.888C1195.48 765.79 1182.43 834.692 1181.58 840.058C1180.72 845.424 1182.67 848.838 1183.77 850.545C1184.87 852.253 1186.46 853.96 1189.26 857.497C1192.07 861.033 1193.77 857.131 1194.26 854.448C1194.75 851.765 1207.06 782.741 1207.92 776.888C1208.67 771.75 1207.19 768.229 1206.09 766.766C1204.99 765.302 1202.67 762.254 1200.72 759.815Z" fill="#E5E5E5"/>
<path d="M1155.97 702.376C1154.24 700.217 1151.82 700.547 1151.21 704.449C1150.6 708.352 1134.99 776.4 1134.14 781.766C1133.29 787.131 1134.87 790.18 1135.97 791.888C1137.07 793.595 1140.72 797.741 1143.89 801.278C1146.91 804.639 1148.41 800.912 1148.89 798.229C1149.38 795.546 1164.14 727.498 1164.99 721.644C1165.74 716.506 1164.26 712.986 1163.16 711.522C1162.07 710.059 1157.92 704.815 1155.97 702.376Z" stroke="#E5E5E5" stroke-width="2.439"/>
</g>
<mask id="mask29_2001_3895" style="mask-type:alpha" maskUnits="userSpaceOnUse" x="1131" y="773" width="89" height="105">
<path d="M1192.41 871.589C1189.76 868.597 1131.27 798.774 1131.27 798.774C1131.27 798.774 1215.24 773.961 1217.94 773.1C1219.81 777.991 1219.58 782.795 1218.69 790.223C1217.87 796.981 1206.88 862.287 1204.67 873.113C1203.28 879.935 1199.38 879.448 1192.41 871.589Z" fill="white"/>
</mask>
<g mask="url(#mask29_2001_3895)">
<mask id="mask30_2001_3895" style="mask-type:luminance" maskUnits="userSpaceOnUse" x="1012" y="507" width="672" height="393">
<path d="M1012.55 507.744H1683.77V899.935H1012.55V507.744Z" fill="white"/>
</mask>
<g mask="url(#mask30_2001_3895)">
<mask id="mask31_2001_3895" style="mask-type:alpha" maskUnits="userSpaceOnUse" x="1055" y="602" width="165" height="276">
<path d="M1192.41 871.589C1186.87 865.338 1067.68 722.864 1061.92 715.541C1054.97 706.706 1054.87 697.132 1056.62 690.786C1059.3 681.059 1075.72 622.133 1080.19 606.944C1082.26 599.894 1087.92 601.767 1091.63 606.643C1095.35 611.518 1207.19 757.01 1213.9 766.074C1219.88 774.143 1219.99 779.397 1218.69 790.223C1217.87 796.981 1206.88 862.287 1204.67 873.113C1203.28 879.935 1199.38 879.448 1192.41 871.589Z" fill="white"/>
</mask>
<g mask="url(#mask31_2001_3895)">
<path d="M1200.72 759.815C1199 757.656 1196.7 757.985 1196.09 761.888C1195.48 765.79 1182.43 834.692 1181.58 840.058C1180.72 845.424 1182.67 848.838 1183.77 850.545C1184.87 852.253 1186.46 853.96 1189.26 857.497C1192.07 861.033 1193.77 857.131 1194.26 854.448C1194.75 851.765 1207.06 782.741 1207.92 776.888C1208.67 771.75 1207.19 768.229 1206.09 766.766C1204.99 765.302 1202.67 762.254 1200.72 759.815Z" fill="#3DBCF8"/>
<path d="M1155.97 702.376C1154.24 700.217 1151.82 700.547 1151.21 704.449C1150.6 708.352 1134.99 776.4 1134.14 781.766C1133.29 787.131 1134.87 790.18 1135.97 791.888C1137.07 793.595 1140.72 797.741 1143.89 801.278C1146.91 804.639 1148.41 800.912 1148.89 798.229C1149.38 795.546 1164.14 727.498 1164.99 721.644C1165.74 716.506 1164.26 712.986 1163.16 711.522C1162.07 710.059 1157.92 704.815 1155.97 702.376Z" stroke="#3DBCF8" stroke-width="2.439"/>
</g>
</g>
</g>
<mask id="mask32_2001_3895" style="mask-type:alpha" maskUnits="userSpaceOnUse" x="1055" y="602" width="165" height="276">
<path d="M1192.41 871.589C1186.87 865.338 1067.68 722.864 1061.92 715.541C1054.97 706.706 1054.87 697.132 1056.62 690.786C1059.3 681.059 1075.72 622.133 1080.19 606.944C1082.26 599.894 1087.92 601.767 1091.63 606.643C1095.35 611.518 1207.19 757.01 1213.9 766.074C1219.88 774.143 1219.99 779.397 1218.69 790.223C1217.87 796.981 1206.88 862.287 1204.67 873.113C1203.28 879.935 1199.38 879.448 1192.41 871.589Z" fill="white"/>
</mask>
<g mask="url(#mask32_2001_3895)">
<path d="M1138.41 679.815C1136.68 677.656 1134.26 677.986 1133.65 681.889C1133.04 685.791 1116.46 753.595 1115.6 758.961C1114.75 764.327 1116.33 767.376 1117.43 769.083C1118.53 770.79 1122.19 774.936 1125.36 778.473C1128.37 781.834 1129.87 778.107 1130.36 775.424C1130.85 772.741 1146.58 704.937 1147.43 699.084C1148.18 693.946 1146.7 690.425 1145.6 688.962C1144.5 687.498 1140.36 682.254 1138.41 679.815Z" fill="#3DBCF8"/>
<path d="M1096.57 633.864C1095.81 632.892 1094.73 633.024 1094.44 634.759C1094.14 636.493 1076.46 703.063 1076.05 705.448C1075.64 707.833 1076.32 709.201 1076.8 709.968C1077.28 710.736 1078.89 712.605 1080.28 714.2C1081.6 715.716 1082.29 714.065 1082.52 712.873C1082.76 711.681 1100.06 645.106 1100.47 642.503C1100.84 640.219 1100.2 638.641 1099.72 637.983C1099.24 637.324 1097.42 634.963 1096.57 633.864Z" fill="#3DBCF8"/>
<path d="M1117.9 708.58C1117.51 708.092 1116.97 708.166 1116.83 709.049C1116.69 709.931 1106.6 751.241 1106.41 752.455C1106.21 753.668 1106.57 754.358 1106.82 754.744C1107.07 755.13 1107.89 756.068 1108.61 756.868C1109.29 757.628 1109.63 756.785 1109.74 756.178C1109.85 755.571 1119.75 714.262 1119.95 712.938C1120.11 711.776 1119.78 710.98 1119.53 710.649C1119.28 710.318 1118.35 709.132 1117.9 708.58Z" fill="#3DBCF8"/>
</g>
</g>
</g>
</g>
</g>
<defs>
<linearGradient id="paint0_linear_2001_3895" x1="141.645" y1="565.66" x2="134.619" y2="590.671" gradientUnits="userSpaceOnUse">
<stop stop-color="#FFC600"/>
<stop offset="0.5" stop-color="#F69B0A"/>
<stop offset="1" stop-color="#ED7014"/>
</linearGradient>
<radialGradient id="paint1_radial_2001_3895" cx="0" cy="0" r="1" gradientUnits="userSpaceOnUse" gradientTransform="translate(116.135 575.699) scale(24.0815)">
<stop stop-color="#FDC700"/>
<stop offset="0.5" stop-color="#F59C0A"/>
<stop offset="1" stop-color="#ED7014"/>
</radialGradient>
<clipPath id="clip0_2001_3895">
<rect width="2000" height="1121.94" fill="white" transform="translate(-219.15 0.919922)"/>
</clipPath>
<clipPath id="clip1_2001_3895">
<rect width="2000" height="1121.94" fill="white" transform="translate(-219.15 0.919922)"/>
</clipPath>
<clipPath id="clip2_2001_3895">
<rect width="1999.98" height="1121.94" fill="white" transform="translate(-219.141 0.919922)"/>
</clipPath>
<clipPath id="clip3_2001_3895">
<rect width="2000" height="1121.94" fill="white" transform="translate(-219.15 0.919922)"/>
</clipPath>
</defs>
</svg>
